<svg width="1080" height="150" viewBox="0 0 1080 150" fill="none" xmlns="http://www.w3.org/2000/svg">
<g clip-path="url(#clip0_754_90)">
<rect width="150" height="1080" transform="translate(1080) rotate(90)" fill="#DD8964"/>
<path d="M121.503 94.446C9.13466 106.97 -331.702 47.2943 -395 45.3848C-110.788 -36.5323 647.944 -333.86 1026.06 -364.201C1404.18 -394.541 1609.07 -202.901 1691.87 -98.4491C1751.14 -23.6658 1740.14 25.4803 1561.32 36.136C1411.45 45.0664 1307.86 -10.9742 1186.08 -4.98039C1064.31 1.01338 1077.42 73.7469 913.571 79.1985C749.724 84.6502 525.265 19.2282 366.851 22.2777C208.438 25.3272 233.871 81.9219 121.503 94.446Z" fill="#A3BD9B"/>
<path d="M187.066 83.4013C74.6981 95.9255 -235.125 40.2806 -298.423 38.3711C-14.2113 -43.546 744.521 -340.874 1122.64 -371.214C1500.75 -401.555 1674.64 -213.945 1757.43 -109.494C1816.7 -34.7105 1805.7 14.4355 1626.88 25.0913C1477.01 34.0217 1373.42 -22.0189 1251.65 -16.0251C1129.87 -10.0313 1142.98 62.7022 979.134 68.1538C815.288 73.6055 590.828 8.18356 432.415 11.233C274.001 14.2825 299.434 70.8772 187.066 83.4013Z" stroke="#FDF1E3" stroke-opacity="0.2" stroke-width="6"/>
<path d="M406.92 128.52C405.64 129 404.28 129.24 402.92 129.56C402.52 129.72 401.96 129.64 401.48 129.72C401.08 129.8 400.76 129.96 400.44 130.28C400.28 130.36 400.2 130.52 400.28 130.68C400.36 130.84 400.44 130.92 400.6 131C400.76 131 400.92 131.08 401.08 131.08C401.72 131.08 402.44 131.08 403.08 131.08C409.56 131.08 416.04 131.08 422.52 131.08C423.08 131.08 423.72 131 424.28 131C424.44 131 424.52 130.92 424.68 130.92C425 130.84 425.16 130.36 425 130.12C424.84 129.88 424.68 129.72 424.44 129.72C423.24 129.56 422.12 129.64 421 129.32C420.68 129.24 420.36 129.32 420.04 129.24C419.4 129.24 418.76 129.24 418.12 129.24C417.72 129.16 417.32 129.16 416.92 129C416.28 128.76 415.64 128.76 415.08 128.44C414.84 128.36 414.6 128.2 414.44 128.12C413.8 127.64 413.4 127.08 413.4 126.28C413.4 125.72 413.4 125.16 413.64 124.6C413.88 123.72 414.12 122.84 414.28 121.96C414.44 121.24 414.68 120.6 414.84 119.88C415 119.32 415.24 118.84 415.4 118.28C415.56 117.64 415.72 117 416.04 116.44C416.2 115.88 416.2 115.32 416.44 114.76C416.52 114.6 416.6 114.52 416.76 114.44C417 114.28 417.16 114.2 417.4 114.2C418.52 114.04 419.56 114.04 420.6 114.04C421.8 114.04 423 113.96 424.2 113.8C424.68 113.64 425.24 113.64 425.72 113.64C428.92 113.56 432.2 113.4 435.4 113.4C436.12 113.4 436.92 113.4 437.64 113.24C437.8 113.24 437.96 113.24 438.12 113.24C438.52 113.24 438.92 113.4 439.16 113.72C439.56 114.28 439.88 114.84 440.04 115.48C440.6 117.16 441.32 118.76 441.88 120.52C441.96 120.76 442.04 121.08 442.12 121.4C442.28 122.28 442.52 123.16 442.84 124.04C443.24 125.08 443.48 126.2 443.96 127.24C444.04 127.48 443.96 127.72 443.88 127.88C443.72 128.12 443.64 128.36 443.4 128.52C443 128.76 442.6 129.08 442.12 129.16C441.16 129.24 440.2 129.56 439.24 129.64C439.08 129.64 438.92 129.72 438.76 129.72C438.2 129.88 438.12 130.6 438.36 130.92C438.6 131.24 438.84 131.32 439.16 131.48C440.44 131.56 441.8 131.56 443.08 131.4C444.52 131.24 445.96 131.24 447.4 131.16C451.4 131.16 455.4 131.16 459.4 131.08C459.64 131.08 459.88 131.08 460.12 131.08C460.6 131.08 461 130.68 461.16 130.2C461.32 129.88 461.08 129.32 460.68 129.24C460.12 129.08 459.48 128.76 458.84 128.76C458.28 128.68 457.72 128.44 457.24 128.28C456.52 128.04 456.12 127.56 455.8 126.92C455.72 126.76 455.64 126.52 455.56 126.28C454.68 124.12 453.8 121.88 453.16 119.64C452.92 118.76 452.6 117.96 452.2 117.16C452.04 116.76 451.88 116.36 451.8 116.04C451.08 114.28 450.36 112.52 449.56 110.84C449.16 110.12 448.84 109.4 448.52 108.68C448.2 107.8 447.8 107 447.56 106.2C447.32 105.4 446.92 104.68 446.6 103.96C446.6 103.88 446.6 103.8 446.52 103.72C446.2 102.6 445.88 101.56 445.56 100.44C444.84 98.12 444.12 95.8 443.08 93.56C442.6 92.44 442.12 91.32 441.72 90.2C441.64 89.8 441.48 89.4 441.32 89.08C440.68 87.24 439.88 85.4 439.32 83.56C439.08 82.76 438.76 82.04 438.44 81.32C438.04 80.52 437.8 79.64 437.32 78.84C436.92 78.28 436.76 77.48 436.44 76.92C435.96 76.12 435.32 75.64 434.52 75.48C434.28 75.48 434.04 75.48 433.8 75.48C432.6 75.4 431.48 75.4 430.36 75.24C429.96 75.16 429.56 75.16 429.16 75.16C427.72 75.16 426.2 75.08 424.76 75.08C424.2 75.08 423.64 75.08 423.08 75.24C422.68 75.4 422.28 75.4 421.88 75.4C420.92 75.48 419.96 75.56 418.92 75.56C418.68 75.64 418.44 75.64 418.2 75.72C418.12 75.72 417.96 75.88 417.88 75.96C417.72 76.12 417.64 76.52 417.8 76.68C417.88 76.76 418.04 76.92 418.12 76.92C418.6 77 419.16 77 419.64 77C420.36 77 421.08 77 421.8 77C422.28 77.08 422.68 77.48 422.76 77.96C422.76 78.28 422.76 78.52 422.76 78.76C422.76 79.4 422.6 80.04 422.52 80.68C422.28 81.48 422.12 82.2 421.88 83C421.64 83.72 421.56 84.44 421.24 85.08C421.08 85.8 420.92 86.52 420.76 87.24C420.52 88.28 420.2 89.24 419.88 90.28C419.4 91.64 418.92 93 418.52 94.44C417.88 96.76 417.24 99.08 416.44 101.4C416.44 101.56 416.36 101.72 416.36 101.88C416.28 102.84 415.88 103.64 415.64 104.52C415.32 105.56 415 106.68 414.68 107.72C414.36 108.76 414.04 109.72 413.8 110.76C413.8 111 413.72 111.24 413.64 111.48C413.4 112.04 413.24 112.52 413.08 113.08C411.8 116.84 410.6 120.68 409.32 124.44C409.08 125.16 408.84 125.96 408.52 126.76C408.44 127.08 408.2 127.4 407.88 127.72C407.64 128.04 407.32 128.28 406.92 128.52ZM425.56 111.24C423.08 111.24 420.92 111.24 418.76 111.24C418.52 111.24 418.28 111.24 418.04 111.08C417.88 111 417.72 110.92 417.8 110.76C417.8 110.52 417.8 110.2 417.88 110.04C418.76 108.2 419.24 106.2 419.72 104.28C420.12 102.6 420.6 100.92 421.08 99.32C421.8 97.24 422.44 95.16 423.24 93.16C423.64 92.36 423.72 91.48 424.04 90.6C424.2 90.04 424.36 89.48 424.52 89C424.6 88.6 424.76 88.2 424.92 87.88C425.24 87.24 425.4 86.68 425.56 86.04C425.8 85.16 425.96 84.28 426.28 83.4C426.28 83.32 426.44 83.16 426.6 83.08C426.68 83 426.84 83 427 83.24C427.08 83.4 427.24 83.64 427.32 83.88C427.56 84.44 427.8 85 427.96 85.64C428.2 86.36 428.36 87.08 428.6 87.8C428.84 88.68 429.16 89.64 429.48 90.52C429.88 91.48 430.36 92.44 430.84 93.4C431.08 93.96 431.4 94.6 431.64 95.16C431.8 95.56 432.04 95.88 432.2 96.28C432.6 97.64 433.32 98.92 433.96 100.28C434.36 101.32 434.84 102.28 435.32 103.4C435.48 103.8 435.64 104.28 435.8 104.76C436.2 106.28 436.84 107.8 437.48 109.24C437.64 109.56 437.8 109.8 437.96 110.12C438.04 110.36 437.88 110.6 437.64 110.68C437.16 110.68 436.68 110.68 436.2 110.68C435.16 110.68 434.12 110.76 433.08 110.92C432.76 111 432.44 111 432.12 111C429.8 111.08 427.56 111.24 425.56 111.24ZM508.196 85.88C508.036 85.4 507.956 85 507.796 84.6C507.716 84.2 507.556 83.8 507.396 83.48C506.996 82.76 506.596 82.04 506.116 81.4C505.796 81.08 505.476 80.68 505.156 80.28C504.916 80.04 504.676 79.8 504.436 79.64C503.556 78.92 502.676 78.12 501.716 77.56C501.556 77.4 501.396 77.24 501.156 77.08C500.516 76.76 499.876 76.44 499.156 76.2C498.756 76.04 498.196 75.96 497.716 75.8C497.076 75.56 496.356 75.48 495.556 75.48C494.596 75.48 493.636 75.48 492.676 75.48C492.196 75.48 491.716 75.48 491.236 75.32C490.356 75.16 489.476 75.16 488.516 75.16C487.636 75.16 486.756 75.16 485.876 75.16C484.916 75.16 483.956 75.16 482.996 75.4C482.676 75.4 482.356 75.4 481.956 75.4C479.876 75.4 477.796 75.48 475.636 75.24C475.316 75.16 474.996 75.16 474.676 75.16C472.756 75.16 470.836 75.16 468.836 75.16C468.676 75.16 468.516 75.16 468.356 75.16C467.796 75.24 467.236 75.32 466.756 75.64C466.596 75.72 466.516 75.88 466.516 76.04C466.516 76.2 466.596 76.36 466.756 76.44C466.916 76.52 467.076 76.52 467.236 76.6C468.036 76.68 468.836 76.84 469.636 77C469.876 77.08 470.116 77.24 470.276 77.32C470.516 77.4 470.676 77.64 470.756 77.88C470.916 79.16 471.156 80.44 471.236 81.72C471.316 82.28 471.396 82.84 471.476 83.4C471.556 83.96 471.636 84.6 471.556 85.16C471.316 86.92 471.316 88.68 471.316 90.44C471.236 91.64 471.236 92.76 471.156 93.88C471.156 95.16 471.076 96.52 471.076 97.8C471.076 99 471.076 100.2 470.916 101.4C470.836 101.8 470.916 102.28 470.916 102.68C470.836 105.88 470.836 109.16 470.836 112.36C470.756 113.88 470.756 115.32 470.916 116.76C470.996 117.4 471.076 118.04 471.076 118.68C471.076 119.32 471.076 119.88 471.076 120.44C471.076 121 470.996 121.56 470.916 122.12C470.836 122.6 470.836 123.08 470.836 123.56C470.756 124.76 470.756 126.04 470.756 127.24C470.756 127.56 470.756 127.88 470.756 128.2C470.756 128.52 470.276 129 469.956 129.08C468.996 129.32 467.956 129.64 466.916 129.64C466.436 129.64 466.036 129.64 465.716 129.8C465.316 129.96 465.156 130.12 464.996 130.44C464.916 130.6 465.076 131 465.316 131C465.556 131 465.796 131.08 466.036 131.08C470.196 131.16 474.436 131.24 478.676 131.24C479.236 131.24 479.796 131.24 480.356 131.24C482.196 131.08 483.956 131.16 485.716 131.16C488.196 131.24 490.596 131.24 493.076 131.16C493.796 131.16 494.516 131.16 495.236 131.16C495.876 131.08 496.516 131.08 497.156 131.08C497.556 131.08 497.956 131 498.356 130.92C498.676 130.84 498.996 130.68 499.316 130.68C500.196 130.68 500.916 130.36 501.636 130.04C502.996 129.56 503.956 129.16 504.996 128.52C506.036 127.88 506.996 127.16 507.636 126.04C507.796 125.72 508.036 125.4 508.276 125.08C508.676 124.6 508.916 124.12 509.156 123.56C509.636 122.28 510.116 121 510.276 119.64C510.276 119.24 510.436 118.84 510.436 118.44C510.516 118.12 510.516 117.8 510.516 117.48C510.596 116.92 510.516 116.44 510.596 115.96C510.596 114.76 510.356 113.56 510.036 112.36C509.796 111.4 509.396 110.36 508.916 109.4C508.676 109 508.356 108.6 508.036 108.2C507.156 107.24 506.196 106.44 505.076 105.72C504.036 105.16 502.996 104.52 501.876 104.04C500.996 103.72 500.196 103.32 499.396 102.92C498.516 102.52 497.636 102.12 496.756 101.8C496.516 101.8 496.436 101.72 496.436 101.56C496.436 101.56 496.516 101.48 496.596 101.4C496.916 101.24 497.316 101.08 497.636 100.92C498.436 100.6 499.236 100.36 499.956 99.96C500.836 99.48 501.796 99 502.756 98.52C503.716 97.96 504.676 97.32 505.476 96.52C505.716 96.36 505.876 96.2 505.956 96.04C506.516 95.08 507.076 94.2 507.556 93.24C507.636 92.92 507.716 92.6 507.796 92.28C507.796 91.96 507.796 91.64 507.876 91.32C508.196 90.12 508.196 88.92 508.196 87.72C508.196 87.16 508.196 86.6 508.196 85.88ZM493.476 128.6C493.156 128.68 492.756 128.76 492.356 128.84C491.876 129 491.396 129.08 490.916 129.08C488.356 129.08 485.876 129.08 483.316 129.08C483.156 129.08 482.996 129.08 482.916 129C482.516 128.84 482.356 128.6 482.356 128.28C482.356 126.04 482.356 123.88 482.356 121.64C482.436 120.28 482.436 118.92 482.436 117.56C482.516 115.96 482.516 114.44 482.756 112.92C482.836 112.12 482.836 111.32 482.676 110.44C482.596 110.12 482.516 109.64 482.516 109.24C482.516 107.48 482.516 105.72 482.516 103.88C482.516 103.56 482.916 103.08 483.236 103C483.396 103 483.556 102.92 483.716 102.92C484.356 102.92 484.996 102.84 485.716 102.84C486.836 102.84 487.956 102.84 489.076 102.84C489.716 102.84 490.356 102.92 490.996 103.16C491.076 103.16 491.156 103.16 491.236 103.16C492.676 103.4 493.796 104.28 494.676 105.4C496.276 107.32 497.476 109.48 498.276 111.96C498.436 112.52 498.516 113.08 498.516 113.64C498.516 114.44 498.596 115.24 498.596 116.04C498.596 117.16 498.596 118.36 498.516 119.48C498.516 120.68 498.196 121.88 497.716 123C497.316 124.04 496.756 125.08 496.116 126.04C495.396 127.08 494.596 127.88 493.476 128.6ZM483.716 77C484.276 76.92 484.836 76.84 485.396 76.76C486.436 76.52 487.476 76.52 488.516 76.76C488.916 76.92 489.316 76.92 489.716 77C490.516 77 491.156 77.32 491.796 77.64C491.956 77.64 492.116 77.8 492.196 77.88C492.756 78.6 493.316 79.32 493.876 80.04C494.436 80.76 494.996 81.56 495.316 82.52C495.956 83.88 496.436 85.24 496.676 86.68C496.916 87.56 497.076 88.44 497.076 89.32C497.076 91.16 497.156 93.08 496.996 95C496.836 95.56 496.676 96.2 496.436 96.76C496.116 97.72 495.556 98.52 494.676 99C493.556 99.72 492.356 100.2 491.076 100.52C490.676 100.6 490.276 100.68 489.876 100.76C489.636 100.76 489.396 100.84 489.156 100.84C487.236 100.92 485.316 100.92 483.316 100.84C483.076 100.84 482.676 100.52 482.676 100.28C482.596 100.12 482.596 99.96 482.596 99.8C482.516 98.84 482.516 97.8 482.516 96.84C482.516 96.52 482.516 96.2 482.596 95.88C482.836 94.76 482.836 93.64 482.916 92.52C482.996 91.88 482.996 91.16 482.996 90.52C483.076 90.12 483.076 89.72 483.156 89.32C483.316 88.6 483.316 87.88 483.316 87.16C483.316 84.52 483.316 81.8 483.316 79.16C483.316 78.68 483.396 78.12 483.396 77.64C483.396 77.4 483.556 77.24 483.716 77ZM544.337 75.16C543.457 75.16 542.497 75.16 541.617 75.16C541.217 75.16 540.817 75.16 540.417 75.24C539.457 75.4 538.497 75.48 537.537 75.48C536.897 75.56 536.257 75.56 535.617 75.8C535.377 75.8 535.137 75.88 534.897 75.88C533.617 76.12 532.337 76.52 531.217 77.08C530.337 77.48 529.457 77.96 528.577 78.36C528.337 78.44 528.097 78.6 527.937 78.76C526.657 79.56 525.377 80.52 524.257 81.56C523.777 82.12 523.297 82.68 522.897 83.24C522.257 84.2 521.537 85.08 520.897 86.04C520.337 86.92 519.937 87.88 519.457 88.84C519.297 89.32 519.057 89.72 518.817 90.2C517.857 91.88 517.137 93.64 516.737 95.56C516.737 95.72 516.657 95.88 516.577 96.04C516.337 97.08 516.097 98.12 516.017 99.16C515.857 101 515.777 102.92 515.777 104.76C515.777 105.24 515.857 105.72 515.937 106.2C516.017 107.48 516.257 108.6 516.817 111.24C516.897 111.96 517.137 112.68 517.457 113.32C517.537 113.56 517.697 113.72 517.777 113.96C518.097 115.16 518.737 116.2 519.297 117.32C519.697 118.2 520.257 119 520.977 119.72C521.537 120.28 522.017 120.84 522.657 121.48C523.057 121.8 523.457 122.2 523.937 122.52C524.817 123.16 525.617 123.8 526.337 124.6C526.977 125.16 527.697 125.72 528.417 126.28C529.777 127.16 531.137 127.96 532.577 128.76C532.817 128.92 532.977 129 533.217 129.08C534.497 129.64 535.777 130.12 537.057 130.68C537.537 130.84 537.937 131 538.497 131.08C538.817 131.08 539.137 131.16 539.457 131.24C540.257 131.48 541.217 131.48 542.097 131.56C543.137 131.56 544.177 131.56 545.217 131.48C545.697 131.48 546.257 131.48 546.737 131.4C547.537 131.24 548.337 131.16 549.137 131.08C550.257 131 551.297 130.6 552.417 130.36C553.137 130.12 553.857 129.96 554.497 129.56C554.897 129.32 555.297 129.08 555.777 128.92C556.817 128.44 557.777 127.8 558.657 127.08C559.057 126.76 559.537 126.36 560.017 126.04C561.457 125 562.737 123.72 563.857 122.36C564.977 121.08 566.017 119.72 566.897 118.28C567.217 117.8 567.457 117.24 567.697 116.76C568.257 115.48 568.577 114.12 569.137 112.84C569.537 111.88 569.617 110.84 569.857 109.8C570.097 109.24 570.017 108.68 570.097 108.12C570.097 107.64 570.177 107.16 570.337 106.68C570.497 106.2 570.497 105.72 570.497 105.24C570.497 103.8 570.577 102.28 570.497 100.84C570.497 100.12 570.497 99.4 570.257 98.68C570.177 98.36 570.177 98.04 570.097 97.72C570.097 96.92 569.857 96.12 569.617 95.32C568.977 92.68 567.857 90.28 566.337 88.04C565.537 86.76 564.577 85.56 563.617 84.28C562.897 83.24 561.937 82.36 560.977 81.48C560.097 80.68 559.137 79.88 558.257 79.08C557.377 78.36 556.417 77.72 555.377 77.16C554.817 76.92 554.257 76.6 553.697 76.36C552.657 75.8 551.537 75.48 550.417 75.48C549.777 75.48 549.057 75.48 548.417 75.32C547.777 75.16 547.137 75.16 546.497 75.16C545.777 75.16 545.057 75.16 544.337 75.16ZM528.657 105.96C528.657 105.08 528.657 104.2 528.737 103.32C528.737 103 528.737 102.68 528.737 102.36C529.057 100.92 529.057 99.48 529.137 97.96C529.217 97.16 529.217 96.36 529.457 95.56C529.697 94.76 529.697 93.8 529.937 92.92C530.097 91.64 530.417 90.44 530.897 89.16C531.297 87.56 531.937 86.12 532.577 84.6C532.897 83.88 533.297 83.16 533.857 82.6C534.017 82.44 534.097 82.36 534.177 82.2C534.817 81.24 535.617 80.44 536.577 79.8C536.897 79.56 537.217 79.24 537.457 79C538.177 78.44 538.977 78.04 539.857 77.8C540.097 77.72 540.337 77.72 540.577 77.64C541.137 77.48 541.697 77.48 542.257 77.56C542.497 77.56 542.737 77.64 542.977 77.72C543.697 77.8 544.417 77.88 545.137 77.96C546.017 78.04 546.897 78.28 547.697 78.68C548.497 79 549.297 79.4 550.097 79.88C551.137 80.44 552.017 81.08 552.657 82.04C553.217 82.84 553.777 83.64 554.257 84.52C554.657 85 554.897 85.64 555.137 86.2C555.777 87.72 556.257 89.24 556.737 90.84C556.977 91.48 557.057 92.28 557.217 92.92C557.457 93.72 557.537 94.52 557.777 95.32C557.937 96.04 558.017 96.76 558.177 97.48C558.417 98.36 558.497 99.24 558.657 100.12C558.657 100.28 558.737 100.44 558.657 100.6C558.657 102.2 558.817 103.8 558.577 105.48C558.417 106.36 558.417 107.24 558.417 108.12C558.337 109.8 558.017 111.48 557.617 113.16C557.377 114.12 557.137 115.08 556.897 116.04C556.577 117.72 556.017 119.48 555.137 121C554.577 122.12 554.017 123.16 553.377 124.2C553.057 124.76 552.657 125.32 552.257 125.8C551.617 126.68 550.817 127.32 549.777 127.72C548.977 127.96 548.257 128.2 547.457 128.44C547.137 128.52 546.817 128.6 546.497 128.6C545.057 128.76 543.617 128.68 542.097 128.52C541.377 128.52 540.737 128.2 540.017 128.04C539.377 127.8 538.817 127.56 538.177 127.32C537.857 127.16 537.457 126.92 537.137 126.68C535.617 125.56 534.257 124.28 532.977 122.92C532.657 122.6 532.417 122.2 532.177 121.72C531.617 120.28 530.897 118.92 530.337 117.48C530.177 117.16 530.097 116.92 530.097 116.6C529.937 115.64 529.617 114.84 529.617 113.96C529.537 113.72 529.457 113.48 529.377 113.24C529.217 112.76 529.137 112.28 529.137 111.8C529.057 111.16 528.977 110.52 528.817 109.88C528.737 109.56 528.657 109.24 528.657 108.92C528.657 107.96 528.657 107 528.657 105.96ZM591.666 119.16C591.506 118.44 591.266 117.88 591.106 117.24C590.706 115.64 590.466 114.04 590.466 112.36C590.466 111.4 590.466 110.44 590.466 109.48C590.466 109.08 590.466 108.68 590.386 108.28C590.146 107.24 590.226 106.12 590.226 105.08C590.226 100.12 590.226 95.16 590.226 90.2C590.226 88.92 590.226 87.64 590.226 86.36C590.226 85.88 590.226 85.4 590.306 84.92C590.386 84.12 590.466 83.4 590.466 82.68C590.466 81.72 590.546 80.76 590.546 79.8C590.546 79.4 590.706 79 590.946 78.6C591.266 78.04 591.666 77.64 592.306 77.4C592.946 77.16 593.586 77 594.226 76.84C594.706 76.84 595.186 76.6 595.586 76.36C595.746 76.28 595.746 75.88 595.666 75.72C595.506 75.56 595.346 75.48 595.186 75.48C594.786 75.48 594.386 75.4 593.986 75.4C589.826 75.4 585.746 75.4 581.586 75.4C579.506 75.4 577.506 75.4 575.506 75.4C575.186 75.4 574.866 75.4 574.546 75.48C574.306 75.56 574.066 75.64 573.906 75.8C573.826 75.96 573.746 76.12 573.666 76.2C573.666 76.36 573.986 76.68 574.146 76.76C574.306 76.76 574.466 76.84 574.626 76.84C575.586 76.92 576.546 77.16 577.506 77.4C577.906 77.56 578.226 77.8 578.546 78.04C578.626 78.12 578.706 78.28 578.786 78.44C578.786 78.76 578.866 79.08 578.866 79.4C578.866 81.4 578.786 83.32 578.866 85.24C578.946 88.68 578.946 92.12 578.946 95.48C578.866 98.04 578.866 100.52 578.866 103.08C578.866 104.92 578.866 106.76 578.866 108.68C578.866 110.52 578.786 112.44 578.786 114.28C578.786 115.4 578.866 116.52 579.266 117.64C579.506 119.24 580.146 120.76 580.946 122.2C581.026 122.36 581.106 122.44 581.186 122.6C581.666 123.48 582.226 124.28 582.866 124.92C583.266 125.4 583.666 125.72 584.066 126.2C584.946 127.08 585.906 127.8 586.866 128.52C587.106 128.68 587.426 128.92 587.746 129C588.786 129.4 589.826 129.88 590.866 130.28C591.426 130.44 591.986 130.52 592.546 130.6C593.266 130.68 593.986 130.68 594.706 130.76C596.306 131.08 597.986 131.16 599.586 131.16C600.786 131.08 601.986 131.08 603.266 131.08C604.146 131 605.026 131 605.906 130.76C606.226 130.68 606.546 130.68 606.866 130.68C607.986 130.52 609.106 130.52 610.226 130.2C610.306 130.12 610.386 130.12 610.466 130.12C611.426 130.2 612.226 129.8 613.106 129.56C613.586 129.4 614.146 129.16 614.706 129C615.346 128.68 615.986 128.36 616.626 127.96C617.266 127.48 617.906 127 618.546 126.52C619.346 125.96 619.986 125.24 620.466 124.36C620.786 123.8 621.026 123.16 621.346 122.6C622.066 121.4 622.306 120.04 622.626 118.68C622.866 117 623.186 115.32 623.106 113.64C623.106 113.08 623.106 112.52 623.106 111.88C623.106 106.44 623.106 101 623.106 95.56C623.106 94.68 623.106 93.8 623.106 92.92C623.106 91.96 623.106 91 622.866 89.96C622.786 89.56 622.786 89 622.786 88.52C622.706 87.56 622.706 86.6 622.626 85.64C622.626 85.16 622.626 84.6 622.546 84.2C622.306 82.68 622.386 81.24 622.386 79.8C622.386 79.32 622.466 78.84 622.626 78.36C622.706 78.04 622.946 77.8 623.186 77.64C623.746 77.32 624.386 77 625.026 76.92C625.346 76.92 625.666 76.92 625.986 76.84C626.866 76.52 627.746 76.52 628.626 76.44C628.786 76.44 628.946 76.36 629.106 76.36C629.266 76.28 629.586 75.96 629.506 75.8C629.426 75.64 629.346 75.48 629.266 75.4C629.106 75.32 628.946 75.24 628.786 75.24C628.226 75.08 627.666 75.08 627.106 75.16C625.826 75.32 624.546 75.32 623.186 75.4C621.666 75.4 620.146 75.4 618.626 75.48C617.346 75.56 616.146 75.56 614.946 75.48C613.906 75.4 612.866 75.4 611.746 75.56C611.586 75.56 611.426 75.56 611.346 75.64C611.106 75.72 610.866 75.88 610.866 76.12C610.786 76.44 611.026 76.84 611.266 76.92C611.426 76.92 611.586 77 611.746 77C612.386 77 613.026 77 613.746 77.08C614.066 77.08 614.386 77.08 614.706 77.16C615.426 77.32 616.146 77.32 616.866 77.4C617.186 77.48 617.506 77.56 617.746 77.72C617.986 77.8 618.226 77.88 618.466 78.04C618.866 78.28 619.186 78.68 619.186 79.16C619.186 79.56 619.186 79.88 619.186 80.2C619.186 85.16 619.266 90.04 619.346 95C619.346 96.68 619.426 98.28 619.426 99.88C619.506 101.08 619.426 102.2 619.666 103.32C619.666 103.56 619.666 103.8 619.666 104.04C619.666 106.12 619.746 108.28 619.746 110.36C619.746 111 619.746 111.64 619.586 112.28C619.426 113.24 619.426 114.28 619.346 115.24C619.266 116.12 619.346 117 619.186 117.88C618.786 119.32 618.306 120.68 617.666 122.12C617.266 122.6 616.786 123.16 616.306 123.72C616.146 123.96 615.906 124.2 615.666 124.44C614.866 125.08 613.986 125.8 613.106 126.28C612.226 126.76 611.346 127.16 610.386 127.24C609.986 127.24 609.666 127.32 609.346 127.32C608.226 127.64 607.106 127.64 605.986 127.64C605.106 127.64 604.226 127.56 603.346 127.56C602.226 127.56 601.186 127.48 600.146 127.08C599.826 126.92 599.426 126.76 599.106 126.6C596.786 125.32 594.786 123.64 593.266 121.48C592.786 120.76 592.306 120.04 591.666 119.16ZM643.334 78.04C644.854 78.04 646.374 78.04 647.974 78.04C648.134 78.04 648.294 78.04 648.454 78.12C649.254 78.36 649.974 79.24 649.974 80.12C649.974 81 649.974 81.88 649.974 82.76C649.974 83.96 649.974 85.08 650.054 86.2C650.054 87.4 650.054 88.6 650.054 89.88C650.054 98.28 649.974 106.76 649.974 115.16C649.974 115.64 649.974 116.12 649.894 116.6C649.814 117.4 649.814 118.12 649.814 118.84C649.734 121.16 649.654 123.56 649.574 125.88C649.574 126.12 649.574 126.36 649.494 126.6C649.334 127.24 649.094 127.8 648.454 128.2C648.214 128.36 647.894 128.52 647.574 128.6C647.014 128.76 646.374 129 645.734 129.16C645.094 129.4 644.534 129.56 643.894 129.8C643.654 129.88 643.494 130.04 643.334 130.28C643.174 130.52 643.334 131 643.654 131C643.894 131.08 644.134 131.16 644.374 131.16C651.094 131.08 657.814 131.08 664.534 131C664.774 131 665.014 131 665.254 131C665.574 130.92 665.894 130.84 666.214 130.76C666.294 130.68 666.374 130.68 666.454 130.6C666.534 130.52 666.614 130.36 666.694 130.2C666.774 130.12 666.534 129.64 666.374 129.64C665.894 129.48 665.414 129.32 664.934 129.24C664.054 129.08 663.254 128.68 662.454 128.36C662.214 128.2 662.054 128.12 661.814 127.96C661.494 127.64 661.254 127.32 661.254 126.92C661.254 124.76 661.174 122.68 661.174 120.6C661.334 115.8 661.414 111 661.334 106.2C661.334 99.72 661.334 93.24 661.334 86.68C661.334 85.56 661.334 84.44 661.414 83.32C661.414 81.32 661.414 81.32 661.814 79.4C661.894 78.92 662.294 78.6 662.774 78.44C662.934 78.44 663.094 78.36 663.254 78.36C663.494 78.36 663.734 78.36 663.974 78.36C665.334 78.36 666.774 78.44 668.134 78.44C668.534 78.44 668.934 78.6 669.334 78.68C669.974 78.84 670.534 79.08 671.094 79.4C671.334 79.48 671.574 79.64 671.734 79.72C672.614 80.36 673.334 81.16 673.894 82.12C674.054 82.52 674.294 82.92 674.534 83.4C675.014 84.2 675.334 85.16 675.574 86.12C675.654 86.84 675.894 87.48 676.134 88.2C676.134 88.28 676.214 88.36 676.294 88.36C676.374 88.52 676.534 88.6 676.694 88.6C676.774 88.68 676.854 88.68 676.934 88.68C677.494 88.68 677.894 88.36 677.894 87.88C677.974 86.68 677.814 85.56 677.654 84.44C677.574 83.72 677.494 83 677.494 82.28C677.414 80.84 677.334 79.32 677.334 77.88C677.254 77.4 677.254 76.92 677.254 76.44C677.174 76.12 677.094 75.8 676.934 75.48C676.774 75.24 676.614 75.16 676.374 75.08C676.054 75 675.734 75 675.414 75C674.134 74.92 672.774 74.92 671.494 74.92C664.214 75 656.934 75 649.574 75C645.734 75 641.974 75 638.134 75.08C637.414 75.08 636.694 75.08 635.974 75.08C635.654 75.16 635.334 75.24 635.014 75.4C634.774 75.56 634.534 75.96 634.534 76.2C634.454 76.44 634.454 76.68 634.454 76.92C634.374 77.88 634.374 78.84 634.214 79.88C634.134 80.36 634.134 80.84 634.134 81.32C634.054 82.2 634.054 83.08 633.974 83.96C633.974 85 633.974 86.12 633.654 87.08C633.574 87.4 633.654 87.72 633.734 88.04C633.974 88.68 634.614 88.84 635.174 88.52C635.254 88.52 635.334 88.44 635.334 88.36C635.654 87.88 635.894 87.32 635.894 86.76C636.054 85.56 636.534 84.44 637.094 83.32C637.414 82.76 637.734 82.2 638.054 81.64C638.374 81.16 638.694 80.76 639.094 80.36C639.494 80.04 639.814 79.72 640.214 79.4C640.774 78.92 641.414 78.52 642.134 78.36C642.534 78.28 642.934 78.12 643.334 78.04Z" fill="white"/>
<path d="M1047 136.557C1036.56 136.557 1032.66 131.78 1032.13 130.102C1031.84 129.209 1031.73 127.659 1031.78 125.361C1029.95 121.587 1031.84 113.291 1033.17 111.814C1035.01 109.79 1037.4 109.443 1038.17 109.37C1040.48 107.638 1044.11 107 1046.76 107C1051.45 107 1057.31 107.547 1061.05 111.814C1062.66 113.655 1063.67 120.219 1062.48 124.213C1062.61 127.057 1062.52 129.026 1062.19 130.084L1062.17 130.157L1062.13 130.23C1061.2 131.707 1057.41 136.557 1047 136.557ZM1046.76 108.295C1044.27 108.295 1040.87 108.878 1038.82 110.501L1038.65 110.629H1038.43C1038.17 110.629 1035.87 110.756 1034.14 112.652C1033.17 113.728 1031.29 121.66 1033.01 124.887L1033.08 125.033V125.197C1033.01 127.951 1033.19 129.154 1033.36 129.664C1033.74 130.85 1037.17 135.244 1047 135.244C1056.56 135.244 1060.06 131.014 1060.96 129.61C1061.14 128.935 1061.32 127.44 1061.18 124.14V124.03L1061.22 123.921C1062.39 120.183 1061.34 114.075 1060.08 112.634C1056.67 108.787 1051.18 108.295 1046.76 108.295Z" fill="#FDF1E3"/>
<path d="M1046.76 131.196C1044.05 131.196 1043.25 128.589 1042.55 126.309C1041.98 124.45 1041.43 122.681 1040.08 122.353C1038.56 121.988 1037.9 123.027 1037.02 124.814C1036.47 125.908 1035.98 126.929 1035.01 127.258C1034.51 127.422 1033.96 127.367 1033.38 127.075C1032.28 126.528 1031.54 125.361 1031.21 123.611C1030.41 119.417 1032.06 113.035 1033.17 111.814C1035.04 109.753 1037.44 109.425 1038.19 109.37C1040.3 107.802 1043.54 107 1046.76 107C1051.45 107 1057.31 107.547 1061.05 111.814C1062.64 113.619 1063.49 119.545 1062.7 123.337C1062.26 125.434 1061.4 126.802 1060.13 127.403C1059.57 127.677 1059.04 127.713 1058.54 127.549C1057.57 127.203 1057.06 126.091 1056.53 124.924C1055.65 123.009 1055.01 121.879 1053.47 122.243C1052.09 122.572 1051.56 124.358 1050.99 126.237C1050.28 128.57 1049.47 131.196 1046.76 131.196ZM1039.47 120.985C1039.75 120.985 1040.04 121.022 1040.37 121.095C1042.46 121.587 1043.14 123.793 1043.78 125.927C1044.55 128.406 1045.12 129.902 1046.76 129.902C1048.41 129.902 1048.98 128.388 1049.75 125.872C1050.41 123.72 1051.07 121.496 1053.16 121.003C1055.85 120.347 1056.91 122.681 1057.7 124.395C1058.1 125.27 1058.52 126.182 1058.98 126.346C1059.04 126.364 1059.2 126.437 1059.57 126.255C1060.67 125.726 1061.18 124.249 1061.42 123.082C1062.22 119.18 1061.16 113.911 1060.06 112.652C1056.67 108.787 1051.16 108.295 1046.75 108.295C1044.25 108.295 1040.96 108.878 1038.96 110.355C1038.89 110.464 1038.78 110.556 1038.65 110.61C1037.77 111.358 1037.2 112.324 1037.2 113.509C1037.2 117.12 1043.05 118.469 1046.73 118.469C1051.49 118.469 1055.72 115.406 1057.24 114.166C1053.34 111.431 1049.24 110.701 1046.8 110.938C1045.39 111.066 1043.72 111.54 1043.72 113.054C1043.72 113.582 1043.89 114.002 1044.22 114.312C1045.06 115.114 1046.69 115.041 1046.71 115.041C1047.08 115.023 1047.37 115.296 1047.39 115.643C1047.41 115.989 1047.13 116.299 1046.78 116.317C1046.69 116.317 1044.58 116.427 1043.32 115.242C1042.72 114.676 1042.42 113.947 1042.42 113.054C1042.42 111.139 1043.98 109.899 1046.67 109.644C1049.47 109.389 1054.29 110.264 1058.65 113.601L1059.26 114.056L1058.71 114.567C1058.49 114.786 1053.17 119.727 1046.71 119.727C1042.37 119.727 1035.9 118.068 1035.9 113.491C1035.9 112.561 1036.16 111.723 1036.62 110.993C1035.83 111.267 1034.9 111.777 1034.11 112.652C1033.28 113.564 1031.75 119.581 1032.46 123.356C1032.72 124.687 1033.21 125.544 1033.92 125.908C1034.31 126.109 1034.49 126.036 1034.57 126.018C1035.01 125.872 1035.43 125.033 1035.83 124.231C1036.54 122.827 1037.46 120.985 1039.47 120.985Z" fill="#FDF1E3"/>
</g>
<defs>
<clipPath id="clip0_754_90">
<rect width="150" height="1080" fill="white" transform="translate(1080) rotate(90)"/>
</clipPath>
</defs>
</svg>
