<svg width="1080" height="150" viewBox="0 0 1080 150" fill="none" xmlns="http://www.w3.org/2000/svg">
<g clip-path="url(#clip0_754_58)">
<rect width="150" height="1080" transform="translate(1080) rotate(90)" fill="#DD8964"/>
<path d="M121.503 94.446C9.13466 106.97 -331.702 47.2943 -395 45.3848C-110.788 -36.5323 647.944 -333.86 1026.06 -364.201C1404.18 -394.541 1609.07 -202.901 1691.87 -98.4491C1751.14 -23.6658 1740.14 25.4803 1561.32 36.136C1411.45 45.0664 1307.86 -10.9742 1186.08 -4.98039C1064.31 1.01338 1077.42 73.7469 913.571 79.1985C749.724 84.6502 525.265 19.2282 366.851 22.2777C208.438 25.3272 233.871 81.9219 121.503 94.446Z" fill="#A3BD9B"/>
<path d="M187.066 83.4013C74.6981 95.9255 -235.125 40.2806 -298.423 38.3711C-14.2113 -43.546 744.521 -340.874 1122.64 -371.214C1500.75 -401.555 1674.64 -213.945 1757.43 -109.494C1816.7 -34.7105 1805.7 14.4355 1626.88 25.0913C1477.01 34.0217 1373.42 -22.0189 1251.65 -16.0251C1129.87 -10.0313 1142.98 62.7022 979.134 68.1538C815.288 73.6055 590.828 8.18356 432.415 11.233C274.001 14.2825 299.434 70.8772 187.066 83.4013Z" stroke="#FDF1E3" stroke-opacity="0.2" stroke-width="6"/>
<path d="M186.92 128.52C185.64 129 184.28 129.24 182.92 129.56C182.52 129.72 181.96 129.64 181.48 129.72C181.08 129.8 180.76 129.96 180.44 130.28C180.28 130.36 180.2 130.52 180.28 130.68C180.36 130.84 180.44 130.92 180.6 131C180.76 131 180.92 131.08 181.08 131.08C181.72 131.08 182.44 131.08 183.08 131.08C189.56 131.08 196.04 131.08 202.52 131.08C203.08 131.08 203.72 131 204.28 131C204.44 131 204.52 130.92 204.68 130.92C205 130.84 205.16 130.36 205 130.12C204.84 129.88 204.68 129.72 204.44 129.72C203.24 129.56 202.12 129.64 201 129.32C200.68 129.24 200.36 129.32 200.04 129.24C199.4 129.24 198.76 129.24 198.12 129.24C197.72 129.16 197.32 129.16 196.92 129C196.28 128.76 195.64 128.76 195.08 128.44C194.84 128.36 194.6 128.2 194.44 128.12C193.8 127.64 193.4 127.08 193.4 126.28C193.4 125.72 193.4 125.16 193.64 124.6C193.88 123.72 194.12 122.84 194.28 121.96C194.44 121.24 194.68 120.6 194.84 119.88C195 119.32 195.24 118.84 195.4 118.28C195.56 117.64 195.72 117 196.04 116.44C196.2 115.88 196.2 115.32 196.44 114.76C196.52 114.6 196.6 114.52 196.76 114.44C197 114.28 197.16 114.2 197.4 114.2C198.52 114.04 199.56 114.04 200.6 114.04C201.8 114.04 203 113.96 204.2 113.8C204.68 113.64 205.24 113.64 205.72 113.64C208.92 113.56 212.2 113.4 215.4 113.4C216.12 113.4 216.92 113.4 217.64 113.24C217.8 113.24 217.96 113.24 218.12 113.24C218.52 113.24 218.92 113.4 219.16 113.72C219.56 114.28 219.88 114.84 220.04 115.48C220.6 117.16 221.32 118.76 221.88 120.52C221.96 120.76 222.04 121.08 222.12 121.4C222.28 122.28 222.52 123.16 222.84 124.04C223.24 125.08 223.48 126.2 223.96 127.24C224.04 127.48 223.96 127.72 223.88 127.88C223.72 128.12 223.64 128.36 223.4 128.52C223 128.76 222.6 129.08 222.12 129.16C221.16 129.24 220.2 129.56 219.24 129.64C219.08 129.64 218.92 129.72 218.76 129.72C218.2 129.88 218.12 130.6 218.36 130.92C218.6 131.24 218.84 131.32 219.16 131.48C220.44 131.56 221.8 131.56 223.08 131.4C224.52 131.24 225.96 131.24 227.4 131.16C231.4 131.16 235.4 131.16 239.4 131.08C239.64 131.08 239.88 131.08 240.12 131.08C240.6 131.08 241 130.68 241.16 130.2C241.32 129.88 241.08 129.32 240.68 129.24C240.12 129.08 239.48 128.76 238.84 128.76C238.28 128.68 237.72 128.44 237.24 128.28C236.52 128.04 236.12 127.56 235.8 126.92C235.72 126.76 235.64 126.52 235.56 126.28C234.68 124.12 233.8 121.88 233.16 119.64C232.92 118.76 232.6 117.96 232.2 117.16C232.04 116.76 231.88 116.36 231.8 116.04C231.08 114.28 230.36 112.52 229.56 110.84C229.16 110.12 228.84 109.4 228.52 108.68C228.2 107.8 227.8 107 227.56 106.2C227.32 105.4 226.92 104.68 226.6 103.96C226.6 103.88 226.6 103.8 226.52 103.72C226.2 102.6 225.88 101.56 225.56 100.44C224.84 98.12 224.12 95.8 223.08 93.56C222.6 92.44 222.12 91.32 221.72 90.2C221.64 89.8 221.48 89.4 221.32 89.08C220.68 87.24 219.88 85.4 219.32 83.56C219.08 82.76 218.76 82.04 218.44 81.32C218.04 80.52 217.8 79.64 217.32 78.84C216.92 78.28 216.76 77.48 216.44 76.92C215.96 76.12 215.32 75.64 214.52 75.48C214.28 75.48 214.04 75.48 213.8 75.48C212.6 75.4 211.48 75.4 210.36 75.24C209.96 75.16 209.56 75.16 209.16 75.16C207.72 75.16 206.2 75.08 204.76 75.08C204.2 75.08 203.64 75.08 203.08 75.24C202.68 75.4 202.28 75.4 201.88 75.4C200.92 75.48 199.96 75.56 198.92 75.56C198.68 75.64 198.44 75.64 198.2 75.72C198.12 75.72 197.96 75.88 197.88 75.96C197.72 76.12 197.64 76.52 197.8 76.68C197.88 76.76 198.04 76.92 198.12 76.92C198.6 77 199.16 77 199.64 77C200.36 77 201.08 77 201.8 77C202.28 77.08 202.68 77.48 202.76 77.96C202.76 78.28 202.76 78.52 202.76 78.76C202.76 79.4 202.6 80.04 202.52 80.68C202.28 81.48 202.12 82.2 201.88 83C201.64 83.72 201.56 84.44 201.24 85.08C201.08 85.8 200.92 86.52 200.76 87.24C200.52 88.28 200.2 89.24 199.88 90.28C199.4 91.64 198.92 93 198.52 94.44C197.88 96.76 197.24 99.08 196.44 101.4C196.44 101.56 196.36 101.72 196.36 101.88C196.28 102.84 195.88 103.64 195.64 104.52C195.32 105.56 195 106.68 194.68 107.72C194.36 108.76 194.04 109.72 193.8 110.76C193.8 111 193.72 111.24 193.64 111.48C193.4 112.04 193.24 112.52 193.08 113.08C191.8 116.84 190.6 120.68 189.32 124.44C189.08 125.16 188.84 125.96 188.52 126.76C188.44 127.08 188.2 127.4 187.88 127.72C187.64 128.04 187.32 128.28 186.92 128.52ZM205.56 111.24C203.08 111.24 200.92 111.24 198.76 111.24C198.52 111.24 198.28 111.24 198.04 111.08C197.88 111 197.72 110.92 197.8 110.76C197.8 110.52 197.8 110.2 197.88 110.04C198.76 108.2 199.24 106.2 199.72 104.28C200.12 102.6 200.6 100.92 201.08 99.32C201.8 97.24 202.44 95.16 203.24 93.16C203.64 92.36 203.72 91.48 204.04 90.6C204.2 90.04 204.36 89.48 204.52 89C204.6 88.6 204.76 88.2 204.92 87.88C205.24 87.24 205.4 86.68 205.56 86.04C205.8 85.16 205.96 84.28 206.28 83.4C206.28 83.32 206.44 83.16 206.6 83.08C206.68 83 206.84 83 207 83.24C207.08 83.4 207.24 83.64 207.32 83.88C207.56 84.44 207.8 85 207.96 85.64C208.2 86.36 208.36 87.08 208.6 87.8C208.84 88.68 209.16 89.64 209.48 90.52C209.88 91.48 210.36 92.44 210.84 93.4C211.08 93.96 211.4 94.6 211.64 95.16C211.8 95.56 212.04 95.88 212.2 96.28C212.6 97.64 213.32 98.92 213.96 100.28C214.36 101.32 214.84 102.28 215.32 103.4C215.48 103.8 215.64 104.28 215.8 104.76C216.2 106.28 216.84 107.8 217.48 109.24C217.64 109.56 217.8 109.8 217.96 110.12C218.04 110.36 217.88 110.6 217.64 110.68C217.16 110.68 216.68 110.68 216.2 110.68C215.16 110.68 214.12 110.76 213.08 110.92C212.76 111 212.44 111 212.12 111C209.8 111.08 207.56 111.24 205.56 111.24ZM255.396 105.96C255.316 101.48 255.316 95.08 255.316 88.68C255.316 88.44 255.316 88.28 255.316 88.12C255.316 88.04 255.316 87.96 255.316 87.88C255.396 87.8 255.476 87.64 255.556 87.48C255.716 87.56 255.876 87.56 256.036 87.64C256.596 88.12 257.076 88.68 257.476 89.24C259.076 91.24 260.676 93.16 262.436 95C262.756 95.32 262.996 95.72 263.316 96.12C264.196 97.24 264.916 98.36 265.636 99.56C266.276 100.52 266.916 101.48 267.636 102.28C268.276 103 268.756 103.72 269.236 104.44C269.876 105.4 270.516 106.36 271.236 107.24C272.996 109.72 274.836 112.28 276.516 114.84C277.316 115.96 278.116 117.08 278.996 118.12C279.316 118.52 279.636 118.92 279.876 119.32C281.636 121.72 283.316 124.2 284.916 126.76C285.796 128.04 286.756 129.24 287.956 130.28C288.036 130.28 288.036 130.36 288.116 130.44C288.676 130.76 289.316 131 289.956 130.84C290.276 130.76 290.596 130.68 290.916 130.52C291.236 130.44 291.396 130.12 291.476 129.8C291.476 129.56 291.556 129.32 291.556 129.08C291.556 125.64 291.556 122.28 291.476 118.84C291.396 112.2 291.316 105.48 291.316 98.84C291.316 97.8 291.316 96.76 291.316 95.72C291.316 94.44 291.396 93.24 291.156 92.04C291.076 91.64 291.076 91.24 291.076 90.84C291.076 87 290.996 83.16 290.996 79.4C290.996 79.24 290.996 79.08 290.996 78.92C291.076 78.28 291.316 77.8 291.716 77.4C292.196 76.84 292.836 76.44 293.636 76.44C294.756 76.44 295.876 76.2 296.996 75.88C297.236 75.88 297.396 75.72 297.556 75.48C297.636 75.48 297.636 75.32 297.636 75.24C297.636 75.16 297.476 75 297.316 75C297.156 74.92 296.996 74.92 296.836 74.92C291.956 74.92 287.076 74.92 282.196 75C282.036 75 281.876 75 281.716 75C281.476 75.08 281.156 75.4 281.236 75.72C281.236 75.88 281.556 76.28 281.716 76.28C281.956 76.28 282.196 76.36 282.436 76.36C283.076 76.36 283.716 76.36 284.356 76.36C284.836 76.36 285.316 76.36 285.796 76.44C286.356 76.6 286.836 76.92 287.076 77.48C287.316 77.96 287.476 78.44 287.476 78.92C287.556 79.48 287.556 80.04 287.556 80.6C287.556 82.52 287.556 84.52 287.556 86.44C287.556 92.6 287.556 98.76 287.476 105C287.476 105.56 287.476 106.12 287.476 106.68C287.476 106.76 287.396 106.84 287.316 106.92C287.316 107.08 287.156 107.16 286.996 107.16C286.596 107.24 286.276 107.08 286.116 106.84C285.316 105.8 284.516 104.76 283.796 103.72C283.076 102.6 282.356 101.56 281.556 100.52C280.356 99.08 279.236 97.56 278.196 96.04C277.716 95.4 277.236 94.76 276.756 94.12C275.876 93 274.916 92.04 274.036 90.92C273.476 90.36 272.996 89.72 272.436 89.08C271.956 88.44 271.316 87.8 270.836 87C270.596 86.68 270.276 86.36 270.036 86.04C269.476 85.48 268.916 84.92 268.356 84.28C267.636 83.4 266.916 82.52 266.196 81.64C265.716 81.08 265.316 80.52 264.836 79.96C264.276 79.32 263.716 78.76 263.156 78.2C262.596 77.64 261.956 77.08 261.396 76.44C261.156 76.28 260.916 76.04 260.676 75.8C260.436 75.64 260.116 75.48 259.796 75.48C259.636 75.4 259.476 75.4 259.316 75.4C255.876 75.32 252.516 75.32 249.076 75.4C248.916 75.4 248.756 75.4 248.596 75.48C248.036 75.48 247.476 75.72 246.996 76.04C246.916 76.12 246.756 76.28 246.676 76.36C246.516 76.6 246.516 77.08 246.676 77.24C246.916 77.48 247.076 77.64 247.316 77.72C247.956 78.04 248.516 78.52 248.996 79.08C249.556 79.56 249.876 80.2 250.036 81C250.116 81.56 250.116 82.12 250.276 82.68C250.436 83.56 250.516 84.44 250.436 85.32C250.356 89.16 250.436 92.92 250.516 96.76C250.596 98.76 250.596 100.68 250.596 102.6C250.596 110.52 250.516 118.36 250.596 126.28C250.596 126.76 250.596 127.24 250.516 127.72C250.436 128.44 250.036 128.92 249.316 129.16C248.756 129.32 248.116 129.56 247.476 129.56C246.836 129.64 246.356 129.88 245.876 130.12C245.636 130.28 245.476 130.44 245.396 130.68C245.316 130.84 245.236 131 245.396 131.16C245.476 131.24 245.556 131.4 245.716 131.48C246.036 131.48 246.356 131.56 246.676 131.56C250.756 131.56 254.836 131.56 258.836 131.56C259.556 131.56 260.196 131.56 260.836 131.56C260.996 131.56 261.156 131.48 261.316 131.4C261.476 131.4 261.636 131.08 261.556 130.84C261.396 130.52 261.156 130.28 260.836 130.2C259.796 129.96 258.836 129.64 257.716 129.56C257.396 129.56 257.076 129.48 256.756 129.4C255.956 129.24 255.476 128.52 255.396 127.88C255.396 126.44 255.316 124.92 255.316 123.48C255.316 118.28 255.316 113.08 255.396 105.96ZM312.739 105.96C312.659 101.48 312.659 95.08 312.659 88.68C312.659 88.44 312.659 88.28 312.659 88.12C312.659 88.04 312.659 87.96 312.659 87.88C312.739 87.8 312.819 87.64 312.899 87.48C313.059 87.56 313.219 87.56 313.379 87.64C313.939 88.12 314.419 88.68 314.819 89.24C316.419 91.24 318.019 93.16 319.779 95C320.099 95.32 320.339 95.72 320.659 96.12C321.539 97.24 322.259 98.36 322.979 99.56C323.619 100.52 324.259 101.48 324.979 102.28C325.619 103 326.099 103.72 326.579 104.44C327.219 105.4 327.859 106.36 328.579 107.24C330.339 109.72 332.179 112.28 333.859 114.84C334.659 115.96 335.459 117.08 336.339 118.12C336.659 118.52 336.979 118.92 337.219 119.32C338.979 121.72 340.659 124.2 342.259 126.76C343.139 128.04 344.099 129.24 345.299 130.28C345.379 130.28 345.379 130.36 345.459 130.44C346.019 130.76 346.659 131 347.299 130.84C347.619 130.76 347.939 130.68 348.259 130.52C348.579 130.44 348.739 130.12 348.819 129.8C348.819 129.56 348.899 129.32 348.899 129.08C348.899 125.64 348.899 122.28 348.819 118.84C348.739 112.2 348.659 105.48 348.659 98.84C348.659 97.8 348.659 96.76 348.659 95.72C348.659 94.44 348.739 93.24 348.499 92.04C348.419 91.64 348.419 91.24 348.419 90.84C348.419 87 348.339 83.16 348.339 79.4C348.339 79.24 348.339 79.08 348.339 78.92C348.419 78.28 348.659 77.8 349.059 77.4C349.539 76.84 350.179 76.44 350.979 76.44C352.099 76.44 353.219 76.2 354.339 75.88C354.579 75.88 354.739 75.72 354.899 75.48C354.979 75.48 354.979 75.32 354.979 75.24C354.979 75.16 354.819 75 354.659 75C354.499 74.92 354.339 74.92 354.179 74.92C349.299 74.92 344.419 74.92 339.539 75C339.379 75 339.219 75 339.059 75C338.819 75.08 338.499 75.4 338.579 75.72C338.579 75.88 338.899 76.28 339.059 76.28C339.299 76.28 339.539 76.36 339.779 76.36C340.419 76.36 341.059 76.36 341.699 76.36C342.179 76.36 342.659 76.36 343.139 76.44C343.699 76.6 344.179 76.92 344.419 77.48C344.659 77.96 344.819 78.44 344.819 78.92C344.899 79.48 344.899 80.04 344.899 80.6C344.899 82.52 344.899 84.52 344.899 86.44C344.899 92.6 344.899 98.76 344.819 105C344.819 105.56 344.819 106.12 344.819 106.68C344.819 106.76 344.739 106.84 344.659 106.92C344.659 107.08 344.499 107.16 344.339 107.16C343.939 107.24 343.619 107.08 343.459 106.84C342.659 105.8 341.859 104.76 341.139 103.72C340.419 102.6 339.699 101.56 338.899 100.52C337.699 99.08 336.579 97.56 335.539 96.04C335.059 95.4 334.579 94.76 334.099 94.12C333.219 93 332.259 92.04 331.379 90.92C330.819 90.36 330.339 89.72 329.779 89.08C329.299 88.44 328.659 87.8 328.179 87C327.939 86.68 327.619 86.36 327.379 86.04C326.819 85.48 326.259 84.92 325.699 84.28C324.979 83.4 324.259 82.52 323.539 81.64C323.059 81.08 322.659 80.52 322.179 79.96C321.619 79.32 321.059 78.76 320.499 78.2C319.939 77.64 319.299 77.08 318.739 76.44C318.499 76.28 318.259 76.04 318.019 75.8C317.779 75.64 317.459 75.48 317.139 75.48C316.979 75.4 316.819 75.4 316.659 75.4C313.219 75.32 309.859 75.32 306.419 75.4C306.259 75.4 306.099 75.4 305.939 75.48C305.379 75.48 304.819 75.72 304.339 76.04C304.259 76.12 304.099 76.28 304.019 76.36C303.859 76.6 303.859 77.08 304.019 77.24C304.259 77.48 304.419 77.64 304.659 77.72C305.299 78.04 305.859 78.52 306.339 79.08C306.899 79.56 307.219 80.2 307.379 81C307.459 81.56 307.459 82.12 307.619 82.68C307.779 83.56 307.859 84.44 307.779 85.32C307.699 89.16 307.779 92.92 307.859 96.76C307.939 98.76 307.939 100.68 307.939 102.6C307.939 110.52 307.859 118.36 307.939 126.28C307.939 126.76 307.939 127.24 307.859 127.72C307.779 128.44 307.379 128.92 306.659 129.16C306.099 129.32 305.459 129.56 304.819 129.56C304.179 129.64 303.699 129.88 303.219 130.12C302.979 130.28 302.819 130.44 302.739 130.68C302.659 130.84 302.579 131 302.739 131.16C302.819 131.24 302.899 131.4 303.059 131.48C303.379 131.48 303.699 131.56 304.019 131.56C308.099 131.56 312.179 131.56 316.179 131.56C316.899 131.56 317.539 131.56 318.179 131.56C318.339 131.56 318.499 131.48 318.659 131.4C318.819 131.4 318.979 131.08 318.899 130.84C318.739 130.52 318.499 130.28 318.179 130.2C317.139 129.96 316.179 129.64 315.059 129.56C314.739 129.56 314.419 129.48 314.099 129.4C313.299 129.24 312.819 128.52 312.739 127.88C312.739 126.44 312.659 124.92 312.659 123.48C312.659 118.28 312.659 113.08 312.739 105.96ZM388.243 75.16C387.363 75.16 386.403 75.16 385.523 75.16C385.123 75.16 384.723 75.16 384.323 75.24C383.363 75.4 382.403 75.48 381.443 75.48C380.803 75.56 380.163 75.56 379.523 75.8C379.283 75.8 379.043 75.88 378.803 75.88C377.523 76.12 376.243 76.52 375.123 77.08C374.243 77.48 373.363 77.96 372.483 78.36C372.243 78.44 372.003 78.6 371.843 78.76C370.563 79.56 369.283 80.52 368.163 81.56C367.683 82.12 367.203 82.68 366.803 83.24C366.163 84.2 365.443 85.08 364.803 86.04C364.243 86.92 363.843 87.88 363.363 88.84C363.203 89.32 362.963 89.72 362.723 90.2C361.763 91.88 361.043 93.64 360.643 95.56C360.643 95.72 360.563 95.88 360.483 96.04C360.243 97.08 360.003 98.12 359.923 99.16C359.763 101 359.683 102.92 359.683 104.76C359.683 105.24 359.763 105.72 359.843 106.2C359.923 107.48 360.163 108.6 360.723 111.24C360.803 111.96 361.043 112.68 361.363 113.32C361.443 113.56 361.603 113.72 361.683 113.96C362.003 115.16 362.643 116.2 363.203 117.32C363.603 118.2 364.163 119 364.883 119.72C365.443 120.28 365.923 120.84 366.563 121.48C366.963 121.8 367.363 122.2 367.843 122.52C368.723 123.16 369.523 123.8 370.243 124.6C370.883 125.16 371.603 125.72 372.323 126.28C373.683 127.16 375.043 127.96 376.483 128.76C376.723 128.92 376.883 129 377.123 129.08C378.403 129.64 379.683 130.12 380.963 130.68C381.443 130.84 381.843 131 382.403 131.08C382.723 131.08 383.043 131.16 383.363 131.24C384.163 131.48 385.123 131.48 386.003 131.56C387.043 131.56 388.083 131.56 389.123 131.48C389.603 131.48 390.163 131.48 390.643 131.4C391.443 131.24 392.243 131.16 393.043 131.08C394.163 131 395.203 130.6 396.323 130.36C397.043 130.12 397.763 129.96 398.403 129.56C398.803 129.32 399.203 129.08 399.683 128.92C400.723 128.44 401.683 127.8 402.563 127.08C402.963 126.76 403.443 126.36 403.923 126.04C405.363 125 406.643 123.72 407.763 122.36C408.883 121.08 409.923 119.72 410.803 118.28C411.123 117.8 411.363 117.24 411.603 116.76C412.163 115.48 412.483 114.12 413.043 112.84C413.443 111.88 413.523 110.84 413.763 109.8C414.003 109.24 413.923 108.68 414.003 108.12C414.003 107.64 414.083 107.16 414.243 106.68C414.403 106.2 414.403 105.72 414.403 105.24C414.403 103.8 414.483 102.28 414.403 100.84C414.403 100.12 414.403 99.4 414.163 98.68C414.083 98.36 414.083 98.04 414.003 97.72C414.003 96.92 413.763 96.12 413.523 95.32C412.883 92.68 411.763 90.28 410.243 88.04C409.443 86.76 408.483 85.56 407.523 84.28C406.803 83.24 405.843 82.36 404.883 81.48C404.003 80.68 403.043 79.88 402.163 79.08C401.283 78.36 400.323 77.72 399.283 77.16C398.723 76.92 398.163 76.6 397.603 76.36C396.563 75.8 395.443 75.48 394.323 75.48C393.683 75.48 392.963 75.48 392.323 75.32C391.683 75.16 391.043 75.16 390.403 75.16C389.683 75.16 388.963 75.16 388.243 75.16ZM372.563 105.96C372.563 105.08 372.563 104.2 372.643 103.32C372.643 103 372.643 102.68 372.643 102.36C372.963 100.92 372.963 99.48 373.043 97.96C373.123 97.16 373.123 96.36 373.363 95.56C373.603 94.76 373.603 93.8 373.843 92.92C374.003 91.64 374.323 90.44 374.803 89.16C375.203 87.56 375.843 86.12 376.483 84.6C376.803 83.88 377.203 83.16 377.763 82.6C377.923 82.44 378.003 82.36 378.083 82.2C378.723 81.24 379.523 80.44 380.483 79.8C380.803 79.56 381.123 79.24 381.363 79C382.083 78.44 382.883 78.04 383.763 77.8C384.003 77.72 384.243 77.72 384.483 77.64C385.043 77.48 385.603 77.48 386.163 77.56C386.403 77.56 386.643 77.64 386.883 77.72C387.603 77.8 388.323 77.88 389.043 77.96C389.923 78.04 390.803 78.28 391.603 78.68C392.403 79 393.203 79.4 394.003 79.88C395.043 80.44 395.923 81.08 396.563 82.04C397.123 82.84 397.683 83.64 398.163 84.52C398.563 85 398.803 85.64 399.043 86.2C399.683 87.72 400.163 89.24 400.643 90.84C400.883 91.48 400.963 92.28 401.123 92.92C401.363 93.72 401.443 94.52 401.683 95.32C401.843 96.04 401.923 96.76 402.083 97.48C402.323 98.36 402.403 99.24 402.563 100.12C402.563 100.28 402.643 100.44 402.563 100.6C402.563 102.2 402.723 103.8 402.483 105.48C402.323 106.36 402.323 107.24 402.323 108.12C402.243 109.8 401.923 111.48 401.523 113.16C401.283 114.12 401.043 115.08 400.803 116.04C400.483 117.72 399.923 119.48 399.043 121C398.483 122.12 397.923 123.16 397.283 124.2C396.963 124.76 396.563 125.32 396.163 125.8C395.523 126.68 394.723 127.32 393.683 127.72C392.883 127.96 392.163 128.2 391.363 128.44C391.043 128.52 390.723 128.6 390.403 128.6C388.963 128.76 387.523 128.68 386.003 128.52C385.283 128.52 384.643 128.2 383.923 128.04C383.283 127.8 382.723 127.56 382.083 127.32C381.763 127.16 381.363 126.92 381.043 126.68C379.523 125.56 378.163 124.28 376.883 122.92C376.563 122.6 376.323 122.2 376.083 121.72C375.523 120.28 374.803 118.92 374.243 117.48C374.083 117.16 374.003 116.92 374.003 116.6C373.843 115.64 373.523 114.84 373.523 113.96C373.443 113.72 373.363 113.48 373.283 113.24C373.123 112.76 373.043 112.28 373.043 111.8C372.963 111.16 372.883 110.52 372.723 109.88C372.643 109.56 372.563 109.24 372.563 108.92C372.563 107.96 372.563 107 372.563 105.96ZM435.572 119.16C435.412 118.44 435.172 117.88 435.012 117.24C434.612 115.64 434.372 114.04 434.372 112.36C434.372 111.4 434.372 110.44 434.372 109.48C434.372 109.08 434.372 108.68 434.292 108.28C434.052 107.24 434.132 106.12 434.132 105.08C434.132 100.12 434.132 95.16 434.132 90.2C434.132 88.92 434.132 87.64 434.132 86.36C434.132 85.88 434.132 85.4 434.212 84.92C434.292 84.12 434.372 83.4 434.372 82.68C434.372 81.72 434.452 80.76 434.452 79.8C434.452 79.4 434.612 79 434.852 78.6C435.172 78.04 435.572 77.64 436.212 77.4C436.852 77.16 437.492 77 438.132 76.84C438.612 76.84 439.092 76.6 439.492 76.36C439.652 76.28 439.652 75.88 439.572 75.72C439.412 75.56 439.252 75.48 439.092 75.48C438.692 75.48 438.292 75.4 437.892 75.4C433.732 75.4 429.652 75.4 425.492 75.4C423.412 75.4 421.412 75.4 419.412 75.4C419.092 75.4 418.772 75.4 418.452 75.48C418.212 75.56 417.972 75.64 417.812 75.8C417.732 75.96 417.652 76.12 417.572 76.2C417.572 76.36 417.892 76.68 418.052 76.76C418.212 76.76 418.372 76.84 418.532 76.84C419.492 76.92 420.452 77.16 421.412 77.4C421.812 77.56 422.132 77.8 422.452 78.04C422.532 78.12 422.612 78.28 422.692 78.44C422.692 78.76 422.772 79.08 422.772 79.4C422.772 81.4 422.692 83.32 422.772 85.24C422.852 88.68 422.852 92.12 422.852 95.48C422.772 98.04 422.772 100.52 422.772 103.08C422.772 104.92 422.772 106.76 422.772 108.68C422.772 110.52 422.692 112.44 422.692 114.28C422.692 115.4 422.772 116.52 423.172 117.64C423.412 119.24 424.052 120.76 424.852 122.2C424.932 122.36 425.012 122.44 425.092 122.6C425.572 123.48 426.132 124.28 426.772 124.92C427.172 125.4 427.572 125.72 427.972 126.2C428.852 127.08 429.812 127.8 430.772 128.52C431.012 128.68 431.332 128.92 431.652 129C432.692 129.4 433.732 129.88 434.772 130.28C435.332 130.44 435.892 130.52 436.452 130.6C437.172 130.68 437.892 130.68 438.612 130.76C440.212 131.08 441.892 131.16 443.492 131.16C444.692 131.08 445.892 131.08 447.172 131.08C448.052 131 448.932 131 449.812 130.76C450.132 130.68 450.452 130.68 450.772 130.68C451.892 130.52 453.012 130.52 454.132 130.2C454.212 130.12 454.292 130.12 454.372 130.12C455.332 130.2 456.132 129.8 457.012 129.56C457.492 129.4 458.052 129.16 458.612 129C459.252 128.68 459.892 128.36 460.532 127.96C461.172 127.48 461.812 127 462.452 126.52C463.252 125.96 463.892 125.24 464.372 124.36C464.692 123.8 464.932 123.16 465.252 122.6C465.972 121.4 466.212 120.04 466.532 118.68C466.772 117 467.092 115.32 467.012 113.64C467.012 113.08 467.012 112.52 467.012 111.88C467.012 106.44 467.012 101 467.012 95.56C467.012 94.68 467.012 93.8 467.012 92.92C467.012 91.96 467.012 91 466.772 89.96C466.692 89.56 466.692 89 466.692 88.52C466.612 87.56 466.612 86.6 466.532 85.64C466.532 85.16 466.532 84.6 466.452 84.2C466.212 82.68 466.292 81.24 466.292 79.8C466.292 79.32 466.372 78.84 466.532 78.36C466.612 78.04 466.852 77.8 467.092 77.64C467.652 77.32 468.292 77 468.932 76.92C469.252 76.92 469.572 76.92 469.892 76.84C470.772 76.52 471.652 76.52 472.532 76.44C472.692 76.44 472.852 76.36 473.012 76.36C473.172 76.28 473.492 75.96 473.412 75.8C473.332 75.64 473.252 75.48 473.172 75.4C473.012 75.32 472.852 75.24 472.692 75.24C472.132 75.08 471.572 75.08 471.012 75.16C469.732 75.32 468.452 75.32 467.092 75.4C465.572 75.4 464.052 75.4 462.532 75.48C461.252 75.56 460.052 75.56 458.852 75.48C457.812 75.4 456.772 75.4 455.652 75.56C455.492 75.56 455.332 75.56 455.252 75.64C455.012 75.72 454.772 75.88 454.772 76.12C454.692 76.44 454.932 76.84 455.172 76.92C455.332 76.92 455.492 77 455.652 77C456.292 77 456.932 77 457.652 77.08C457.972 77.08 458.292 77.08 458.612 77.16C459.332 77.32 460.052 77.32 460.772 77.4C461.092 77.48 461.412 77.56 461.652 77.72C461.892 77.8 462.132 77.88 462.372 78.04C462.772 78.28 463.092 78.68 463.092 79.16C463.092 79.56 463.092 79.88 463.092 80.2C463.092 85.16 463.172 90.04 463.252 95C463.252 96.68 463.332 98.28 463.332 99.88C463.412 101.08 463.332 102.2 463.572 103.32C463.572 103.56 463.572 103.8 463.572 104.04C463.572 106.12 463.652 108.28 463.652 110.36C463.652 111 463.652 111.64 463.492 112.28C463.332 113.24 463.332 114.28 463.252 115.24C463.172 116.12 463.252 117 463.092 117.88C462.692 119.32 462.212 120.68 461.572 122.12C461.172 122.6 460.692 123.16 460.212 123.72C460.052 123.96 459.812 124.2 459.572 124.44C458.772 125.08 457.892 125.8 457.012 126.28C456.132 126.76 455.252 127.16 454.292 127.24C453.892 127.24 453.572 127.32 453.252 127.32C452.132 127.64 451.012 127.64 449.892 127.64C449.012 127.64 448.132 127.56 447.252 127.56C446.132 127.56 445.092 127.48 444.052 127.08C443.732 126.92 443.332 126.76 443.012 126.6C440.692 125.32 438.692 123.64 437.172 121.48C436.692 120.76 436.212 120.04 435.572 119.16ZM488.521 105.96C488.441 101.48 488.441 95.08 488.441 88.68C488.441 88.44 488.441 88.28 488.441 88.12C488.441 88.04 488.441 87.96 488.441 87.88C488.521 87.8 488.601 87.64 488.681 87.48C488.841 87.56 489.001 87.56 489.161 87.64C489.721 88.12 490.201 88.68 490.601 89.24C492.201 91.24 493.801 93.16 495.561 95C495.881 95.32 496.121 95.72 496.441 96.12C497.321 97.24 498.041 98.36 498.761 99.56C499.401 100.52 500.041 101.48 500.761 102.28C501.401 103 501.881 103.72 502.361 104.44C503.001 105.4 503.641 106.36 504.361 107.24C506.121 109.72 507.961 112.28 509.641 114.84C510.441 115.96 511.241 117.08 512.121 118.12C512.441 118.52 512.761 118.92 513.001 119.32C514.761 121.72 516.441 124.2 518.041 126.76C518.921 128.04 519.881 129.24 521.081 130.28C521.161 130.28 521.161 130.36 521.241 130.44C521.801 130.76 522.441 131 523.081 130.84C523.401 130.76 523.721 130.68 524.041 130.52C524.361 130.44 524.521 130.12 524.601 129.8C524.601 129.56 524.681 129.32 524.681 129.08C524.681 125.64 524.681 122.28 524.601 118.84C524.521 112.2 524.441 105.48 524.441 98.84C524.441 97.8 524.441 96.76 524.441 95.72C524.441 94.44 524.521 93.24 524.281 92.04C524.201 91.64 524.201 91.24 524.201 90.84C524.201 87 524.121 83.16 524.121 79.4C524.121 79.24 524.121 79.08 524.121 78.92C524.201 78.28 524.441 77.8 524.841 77.4C525.321 76.84 525.961 76.44 526.761 76.44C527.881 76.44 529.001 76.2 530.121 75.88C530.361 75.88 530.521 75.72 530.681 75.48C530.761 75.48 530.761 75.32 530.761 75.24C530.761 75.16 530.601 75 530.441 75C530.281 74.92 530.121 74.92 529.961 74.92C525.081 74.92 520.201 74.92 515.321 75C515.161 75 515.001 75 514.841 75C514.601 75.08 514.281 75.4 514.361 75.72C514.361 75.88 514.681 76.28 514.841 76.28C515.081 76.28 515.321 76.36 515.561 76.36C516.201 76.36 516.841 76.36 517.481 76.36C517.961 76.36 518.441 76.36 518.921 76.44C519.481 76.6 519.961 76.92 520.201 77.48C520.441 77.96 520.601 78.44 520.601 78.92C520.681 79.48 520.681 80.04 520.681 80.6C520.681 82.52 520.681 84.52 520.681 86.44C520.681 92.6 520.681 98.76 520.601 105C520.601 105.56 520.601 106.12 520.601 106.68C520.601 106.76 520.521 106.84 520.441 106.92C520.441 107.08 520.281 107.16 520.121 107.16C519.721 107.24 519.401 107.08 519.241 106.84C518.441 105.8 517.641 104.76 516.921 103.72C516.201 102.6 515.481 101.56 514.681 100.52C513.481 99.08 512.361 97.56 511.321 96.04C510.841 95.4 510.361 94.76 509.881 94.12C509.001 93 508.041 92.04 507.161 90.92C506.601 90.36 506.121 89.72 505.561 89.08C505.081 88.44 504.441 87.8 503.961 87C503.721 86.68 503.401 86.36 503.161 86.04C502.601 85.48 502.041 84.92 501.481 84.28C500.761 83.4 500.041 82.52 499.321 81.64C498.841 81.08 498.441 80.52 497.961 79.96C497.401 79.32 496.841 78.76 496.281 78.2C495.721 77.64 495.081 77.08 494.521 76.44C494.281 76.28 494.041 76.04 493.801 75.8C493.561 75.64 493.241 75.48 492.921 75.48C492.761 75.4 492.601 75.4 492.441 75.4C489.001 75.32 485.641 75.32 482.201 75.4C482.041 75.4 481.881 75.4 481.721 75.48C481.161 75.48 480.601 75.72 480.121 76.04C480.041 76.12 479.881 76.28 479.801 76.36C479.641 76.6 479.641 77.08 479.801 77.24C480.041 77.48 480.201 77.64 480.441 77.72C481.081 78.04 481.641 78.52 482.121 79.08C482.681 79.56 483.001 80.2 483.161 81C483.241 81.56 483.241 82.12 483.401 82.68C483.561 83.56 483.641 84.44 483.561 85.32C483.481 89.16 483.561 92.92 483.641 96.76C483.721 98.76 483.721 100.68 483.721 102.6C483.721 110.52 483.641 118.36 483.721 126.28C483.721 126.76 483.721 127.24 483.641 127.72C483.561 128.44 483.161 128.92 482.441 129.16C481.881 129.32 481.241 129.56 480.601 129.56C479.961 129.64 479.481 129.88 479.001 130.12C478.761 130.28 478.601 130.44 478.521 130.68C478.441 130.84 478.361 131 478.521 131.16C478.601 131.24 478.681 131.4 478.841 131.48C479.161 131.48 479.481 131.56 479.801 131.56C483.881 131.56 487.961 131.56 491.961 131.56C492.681 131.56 493.321 131.56 493.961 131.56C494.121 131.56 494.281 131.48 494.441 131.4C494.601 131.4 494.761 131.08 494.681 130.84C494.521 130.52 494.281 130.28 493.961 130.2C492.921 129.96 491.961 129.64 490.841 129.56C490.521 129.56 490.201 129.48 489.881 129.4C489.081 129.24 488.601 128.52 488.521 127.88C488.521 126.44 488.441 124.92 488.441 123.48C488.441 118.28 488.441 113.08 488.521 105.96ZM550.707 130.6C550.867 130.6 551.107 130.68 551.347 130.76C552.227 131 553.107 131.08 553.987 131.16C554.547 131.16 555.107 131.24 555.667 131.32C558.627 131.88 561.507 131.88 564.467 131.64C565.267 131.56 566.067 131.4 566.867 131.24C568.147 131.16 569.427 130.76 570.707 130.6C571.027 130.6 571.347 130.44 571.587 130.36C573.987 129.64 576.147 128.52 578.147 127.24C578.307 127.08 578.467 127 578.547 126.92C578.787 126.76 578.867 126.52 578.947 126.28C578.947 125.96 578.947 125.64 578.947 125.32C578.947 123.32 578.947 121.4 578.947 119.48C578.947 118.68 579.028 117.96 579.267 117.32C579.427 116.92 579.427 116.52 579.427 116.12C579.427 115.8 579.267 115.64 579.028 115.56C578.787 115.4 578.547 115.56 578.307 115.64C577.987 115.88 577.747 116.2 577.587 116.6C577.347 117 577.107 117.48 576.947 117.96C576.788 118.52 576.547 119.16 576.387 119.8C575.987 120.92 575.587 122.12 575.027 123.16C574.707 123.72 574.307 124.28 573.907 124.76C573.267 125.48 572.547 126.12 571.747 126.76C571.027 127.24 570.227 127.72 569.427 128.04C568.867 128.28 568.307 128.44 567.747 128.6C567.027 128.76 566.227 128.92 565.427 129.08C565.267 129.08 565.107 129.08 564.947 129.08C563.507 129.16 562.147 129.16 560.787 129C559.667 128.92 558.547 128.76 557.347 128.68C557.107 128.68 556.867 128.68 556.627 128.6C555.027 128.04 553.507 127.32 552.067 126.36C551.827 126.28 551.667 126.12 551.507 125.96C550.787 125.32 550.227 124.68 549.827 123.88C549.267 122.6 548.547 121.4 547.827 120.28C547.347 119.56 547.027 118.84 546.707 118.12C546.467 117.56 546.227 117.08 546.227 116.44C546.147 115.56 545.747 114.76 545.667 113.8C545.587 112.92 545.347 112.12 545.107 111.24C544.867 110.2 544.707 109.16 544.707 108.12C544.707 106.68 544.707 105.32 544.707 103.96C544.707 103.16 544.707 102.36 544.867 101.56C545.107 100.36 545.107 99.24 545.107 98.12C545.187 96.84 545.187 95.56 545.587 94.28C545.587 94.2 545.587 94.12 545.667 94.04C545.667 93 545.987 92.12 546.307 91.16C546.947 89.48 547.507 87.8 548.467 86.12C548.867 85.56 549.347 84.92 549.827 84.28C550.627 83.16 551.507 82.12 552.707 81.32C553.027 81.08 553.267 80.84 553.667 80.6C554.707 79.72 555.827 78.92 557.107 78.36C558.547 77.72 559.747 77.4 560.867 77.32C561.907 77.32 562.947 77.24 563.987 77.4C565.347 77.56 565.347 77.56 566.867 77.96C567.507 78.12 568.067 78.44 568.707 78.6C569.347 78.76 569.987 79 570.467 79.32C571.267 79.88 572.147 80.44 572.867 81C573.507 81.48 574.067 82.12 574.548 82.84C575.107 83.8 575.668 84.76 576.227 85.8C576.707 86.68 577.107 87.72 577.347 88.76C577.508 89.24 577.747 89.8 577.908 90.36C577.908 90.52 578.067 90.6 578.067 90.76C578.227 91 578.707 91.16 578.947 91C579.267 90.84 579.427 90.52 579.427 90.2C579.427 89.08 579.348 87.96 579.107 86.84C579.028 86.36 578.947 85.88 578.867 85.4C578.867 85 578.787 84.52 578.707 84.2C578.467 83.32 578.467 82.44 578.387 81.48C578.387 80.92 578.387 80.36 578.307 79.8C578.307 79.4 578.227 79 578.067 78.6C577.827 78.2 577.508 77.8 577.107 77.56C576.147 76.76 575.027 76.36 573.828 76.04C573.427 75.96 573.027 75.96 572.627 75.8C571.988 75.64 571.347 75.56 570.707 75.56C570.067 75.48 569.427 75.48 568.787 75.48C567.587 75.48 566.467 75.48 565.347 75.4C564.547 75.4 563.747 75.48 562.947 75.16C562.867 75.16 562.787 75.16 562.707 75.16C561.347 75.08 560.067 75 558.787 75.32C558.067 75.48 557.347 75.48 556.627 75.64C555.987 75.88 555.427 76.04 554.787 76.12C554.147 76.2 553.507 76.44 552.867 76.52C552.547 76.52 552.227 76.68 551.907 76.76C551.347 77.08 550.707 77.32 550.147 77.64C548.787 78.36 547.507 79.16 546.147 79.88C545.187 80.36 544.307 81 543.427 81.56C543.187 81.72 542.867 81.96 542.707 82.2C541.747 83.08 540.867 83.96 539.907 84.92C539.267 85.56 538.867 86.36 538.227 87C537.427 87.96 536.867 89.08 536.387 90.12C535.987 90.84 535.667 91.64 535.347 92.36C535.267 92.68 535.107 93 535.027 93.32C534.947 94.04 534.627 94.68 534.467 95.4C534.227 96.44 533.987 97.48 533.987 98.52C533.907 99 533.827 99.48 533.747 99.96C533.587 100.68 533.587 101.4 533.587 102.12C533.507 103.72 533.507 105.24 533.667 106.76C533.667 107.8 533.827 108.84 533.987 109.88C534.147 110.52 534.387 111.16 534.547 111.8C534.787 112.84 535.267 113.72 535.667 114.76C535.827 115.32 536.067 115.8 536.387 116.28C536.947 117.24 537.507 118.28 538.067 119.24C538.307 119.72 538.627 120.28 538.947 120.68C539.667 121.48 540.227 122.36 540.787 123.24C541.027 123.56 541.187 123.8 541.347 124.04C543.347 126.36 545.667 128.28 548.467 129.56C549.187 129.88 549.907 130.2 550.707 130.6ZM606.037 131.08C606.837 131.08 607.637 131.08 608.437 131.08C613.877 131.08 619.317 131.08 624.757 131.08C625.477 131.08 626.117 131.08 626.757 131C627.237 131 627.717 130.76 628.117 130.52C628.357 130.28 628.517 129.96 628.597 129.64C628.677 129 628.677 128.36 628.758 127.72C628.837 127.32 628.837 126.92 628.917 126.52C629.077 125.88 629.158 125.24 629.158 124.6C629.237 123.56 629.237 122.52 629.397 121.48C629.717 120.2 629.717 118.84 629.637 117.56C629.637 117.16 629.158 116.84 628.758 117C628.438 117 628.197 117.24 628.038 117.56C627.957 117.8 627.877 118.04 627.877 118.28C627.717 118.92 627.637 119.56 627.397 120.12C627.237 120.76 626.997 121.4 626.677 121.96C626.437 122.52 626.117 123.08 625.877 123.72C625.637 124.2 625.317 124.68 624.997 125.16C624.677 125.56 624.358 125.88 623.958 126.2C623.637 126.44 623.317 126.68 622.917 126.84C622.437 127.16 621.957 127.4 621.397 127.56C620.117 127.88 618.917 128.2 617.557 128.28C616.437 128.28 615.317 128.28 614.197 128.52C613.797 128.6 613.317 128.6 612.917 128.6C609.957 128.6 606.917 128.6 603.957 128.6C603.717 128.6 603.477 128.6 603.237 128.6C603.077 128.52 602.677 128.28 602.677 128.12C602.597 127.96 602.517 127.8 602.517 127.64C602.517 126.68 602.437 125.72 602.437 124.76C602.437 121.32 602.437 117.88 602.437 114.52C602.437 112.84 602.437 111.24 602.677 109.64C602.757 109.24 602.757 108.84 602.757 108.44C602.837 107.32 602.837 106.12 602.917 105C602.917 104.76 602.917 104.52 602.997 104.28C602.997 104.12 603.317 103.8 603.477 103.8C603.717 103.72 604.117 103.64 604.437 103.64C606.997 103.72 609.637 103.72 612.197 103.72C613.237 103.72 614.117 103.96 614.997 104.44C615.157 104.6 615.397 104.68 615.637 104.84C615.717 104.84 615.717 104.92 615.797 105C616.117 105.16 616.357 105.4 616.437 105.72C616.837 106.68 617.157 107.72 617.397 108.68C617.557 109.24 617.717 109.8 617.957 110.36C618.037 110.44 618.117 110.6 618.197 110.76C618.357 111 618.517 111.08 618.837 111.08C619.077 111.08 619.397 110.76 619.477 110.44C619.477 110.2 619.477 109.96 619.477 109.72C619.477 109.08 619.397 108.44 619.237 107.8C619.077 107.16 618.997 106.52 618.997 105.88C618.917 104.68 618.917 103.48 618.997 102.2C619.077 101.72 618.997 101.24 619.157 100.76C619.397 99.24 619.397 97.72 619.557 96.2C619.637 95.56 619.557 95 619.557 94.44C619.557 94.28 619.557 94.12 619.477 93.96C619.397 93.88 619.237 93.72 619.157 93.64C619.077 93.56 618.597 93.72 618.517 93.8C618.357 94.04 618.197 94.2 618.117 94.44C617.877 95.16 617.717 95.88 617.637 96.6C617.477 97.32 617.237 97.96 616.997 98.68C616.837 99.24 616.437 99.64 615.957 99.96C615.077 100.52 614.197 100.84 613.237 100.84C612.837 100.84 612.437 100.92 612.037 100.92C609.317 100.92 606.677 100.92 603.957 100.92C603.877 100.92 603.797 100.92 603.717 100.92C603.397 100.84 603.077 100.52 603.077 100.28C603.077 99.56 603.077 98.76 603.077 98.04C603.077 97.4 602.997 96.76 603.077 96.12C603.237 95.32 603.237 94.52 603.237 93.72C603.237 91.96 603.237 90.28 603.237 88.6C603.237 87.24 603.317 85.96 603.077 84.68C602.997 84.44 602.997 84.2 602.997 83.96C602.997 82.36 602.917 80.68 602.917 79.08C602.837 78.84 602.917 78.6 602.917 78.36C602.917 78.12 603.237 77.72 603.557 77.64C603.877 77.56 604.197 77.56 604.517 77.56C607.557 77.56 610.677 77.56 613.717 77.56C614.757 77.56 615.717 77.56 616.677 77.56C616.997 77.56 617.317 77.56 617.637 77.64C618.357 77.88 619.077 77.88 619.797 78.04C620.037 78.12 620.277 78.2 620.437 78.36C620.597 78.44 620.757 78.52 620.837 78.6C622.197 79.8 623.317 81.24 624.277 82.76C624.677 83.4 625.078 84.12 625.477 84.84C625.557 85 625.637 85.16 625.637 85.32C625.877 86.04 626.198 86.68 626.277 87.4C626.277 87.64 626.357 87.88 626.437 88.12C626.437 88.28 626.517 88.44 626.677 88.52C626.757 88.6 626.918 88.68 627.077 88.68C627.237 88.76 627.637 88.44 627.637 88.28C627.637 88.12 627.717 87.96 627.717 87.8C627.717 86.6 627.717 85.4 627.557 84.2C627.477 83.4 627.397 82.52 627.397 81.72C627.397 80.52 627.397 79.32 627.397 78.12C627.318 77.32 627.318 76.6 627.157 75.88C627.157 75.64 626.757 75.32 626.517 75.24C626.117 75.16 625.717 75.16 625.317 75.16C617.317 75.08 609.397 75.08 601.397 75C600.837 75 600.277 75 599.717 75.08C598.677 75.16 597.557 75.16 596.517 75.16C595.957 75.16 595.397 75.24 594.837 75.32C593.237 75.64 591.637 75.56 589.957 75.32C588.757 75.16 587.557 75.16 586.357 75.24C586.117 75.24 585.797 75.56 585.797 75.88C585.797 76.04 585.877 76.2 585.957 76.36C586.277 76.68 586.597 76.92 586.997 76.92C587.877 77 588.757 77.32 589.637 77.48C590.037 77.56 590.357 77.8 590.677 78.12C590.917 78.28 591.077 78.6 591.077 78.92C591.157 79.4 591.157 79.88 591.157 80.36C591.157 83.8 591.157 87.24 591.157 90.6C591.237 92.2 591.237 93.72 591.317 95.24C591.317 95.72 591.317 96.2 591.397 96.68C591.557 97.48 591.557 98.36 591.557 99.16C591.557 101.24 591.557 103.4 591.637 105.48C591.717 106.52 591.637 107.56 591.557 108.6C591.317 110.2 591.317 111.72 591.237 113.24C591.237 114.28 591.237 115.4 591.157 116.44C591.157 116.92 591.157 117.4 591.077 117.88C590.757 118.92 590.837 119.96 590.837 121C590.837 122.2 590.837 123.32 590.837 124.44C590.837 125.24 590.757 126.04 590.677 126.84C590.597 127.48 590.277 127.96 589.717 128.2C589.397 128.44 588.997 128.6 588.597 128.76C588.037 129 587.397 129.08 586.757 129.16C586.197 129.24 585.637 129.48 585.157 129.8C584.997 129.96 584.917 130.2 584.917 130.44C584.917 130.68 585.157 130.92 585.317 131C585.637 131.16 585.957 131.16 586.277 131.16C590.677 131.16 595.077 131.24 599.477 131.24C601.557 131.24 603.717 131.32 605.797 131.08C605.877 131.08 605.957 131.08 606.037 131.08ZM646.508 87.48C646.748 87.48 646.988 87.64 647.068 87.88C648.588 90.76 650.028 93.64 651.468 96.6C651.548 96.76 651.628 97 651.788 97.24C652.428 98.92 653.068 100.28 653.948 101.88C654.668 103.08 655.148 104.36 655.628 105.64C656.268 107.48 656.828 109.32 657.708 111.08C657.868 111.32 657.948 111.48 658.028 111.72C658.508 113.32 659.228 114.76 659.708 116.28C660.188 117.72 660.668 119.08 661.388 120.36C661.708 121.32 662.268 122.28 662.588 123.32C662.748 123.8 662.988 124.36 663.228 124.84C663.948 126.12 664.588 127.48 665.148 128.84C665.308 129 665.388 129.24 665.468 129.48C665.548 129.56 665.548 129.56 665.628 129.64C665.788 130.04 666.348 130.04 666.668 129.72C666.828 129.4 666.988 129.16 667.148 128.84C667.548 127.72 668.028 126.6 668.428 125.48C668.748 124.6 668.988 123.72 669.308 122.92C669.628 121.8 669.948 120.76 670.428 119.72C671.068 118.28 671.628 116.84 672.188 115.4C672.508 114.6 672.908 113.8 673.308 113C673.708 112.12 674.028 111.16 674.268 110.2C674.508 109.4 674.828 108.52 675.068 107.64C675.388 106.6 675.788 105.48 676.108 104.44C676.668 103 677.068 101.48 677.708 100.12C677.868 99.88 677.948 99.64 677.948 99.4C678.508 97.72 679.068 96.04 679.628 94.28C680.348 91.8 681.308 89.4 682.348 87C682.588 86.6 682.748 86.12 682.988 85.72C682.988 85.64 683.068 85.56 683.148 85.56C683.228 85.48 683.308 85.48 683.388 85.56C683.468 85.56 683.628 85.72 683.708 85.88C683.868 86.76 683.788 87.64 683.788 88.52C683.788 95.64 683.788 102.68 683.788 109.72C683.788 110.28 683.708 110.92 683.708 111.48C683.628 112.2 683.548 112.92 683.548 113.64C683.548 116.76 683.468 119.8 683.468 122.92C683.468 123.96 683.388 125 683.308 126.04C683.228 126.52 683.068 127 682.988 127.48C682.908 127.72 682.748 127.96 682.588 128.12C682.588 128.12 682.508 128.2 682.428 128.28C681.788 128.76 681.068 129.16 680.188 129.24C679.308 129.56 678.348 129.72 677.468 130.12C677.308 130.2 677.148 130.28 677.068 130.44C676.988 130.52 676.908 130.68 676.828 130.84C676.828 131 677.148 131.4 677.228 131.4C677.468 131.48 677.708 131.56 677.948 131.56C680.748 131.48 683.468 131.48 686.268 131.48C687.628 131.48 688.988 131.48 690.348 131.32C690.828 131.24 691.388 131.24 691.868 131.24C693.868 131.24 695.868 131.24 697.948 131.16C698.508 131.16 699.068 131.16 699.628 131.08C699.788 131.08 699.948 131 700.108 131C700.268 130.92 700.508 130.6 700.508 130.44C700.508 130.2 700.268 129.88 700.188 129.8C700.028 129.8 699.868 129.64 699.708 129.64C698.508 129.56 697.468 129.16 696.508 128.6C696.188 128.52 695.948 128.28 695.628 128.12C695.388 127.88 695.228 127.64 695.068 127.32C694.908 126.92 694.748 126.44 694.828 125.96C695.068 124.92 695.068 123.96 695.068 123C695.068 120.92 695.068 118.76 695.068 116.68C695.148 113.4 695.148 110.2 695.148 106.92C695.068 99.64 695.148 92.28 695.148 85C695.148 83.88 695.148 82.68 695.228 81.56C695.228 80.68 695.388 79.8 695.628 78.92C695.708 78.36 696.108 77.88 696.588 77.56C696.908 77.32 697.228 77.08 697.628 77C698.508 76.92 699.388 76.68 700.188 76.36C700.428 76.28 700.428 76.2 700.428 75.96C700.428 75.64 700.188 75.32 699.948 75.24C699.628 75.16 699.308 75.16 698.988 75.16C695.868 75.16 692.748 75.16 689.708 75.16C687.148 75.16 687.148 75.16 684.588 75.56C684.508 75.56 684.428 75.56 684.348 75.56C684.108 75.72 683.948 75.8 683.708 75.88C683.548 76.04 683.308 76.2 683.228 76.44C682.988 76.84 682.668 77.24 682.508 77.72C681.788 79.24 681.148 80.84 680.588 82.44C680.188 83.64 679.788 84.76 679.308 85.88C678.428 87.96 677.628 90.04 676.908 92.28C676.748 92.76 676.588 93.32 676.348 93.88C675.628 95.8 674.828 97.8 673.948 99.72C673.068 101.88 672.108 104.04 671.308 106.28C671.068 106.76 670.908 107.32 670.668 107.8C670.588 108.04 670.428 108.12 670.268 108.04C670.108 108.04 670.028 107.96 669.948 107.8C669.788 107.48 669.708 107.16 669.548 106.84C669.068 105.96 668.588 105 668.188 104.04C667.708 103 667.148 102.04 666.668 100.92C666.588 100.6 666.348 100.2 666.188 99.88C665.548 98.76 664.988 97.56 664.428 96.36C664.028 95.64 663.708 94.92 663.388 94.2C662.988 93.16 662.588 92.2 662.028 91.32C661.148 89.48 660.188 87.72 659.308 85.88C658.988 85.32 658.748 84.68 658.508 84.12C657.628 82.28 656.828 80.36 656.028 78.52C655.708 77.88 655.388 77.24 655.068 76.52C654.988 76.36 654.908 76.12 654.748 75.88C654.588 75.56 654.188 75.32 653.788 75.24C653.548 75.16 653.308 75.08 653.068 75.08C652.268 75.08 651.468 75 650.668 75C648.588 75 646.588 75 644.588 75C643.628 75 642.748 75 641.868 75.24C641.148 75.32 640.428 75.4 639.708 75.4C639.228 75.48 638.748 75.48 638.268 75.56C637.868 75.56 637.468 75.64 637.068 75.8C636.748 75.96 636.428 76.04 636.188 76.2C636.108 76.2 636.028 76.28 636.028 76.36C635.788 76.52 635.868 76.84 636.028 77C636.268 77.16 636.588 77.32 636.908 77.32C637.868 77.32 638.828 77.32 639.788 77.4C640.028 77.4 640.268 77.48 640.508 77.56C640.748 77.56 641.148 78.04 641.148 78.28C641.148 78.52 641.148 78.76 641.148 79C641.148 80.6 641.148 82.2 641.148 83.88C641.148 84.36 641.068 84.84 641.148 85.32C641.388 86.36 641.388 87.4 641.468 88.44C641.548 90.28 641.468 92.04 641.788 93.8C641.868 94.04 641.868 94.28 641.868 94.52C641.948 96.52 642.028 98.44 642.108 100.36C642.108 101.56 642.108 102.68 642.268 103.8C642.348 104.28 642.348 104.76 642.348 105.24C642.428 110.2 642.508 115.16 642.428 120.12C642.428 121.4 642.428 122.76 642.428 124.04C642.428 125.4 642.188 126.76 642.028 128.12C641.948 128.6 641.628 128.92 641.308 129.08C640.828 129.24 640.348 129.48 639.948 129.56C638.988 129.8 638.028 130.12 637.068 130.12C636.828 130.12 636.588 130.2 636.348 130.28C636.108 130.36 635.948 130.52 635.788 130.76C635.708 130.92 635.628 131.08 635.788 131.24C635.868 131.32 636.028 131.48 636.108 131.48C637.068 131.64 638.108 131.56 639.068 131.56C639.388 131.48 639.708 131.48 640.028 131.4C640.428 131.24 640.828 131.24 641.228 131.16C642.988 131.16 644.748 131.16 646.588 131.16C647.148 131.16 647.708 131.24 648.268 131.24C649.308 131.56 650.348 131.56 651.388 131.56C651.948 131.56 652.588 131.48 653.148 131.48C653.308 131.48 653.388 131.4 653.548 131.32C653.948 131.08 654.028 130.6 653.708 130.28C653.468 130.04 653.228 129.88 652.828 129.8C652.428 129.72 652.028 129.72 651.628 129.72C650.588 129.72 649.548 129.48 648.508 129.24C647.868 129.08 647.308 128.76 646.748 128.44C646.508 128.28 646.268 127.96 646.268 127.64C646.268 126.92 646.268 126.2 646.268 125.4C646.428 121.64 646.428 117.8 646.428 113.96C646.428 110.44 646.428 106.84 646.428 103.24C646.428 102.52 646.428 101.8 646.428 101.08C646.268 97.32 646.268 93.56 646.268 89.88C646.268 89.16 646.348 88.52 646.348 87.88C646.348 87.72 646.428 87.56 646.508 87.48ZM726.975 131.08C727.775 131.08 728.575 131.08 729.375 131.08C734.815 131.08 740.255 131.08 745.695 131.08C746.415 131.08 747.055 131.08 747.695 131C748.175 131 748.655 130.76 749.055 130.52C749.295 130.28 749.455 129.96 749.535 129.64C749.615 129 749.615 128.36 749.695 127.72C749.775 127.32 749.775 126.92 749.855 126.52C750.015 125.88 750.095 125.24 750.095 124.6C750.175 123.56 750.175 122.52 750.335 121.48C750.655 120.2 750.655 118.84 750.575 117.56C750.575 117.16 750.095 116.84 749.695 117C749.375 117 749.135 117.24 748.975 117.56C748.895 117.8 748.815 118.04 748.815 118.28C748.655 118.92 748.575 119.56 748.335 120.12C748.175 120.76 747.935 121.4 747.615 121.96C747.375 122.52 747.055 123.08 746.815 123.72C746.575 124.2 746.255 124.68 745.935 125.16C745.615 125.56 745.295 125.88 744.895 126.2C744.575 126.44 744.255 126.68 743.855 126.84C743.375 127.16 742.895 127.4 742.335 127.56C741.055 127.88 739.855 128.2 738.495 128.28C737.375 128.28 736.255 128.28 735.135 128.52C734.735 128.6 734.255 128.6 733.855 128.6C730.895 128.6 727.855 128.6 724.895 128.6C724.655 128.6 724.415 128.6 724.175 128.6C724.015 128.52 723.615 128.28 723.615 128.12C723.535 127.96 723.455 127.8 723.455 127.64C723.455 126.68 723.375 125.72 723.375 124.76C723.375 121.32 723.375 117.88 723.375 114.52C723.375 112.84 723.375 111.24 723.615 109.64C723.695 109.24 723.695 108.84 723.695 108.44C723.775 107.32 723.775 106.12 723.855 105C723.855 104.76 723.855 104.52 723.935 104.28C723.935 104.12 724.255 103.8 724.415 103.8C724.655 103.72 725.055 103.64 725.375 103.64C727.935 103.72 730.575 103.72 733.135 103.72C734.175 103.72 735.055 103.96 735.935 104.44C736.095 104.6 736.335 104.68 736.575 104.84C736.655 104.84 736.655 104.92 736.735 105C737.055 105.16 737.295 105.4 737.375 105.72C737.775 106.68 738.095 107.72 738.335 108.68C738.495 109.24 738.655 109.8 738.895 110.36C738.975 110.44 739.055 110.6 739.135 110.76C739.295 111 739.455 111.08 739.775 111.08C740.015 111.08 740.335 110.76 740.415 110.44C740.415 110.2 740.415 109.96 740.415 109.72C740.415 109.08 740.335 108.44 740.175 107.8C740.015 107.16 739.935 106.52 739.935 105.88C739.855 104.68 739.855 103.48 739.935 102.2C740.015 101.72 739.935 101.24 740.095 100.76C740.335 99.24 740.335 97.72 740.495 96.2C740.575 95.56 740.495 95 740.495 94.44C740.495 94.28 740.495 94.12 740.415 93.96C740.335 93.88 740.175 93.72 740.095 93.64C740.015 93.56 739.535 93.72 739.455 93.8C739.295 94.04 739.135 94.2 739.055 94.44C738.815 95.16 738.655 95.88 738.575 96.6C738.415 97.32 738.175 97.96 737.935 98.68C737.775 99.24 737.375 99.64 736.895 99.96C736.015 100.52 735.135 100.84 734.175 100.84C733.775 100.84 733.375 100.92 732.975 100.92C730.255 100.92 727.615 100.92 724.895 100.92C724.815 100.92 724.735 100.92 724.655 100.92C724.335 100.84 724.015 100.52 724.015 100.28C724.015 99.56 724.015 98.76 724.015 98.04C724.015 97.4 723.935 96.76 724.015 96.12C724.175 95.32 724.175 94.52 724.175 93.72C724.175 91.96 724.175 90.28 724.175 88.6C724.175 87.24 724.255 85.96 724.015 84.68C723.935 84.44 723.935 84.2 723.935 83.96C723.935 82.36 723.855 80.68 723.855 79.08C723.775 78.84 723.855 78.6 723.855 78.36C723.855 78.12 724.175 77.72 724.495 77.64C724.815 77.56 725.135 77.56 725.455 77.56C728.495 77.56 731.615 77.56 734.655 77.56C735.695 77.56 736.655 77.56 737.615 77.56C737.935 77.56 738.255 77.56 738.575 77.64C739.295 77.88 740.015 77.88 740.735 78.04C740.975 78.12 741.215 78.2 741.375 78.36C741.535 78.44 741.695 78.52 741.775 78.6C743.135 79.8 744.255 81.24 745.215 82.76C745.615 83.4 746.015 84.12 746.415 84.84C746.495 85 746.575 85.16 746.575 85.32C746.815 86.04 747.135 86.68 747.215 87.4C747.215 87.64 747.295 87.88 747.375 88.12C747.375 88.28 747.455 88.44 747.615 88.52C747.695 88.6 747.855 88.68 748.015 88.68C748.175 88.76 748.575 88.44 748.575 88.28C748.575 88.12 748.655 87.96 748.655 87.8C748.655 86.6 748.655 85.4 748.495 84.2C748.415 83.4 748.335 82.52 748.335 81.72C748.335 80.52 748.335 79.32 748.335 78.12C748.255 77.32 748.255 76.6 748.095 75.88C748.095 75.64 747.695 75.32 747.455 75.24C747.055 75.16 746.655 75.16 746.255 75.16C738.255 75.08 730.335 75.08 722.335 75C721.775 75 721.215 75 720.655 75.08C719.615 75.16 718.495 75.16 717.455 75.16C716.895 75.16 716.335 75.24 715.775 75.32C714.175 75.64 712.575 75.56 710.895 75.32C709.695 75.16 708.495 75.16 707.295 75.24C707.055 75.24 706.735 75.56 706.735 75.88C706.735 76.04 706.815 76.2 706.895 76.36C707.215 76.68 707.535 76.92 707.935 76.92C708.815 77 709.695 77.32 710.575 77.48C710.975 77.56 711.295 77.8 711.615 78.12C711.855 78.28 712.015 78.6 712.015 78.92C712.095 79.4 712.095 79.88 712.095 80.36C712.095 83.8 712.095 87.24 712.095 90.6C712.175 92.2 712.175 93.72 712.255 95.24C712.255 95.72 712.255 96.2 712.335 96.68C712.495 97.48 712.495 98.36 712.495 99.16C712.495 101.24 712.495 103.4 712.575 105.48C712.655 106.52 712.575 107.56 712.495 108.6C712.255 110.2 712.255 111.72 712.175 113.24C712.175 114.28 712.175 115.4 712.095 116.44C712.095 116.92 712.095 117.4 712.015 117.88C711.695 118.92 711.775 119.96 711.775 121C711.775 122.2 711.775 123.32 711.775 124.44C711.775 125.24 711.695 126.04 711.615 126.84C711.535 127.48 711.215 127.96 710.655 128.2C710.335 128.44 709.935 128.6 709.535 128.76C708.975 129 708.335 129.08 707.695 129.16C707.135 129.24 706.575 129.48 706.095 129.8C705.935 129.96 705.855 130.2 705.855 130.44C705.855 130.68 706.095 130.92 706.255 131C706.575 131.16 706.895 131.16 707.215 131.16C711.615 131.16 716.015 131.24 720.415 131.24C722.495 131.24 724.655 131.32 726.735 131.08C726.815 131.08 726.895 131.08 726.975 131.08ZM766.646 105.96C766.566 101.48 766.566 95.08 766.566 88.68C766.566 88.44 766.566 88.28 766.566 88.12C766.566 88.04 766.566 87.96 766.566 87.88C766.646 87.8 766.726 87.64 766.806 87.48C766.966 87.56 767.126 87.56 767.286 87.64C767.846 88.12 768.326 88.68 768.726 89.24C770.326 91.24 771.926 93.16 773.686 95C774.006 95.32 774.246 95.72 774.566 96.12C775.446 97.24 776.166 98.36 776.886 99.56C777.526 100.52 778.166 101.48 778.886 102.28C779.526 103 780.006 103.72 780.486 104.44C781.126 105.4 781.766 106.36 782.486 107.24C784.246 109.72 786.086 112.28 787.766 114.84C788.566 115.96 789.366 117.08 790.246 118.12C790.566 118.52 790.886 118.92 791.126 119.32C792.886 121.72 794.566 124.2 796.166 126.76C797.046 128.04 798.006 129.24 799.206 130.28C799.286 130.28 799.286 130.36 799.366 130.44C799.926 130.76 800.566 131 801.206 130.84C801.526 130.76 801.846 130.68 802.166 130.52C802.486 130.44 802.646 130.12 802.726 129.8C802.726 129.56 802.806 129.32 802.806 129.08C802.806 125.64 802.806 122.28 802.726 118.84C802.646 112.2 802.566 105.48 802.566 98.84C802.566 97.8 802.566 96.76 802.566 95.72C802.566 94.44 802.646 93.24 802.406 92.04C802.326 91.64 802.326 91.24 802.326 90.84C802.326 87 802.246 83.16 802.246 79.4C802.246 79.24 802.246 79.08 802.246 78.92C802.326 78.28 802.566 77.8 802.966 77.4C803.446 76.84 804.086 76.44 804.886 76.44C806.006 76.44 807.126 76.2 808.246 75.88C808.486 75.88 808.646 75.72 808.806 75.48C808.886 75.48 808.886 75.32 808.886 75.24C808.886 75.16 808.726 75 808.566 75C808.406 74.92 808.246 74.92 808.086 74.92C803.206 74.92 798.326 74.92 793.446 75C793.286 75 793.126 75 792.966 75C792.726 75.08 792.406 75.4 792.486 75.72C792.486 75.88 792.806 76.28 792.966 76.28C793.206 76.28 793.446 76.36 793.686 76.36C794.326 76.36 794.966 76.36 795.606 76.36C796.086 76.36 796.566 76.36 797.046 76.44C797.606 76.6 798.086 76.92 798.326 77.48C798.566 77.96 798.726 78.44 798.726 78.92C798.806 79.48 798.806 80.04 798.806 80.6C798.806 82.52 798.806 84.52 798.806 86.44C798.806 92.6 798.806 98.76 798.726 105C798.726 105.56 798.726 106.12 798.726 106.68C798.726 106.76 798.646 106.84 798.566 106.92C798.566 107.08 798.406 107.16 798.246 107.16C797.846 107.24 797.526 107.08 797.366 106.84C796.566 105.8 795.766 104.76 795.046 103.72C794.326 102.6 793.606 101.56 792.806 100.52C791.606 99.08 790.486 97.56 789.446 96.04C788.966 95.4 788.486 94.76 788.006 94.12C787.126 93 786.166 92.04 785.286 90.92C784.726 90.36 784.246 89.72 783.686 89.08C783.206 88.44 782.566 87.8 782.086 87C781.846 86.68 781.526 86.36 781.286 86.04C780.726 85.48 780.166 84.92 779.606 84.28C778.886 83.4 778.166 82.52 777.446 81.64C776.966 81.08 776.566 80.52 776.086 79.96C775.526 79.32 774.966 78.76 774.406 78.2C773.846 77.64 773.206 77.08 772.646 76.44C772.406 76.28 772.166 76.04 771.926 75.8C771.686 75.64 771.366 75.48 771.046 75.48C770.886 75.4 770.726 75.4 770.566 75.4C767.126 75.32 763.766 75.32 760.326 75.4C760.166 75.4 760.006 75.4 759.846 75.48C759.286 75.48 758.726 75.72 758.246 76.04C758.166 76.12 758.006 76.28 757.926 76.36C757.766 76.6 757.766 77.08 757.926 77.24C758.166 77.48 758.326 77.64 758.566 77.72C759.206 78.04 759.766 78.52 760.246 79.08C760.806 79.56 761.126 80.2 761.286 81C761.366 81.56 761.366 82.12 761.526 82.68C761.686 83.56 761.766 84.44 761.686 85.32C761.606 89.16 761.686 92.92 761.766 96.76C761.846 98.76 761.846 100.68 761.846 102.6C761.846 110.52 761.766 118.36 761.846 126.28C761.846 126.76 761.846 127.24 761.766 127.72C761.686 128.44 761.286 128.92 760.566 129.16C760.006 129.32 759.366 129.56 758.726 129.56C758.086 129.64 757.606 129.88 757.126 130.12C756.886 130.28 756.726 130.44 756.646 130.68C756.566 130.84 756.486 131 756.646 131.16C756.726 131.24 756.806 131.4 756.966 131.48C757.286 131.48 757.606 131.56 757.926 131.56C762.006 131.56 766.086 131.56 770.086 131.56C770.806 131.56 771.446 131.56 772.086 131.56C772.246 131.56 772.406 131.48 772.566 131.4C772.726 131.4 772.886 131.08 772.806 130.84C772.646 130.52 772.406 130.28 772.086 130.2C771.046 129.96 770.086 129.64 768.966 129.56C768.646 129.56 768.326 129.48 768.006 129.4C767.206 129.24 766.726 128.52 766.646 127.88C766.646 126.44 766.566 124.92 766.566 123.48C766.566 118.28 766.566 113.08 766.646 105.96ZM822.709 78.04C824.229 78.04 825.749 78.04 827.349 78.04C827.509 78.04 827.669 78.04 827.829 78.12C828.629 78.36 829.349 79.24 829.349 80.12C829.349 81 829.349 81.88 829.349 82.76C829.349 83.96 829.349 85.08 829.429 86.2C829.429 87.4 829.429 88.6 829.429 89.88C829.429 98.28 829.349 106.76 829.349 115.16C829.349 115.64 829.349 116.12 829.269 116.6C829.189 117.4 829.189 118.12 829.189 118.84C829.109 121.16 829.029 123.56 828.949 125.88C828.949 126.12 828.949 126.36 828.869 126.6C828.709 127.24 828.469 127.8 827.829 128.2C827.589 128.36 827.269 128.52 826.949 128.6C826.389 128.76 825.749 129 825.109 129.16C824.469 129.4 823.909 129.56 823.269 129.8C823.029 129.88 822.869 130.04 822.709 130.28C822.549 130.52 822.709 131 823.029 131C823.269 131.08 823.509 131.16 823.749 131.16C830.469 131.08 837.189 131.08 843.909 131C844.149 131 844.389 131 844.629 131C844.949 130.92 845.269 130.84 845.589 130.76C845.669 130.68 845.749 130.68 845.829 130.6C845.909 130.52 845.989 130.36 846.069 130.2C846.149 130.12 845.909 129.64 845.749 129.64C845.269 129.48 844.789 129.32 844.309 129.24C843.429 129.08 842.629 128.68 841.829 128.36C841.589 128.2 841.429 128.12 841.189 127.96C840.869 127.64 840.629 127.32 840.629 126.92C840.629 124.76 840.549 122.68 840.549 120.6C840.709 115.8 840.789 111 840.709 106.2C840.709 99.72 840.709 93.24 840.709 86.68C840.709 85.56 840.709 84.44 840.789 83.32C840.789 81.32 840.789 81.32 841.189 79.4C841.269 78.92 841.669 78.6 842.149 78.44C842.309 78.44 842.469 78.36 842.629 78.36C842.869 78.36 843.109 78.36 843.349 78.36C844.709 78.36 846.149 78.44 847.509 78.44C847.909 78.44 848.309 78.6 848.709 78.68C849.349 78.84 849.909 79.08 850.469 79.4C850.709 79.48 850.949 79.64 851.109 79.72C851.989 80.36 852.709 81.16 853.269 82.12C853.429 82.52 853.669 82.92 853.909 83.4C854.389 84.2 854.709 85.16 854.949 86.12C855.029 86.84 855.269 87.48 855.509 88.2C855.509 88.28 855.589 88.36 855.669 88.36C855.749 88.52 855.909 88.6 856.069 88.6C856.149 88.68 856.229 88.68 856.309 88.68C856.869 88.68 857.269 88.36 857.269 87.88C857.349 86.68 857.189 85.56 857.029 84.44C856.949 83.72 856.869 83 856.869 82.28C856.789 80.84 856.709 79.32 856.709 77.88C856.629 77.4 856.629 76.92 856.629 76.44C856.549 76.12 856.469 75.8 856.309 75.48C856.149 75.24 855.989 75.16 855.749 75.08C855.429 75 855.109 75 854.789 75C853.509 74.92 852.149 74.92 850.869 74.92C843.589 75 836.309 75 828.949 75C825.109 75 821.349 75 817.509 75.08C816.789 75.08 816.069 75.08 815.349 75.08C815.029 75.16 814.709 75.24 814.389 75.4C814.149 75.56 813.909 75.96 813.909 76.2C813.829 76.44 813.829 76.68 813.829 76.92C813.749 77.88 813.749 78.84 813.589 79.88C813.509 80.36 813.509 80.84 813.509 81.32C813.429 82.2 813.429 83.08 813.349 83.96C813.349 85 813.349 86.12 813.029 87.08C812.949 87.4 813.029 87.72 813.109 88.04C813.349 88.68 813.989 88.84 814.549 88.52C814.629 88.52 814.709 88.44 814.709 88.36C815.029 87.88 815.269 87.32 815.269 86.76C815.429 85.56 815.909 84.44 816.469 83.32C816.789 82.76 817.109 82.2 817.429 81.64C817.749 81.16 818.069 80.76 818.469 80.36C818.869 80.04 819.189 79.72 819.589 79.4C820.149 78.92 820.789 78.52 821.509 78.36C821.909 78.28 822.309 78.12 822.709 78.04ZM872.838 87.08C872.838 84.6 872.838 84.6 873.558 82.44C873.718 82.04 873.798 81.64 873.958 81.24C874.518 80.12 875.318 79.24 876.358 78.6C876.438 78.52 876.518 78.52 876.598 78.44C877.558 78.12 878.438 77.8 879.398 77.88C880.598 77.88 881.718 77.88 882.838 77.88C883.158 77.88 883.478 77.88 883.798 77.96C884.598 78.2 885.398 78.36 886.118 78.68C888.198 79.64 889.798 81.08 890.918 83.08C891.158 83.56 891.398 84.04 891.718 84.52C892.198 85.4 892.438 86.36 892.678 87.32C892.758 88.28 893.238 89.16 893.398 90.12C893.398 90.2 893.478 90.28 893.558 90.36C893.638 90.52 893.878 90.6 894.118 90.68C894.278 90.68 894.678 90.44 894.678 90.28C894.838 89.48 895.078 88.68 895.078 87.88C895.158 86.04 895.158 84.12 894.998 82.28C894.838 81.32 894.838 80.36 894.758 79.4C894.758 79.08 894.758 78.76 894.678 78.44C894.598 78.2 894.438 77.96 894.278 77.8C894.118 77.72 894.038 77.56 893.878 77.48C893.238 77.16 892.598 76.84 891.878 76.52C891.158 76.28 890.358 76.04 889.558 75.8C888.998 75.64 888.358 75.48 887.718 75.48C887.078 75.4 886.518 75.4 885.958 75.32C885.158 75.16 884.358 75.16 883.558 75.16C882.118 75.16 880.598 75.16 879.158 75.16C878.278 75.16 877.398 75.24 876.518 75.32C875.718 75.48 874.918 75.56 874.118 75.8C873.878 75.96 873.638 75.96 873.398 75.96C872.518 76.12 871.718 76.44 870.838 76.52C870.358 76.6 869.878 76.84 869.478 77.08C868.918 77.4 868.438 77.64 868.038 78.04C867.718 78.44 867.318 78.76 866.998 79.08C866.678 79.48 866.358 79.8 866.038 80.2C865.478 81 864.918 81.8 864.438 82.6C864.278 82.84 864.118 83 864.038 83.24C863.878 83.88 863.558 84.44 863.478 85.08C863.238 86.2 862.998 87.32 862.838 88.44C862.598 89.56 862.598 90.68 862.678 91.8C862.918 92.6 862.918 93.4 862.998 94.2C862.998 94.44 863.078 94.76 863.158 94.92C863.478 96.12 863.878 97.32 864.518 98.36C864.838 98.92 865.238 99.56 865.638 100.2C866.598 101.72 867.798 103.08 869.318 104.04C869.478 104.2 869.718 104.36 869.878 104.52C870.438 105 870.998 105.4 871.718 105.72C871.958 105.88 872.278 106.04 872.518 106.2C874.598 107.56 876.678 108.76 878.918 109.8C879.798 110.2 880.598 110.68 881.398 111.24C882.998 112.28 884.358 113.56 885.638 114.92C886.358 115.72 886.838 116.6 886.998 117.72C887.078 118.04 887.158 118.36 887.238 118.68C887.398 119.48 887.398 120.28 887.318 121.08C887.318 121.16 887.318 121.24 887.318 121.32C886.998 122.12 886.758 123 886.438 123.88C885.958 124.92 885.238 125.8 884.278 126.44C883.958 126.76 883.638 126.84 883.238 127.08C882.198 127.32 881.238 127.56 880.118 127.56C878.838 127.56 877.558 127.56 876.278 127.56C876.038 127.56 875.718 127.56 875.478 127.56C874.598 127.32 873.558 127.24 872.678 126.92C872.118 126.76 871.558 126.52 871.078 126.2C870.838 126.04 870.518 125.88 870.278 125.72C869.478 125.32 868.758 124.76 868.118 124.12C867.878 123.88 867.558 123.56 867.238 123.32C866.278 122.28 865.478 121.16 864.838 119.96C864.438 119.32 864.118 118.68 863.958 117.96C863.718 117.24 863.478 116.6 863.318 115.88C863.318 115.64 863.158 115.4 862.998 115.24C862.918 115.08 862.518 114.92 862.358 115C862.278 115.16 862.118 115.24 862.038 115.4C861.958 115.48 861.958 115.64 861.958 115.8C862.038 116.84 862.038 117.8 862.278 118.76C862.358 119.16 862.358 119.56 862.438 119.96C862.518 121.56 862.518 123.16 862.838 124.76C862.918 125.16 862.918 125.56 862.918 126.04C862.918 126.44 862.998 126.84 862.998 127.24C863.078 127.72 863.238 128.2 863.478 128.6C863.558 128.84 863.718 129 863.958 129.08C865.078 129.56 866.198 130.12 867.398 130.36C868.438 130.6 869.478 130.92 870.518 131C871.318 131.08 872.118 131.16 872.918 131.16C876.038 131.16 879.078 131.08 882.198 131.08C882.598 131.08 882.998 131 883.398 130.92C884.038 130.84 884.678 130.6 885.318 130.6C885.958 130.52 886.518 130.2 887.158 130.12C889.238 129.72 890.998 128.84 892.438 127.24C892.518 127.16 892.678 127 892.758 126.92C893.478 126.2 894.118 125.48 894.678 124.68C894.918 124.36 895.158 124.04 895.398 123.72C895.798 123.16 896.198 122.52 896.518 121.88C897.078 120.84 897.478 119.8 897.878 118.76C897.958 118.52 898.038 118.28 898.118 118.04C898.438 116.52 898.438 116.52 898.438 114.92C898.438 114.44 898.438 113.96 898.438 113.48C898.358 113.16 898.278 112.84 898.198 112.52C897.718 110.76 897.078 109.08 896.278 107.48C895.878 106.76 895.398 106.12 894.838 105.56C894.038 104.68 893.158 103.8 892.198 103.08C890.438 101.72 888.758 100.36 886.918 99.16C885.318 98.2 883.798 97.08 882.198 96.12C881.078 95.48 880.038 94.68 878.918 93.96C878.358 93.56 877.798 93 877.238 92.6C876.918 92.28 876.598 92.04 876.358 91.8C875.478 91.16 874.758 90.36 874.118 89.56C873.718 89.08 873.398 88.6 873.238 88.12C873.158 87.8 872.998 87.48 872.838 87.08Z" fill="white"/>
<path d="M1047 136.557C1036.56 136.557 1032.66 131.78 1032.13 130.102C1031.84 129.209 1031.73 127.659 1031.78 125.361C1029.95 121.587 1031.84 113.291 1033.17 111.814C1035.01 109.79 1037.4 109.443 1038.17 109.37C1040.48 107.638 1044.11 107 1046.76 107C1051.45 107 1057.31 107.547 1061.05 111.814C1062.66 113.655 1063.67 120.219 1062.48 124.213C1062.61 127.057 1062.52 129.026 1062.19 130.084L1062.17 130.157L1062.13 130.23C1061.2 131.707 1057.41 136.557 1047 136.557ZM1046.76 108.295C1044.27 108.295 1040.87 108.878 1038.82 110.501L1038.65 110.629H1038.43C1038.17 110.629 1035.87 110.756 1034.14 112.652C1033.17 113.728 1031.29 121.66 1033.01 124.887L1033.08 125.033V125.197C1033.01 127.951 1033.19 129.154 1033.36 129.664C1033.74 130.85 1037.17 135.244 1047 135.244C1056.56 135.244 1060.06 131.014 1060.96 129.61C1061.14 128.935 1061.32 127.44 1061.18 124.14V124.03L1061.22 123.921C1062.39 120.183 1061.34 114.075 1060.08 112.634C1056.67 108.787 1051.18 108.295 1046.76 108.295Z" fill="#FDF1E3"/>
<path d="M1046.76 131.196C1044.05 131.196 1043.25 128.589 1042.55 126.309C1041.98 124.45 1041.43 122.681 1040.08 122.353C1038.56 121.988 1037.9 123.027 1037.02 124.814C1036.47 125.908 1035.98 126.929 1035.01 127.258C1034.51 127.422 1033.96 127.367 1033.38 127.075C1032.28 126.528 1031.54 125.361 1031.21 123.611C1030.41 119.417 1032.06 113.035 1033.17 111.814C1035.04 109.753 1037.44 109.425 1038.19 109.37C1040.3 107.802 1043.54 107 1046.76 107C1051.45 107 1057.31 107.547 1061.05 111.814C1062.64 113.619 1063.49 119.545 1062.7 123.337C1062.26 125.434 1061.4 126.802 1060.13 127.403C1059.57 127.677 1059.04 127.713 1058.54 127.549C1057.57 127.203 1057.06 126.091 1056.53 124.924C1055.65 123.009 1055.01 121.879 1053.47 122.243C1052.09 122.572 1051.56 124.358 1050.99 126.237C1050.28 128.57 1049.47 131.196 1046.76 131.196ZM1039.47 120.985C1039.75 120.985 1040.04 121.022 1040.37 121.095C1042.46 121.587 1043.14 123.793 1043.78 125.927C1044.55 128.406 1045.12 129.902 1046.76 129.902C1048.41 129.902 1048.98 128.388 1049.75 125.872C1050.41 123.72 1051.07 121.496 1053.16 121.003C1055.85 120.347 1056.91 122.681 1057.7 124.395C1058.1 125.27 1058.52 126.182 1058.98 126.346C1059.04 126.364 1059.2 126.437 1059.57 126.255C1060.67 125.726 1061.18 124.249 1061.42 123.082C1062.22 119.18 1061.16 113.911 1060.06 112.652C1056.67 108.787 1051.16 108.295 1046.75 108.295C1044.25 108.295 1040.96 108.878 1038.96 110.355C1038.89 110.464 1038.78 110.556 1038.65 110.61C1037.77 111.358 1037.2 112.324 1037.2 113.509C1037.2 117.12 1043.05 118.469 1046.73 118.469C1051.49 118.469 1055.72 115.406 1057.24 114.166C1053.34 111.431 1049.24 110.701 1046.8 110.938C1045.39 111.066 1043.72 111.54 1043.72 113.054C1043.72 113.582 1043.89 114.002 1044.22 114.312C1045.06 115.114 1046.69 115.041 1046.71 115.041C1047.08 115.023 1047.37 115.296 1047.39 115.643C1047.41 115.989 1047.13 116.299 1046.78 116.317C1046.69 116.317 1044.58 116.427 1043.32 115.242C1042.72 114.676 1042.42 113.947 1042.42 113.054C1042.42 111.139 1043.98 109.899 1046.67 109.644C1049.47 109.389 1054.29 110.264 1058.65 113.601L1059.26 114.056L1058.71 114.567C1058.49 114.786 1053.17 119.727 1046.71 119.727C1042.37 119.727 1035.9 118.068 1035.9 113.491C1035.9 112.561 1036.16 111.723 1036.62 110.993C1035.83 111.267 1034.9 111.777 1034.11 112.652C1033.28 113.564 1031.75 119.581 1032.46 123.356C1032.72 124.687 1033.21 125.544 1033.92 125.908C1034.31 126.109 1034.49 126.036 1034.57 126.018C1035.01 125.872 1035.43 125.033 1035.83 124.231C1036.54 122.827 1037.46 120.985 1039.47 120.985Z" fill="#FDF1E3"/>
</g>
<defs>
<clipPath id="clip0_754_58">
<rect width="150" height="1080" fill="white" transform="translate(1080) rotate(90)"/>
</clipPath>
</defs>
</svg>
