<svg width="1080" height="150" viewBox="0 0 1080 150" fill="none" xmlns="http://www.w3.org/2000/svg">
<g clip-path="url(#clip0_754_74)">
<rect width="150" height="1080" transform="translate(1080) rotate(90)" fill="#DD8964"/>
<path d="M121.503 94.446C9.13466 106.97 -331.702 47.2943 -395 45.3848C-110.788 -36.5323 647.944 -333.86 1026.06 -364.201C1404.18 -394.541 1609.07 -202.901 1691.87 -98.4491C1751.14 -23.6658 1740.14 25.4803 1561.32 36.136C1411.45 45.0664 1307.86 -10.9742 1186.08 -4.98039C1064.31 1.01338 1077.42 73.7469 913.571 79.1985C749.724 84.6502 525.265 19.2282 366.851 22.2777C208.438 25.3272 233.871 81.9219 121.503 94.446Z" fill="#A3BD9B"/>
<path d="M187.066 83.4013C74.6981 95.9255 -235.125 40.2806 -298.423 38.3711C-14.2113 -43.546 744.521 -340.874 1122.64 -371.214C1500.75 -401.555 1674.64 -213.945 1757.43 -109.494C1816.7 -34.7105 1805.7 14.4355 1626.88 25.0913C1477.01 34.0217 1373.42 -22.0189 1251.65 -16.0251C1129.87 -10.0313 1142.98 62.7022 979.134 68.1538C815.288 73.6055 590.828 8.18356 432.415 11.233C274.001 14.2825 299.434 70.8772 187.066 83.4013Z" stroke="#FDF1E3" stroke-opacity="0.2" stroke-width="6"/>
<path d="M475.68 85.88C475.52 85.4 475.44 85 475.28 84.6C475.2 84.2 475.04 83.8 474.88 83.48C474.48 82.76 474.08 82.04 473.6 81.4C473.28 81.08 472.96 80.68 472.64 80.28C472.4 80.04 472.16 79.8 471.92 79.64C471.04 78.92 470.16 78.12 469.2 77.56C469.04 77.4 468.88 77.24 468.64 77.08C468 76.76 467.36 76.44 466.64 76.2C466.24 76.04 465.68 75.96 465.2 75.8C464.56 75.56 463.84 75.48 463.04 75.48C462.08 75.48 461.12 75.48 460.16 75.48C459.68 75.48 459.2 75.48 458.72 75.32C457.84 75.16 456.96 75.16 456 75.16C455.12 75.16 454.24 75.16 453.36 75.16C452.4 75.16 451.44 75.16 450.48 75.4C450.16 75.4 449.84 75.4 449.44 75.4C447.36 75.4 445.28 75.48 443.12 75.24C442.8 75.16 442.48 75.16 442.16 75.16C440.24 75.16 438.32 75.16 436.32 75.16C436.16 75.16 436 75.16 435.84 75.16C435.28 75.24 434.72 75.32 434.24 75.64C434.08 75.72 434 75.88 434 76.04C434 76.2 434.08 76.36 434.24 76.44C434.4 76.52 434.56 76.52 434.72 76.6C435.52 76.68 436.32 76.84 437.12 77C437.36 77.08 437.6 77.24 437.76 77.32C438 77.4 438.16 77.64 438.24 77.88C438.4 79.16 438.64 80.44 438.72 81.72C438.8 82.28 438.88 82.84 438.96 83.4C439.04 83.96 439.12 84.6 439.04 85.16C438.8 86.92 438.8 88.68 438.8 90.44C438.72 91.64 438.72 92.76 438.64 93.88C438.64 95.16 438.56 96.52 438.56 97.8C438.56 99 438.56 100.2 438.4 101.4C438.32 101.8 438.4 102.28 438.4 102.68C438.32 105.88 438.32 109.16 438.32 112.36C438.24 113.88 438.24 115.32 438.4 116.76C438.48 117.4 438.56 118.04 438.56 118.68C438.56 119.32 438.56 119.88 438.56 120.44C438.56 121 438.48 121.56 438.4 122.12C438.32 122.6 438.32 123.08 438.32 123.56C438.24 124.76 438.24 126.04 438.24 127.24C438.24 127.56 438.24 127.88 438.24 128.2C438.24 128.52 437.76 129 437.44 129.08C436.48 129.32 435.44 129.64 434.4 129.64C433.92 129.64 433.52 129.64 433.2 129.8C432.8 129.96 432.64 130.12 432.48 130.44C432.4 130.6 432.56 131 432.8 131C433.04 131 433.28 131.08 433.52 131.08C437.68 131.16 441.92 131.24 446.16 131.24C446.72 131.24 447.28 131.24 447.84 131.24C449.68 131.08 451.44 131.16 453.2 131.16C455.68 131.24 458.08 131.24 460.56 131.16C461.28 131.16 462 131.16 462.72 131.16C463.36 131.08 464 131.08 464.64 131.08C465.04 131.08 465.44 131 465.84 130.92C466.16 130.84 466.48 130.68 466.8 130.68C467.68 130.68 468.4 130.36 469.12 130.04C470.48 129.56 471.44 129.16 472.48 128.52C473.52 127.88 474.48 127.16 475.12 126.04C475.28 125.72 475.52 125.4 475.76 125.08C476.16 124.6 476.4 124.12 476.64 123.56C477.12 122.28 477.6 121 477.76 119.64C477.76 119.24 477.92 118.84 477.92 118.44C478 118.12 478 117.8 478 117.48C478.08 116.92 478 116.44 478.08 115.96C478.08 114.76 477.84 113.56 477.52 112.36C477.28 111.4 476.88 110.36 476.4 109.4C476.16 109 475.84 108.6 475.52 108.2C474.64 107.24 473.68 106.44 472.56 105.72C471.52 105.16 470.48 104.52 469.36 104.04C468.48 103.72 467.68 103.32 466.88 102.92C466 102.52 465.12 102.12 464.24 101.8C464 101.8 463.92 101.72 463.92 101.56C463.92 101.56 464 101.48 464.08 101.4C464.4 101.24 464.8 101.08 465.12 100.92C465.92 100.6 466.72 100.36 467.44 99.96C468.32 99.48 469.28 99 470.24 98.52C471.2 97.96 472.16 97.32 472.96 96.52C473.2 96.36 473.36 96.2 473.44 96.04C474 95.08 474.56 94.2 475.04 93.24C475.12 92.92 475.2 92.6 475.28 92.28C475.28 91.96 475.28 91.64 475.36 91.32C475.68 90.12 475.68 88.92 475.68 87.72C475.68 87.16 475.68 86.6 475.68 85.88ZM460.96 128.6C460.64 128.68 460.24 128.76 459.84 128.84C459.36 129 458.88 129.08 458.4 129.08C455.84 129.08 453.36 129.08 450.8 129.08C450.64 129.08 450.48 129.08 450.4 129C450 128.84 449.84 128.6 449.84 128.28C449.84 126.04 449.84 123.88 449.84 121.64C449.92 120.28 449.92 118.92 449.92 117.56C450 115.96 450 114.44 450.24 112.92C450.32 112.12 450.32 111.32 450.16 110.44C450.08 110.12 450 109.64 450 109.24C450 107.48 450 105.72 450 103.88C450 103.56 450.4 103.08 450.72 103C450.88 103 451.04 102.92 451.2 102.92C451.84 102.92 452.48 102.84 453.2 102.84C454.32 102.84 455.44 102.84 456.56 102.84C457.2 102.84 457.84 102.92 458.48 103.16C458.56 103.16 458.64 103.16 458.72 103.16C460.16 103.4 461.28 104.28 462.16 105.4C463.76 107.32 464.96 109.48 465.76 111.96C465.92 112.52 466 113.08 466 113.64C466 114.44 466.08 115.24 466.08 116.04C466.08 117.16 466.08 118.36 466 119.48C466 120.68 465.68 121.88 465.2 123C464.8 124.04 464.24 125.08 463.6 126.04C462.88 127.08 462.08 127.88 460.96 128.6ZM451.2 77C451.76 76.92 452.32 76.84 452.88 76.76C453.92 76.52 454.96 76.52 456 76.76C456.4 76.92 456.8 76.92 457.2 77C458 77 458.64 77.32 459.28 77.64C459.44 77.64 459.6 77.8 459.68 77.88C460.24 78.6 460.8 79.32 461.36 80.04C461.92 80.76 462.48 81.56 462.8 82.52C463.44 83.88 463.92 85.24 464.16 86.68C464.4 87.56 464.56 88.44 464.56 89.32C464.56 91.16 464.64 93.08 464.48 95C464.32 95.56 464.16 96.2 463.92 96.76C463.6 97.72 463.04 98.52 462.16 99C461.04 99.72 459.84 100.2 458.56 100.52C458.16 100.6 457.76 100.68 457.36 100.76C457.12 100.76 456.88 100.84 456.64 100.84C454.72 100.92 452.8 100.92 450.8 100.84C450.56 100.84 450.16 100.52 450.16 100.28C450.08 100.12 450.08 99.96 450.08 99.8C450 98.84 450 97.8 450 96.84C450 96.52 450 96.2 450.08 95.88C450.32 94.76 450.32 93.64 450.4 92.52C450.48 91.88 450.48 91.16 450.48 90.52C450.56 90.12 450.56 89.72 450.64 89.32C450.8 88.6 450.8 87.88 450.8 87.16C450.8 84.52 450.8 81.8 450.8 79.16C450.8 78.68 450.88 78.12 450.88 77.64C450.88 77.4 451.04 77.24 451.2 77ZM489.981 105.64C489.981 105.64 489.981 105.64 489.901 105.64C489.901 109.8 489.901 114.04 489.901 118.28C489.821 119.88 489.821 121.56 489.821 123.16C489.821 124.44 489.581 125.72 489.341 127C489.261 127.24 489.101 127.48 488.941 127.64C488.701 127.8 488.541 127.96 488.301 128.04C487.741 128.28 487.181 128.6 486.461 128.68C485.661 128.84 484.941 129.08 484.141 129.4C483.901 129.48 483.581 129.64 483.341 129.88C483.101 130.04 483.021 130.52 483.341 130.68C483.421 130.76 483.581 130.84 483.741 130.92C484.061 131 484.381 131 484.701 131C494.381 131.08 504.061 131.16 513.741 131.08C515.261 131.08 516.781 131 518.381 131C518.701 131 519.021 131 519.341 130.92C520.221 130.76 521.101 130.76 521.981 130.68C522.861 130.68 523.741 130.68 524.701 130.6C524.941 130.6 525.181 130.6 525.421 130.6C525.581 130.52 525.741 130.44 525.821 130.36C526.301 130.04 526.701 129.64 526.861 129.08C527.181 128.44 527.341 127.88 527.341 127.16C527.341 124.68 527.421 122.12 527.421 119.64C527.421 119 527.421 118.36 527.421 117.64C527.421 117.4 527.341 117.16 527.341 116.92C527.261 116.84 526.941 116.52 526.781 116.52C526.381 116.36 525.981 116.52 525.661 116.84C525.421 117.08 525.181 117.48 525.021 117.8C524.621 119.16 523.981 120.36 523.421 121.64C522.861 123.16 522.141 124.6 521.261 126.04C520.781 126.84 520.061 127.48 519.021 127.8C518.221 128.04 517.501 128.2 516.701 128.44C516.301 128.6 515.901 128.52 515.501 128.44C515.261 128.36 515.021 128.36 514.781 128.44C514.381 128.52 513.981 128.6 513.581 128.6C512.301 128.6 510.941 128.6 509.661 128.44C508.861 128.36 508.061 128.36 507.261 128.28C506.061 128.28 504.781 128.28 503.581 128.2C502.941 128.2 502.381 127.88 501.821 127.48C501.661 127.4 501.501 127.16 501.501 126.92C501.421 126.76 501.421 126.52 501.421 126.36C501.421 123.64 501.341 120.84 501.421 118.12C501.501 114.28 501.581 110.44 501.501 106.68C501.501 103.96 501.501 101.32 501.501 98.6C501.501 94.2 501.501 89.8 501.501 85.48C501.501 83.88 501.581 82.36 501.581 80.84C501.581 80.04 501.821 79.24 502.061 78.44C502.141 78.28 502.221 78.12 502.301 78.04C502.701 77.56 503.181 77.24 503.741 77.08C504.621 76.76 505.581 76.6 506.541 76.36C506.781 76.28 506.941 75.72 506.781 75.48C506.701 75.32 506.541 75.16 506.301 75.08C505.981 75.08 505.581 75 505.261 75C499.021 75 492.781 75 486.541 75C486.301 75 486.061 75 485.821 75.08C485.501 75.08 485.181 75.24 484.941 75.48C484.861 75.64 484.781 75.72 484.701 75.88C484.701 76.12 484.941 76.36 485.181 76.44C485.661 76.52 486.141 76.52 486.621 76.68C487.181 76.76 487.741 76.92 488.301 77C488.781 77.16 489.181 77.4 489.581 77.72C489.661 77.8 489.741 77.96 489.821 78.12C489.901 78.36 489.901 78.6 489.901 78.84C489.901 80.52 489.901 82.2 489.901 83.96C489.901 84.76 489.901 85.56 490.061 86.36C490.221 86.92 490.221 87.48 490.221 88.04C490.141 91.72 490.141 95.4 490.141 99.08C490.141 99.64 490.141 100.2 490.061 100.76C489.981 101.4 489.981 102.04 489.981 102.68C489.981 103.64 489.981 104.6 489.981 105.64ZM559.478 75.16C558.598 75.16 557.638 75.16 556.758 75.16C556.358 75.16 555.958 75.16 555.558 75.24C554.598 75.4 553.638 75.48 552.678 75.48C552.038 75.56 551.398 75.56 550.758 75.8C550.518 75.8 550.278 75.88 550.038 75.88C548.758 76.12 547.478 76.52 546.358 77.08C545.478 77.48 544.598 77.96 543.718 78.36C543.478 78.44 543.238 78.6 543.078 78.76C541.798 79.56 540.518 80.52 539.398 81.56C538.918 82.12 538.438 82.68 538.038 83.24C537.398 84.2 536.678 85.08 536.038 86.04C535.478 86.92 535.078 87.88 534.598 88.84C534.438 89.32 534.198 89.72 533.958 90.2C532.998 91.88 532.278 93.64 531.878 95.56C531.878 95.72 531.798 95.88 531.718 96.04C531.478 97.08 531.238 98.12 531.158 99.16C530.998 101 530.918 102.92 530.918 104.76C530.918 105.24 530.998 105.72 531.077 106.2C531.158 107.48 531.398 108.6 531.958 111.24C532.038 111.96 532.278 112.68 532.598 113.32C532.678 113.56 532.838 113.72 532.918 113.96C533.238 115.16 533.878 116.2 534.438 117.32C534.838 118.2 535.398 119 536.118 119.72C536.678 120.28 537.158 120.84 537.798 121.48C538.198 121.8 538.598 122.2 539.078 122.52C539.958 123.16 540.758 123.8 541.478 124.6C542.118 125.16 542.838 125.72 543.558 126.28C544.918 127.16 546.278 127.96 547.718 128.76C547.958 128.92 548.118 129 548.358 129.08C549.638 129.64 550.918 130.12 552.198 130.68C552.678 130.84 553.078 131 553.638 131.08C553.958 131.08 554.278 131.16 554.598 131.24C555.398 131.48 556.358 131.48 557.238 131.56C558.278 131.56 559.318 131.56 560.358 131.48C560.838 131.48 561.398 131.48 561.878 131.4C562.678 131.24 563.478 131.16 564.278 131.08C565.398 131 566.438 130.6 567.558 130.36C568.278 130.12 568.998 129.96 569.638 129.56C570.038 129.32 570.438 129.08 570.918 128.92C571.958 128.44 572.918 127.8 573.798 127.08C574.198 126.76 574.678 126.36 575.158 126.04C576.598 125 577.878 123.72 578.998 122.36C580.118 121.08 581.158 119.72 582.038 118.28C582.358 117.8 582.598 117.24 582.838 116.76C583.398 115.48 583.718 114.12 584.278 112.84C584.678 111.88 584.758 110.84 584.998 109.8C585.238 109.24 585.158 108.68 585.238 108.12C585.238 107.64 585.318 107.16 585.478 106.68C585.638 106.2 585.638 105.72 585.638 105.24C585.638 103.8 585.718 102.28 585.638 100.84C585.638 100.12 585.638 99.4 585.398 98.68C585.318 98.36 585.318 98.04 585.238 97.72C585.238 96.92 584.998 96.12 584.758 95.32C584.118 92.68 582.998 90.28 581.478 88.04C580.678 86.76 579.718 85.56 578.758 84.28C578.038 83.24 577.078 82.36 576.118 81.48C575.238 80.68 574.278 79.88 573.398 79.08C572.517 78.36 571.558 77.72 570.518 77.16C569.958 76.92 569.398 76.6 568.837 76.36C567.798 75.8 566.678 75.48 565.558 75.48C564.918 75.48 564.198 75.48 563.558 75.32C562.918 75.16 562.278 75.16 561.638 75.16C560.918 75.16 560.198 75.16 559.478 75.16ZM543.798 105.96C543.798 105.08 543.798 104.2 543.878 103.32C543.878 103 543.878 102.68 543.878 102.36C544.198 100.92 544.198 99.48 544.278 97.96C544.358 97.16 544.358 96.36 544.598 95.56C544.838 94.76 544.838 93.8 545.078 92.92C545.238 91.64 545.558 90.44 546.038 89.16C546.438 87.56 547.078 86.12 547.718 84.6C548.038 83.88 548.438 83.16 548.997 82.6C549.158 82.44 549.238 82.36 549.318 82.2C549.958 81.24 550.758 80.44 551.718 79.8C552.038 79.56 552.358 79.24 552.598 79C553.318 78.44 554.118 78.04 554.998 77.8C555.238 77.72 555.478 77.72 555.718 77.64C556.278 77.48 556.838 77.48 557.398 77.56C557.638 77.56 557.878 77.64 558.118 77.72C558.838 77.8 559.558 77.88 560.278 77.96C561.158 78.04 562.038 78.28 562.838 78.68C563.638 79 564.438 79.4 565.238 79.88C566.278 80.44 567.158 81.08 567.798 82.04C568.358 82.84 568.918 83.64 569.398 84.52C569.798 85 570.038 85.64 570.278 86.2C570.918 87.72 571.398 89.24 571.878 90.84C572.118 91.48 572.198 92.28 572.358 92.92C572.598 93.72 572.678 94.52 572.918 95.32C573.078 96.04 573.158 96.76 573.318 97.48C573.558 98.36 573.637 99.24 573.798 100.12C573.798 100.28 573.878 100.44 573.798 100.6C573.798 102.2 573.958 103.8 573.718 105.48C573.558 106.36 573.558 107.24 573.558 108.12C573.478 109.8 573.158 111.48 572.758 113.16C572.517 114.12 572.278 115.08 572.038 116.04C571.718 117.72 571.158 119.48 570.278 121C569.718 122.12 569.158 123.16 568.518 124.2C568.198 124.76 567.798 125.32 567.398 125.8C566.758 126.68 565.958 127.32 564.918 127.72C564.118 127.96 563.398 128.2 562.598 128.44C562.278 128.52 561.958 128.6 561.638 128.6C560.198 128.76 558.758 128.68 557.238 128.52C556.518 128.52 555.878 128.2 555.158 128.04C554.518 127.8 553.958 127.56 553.318 127.32C552.998 127.16 552.598 126.92 552.278 126.68C550.758 125.56 549.398 124.28 548.118 122.92C547.798 122.6 547.558 122.2 547.318 121.72C546.758 120.28 546.038 118.92 545.478 117.48C545.318 117.16 545.238 116.92 545.238 116.6C545.078 115.64 544.758 114.84 544.758 113.96C544.678 113.72 544.598 113.48 544.518 113.24C544.358 112.76 544.278 112.28 544.278 111.8C544.198 111.16 544.118 110.52 543.958 109.88C543.878 109.56 543.798 109.24 543.798 108.92C543.798 107.96 543.798 107 543.798 105.96ZM612.121 131.08C612.841 131.08 613.401 131.16 613.961 131.24C615.321 131.56 616.681 131.56 618.041 131.56C618.601 131.56 619.161 131.48 619.721 131.4C620.281 131.24 620.841 131.24 621.481 131.16C622.041 131.08 622.601 131.08 623.161 130.92C624.121 130.68 625.241 130.6 626.201 130.2C626.681 130.12 627.161 129.88 627.561 129.72C627.721 129.72 627.881 129.72 628.041 129.72C628.281 129.72 628.361 129.8 628.521 129.88C628.601 130.04 628.681 130.2 628.681 130.36C628.761 130.76 629.081 131 629.561 131C632.761 131 636.041 131 639.321 131C639.401 131 639.481 131 639.561 131C639.961 131 640.441 130.44 640.521 130.04C640.521 129.72 640.521 129.4 640.521 129.08C640.521 126.6 640.521 124.2 640.521 121.72C640.521 120.36 640.521 119 640.761 117.64C640.841 117.24 640.761 116.76 640.841 116.36C640.841 116.12 640.841 115.88 640.921 115.64C641.001 115 641.401 114.44 642.121 114.2C642.921 113.88 643.721 113.56 644.601 113.4C645.161 113.32 645.721 113.16 646.281 113.08C646.361 113.08 646.441 113 646.521 113C646.841 112.84 647.081 112.6 647.161 112.28C647.241 112.04 647.161 111.8 647.001 111.64C646.601 111.08 646.041 110.76 645.321 110.76C645.001 110.76 644.681 110.76 644.361 110.76C637.561 110.76 630.681 110.76 623.881 110.76C622.601 110.76 621.321 110.92 620.041 111.08C619.641 111.16 619.401 111.64 619.481 112.04C619.561 112.6 619.801 112.92 620.361 113.08C621.321 113.32 622.201 113.48 623.241 113.48C623.881 113.48 624.521 113.56 625.161 113.56C625.721 113.64 626.281 113.88 626.761 114.2C627.401 114.6 627.801 115.24 628.041 115.88C628.121 116.04 628.201 116.2 628.201 116.36C628.681 117.72 628.681 117.72 628.681 119C628.681 120.6 628.681 122.2 628.681 123.88C628.681 124.2 628.681 124.52 628.681 124.84C628.601 125.4 628.361 125.88 628.041 126.36C627.961 126.44 627.961 126.52 627.881 126.6C627.081 127.16 626.281 127.72 625.401 128.12C624.841 128.28 624.361 128.52 623.801 128.6C622.921 128.84 622.041 129 621.161 129.08C620.281 129.24 619.321 129.24 618.441 129C617.641 128.84 616.681 128.76 615.801 128.68C615.481 128.68 615.161 128.6 614.841 128.52C614.281 128.44 613.721 128.36 613.241 128.12C612.441 127.88 611.721 127.56 611.081 126.92C610.521 126.28 609.801 125.72 609.081 125.24C608.761 124.84 608.441 124.44 608.201 124.04C607.401 123 606.841 121.88 606.441 120.6C606.201 119.88 605.961 119.24 605.801 118.52C605.721 117.8 605.401 117.08 605.241 116.36C604.841 115.56 604.761 114.68 604.521 113.8C604.441 113.56 604.361 113.32 604.361 113.08C604.281 111.4 604.121 109.72 604.201 107.96C604.201 107.24 604.201 106.52 604.201 105.8C604.281 104.2 604.281 102.52 604.681 100.92C604.681 100.84 604.681 100.76 604.681 100.68C604.761 99.96 604.841 99.24 604.921 98.52C605.001 97.8 605.161 97.08 605.241 96.36C605.241 96.28 605.241 96.2 605.241 96.12C605.321 95.24 605.401 94.36 605.641 93.48C605.721 93.16 605.721 92.84 605.801 92.52C605.801 92.04 605.881 91.56 606.041 91.08C606.121 90.6 606.201 90.12 606.281 89.64C606.281 89.24 606.361 88.84 606.441 88.44C606.601 87.8 606.681 87.16 606.761 86.52C606.921 85 607.401 83.64 608.201 82.44C608.601 81.8 609.001 81.16 609.481 80.6C609.881 80.12 610.281 79.64 610.921 79.32C611.481 79 612.041 78.68 612.601 78.36C613.241 77.88 614.041 77.56 614.761 77.32C615.401 77.08 616.041 77 616.681 76.92C617.881 76.92 619.161 76.92 620.361 77C620.681 77 621.001 77 621.321 77.16C622.041 77.32 622.761 77.48 623.481 77.48C623.721 77.56 623.961 77.56 624.201 77.64C624.601 77.8 625.081 77.96 625.561 78.12C626.921 78.68 627.561 79.08 628.681 80.04C628.921 80.28 629.241 80.6 629.481 80.92C630.281 81.64 631.001 82.36 631.801 83.08C632.201 83.48 632.601 83.88 632.921 84.36C633.241 84.84 633.561 85.32 633.961 85.72C634.681 86.6 635.241 87.56 635.721 88.6C635.881 88.92 636.041 89.16 636.201 89.48C636.281 89.64 636.361 89.72 636.441 89.88C636.681 90.28 637.401 90.36 637.721 89.96C637.801 89.8 637.881 89.64 637.881 89.48C637.961 88.52 637.881 87.56 637.641 86.6C637.561 86.04 637.481 85.48 637.401 84.92C637.401 84.52 637.401 84.12 637.321 83.72C637.081 82.68 637.081 81.64 637.001 80.52C637.001 80.2 636.921 79.88 636.921 79.56C636.841 79.16 636.681 78.84 636.281 78.6C635.561 78.12 634.761 77.72 633.881 77.4C633.481 77.24 633.001 77.08 632.521 76.92C632.041 76.76 631.641 76.44 631.161 76.28C630.201 75.96 629.241 75.56 628.121 75.48C627.881 75.48 627.641 75.4 627.481 75.32C627.001 75.16 626.521 75.08 626.041 75.08C625.481 75.08 625.001 75 624.521 75C623.641 75 622.761 74.92 621.881 74.68C621.481 74.6 621.081 74.6 620.681 74.6C619.721 74.6 618.761 74.6 617.721 74.6C617.401 74.6 617.081 74.6 616.761 74.68C615.321 75.08 613.721 75.32 612.281 75.8C612.041 75.88 611.801 75.96 611.561 76.04C611.241 76.04 611.001 76.2 610.681 76.28C609.641 76.68 608.681 77.08 607.721 77.4C606.041 78.04 604.441 78.92 602.921 79.88C601.321 80.92 599.801 82.2 598.521 83.64C597.961 84.28 597.481 84.84 597.001 85.56C596.281 86.76 595.561 87.88 594.681 89C594.441 89.4 594.121 89.8 593.881 90.2C593.481 90.84 593.161 91.48 592.921 92.2C592.681 93.16 592.361 94.2 592.041 95.16C591.641 96.28 591.401 97.4 591.161 98.52C590.921 99.72 590.681 100.92 590.681 102.12C590.681 103.48 590.681 104.84 590.681 106.28C590.681 106.6 590.761 106.92 590.841 107.24C591.001 107.8 591.081 108.52 591.321 109.08C591.561 109.96 591.721 110.84 592.041 111.64C592.201 111.96 592.201 112.28 592.361 112.6C592.841 113.64 593.241 114.68 593.721 115.72C594.281 116.92 595.001 117.96 595.881 119C596.361 119.48 596.841 120.12 597.241 120.68C597.721 121.32 598.201 121.96 598.761 122.52C599.481 123.16 600.121 123.8 600.761 124.36C601.721 125.24 602.681 126.12 603.801 126.76C604.281 127 604.601 127.32 605.001 127.56C605.641 127.96 606.281 128.36 606.921 128.76C608.361 129.56 609.881 130.28 611.561 130.84C611.721 130.84 611.881 130.92 612.121 131.08Z" fill="white"/>
<path d="M1047 136.557C1036.56 136.557 1032.66 131.78 1032.13 130.102C1031.84 129.209 1031.73 127.659 1031.78 125.361C1029.95 121.587 1031.84 113.291 1033.17 111.814C1035.01 109.79 1037.4 109.443 1038.17 109.37C1040.48 107.638 1044.11 107 1046.76 107C1051.45 107 1057.31 107.547 1061.05 111.814C1062.66 113.655 1063.67 120.219 1062.48 124.213C1062.61 127.057 1062.52 129.026 1062.19 130.084L1062.17 130.157L1062.13 130.23C1061.2 131.707 1057.41 136.557 1047 136.557ZM1046.76 108.295C1044.27 108.295 1040.87 108.878 1038.82 110.501L1038.65 110.629H1038.43C1038.17 110.629 1035.87 110.756 1034.14 112.652C1033.17 113.728 1031.29 121.66 1033.01 124.887L1033.08 125.033V125.197C1033.01 127.951 1033.19 129.154 1033.36 129.664C1033.74 130.85 1037.17 135.244 1047 135.244C1056.56 135.244 1060.06 131.014 1060.96 129.61C1061.14 128.935 1061.32 127.44 1061.18 124.14V124.03L1061.22 123.921C1062.39 120.183 1061.34 114.075 1060.08 112.634C1056.67 108.787 1051.18 108.295 1046.76 108.295Z" fill="#FDF1E3"/>
<path d="M1046.76 131.196C1044.05 131.196 1043.25 128.589 1042.55 126.309C1041.98 124.45 1041.43 122.681 1040.08 122.353C1038.56 121.988 1037.9 123.027 1037.02 124.814C1036.47 125.908 1035.98 126.929 1035.01 127.258C1034.51 127.422 1033.96 127.367 1033.38 127.075C1032.28 126.528 1031.54 125.361 1031.21 123.611C1030.41 119.417 1032.06 113.035 1033.17 111.814C1035.04 109.753 1037.44 109.425 1038.19 109.37C1040.3 107.802 1043.54 107 1046.76 107C1051.45 107 1057.31 107.547 1061.05 111.814C1062.64 113.619 1063.49 119.545 1062.7 123.337C1062.26 125.434 1061.4 126.802 1060.13 127.403C1059.57 127.677 1059.04 127.713 1058.54 127.549C1057.57 127.203 1057.06 126.091 1056.53 124.924C1055.65 123.009 1055.01 121.879 1053.47 122.243C1052.09 122.572 1051.56 124.358 1050.99 126.237C1050.28 128.57 1049.47 131.196 1046.76 131.196ZM1039.47 120.985C1039.75 120.985 1040.04 121.022 1040.37 121.095C1042.46 121.587 1043.14 123.793 1043.78 125.927C1044.55 128.406 1045.12 129.902 1046.76 129.902C1048.41 129.902 1048.98 128.388 1049.75 125.872C1050.41 123.72 1051.07 121.496 1053.16 121.003C1055.85 120.347 1056.91 122.681 1057.7 124.395C1058.1 125.27 1058.52 126.182 1058.98 126.346C1059.04 126.364 1059.2 126.437 1059.57 126.255C1060.67 125.726 1061.18 124.249 1061.42 123.082C1062.22 119.18 1061.16 113.911 1060.06 112.652C1056.67 108.787 1051.16 108.295 1046.75 108.295C1044.25 108.295 1040.96 108.878 1038.96 110.355C1038.89 110.464 1038.78 110.556 1038.65 110.61C1037.77 111.358 1037.2 112.324 1037.2 113.509C1037.2 117.12 1043.05 118.469 1046.73 118.469C1051.49 118.469 1055.72 115.406 1057.24 114.166C1053.34 111.431 1049.24 110.701 1046.8 110.938C1045.39 111.066 1043.72 111.54 1043.72 113.054C1043.72 113.582 1043.89 114.002 1044.22 114.312C1045.06 115.114 1046.69 115.041 1046.71 115.041C1047.08 115.023 1047.37 115.296 1047.39 115.643C1047.41 115.989 1047.13 116.299 1046.78 116.317C1046.69 116.317 1044.58 116.427 1043.32 115.242C1042.72 114.676 1042.42 113.947 1042.42 113.054C1042.42 111.139 1043.98 109.899 1046.67 109.644C1049.47 109.389 1054.29 110.264 1058.65 113.601L1059.26 114.056L1058.71 114.567C1058.49 114.786 1053.17 119.727 1046.71 119.727C1042.37 119.727 1035.9 118.068 1035.9 113.491C1035.9 112.561 1036.16 111.723 1036.62 110.993C1035.83 111.267 1034.9 111.777 1034.11 112.652C1033.28 113.564 1031.75 119.581 1032.46 123.356C1032.72 124.687 1033.21 125.544 1033.92 125.908C1034.31 126.109 1034.49 126.036 1034.57 126.018C1035.01 125.872 1035.43 125.033 1035.83 124.231C1036.54 122.827 1037.46 120.985 1039.47 120.985Z" fill="#FDF1E3"/>
</g>
<defs>
<clipPath id="clip0_754_74">
<rect width="150" height="1080" fill="white" transform="translate(1080) rotate(90)"/>
</clipPath>
</defs>
</svg>
