<svg width="1080" height="150" viewBox="0 0 1080 150" fill="none" xmlns="http://www.w3.org/2000/svg">
<g clip-path="url(#clip0_796_2)">
<rect width="150" height="1080" transform="translate(1080) rotate(90)" fill="#DD8964"/>
<path d="M121.503 94.446C9.13466 106.97 -331.702 47.2943 -395 45.3848C-110.788 -36.5323 647.944 -333.86 1026.06 -364.201C1404.18 -394.541 1609.07 -202.901 1691.87 -98.4491C1751.14 -23.6658 1740.14 25.4803 1561.32 36.136C1411.45 45.0664 1307.86 -10.9742 1186.08 -4.98039C1064.31 1.01338 1077.42 73.7469 913.571 79.1985C749.724 84.6502 525.265 19.2282 366.851 22.2777C208.438 25.3272 233.871 81.9219 121.503 94.446Z" fill="#A3BD9B"/>
<path d="M187.066 83.4013C74.6978 95.9255 -235.125 40.2806 -298.424 38.3711C-14.2117 -43.546 744.52 -340.874 1122.64 -371.214C1500.75 -401.555 1674.64 -213.945 1757.43 -109.494C1816.7 -34.7105 1805.7 14.4355 1626.88 25.0913C1477.01 34.0217 1373.42 -22.0189 1251.65 -16.0251C1129.87 -10.0313 1142.98 62.7022 979.134 68.1538C815.287 73.6055 590.828 8.18356 432.414 11.233C274.001 14.2825 299.434 70.8772 187.066 83.4013Z" stroke="#FDF1E3" stroke-opacity="0.2" stroke-width="6"/>
<path d="M480 115.72C480 114.84 480 113.88 480.08 113C480.16 110.68 480.24 108.28 480.32 105.96C480.32 105.16 480.48 104.36 480.56 103.56C480.56 103.48 480.64 103.4 480.64 103.32C480.8 103.24 480.88 103.08 481.04 103.08C482.24 102.92 483.52 102.92 484.72 103.08C485.6 103.08 486.48 103.16 487.36 103.16C488.48 103.16 489.68 103.16 490.8 103.16C491.12 103.16 491.44 103.24 491.76 103.24C492 103.32 492.24 103.32 492.48 103.48C493.04 103.8 493.52 104.28 493.68 104.92C494.08 106.04 494.56 107.16 494.8 108.36C494.96 109 495.12 109.64 495.36 110.2C495.44 110.44 495.6 110.68 495.76 110.84C496 111.16 496.56 111.08 496.8 110.76C496.96 110.52 497.04 110.36 497.04 110.04C497.04 109.8 497.04 109.56 496.96 109.32C496.8 108.68 496.72 107.88 496.64 107.16C496.48 104.68 496.56 102.12 496.72 99.64C496.8 99.32 496.8 99 496.88 98.68C497.2 97.16 497.2 95.64 497.04 94.04C497.04 93.96 496.88 93.8 496.8 93.72C496.64 93.56 496.24 93.56 496.08 93.72C496.08 93.72 496 93.8 495.92 93.88C495.6 94.36 495.36 94.84 495.28 95.4C495.28 96.44 494.96 97.32 494.64 98.28C494.56 98.52 494.4 98.84 494.24 99.16C494 99.48 493.68 99.72 493.28 99.8C493.12 99.88 492.96 99.88 492.8 99.88C492.48 99.88 492.16 99.88 491.84 99.88C489.04 99.88 486.32 99.88 483.52 99.88C482.72 99.88 481.92 99.88 481.12 99.8C480.96 99.8 480.64 99.48 480.64 99.32C480.64 99.08 480.56 98.84 480.56 98.6C480.56 97.32 480.56 96.12 480.64 94.92C480.72 91.16 480.72 87.48 480.56 83.72C480.48 82.84 480.48 81.96 480.32 81.08C480.24 80.2 480.24 79.24 480.32 78.36C480.32 77.88 480.8 77.56 481.28 77.48C481.36 77.48 481.44 77.48 481.52 77.48C485.28 77.48 489.04 77.48 492.72 77.4C493.44 77.4 494.08 77.48 494.72 77.48C495.04 77.48 495.36 77.56 495.68 77.64C496 77.8 496.24 77.88 496.56 77.96C497.68 78.28 498.64 78.92 499.44 79.72C499.84 80.2 500.32 80.68 500.72 81.24C501.76 82.68 502.72 84.2 503.36 85.88C503.44 86.2 503.52 86.52 503.6 86.84C503.68 87.4 503.92 87.88 504.16 88.44C504.24 88.52 504.4 88.6 504.56 88.6C504.72 88.68 504.88 88.6 504.96 88.44C505.04 88.28 505.12 88.12 505.12 87.96C505.12 87.24 505.12 86.52 505.12 85.8C505.04 84.52 504.96 83.16 504.96 81.88C504.96 80.6 504.96 79.32 504.88 77.96C504.88 77.64 504.88 77.32 504.88 77C504.8 76.52 504.72 76.04 504.48 75.64C504.4 75.4 504.24 75.24 504 75.16C503.44 75 502.8 75.08 502.24 75.08C493.28 75.08 484.24 75.08 475.2 75.08C474.88 75.08 474.56 75.08 474.24 75.08C473.76 75.08 473.28 75.16 472.8 75.24C471.84 75.48 470.88 75.56 469.92 75.48C468.96 75.48 467.92 75.48 466.96 75.24C466.08 75.08 465.2 75.08 464.32 75.08C464.16 75.08 464 75.16 463.84 75.16C463.44 75.24 463.2 75.8 463.44 76.12C463.6 76.52 463.92 76.76 464.32 76.84C464.8 77 465.28 77 465.76 77.16C466.24 77.24 466.72 77.4 467.2 77.56C467.6 77.64 467.92 77.88 468.16 78.2C468.32 78.36 468.48 78.6 468.48 78.84C468.56 79.32 468.56 79.8 468.56 80.28C468.56 83.4 468.56 86.6 468.56 89.8C468.56 90.28 468.56 90.76 468.64 91.24C468.88 92.36 468.88 93.48 468.88 94.6C468.96 98.44 469.04 102.28 469.04 106.04C469.04 106.6 469.12 107.08 469.04 107.56C468.88 108.68 468.88 109.8 468.88 110.92C468.88 111.88 468.88 112.92 468.64 113.88C468.56 114.12 468.56 114.52 468.56 114.84C468.48 118.04 468.32 121.32 468.4 124.52C468.4 124.84 468.4 125.08 468.4 125.32C468.4 126.04 468.24 126.76 467.92 127.4C467.84 127.64 467.68 127.88 467.44 127.96C467.04 128.2 466.64 128.44 466.16 128.68C465.44 128.76 464.8 129.08 464.08 129.16C463.84 129.24 463.6 129.24 463.36 129.32C462.96 129.48 462.64 129.72 462.48 130.12C462.4 130.28 462.4 130.44 462.48 130.6C462.64 130.92 462.88 131.08 463.2 131.16C463.6 131.24 464 131.24 464.4 131.24C467.6 131.24 470.72 131.24 473.92 131.24C474.8 131.24 475.68 131.24 476.56 131.4C476.88 131.48 477.2 131.48 477.52 131.48C479.2 131.48 480.8 131.56 482.4 131.56C482.64 131.56 482.96 131.56 483.12 131.48C483.68 131.32 484.24 131.24 484.8 130.92C484.88 130.84 484.96 130.76 485.04 130.52C485.04 130.28 484.96 130.12 484.8 129.88C484.64 129.72 484.4 129.56 484.24 129.48C483.6 129.24 483.04 129 482.4 128.76C481.6 128.44 481.04 127.88 480.48 127.32C480.4 127.16 480.32 127 480.24 126.92C480.16 126.76 480.16 126.6 480.16 126.44C480 125.56 480 124.6 480 123.72C480 121.08 480 118.36 480 115.72ZM504.17 128.52C502.89 129 501.53 129.24 500.17 129.56C499.77 129.72 499.21 129.64 498.73 129.72C498.33 129.8 498.01 129.96 497.69 130.28C497.53 130.36 497.45 130.52 497.53 130.68C497.61 130.84 497.69 130.92 497.85 131C498.01 131 498.17 131.08 498.33 131.08C498.97 131.08 499.69 131.08 500.33 131.08C506.81 131.08 513.29 131.08 519.77 131.08C520.33 131.08 520.97 131 521.53 131C521.69 131 521.77 130.92 521.93 130.92C522.25 130.84 522.41 130.36 522.25 130.12C522.09 129.88 521.93 129.72 521.69 129.72C520.49 129.56 519.37 129.64 518.25 129.32C517.93 129.24 517.61 129.32 517.29 129.24C516.65 129.24 516.01 129.24 515.37 129.24C514.97 129.16 514.57 129.16 514.17 129C513.53 128.76 512.89 128.76 512.33 128.44C512.09 128.36 511.85 128.2 511.69 128.12C511.05 127.64 510.65 127.08 510.65 126.28C510.65 125.72 510.65 125.16 510.89 124.6C511.13 123.72 511.37 122.84 511.53 121.96C511.69 121.24 511.93 120.6 512.09 119.88C512.25 119.32 512.49 118.84 512.65 118.28C512.81 117.64 512.97 117 513.29 116.44C513.45 115.88 513.45 115.32 513.69 114.76C513.77 114.6 513.85 114.52 514.01 114.44C514.25 114.28 514.41 114.2 514.65 114.2C515.77 114.04 516.81 114.04 517.85 114.04C519.05 114.04 520.25 113.96 521.45 113.8C521.93 113.64 522.49 113.64 522.97 113.64C526.17 113.56 529.45 113.4 532.65 113.4C533.37 113.4 534.17 113.4 534.89 113.24C535.05 113.24 535.21 113.24 535.37 113.24C535.77 113.24 536.17 113.4 536.41 113.72C536.81 114.28 537.13 114.84 537.29 115.48C537.85 117.16 538.57 118.76 539.13 120.52C539.21 120.76 539.29 121.08 539.37 121.4C539.53 122.28 539.77 123.16 540.09 124.04C540.49 125.08 540.73 126.2 541.21 127.24C541.29 127.48 541.21 127.72 541.13 127.88C540.97 128.12 540.89 128.36 540.65 128.52C540.25 128.76 539.85 129.08 539.37 129.16C538.41 129.24 537.45 129.56 536.49 129.64C536.33 129.64 536.17 129.72 536.01 129.72C535.45 129.88 535.37 130.6 535.61 130.92C535.85 131.24 536.09 131.32 536.41 131.48C537.69 131.56 539.05 131.56 540.33 131.4C541.77 131.24 543.21 131.24 544.65 131.16C548.65 131.16 552.65 131.16 556.65 131.08C556.89 131.08 557.13 131.08 557.37 131.08C557.85 131.08 558.25 130.68 558.41 130.2C558.57 129.88 558.33 129.32 557.93 129.24C557.37 129.08 556.73 128.76 556.09 128.76C555.53 128.68 554.97 128.44 554.49 128.28C553.77 128.04 553.37 127.56 553.05 126.92C552.97 126.76 552.89 126.52 552.81 126.28C551.93 124.12 551.05 121.88 550.41 119.64C550.17 118.76 549.85 117.96 549.45 117.16C549.29 116.76 549.13 116.36 549.05 116.04C548.33 114.28 547.61 112.52 546.81 110.84C546.41 110.12 546.09 109.4 545.77 108.68C545.45 107.8 545.05 107 544.81 106.2C544.57 105.4 544.17 104.68 543.85 103.96C543.85 103.88 543.85 103.8 543.77 103.72C543.45 102.6 543.13 101.56 542.81 100.44C542.09 98.12 541.37 95.8 540.33 93.56C539.85 92.44 539.37 91.32 538.97 90.2C538.89 89.8 538.73 89.4 538.57 89.08C537.93 87.24 537.13 85.4 536.57 83.56C536.33 82.76 536.01 82.04 535.69 81.32C535.29 80.52 535.05 79.64 534.57 78.84C534.17 78.28 534.01 77.48 533.69 76.92C533.21 76.12 532.57 75.64 531.77 75.48C531.53 75.48 531.29 75.48 531.05 75.48C529.85 75.4 528.73 75.4 527.61 75.24C527.21 75.16 526.81 75.16 526.41 75.16C524.97 75.16 523.45 75.08 522.01 75.08C521.45 75.08 520.89 75.08 520.33 75.24C519.93 75.4 519.53 75.4 519.13 75.4C518.17 75.48 517.21 75.56 516.17 75.56C515.93 75.64 515.69 75.64 515.45 75.72C515.37 75.72 515.21 75.88 515.13 75.96C514.97 76.12 514.89 76.52 515.05 76.68C515.13 76.76 515.29 76.92 515.37 76.92C515.85 77 516.41 77 516.89 77C517.61 77 518.33 77 519.05 77C519.53 77.08 519.93 77.48 520.01 77.96C520.01 78.28 520.01 78.52 520.01 78.76C520.01 79.4 519.85 80.04 519.77 80.68C519.53 81.48 519.37 82.2 519.13 83C518.89 83.72 518.81 84.44 518.49 85.08C518.33 85.8 518.17 86.52 518.01 87.24C517.77 88.28 517.45 89.24 517.13 90.28C516.65 91.64 516.17 93 515.77 94.44C515.13 96.76 514.49 99.08 513.69 101.4C513.69 101.56 513.61 101.72 513.61 101.88C513.53 102.84 513.13 103.64 512.89 104.52C512.57 105.56 512.25 106.68 511.93 107.72C511.61 108.76 511.29 109.72 511.05 110.76C511.05 111 510.97 111.24 510.89 111.48C510.65 112.04 510.49 112.52 510.33 113.08C509.05 116.84 507.85 120.68 506.57 124.44C506.33 125.16 506.09 125.96 505.77 126.76C505.69 127.08 505.45 127.4 505.13 127.72C504.89 128.04 504.57 128.28 504.17 128.52ZM522.81 111.24C520.33 111.24 518.17 111.24 516.01 111.24C515.77 111.24 515.53 111.24 515.29 111.08C515.13 111 514.97 110.92 515.05 110.76C515.05 110.52 515.05 110.2 515.13 110.04C516.01 108.2 516.49 106.2 516.97 104.28C517.37 102.6 517.85 100.92 518.33 99.32C519.05 97.24 519.69 95.16 520.49 93.16C520.89 92.36 520.97 91.48 521.29 90.6C521.45 90.04 521.61 89.48 521.77 89C521.85 88.6 522.01 88.2 522.17 87.88C522.49 87.24 522.65 86.68 522.81 86.04C523.05 85.16 523.21 84.28 523.53 83.4C523.53 83.32 523.69 83.16 523.85 83.08C523.93 83 524.09 83 524.25 83.24C524.33 83.4 524.49 83.64 524.57 83.88C524.81 84.44 525.05 85 525.21 85.64C525.45 86.36 525.61 87.08 525.85 87.8C526.09 88.68 526.41 89.64 526.73 90.52C527.13 91.48 527.61 92.44 528.09 93.4C528.33 93.96 528.65 94.6 528.89 95.16C529.05 95.56 529.29 95.88 529.45 96.28C529.85 97.64 530.57 98.92 531.21 100.28C531.61 101.32 532.09 102.28 532.57 103.4C532.73 103.8 532.89 104.28 533.05 104.76C533.45 106.28 534.09 107.8 534.73 109.24C534.89 109.56 535.05 109.8 535.21 110.12C535.29 110.36 535.13 110.6 534.89 110.68C534.41 110.68 533.93 110.68 533.45 110.68C532.41 110.68 531.37 110.76 530.33 110.92C530.01 111 529.69 111 529.37 111C527.05 111.08 524.81 111.24 522.81 111.24ZM591.975 130.84C592.215 130.6 592.535 130.6 592.855 130.52C593.975 130.04 595.015 129.4 596.135 129C597.095 128.44 597.975 127.88 598.855 127.32C599.175 127.16 599.415 127 599.735 126.84C601.095 126.04 602.295 124.92 603.495 123.8C603.895 123.4 604.295 122.92 604.615 122.52C605.335 121.48 606.055 120.6 606.775 119.56C607.095 119.16 607.335 118.76 607.575 118.36C607.975 117.48 608.455 116.6 608.775 115.64C609.015 114.92 609.255 114.12 609.575 113.4C609.895 112.36 610.215 111.4 610.215 110.28C610.215 109.96 610.295 109.64 610.375 109.32C610.775 107.88 610.855 106.44 610.855 105C610.855 104.52 610.855 104.04 610.855 103.56C610.855 102.04 610.775 100.6 610.695 99.16C610.615 98.76 610.615 98.36 610.455 97.96C610.375 97.64 610.295 97.32 610.215 97C610.135 96.2 609.815 95.48 609.655 94.68C609.495 94.04 609.175 93.4 609.015 92.84C608.695 91.88 608.215 91 607.655 90.2C606.775 88.84 605.895 87.56 604.935 86.2C604.375 85.4 603.735 84.68 603.015 83.96C601.655 82.52 600.215 81.32 598.775 79.96C598.535 79.8 598.215 79.56 597.975 79.4C596.375 78.28 594.615 77.4 592.855 76.6C592.615 76.52 592.375 76.52 592.135 76.44C591.735 76.28 591.255 76.12 590.775 75.96C590.375 75.88 589.975 75.72 589.575 75.64C589.095 75.56 588.615 75.56 588.135 75.4C587.655 75.32 587.255 75.16 586.775 75.08C586.455 75 586.135 75 585.735 75C585.095 74.92 584.455 74.92 583.815 74.92C582.935 74.92 582.055 75 581.175 75.24C580.935 75.32 580.695 75.4 580.455 75.4C579.255 75.48 578.055 75.88 576.935 76.28C576.135 76.52 575.415 76.76 574.615 77C573.335 77.48 571.975 77.88 570.775 78.6C570.455 78.84 570.055 79 569.735 79.16C568.775 79.56 567.895 80.2 567.095 80.84C566.615 81.32 565.975 81.64 565.575 82.12C564.615 83.08 563.655 84.12 562.855 85.24C562.215 86.28 561.575 87.32 561.015 88.36C560.455 89.48 559.975 90.6 559.415 91.64C559.015 92.36 558.695 93.08 558.375 93.88C558.295 94.12 558.135 94.36 558.135 94.6C557.895 95.72 557.575 96.76 557.255 97.88C557.175 98.04 557.175 98.36 557.095 98.6C557.015 99.4 557.015 100.2 556.855 101C556.615 102.36 556.615 103.72 556.615 105.08C556.615 105.72 556.695 106.28 556.855 106.76C557.015 107.24 557.015 107.72 557.095 108.2C557.095 108.76 557.095 109.24 557.255 109.72C557.415 110.28 557.495 110.92 557.655 111.56C557.895 112.52 558.135 113.48 558.535 114.36C559.095 115.48 559.575 116.6 560.135 117.64C560.455 118.36 560.855 119.08 561.415 119.72C561.815 120.12 562.135 120.52 562.535 121C562.855 121.32 563.095 121.56 563.415 121.88C563.975 122.36 564.535 122.84 565.095 123.24C565.975 123.8 566.775 124.52 567.495 125.24C567.655 125.4 567.895 125.64 568.055 125.8C568.455 126.12 568.935 126.52 569.415 126.76C570.295 127.32 571.255 127.88 572.135 128.44C572.775 128.84 573.495 129.24 574.295 129.56C575.335 129.96 576.375 130.44 577.335 131C577.415 131 577.495 131 577.575 131.08C577.655 131.16 577.735 131.16 577.735 131.24C577.815 131.4 577.655 131.48 577.495 131.56C575.895 132.28 574.695 133.4 573.575 134.76C572.935 135.64 572.375 136.52 571.815 137.4C571.015 138.76 570.455 140.12 569.975 141.64C569.815 142.12 569.735 142.6 569.655 143.08C569.655 143.16 569.655 143.24 569.735 143.32C569.735 143.4 569.735 143.48 569.735 143.56C569.815 143.96 570.295 144.2 570.615 144.04C571.335 143.72 571.895 143.24 572.455 142.76C572.855 142.36 573.335 142.12 573.895 141.88C574.695 141.48 575.575 141.24 576.375 141C576.615 140.92 576.855 140.84 577.095 140.84C578.855 140.76 580.535 140.68 582.215 141.16C582.615 141.24 583.015 141.24 583.415 141.32C583.895 141.32 584.375 141.32 584.855 141.48C586.055 141.8 587.255 141.72 588.455 142.2C589.415 142.28 590.375 142.6 591.335 142.68C592.295 142.76 593.255 143 594.215 143.16C595.015 143.32 595.815 143.32 596.615 143.56C596.855 143.64 597.255 143.72 597.575 143.72C599.575 143.88 601.575 143.88 603.655 143.8C604.535 143.8 605.415 143.56 606.295 143.32C607.255 143.08 608.295 142.68 609.255 142.28C609.895 142.04 610.535 141.72 611.175 141.24C612.295 140.44 613.415 139.64 614.455 138.68C614.855 138.28 615.255 137.88 615.655 137.48C616.055 137.08 616.375 136.68 616.615 136.12C616.855 135.72 617.095 135.24 617.255 134.84C617.575 134.28 617.575 133.72 617.575 133.16C617.575 132.84 617.255 132.52 617.015 132.52C616.935 132.52 616.855 132.44 616.775 132.44C615.815 132.52 614.775 132.52 613.895 132.84C613.175 133.08 612.375 133 611.735 133.16C610.855 133.32 609.895 133.4 609.015 133.4C608.215 133.32 607.415 133.4 606.615 133.32C605.815 133.16 605.015 133.16 604.215 133.08C602.855 133 601.575 133 600.295 132.68C600.215 132.6 600.135 132.6 600.055 132.6C599.015 132.52 597.975 132.44 596.935 132.12C595.495 132.04 594.055 131.56 592.615 131.4C592.535 131.4 592.455 131.32 592.375 131.32C592.215 131.24 591.975 131.08 591.975 130.84ZM573.335 122.84C572.615 121.4 572.135 120.12 571.495 118.92C571.095 118.2 570.855 117.4 570.775 116.6C570.695 115.56 570.375 114.68 570.135 113.72C569.975 112.84 569.815 111.96 569.735 111.08C569.735 110.6 569.655 110.12 569.655 109.64C569.655 109.32 569.575 109 569.495 108.68C569.175 107.16 569.255 105.64 569.415 104.04C569.655 103.24 569.735 102.44 569.735 101.64C569.815 100.52 569.815 99.4 570.055 98.28C570.135 97.88 570.135 97.48 570.215 97.08C570.215 96.28 570.295 95.56 570.535 94.92C570.615 94.6 570.615 94.28 570.695 93.96C571.575 89.72 572.375 87.48 574.055 84.28C574.215 84.04 574.375 83.8 574.615 83.48C575.015 83 575.415 82.52 575.815 81.96C575.975 81.8 576.135 81.64 576.295 81.48C577.015 80.92 577.735 80.36 578.455 79.8C578.695 79.64 578.935 79.48 579.255 79.32C579.735 79 580.295 78.76 580.855 78.76C582.135 78.76 583.415 78.68 584.775 78.84C585.415 78.84 586.055 78.92 586.615 79C588.295 79.48 589.655 80.36 591.095 81.08C591.415 81.24 591.735 81.48 592.055 81.72C592.455 82.04 592.855 82.36 593.095 82.76C593.415 83.24 593.735 83.72 594.135 84.2C594.855 85.16 595.335 86.28 595.895 87.4C595.975 87.48 595.975 87.64 596.055 87.8C596.295 88.6 596.615 89.32 596.855 90.12C597.095 91.08 597.415 91.96 597.575 92.92C597.655 93.8 597.975 94.68 598.135 95.56C598.215 96.44 598.535 97.32 598.695 98.2C599.095 99.32 599.095 100.6 599.175 101.8C599.175 102.76 599.175 103.72 599.095 104.68C599.095 106.04 599.015 107.32 598.935 108.6C598.935 109.16 598.855 109.72 598.775 110.28C598.695 110.68 598.615 111.08 598.615 111.48C598.535 112.04 598.375 112.6 598.215 113.16C597.975 114.12 597.735 115.08 597.575 116.04C597.335 117.32 596.935 118.52 596.455 119.72C595.975 120.84 595.495 121.96 594.935 123.08C594.695 123.48 594.455 123.88 594.055 124.2C592.935 125.48 591.495 126.44 589.975 127.24C589.495 127.4 589.095 127.56 588.615 127.72C588.055 127.8 587.495 127.96 586.935 128.12C586.455 128.2 585.975 128.36 585.495 128.44C585.255 128.52 585.015 128.6 584.775 128.6C583.735 128.68 582.695 128.76 581.655 128.6C580.855 128.44 580.055 128.12 579.335 127.8C578.375 127.4 577.495 126.84 576.695 126.12C575.575 125 574.455 123.96 573.335 122.84Z" fill="white"/>
<path d="M1047 136.557C1036.56 136.557 1032.66 131.78 1032.13 130.102C1031.84 129.209 1031.73 127.659 1031.78 125.361C1029.95 121.587 1031.84 113.291 1033.17 111.814C1035.01 109.79 1037.41 109.443 1038.17 109.37C1040.48 107.638 1044.11 107 1046.76 107C1051.45 107 1057.31 107.547 1061.05 111.814C1062.66 113.655 1063.67 120.219 1062.48 124.213C1062.61 127.057 1062.52 129.026 1062.19 130.084L1062.17 130.157L1062.13 130.23C1061.2 131.707 1057.41 136.557 1047 136.557ZM1046.76 108.295C1044.27 108.295 1040.87 108.878 1038.82 110.501L1038.65 110.629H1038.43C1038.17 110.629 1035.87 110.756 1034.14 112.652C1033.17 113.728 1031.29 121.66 1033.01 124.887L1033.08 125.033V125.197C1033.01 127.951 1033.19 129.154 1033.36 129.664C1033.74 130.85 1037.17 135.244 1047 135.244C1056.56 135.244 1060.06 131.014 1060.96 129.61C1061.14 128.935 1061.33 127.44 1061.18 124.14V124.03L1061.22 123.921C1062.39 120.183 1061.34 114.075 1060.08 112.634C1056.67 108.787 1051.18 108.295 1046.76 108.295Z" fill="#FDF1E3"/>
<path d="M1046.76 131.196C1044.05 131.196 1043.25 128.589 1042.55 126.309C1041.98 124.45 1041.43 122.681 1040.08 122.353C1038.56 121.988 1037.9 123.027 1037.02 124.814C1036.47 125.908 1035.98 126.929 1035.01 127.258C1034.51 127.422 1033.96 127.367 1033.38 127.075C1032.28 126.528 1031.54 125.361 1031.21 123.611C1030.41 119.417 1032.06 113.035 1033.17 111.814C1035.04 109.753 1037.44 109.425 1038.19 109.37C1040.3 107.802 1043.54 107 1046.76 107C1051.45 107 1057.31 107.547 1061.05 111.814C1062.64 113.619 1063.49 119.545 1062.7 123.337C1062.26 125.434 1061.4 126.802 1060.13 127.403C1059.57 127.677 1059.04 127.713 1058.54 127.549C1057.57 127.203 1057.06 126.091 1056.53 124.924C1055.65 123.009 1055.01 121.879 1053.47 122.243C1052.09 122.572 1051.56 124.358 1050.99 126.237C1050.28 128.57 1049.47 131.196 1046.76 131.196ZM1039.47 120.985C1039.75 120.985 1040.04 121.022 1040.37 121.095C1042.46 121.587 1043.14 123.793 1043.78 125.927C1044.55 128.406 1045.12 129.902 1046.76 129.902C1048.41 129.902 1048.98 128.388 1049.75 125.872C1050.41 123.72 1051.07 121.496 1053.16 121.003C1055.85 120.347 1056.91 122.681 1057.7 124.395C1058.1 125.27 1058.52 126.182 1058.98 126.346C1059.04 126.364 1059.2 126.437 1059.57 126.255C1060.67 125.726 1061.18 124.249 1061.42 123.082C1062.22 119.18 1061.16 113.911 1060.06 112.652C1056.67 108.787 1051.16 108.295 1046.75 108.295C1044.25 108.295 1040.96 108.878 1038.96 110.355C1038.89 110.464 1038.78 110.556 1038.65 110.61C1037.77 111.358 1037.2 112.324 1037.2 113.509C1037.2 117.12 1043.05 118.469 1046.73 118.469C1051.49 118.469 1055.72 115.406 1057.24 114.166C1053.34 111.431 1049.24 110.701 1046.8 110.938C1045.39 111.066 1043.72 111.54 1043.72 113.054C1043.72 113.582 1043.89 114.002 1044.22 114.312C1045.06 115.114 1046.69 115.041 1046.71 115.041C1047.08 115.023 1047.37 115.296 1047.39 115.643C1047.41 115.989 1047.13 116.299 1046.78 116.317C1046.69 116.317 1044.58 116.427 1043.32 115.242C1042.72 114.676 1042.42 113.947 1042.42 113.054C1042.42 111.139 1043.98 109.899 1046.67 109.644C1049.47 109.389 1054.29 110.264 1058.65 113.601L1059.26 114.056L1058.71 114.567C1058.49 114.786 1053.17 119.727 1046.71 119.727C1042.37 119.727 1035.9 118.068 1035.9 113.491C1035.9 112.561 1036.16 111.723 1036.62 110.993C1035.83 111.267 1034.9 111.777 1034.11 112.652C1033.28 113.564 1031.75 119.581 1032.46 123.356C1032.72 124.687 1033.21 125.544 1033.92 125.908C1034.31 126.109 1034.49 126.036 1034.57 126.018C1035.01 125.872 1035.43 125.033 1035.83 124.231C1036.54 122.827 1037.46 120.985 1039.47 120.985Z" fill="#FDF1E3"/>
</g>
<defs>
<clipPath id="clip0_796_2">
<rect width="150" height="1080" fill="white" transform="translate(1080) rotate(90)"/>
</clipPath>
</defs>
</svg>
