<svg width="1080" height="150" viewBox="0 0 1080 150" fill="none" xmlns="http://www.w3.org/2000/svg">
<g clip-path="url(#clip0_754_42)">
<rect width="150" height="1080" transform="translate(1080) rotate(90)" fill="#DD8964"/>
<path d="M121.503 94.446C9.13466 106.97 -331.702 47.2943 -395 45.3848C-110.788 -36.5323 647.944 -333.86 1026.06 -364.201C1404.18 -394.541 1609.07 -202.901 1691.87 -98.4491C1751.14 -23.6658 1740.14 25.4803 1561.32 36.136C1411.45 45.0664 1307.86 -10.9742 1186.08 -4.98039C1064.31 1.01338 1077.42 73.7469 913.571 79.1985C749.724 84.6502 525.265 19.2282 366.851 22.2777C208.438 25.3272 233.871 81.9219 121.503 94.446Z" fill="#A3BD9B"/>
<path d="M187.066 83.4013C74.6981 95.9255 -235.125 40.2806 -298.423 38.3711C-14.2113 -43.546 744.521 -340.874 1122.64 -371.214C1500.75 -401.555 1674.64 -213.945 1757.43 -109.494C1816.7 -34.7105 1805.7 14.4355 1626.88 25.0913C1477.01 34.0217 1373.42 -22.0189 1251.65 -16.0251C1129.87 -10.0313 1142.98 62.7022 979.134 68.1538C815.288 73.6055 590.828 8.18356 432.415 11.233C274.001 14.2825 299.434 70.8772 187.066 83.4013Z" stroke="#FDF1E3" stroke-opacity="0.2" stroke-width="6"/>
<path d="M163.68 87.48C163.92 87.48 164.16 87.64 164.24 87.88C165.76 90.76 167.2 93.64 168.64 96.6C168.72 96.76 168.8 97 168.96 97.24C169.6 98.92 170.24 100.28 171.12 101.88C171.84 103.08 172.32 104.36 172.8 105.64C173.44 107.48 174 109.32 174.88 111.08C175.04 111.32 175.12 111.48 175.2 111.72C175.68 113.32 176.4 114.76 176.88 116.28C177.36 117.72 177.84 119.08 178.56 120.36C178.88 121.32 179.44 122.28 179.76 123.32C179.92 123.8 180.16 124.36 180.4 124.84C181.12 126.12 181.76 127.48 182.32 128.84C182.48 129 182.56 129.24 182.64 129.48C182.72 129.56 182.72 129.56 182.8 129.64C182.96 130.04 183.52 130.04 183.84 129.72C184 129.4 184.16 129.16 184.32 128.84C184.72 127.72 185.2 126.6 185.6 125.48C185.92 124.6 186.16 123.72 186.48 122.92C186.8 121.8 187.12 120.76 187.6 119.72C188.24 118.28 188.8 116.84 189.36 115.4C189.68 114.6 190.08 113.8 190.48 113C190.88 112.12 191.2 111.16 191.44 110.2C191.68 109.4 192 108.52 192.24 107.64C192.56 106.6 192.96 105.48 193.28 104.44C193.84 103 194.24 101.48 194.88 100.12C195.04 99.88 195.12 99.64 195.12 99.4C195.68 97.72 196.24 96.04 196.8 94.28C197.52 91.8 198.48 89.4 199.52 87C199.76 86.6 199.92 86.12 200.16 85.72C200.16 85.64 200.24 85.56 200.32 85.56C200.4 85.48 200.48 85.48 200.56 85.56C200.64 85.56 200.8 85.72 200.88 85.88C201.04 86.76 200.96 87.64 200.96 88.52C200.96 95.64 200.96 102.68 200.96 109.72C200.96 110.28 200.88 110.92 200.88 111.48C200.8 112.2 200.72 112.92 200.72 113.64C200.72 116.76 200.64 119.8 200.64 122.92C200.64 123.96 200.56 125 200.48 126.04C200.4 126.52 200.24 127 200.16 127.48C200.08 127.72 199.92 127.96 199.76 128.12C199.76 128.12 199.68 128.2 199.6 128.28C198.96 128.76 198.24 129.16 197.36 129.24C196.48 129.56 195.52 129.72 194.64 130.12C194.48 130.2 194.32 130.28 194.24 130.44C194.16 130.52 194.08 130.68 194 130.84C194 131 194.32 131.4 194.4 131.4C194.64 131.48 194.88 131.56 195.12 131.56C197.92 131.48 200.64 131.48 203.44 131.48C204.8 131.48 206.16 131.48 207.52 131.32C208 131.24 208.56 131.24 209.04 131.24C211.04 131.24 213.04 131.24 215.12 131.16C215.68 131.16 216.24 131.16 216.8 131.08C216.96 131.08 217.12 131 217.28 131C217.44 130.92 217.68 130.6 217.68 130.44C217.68 130.2 217.44 129.88 217.36 129.8C217.2 129.8 217.04 129.64 216.88 129.64C215.68 129.56 214.64 129.16 213.68 128.6C213.36 128.52 213.12 128.28 212.8 128.12C212.56 127.88 212.4 127.64 212.24 127.32C212.08 126.92 211.92 126.44 212 125.96C212.24 124.92 212.24 123.96 212.24 123C212.24 120.92 212.24 118.76 212.24 116.68C212.32 113.4 212.32 110.2 212.32 106.92C212.24 99.64 212.32 92.28 212.32 85C212.32 83.88 212.32 82.68 212.4 81.56C212.4 80.68 212.56 79.8 212.8 78.92C212.88 78.36 213.28 77.88 213.76 77.56C214.08 77.32 214.4 77.08 214.8 77C215.68 76.92 216.56 76.68 217.36 76.36C217.6 76.28 217.6 76.2 217.6 75.96C217.6 75.64 217.36 75.32 217.12 75.24C216.8 75.16 216.48 75.16 216.16 75.16C213.04 75.16 209.92 75.16 206.88 75.16C204.32 75.16 204.32 75.16 201.76 75.56C201.68 75.56 201.6 75.56 201.52 75.56C201.28 75.72 201.12 75.8 200.88 75.88C200.72 76.04 200.48 76.2 200.4 76.44C200.16 76.84 199.84 77.24 199.68 77.72C198.96 79.24 198.32 80.84 197.76 82.44C197.36 83.64 196.96 84.76 196.48 85.88C195.6 87.96 194.8 90.04 194.08 92.28C193.92 92.76 193.76 93.32 193.52 93.88C192.8 95.8 192 97.8 191.12 99.72C190.24 101.88 189.28 104.04 188.48 106.28C188.24 106.76 188.08 107.32 187.84 107.8C187.76 108.04 187.6 108.12 187.44 108.04C187.28 108.04 187.2 107.96 187.12 107.8C186.96 107.48 186.88 107.16 186.72 106.84C186.24 105.96 185.76 105 185.36 104.04C184.88 103 184.32 102.04 183.84 100.92C183.76 100.6 183.52 100.2 183.36 99.88C182.72 98.76 182.16 97.56 181.6 96.36C181.2 95.64 180.88 94.92 180.56 94.2C180.16 93.16 179.76 92.2 179.2 91.32C178.32 89.48 177.36 87.72 176.48 85.88C176.16 85.32 175.92 84.68 175.68 84.12C174.8 82.28 174 80.36 173.2 78.52C172.88 77.88 172.56 77.24 172.24 76.52C172.16 76.36 172.08 76.12 171.92 75.88C171.76 75.56 171.36 75.32 170.96 75.24C170.72 75.16 170.48 75.08 170.24 75.08C169.44 75.08 168.64 75 167.84 75C165.76 75 163.76 75 161.76 75C160.8 75 159.92 75 159.04 75.24C158.32 75.32 157.6 75.4 156.88 75.4C156.4 75.48 155.92 75.48 155.44 75.56C155.04 75.56 154.64 75.64 154.24 75.8C153.92 75.96 153.6 76.04 153.36 76.2C153.28 76.2 153.2 76.28 153.2 76.36C152.96 76.52 153.04 76.84 153.2 77C153.44 77.16 153.76 77.32 154.08 77.32C155.04 77.32 156 77.32 156.96 77.4C157.2 77.4 157.44 77.48 157.68 77.56C157.92 77.56 158.32 78.04 158.32 78.28C158.32 78.52 158.32 78.76 158.32 79C158.32 80.6 158.32 82.2 158.32 83.88C158.32 84.36 158.24 84.84 158.32 85.32C158.56 86.36 158.56 87.4 158.64 88.44C158.72 90.28 158.64 92.04 158.96 93.8C159.04 94.04 159.04 94.28 159.04 94.52C159.12 96.52 159.2 98.44 159.28 100.36C159.28 101.56 159.28 102.68 159.44 103.8C159.52 104.28 159.52 104.76 159.52 105.24C159.6 110.2 159.68 115.16 159.6 120.12C159.6 121.4 159.6 122.76 159.6 124.04C159.6 125.4 159.36 126.76 159.2 128.12C159.12 128.6 158.8 128.92 158.48 129.08C158 129.24 157.52 129.48 157.12 129.56C156.16 129.8 155.2 130.12 154.24 130.12C154 130.12 153.76 130.2 153.52 130.28C153.28 130.36 153.12 130.52 152.96 130.76C152.88 130.92 152.8 131.08 152.96 131.24C153.04 131.32 153.2 131.48 153.28 131.48C154.24 131.64 155.28 131.56 156.24 131.56C156.56 131.48 156.88 131.48 157.2 131.4C157.6 131.24 158 131.24 158.4 131.16C160.16 131.16 161.92 131.16 163.76 131.16C164.32 131.16 164.88 131.24 165.44 131.24C166.48 131.56 167.52 131.56 168.56 131.56C169.12 131.56 169.76 131.48 170.32 131.48C170.48 131.48 170.56 131.4 170.72 131.32C171.12 131.08 171.2 130.6 170.88 130.28C170.64 130.04 170.4 129.88 170 129.8C169.6 129.72 169.2 129.72 168.8 129.72C167.76 129.72 166.72 129.48 165.68 129.24C165.04 129.08 164.48 128.76 163.92 128.44C163.68 128.28 163.44 127.96 163.44 127.64C163.44 126.92 163.44 126.2 163.44 125.4C163.6 121.64 163.6 117.8 163.6 113.96C163.6 110.44 163.6 106.84 163.6 103.24C163.6 102.52 163.6 101.8 163.6 101.08C163.44 97.32 163.44 93.56 163.44 89.88C163.44 89.16 163.52 88.52 163.52 87.88C163.52 87.72 163.6 87.56 163.68 87.48ZM240.547 106.84C240.547 103.32 240.547 100.6 240.547 97.96C240.547 97.24 240.547 96.52 240.547 95.8C240.387 92.44 240.467 89.08 240.467 85.8C240.467 85.08 240.467 84.28 240.627 83.56C240.787 82.84 240.787 82.12 240.867 81.4C240.867 80.68 240.867 79.96 240.947 79.24C240.947 78.92 241.107 78.6 241.347 78.36C241.747 77.8 242.227 77.4 242.947 77.24C243.187 77.16 243.507 77.08 243.827 77C244.547 76.84 245.267 76.6 245.907 76.36C246.147 76.28 246.227 76.04 246.067 75.8C245.987 75.72 245.987 75.64 245.907 75.56C245.667 75.4 245.347 75.24 245.027 75.24C244.627 75.16 244.227 75.16 243.827 75.16C237.747 75.16 231.747 75.16 225.747 75.16C225.507 75.16 225.267 75.16 225.027 75.16C224.467 75.24 223.987 75.48 223.667 76.04C223.587 76.2 223.587 76.36 223.747 76.44C223.987 76.6 224.147 76.68 224.387 76.76C224.707 76.84 225.027 76.92 225.347 76.92C226.307 77 227.107 77.24 227.987 77.56C228.387 77.72 228.787 78.2 228.787 78.68C228.787 78.84 228.867 79 228.867 79.16C228.867 80.44 228.867 81.72 228.867 83C228.867 84.12 228.787 85.16 228.947 86.2C229.027 87.32 229.027 88.44 229.027 89.64C229.107 91.16 229.107 92.68 229.027 94.2C229.027 95.32 229.107 96.36 228.947 97.4C228.867 97.8 228.867 98.2 228.867 98.6C228.867 99.88 228.867 101.24 228.867 102.52C228.787 109.4 228.947 116.36 228.787 123.24C228.707 124.68 228.627 126.12 228.227 127.56C228.147 127.88 227.987 128.12 227.667 128.36C227.187 128.68 226.547 129 225.907 129.16C224.627 129.4 223.427 129.8 222.227 130.36C222.067 130.44 221.987 130.52 221.987 130.76C221.987 131.08 222.227 131.32 222.547 131.4C222.787 131.4 223.027 131.48 223.267 131.48C225.827 131.48 228.307 131.48 230.867 131.48C231.347 131.48 231.827 131.48 232.307 131.32C232.947 131.16 233.587 131.16 234.227 131.16C237.027 131.16 239.747 131.16 242.547 131.16C243.267 131.16 243.987 131.16 244.707 131.16C244.947 131.16 245.187 131.08 245.427 131.08C245.507 131.08 245.587 131 245.667 131C245.827 130.92 246.147 130.52 246.067 130.44C245.987 130.2 245.827 129.96 245.667 129.8C245.587 129.8 245.507 129.72 245.427 129.72C244.627 129.64 243.827 129.4 243.107 129.16C242.307 128.92 241.587 128.6 240.947 128.04C240.707 127.8 240.547 127.56 240.467 127.16C240.467 127 240.467 126.84 240.467 126.68C240.467 123.88 240.387 121 240.467 118.2C240.547 114.12 240.627 110.04 240.547 106.84ZM261.729 87.08C261.729 84.6 261.729 84.6 262.449 82.44C262.609 82.04 262.689 81.64 262.849 81.24C263.409 80.12 264.209 79.24 265.249 78.6C265.329 78.52 265.409 78.52 265.489 78.44C266.449 78.12 267.329 77.8 268.289 77.88C269.489 77.88 270.609 77.88 271.729 77.88C272.049 77.88 272.369 77.88 272.689 77.96C273.489 78.2 274.289 78.36 275.009 78.68C277.089 79.64 278.689 81.08 279.809 83.08C280.049 83.56 280.289 84.04 280.609 84.52C281.089 85.4 281.329 86.36 281.569 87.32C281.649 88.28 282.129 89.16 282.289 90.12C282.289 90.2 282.369 90.28 282.449 90.36C282.529 90.52 282.769 90.6 283.009 90.68C283.169 90.68 283.569 90.44 283.569 90.28C283.729 89.48 283.969 88.68 283.969 87.88C284.049 86.04 284.049 84.12 283.889 82.28C283.729 81.32 283.729 80.36 283.649 79.4C283.649 79.08 283.649 78.76 283.569 78.44C283.489 78.2 283.329 77.96 283.169 77.8C283.009 77.72 282.929 77.56 282.769 77.48C282.129 77.16 281.489 76.84 280.769 76.52C280.049 76.28 279.249 76.04 278.449 75.8C277.889 75.64 277.249 75.48 276.609 75.48C275.969 75.4 275.409 75.4 274.849 75.32C274.049 75.16 273.249 75.16 272.449 75.16C271.009 75.16 269.489 75.16 268.049 75.16C267.169 75.16 266.289 75.24 265.409 75.32C264.609 75.48 263.809 75.56 263.009 75.8C262.769 75.96 262.529 75.96 262.289 75.96C261.409 76.12 260.609 76.44 259.729 76.52C259.249 76.6 258.769 76.84 258.369 77.08C257.809 77.4 257.329 77.64 256.929 78.04C256.609 78.44 256.209 78.76 255.889 79.08C255.569 79.48 255.249 79.8 254.929 80.2C254.369 81 253.809 81.8 253.329 82.6C253.169 82.84 253.009 83 252.929 83.24C252.769 83.88 252.449 84.44 252.369 85.08C252.129 86.2 251.889 87.32 251.729 88.44C251.489 89.56 251.489 90.68 251.569 91.8C251.809 92.6 251.809 93.4 251.889 94.2C251.889 94.44 251.969 94.76 252.049 94.92C252.369 96.12 252.769 97.32 253.409 98.36C253.729 98.92 254.129 99.56 254.529 100.2C255.489 101.72 256.689 103.08 258.209 104.04C258.369 104.2 258.609 104.36 258.769 104.52C259.329 105 259.889 105.4 260.609 105.72C260.849 105.88 261.169 106.04 261.409 106.2C263.489 107.56 265.569 108.76 267.809 109.8C268.689 110.2 269.489 110.68 270.289 111.24C271.889 112.28 273.249 113.56 274.529 114.92C275.249 115.72 275.729 116.6 275.889 117.72C275.969 118.04 276.049 118.36 276.129 118.68C276.289 119.48 276.289 120.28 276.209 121.08C276.209 121.16 276.209 121.24 276.209 121.32C275.889 122.12 275.649 123 275.329 123.88C274.849 124.92 274.129 125.8 273.169 126.44C272.849 126.76 272.529 126.84 272.129 127.08C271.089 127.32 270.129 127.56 269.009 127.56C267.729 127.56 266.449 127.56 265.169 127.56C264.929 127.56 264.609 127.56 264.369 127.56C263.489 127.32 262.449 127.24 261.569 126.92C261.009 126.76 260.449 126.52 259.969 126.2C259.729 126.04 259.409 125.88 259.169 125.72C258.369 125.32 257.649 124.76 257.009 124.12C256.769 123.88 256.449 123.56 256.129 123.32C255.169 122.28 254.369 121.16 253.729 119.96C253.329 119.32 253.009 118.68 252.849 117.96C252.609 117.24 252.369 116.6 252.209 115.88C252.209 115.64 252.049 115.4 251.889 115.24C251.809 115.08 251.409 114.92 251.249 115C251.169 115.16 251.009 115.24 250.929 115.4C250.849 115.48 250.849 115.64 250.849 115.8C250.929 116.84 250.929 117.8 251.169 118.76C251.249 119.16 251.249 119.56 251.329 119.96C251.409 121.56 251.409 123.16 251.729 124.76C251.809 125.16 251.809 125.56 251.809 126.04C251.809 126.44 251.889 126.84 251.889 127.24C251.969 127.72 252.129 128.2 252.369 128.6C252.449 128.84 252.609 129 252.849 129.08C253.969 129.56 255.089 130.12 256.289 130.36C257.329 130.6 258.369 130.92 259.409 131C260.209 131.08 261.009 131.16 261.809 131.16C264.929 131.16 267.969 131.08 271.089 131.08C271.489 131.08 271.889 131 272.289 130.92C272.929 130.84 273.569 130.6 274.209 130.6C274.849 130.52 275.409 130.2 276.049 130.12C278.129 129.72 279.889 128.84 281.329 127.24C281.409 127.16 281.569 127 281.649 126.92C282.369 126.2 283.009 125.48 283.569 124.68C283.809 124.36 284.049 124.04 284.289 123.72C284.689 123.16 285.089 122.52 285.409 121.88C285.969 120.84 286.369 119.8 286.769 118.76C286.849 118.52 286.929 118.28 287.009 118.04C287.329 116.52 287.329 116.52 287.329 114.92C287.329 114.44 287.329 113.96 287.329 113.48C287.249 113.16 287.169 112.84 287.089 112.52C286.609 110.76 285.969 109.08 285.169 107.48C284.769 106.76 284.289 106.12 283.729 105.56C282.929 104.68 282.049 103.8 281.089 103.08C279.329 101.72 277.649 100.36 275.809 99.16C274.209 98.2 272.689 97.08 271.089 96.12C269.969 95.48 268.929 94.68 267.809 93.96C267.249 93.56 266.689 93 266.129 92.6C265.809 92.28 265.489 92.04 265.249 91.8C264.369 91.16 263.649 90.36 263.009 89.56C262.609 89.08 262.289 88.6 262.129 88.12C262.049 87.8 261.889 87.48 261.729 87.08ZM302.644 131.56C307.364 131.56 310.644 131.48 314.004 131.48C314.324 131.48 314.644 131.48 314.964 131.4C315.284 131.4 315.604 131.32 315.924 131.24C316.004 131.24 316.084 131.16 316.164 131.08C316.404 131 316.564 130.68 316.484 130.52C316.404 130.28 316.244 130.12 316.004 130.04C315.684 129.96 315.364 129.8 315.044 129.8C313.844 129.56 312.724 129.08 311.604 128.52C311.204 128.36 310.884 127.88 310.884 127.4C310.804 125.16 310.804 123 310.804 120.84C310.804 118.04 310.884 115.32 310.964 112.52C310.964 111.16 310.964 109.8 310.964 108.36C310.884 107.8 310.884 107.24 310.884 106.68C310.884 106.52 310.964 106.36 310.964 106.2C310.964 105.8 311.284 105.4 311.684 105.32C312.804 105.32 313.924 105.24 315.124 105.24C316.084 105.16 317.044 105.16 318.004 105C318.324 104.92 318.644 104.92 318.964 104.84C321.124 104.76 323.364 104.68 325.524 104.68C327.924 104.76 330.244 104.76 332.644 104.76C332.964 104.76 333.284 104.84 333.604 104.84C333.844 104.84 334.164 105.16 334.164 105.48C334.164 105.8 334.164 106.04 334.164 106.28C334.164 110.92 334.244 115.48 334.324 120.12C334.404 122.6 334.324 125 334.244 127.48C334.244 127.88 334.004 128.28 333.604 128.44C332.484 129 331.284 129.56 330.004 129.72C329.764 129.72 329.524 129.88 329.284 129.96C329.124 129.96 329.044 130.12 328.964 130.28C328.724 130.52 328.884 130.92 329.204 131C329.444 131.16 329.604 131.16 329.924 131.16C330.964 131.24 332.004 131.24 333.044 131.24C335.604 131.24 338.084 131.24 340.644 131.24C341.044 131.24 341.444 131.24 341.844 131.32C342.484 131.48 343.124 131.56 343.764 131.56C346.324 131.56 348.964 131.56 351.524 131.56C351.764 131.56 352.004 131.48 352.244 131.48C352.564 131.48 352.724 131 352.644 130.76C352.564 130.6 352.484 130.44 352.324 130.36C351.604 130.04 350.804 129.72 350.004 129.56C349.364 129.48 348.724 129.24 348.164 129.08C347.764 128.92 347.444 128.68 347.044 128.52C346.724 128.28 346.484 127.96 346.404 127.48C346.324 126.92 346.324 126.36 346.164 125.8C346.004 125.08 345.924 124.36 345.924 123.64C345.924 120.44 345.924 117.32 345.924 114.12C345.844 108.92 345.844 103.72 345.844 98.52C345.764 93.8 345.684 89.08 345.844 84.44C345.924 83.8 345.924 83.24 345.924 82.68C345.924 81.56 345.924 80.44 345.924 79.32C345.924 79.08 345.924 78.76 345.924 78.52C346.004 78.28 346.164 78.12 346.324 77.96C346.644 77.8 346.884 77.56 347.204 77.48C348.164 77.24 349.044 77 350.084 76.92C350.324 76.92 350.564 76.84 350.724 76.76C351.044 76.68 351.124 76.2 350.884 75.96C350.724 75.72 350.404 75.56 350.084 75.48C349.844 75.48 349.604 75.48 349.364 75.48C342.964 75.48 336.484 75.48 330.084 75.48C329.844 75.48 329.604 75.48 329.364 75.56C329.284 75.56 329.204 75.56 329.124 75.64C328.884 75.72 328.724 76.12 328.964 76.44C329.124 76.68 329.444 76.84 329.764 76.92C330.564 77 331.364 77.24 332.084 77.48C332.724 77.64 333.124 77.96 333.444 78.44C333.604 78.68 333.764 78.84 333.764 79.08C333.844 80.2 334.084 81.16 334.084 82.28C334.164 84.52 334.324 86.84 334.244 89.08C334.244 90.92 334.324 92.84 334.244 94.68C334.244 96.6 334.164 98.6 334.164 100.52C334.164 100.68 334.164 100.84 334.084 101C334.084 101.16 333.844 101.48 333.684 101.56C333.524 101.64 333.364 101.72 333.204 101.72C332.484 101.72 331.764 101.8 331.044 101.8C328.004 101.8 325.044 101.88 322.004 101.88C320.564 101.96 319.044 101.88 317.604 102.2C317.444 102.2 317.284 102.2 317.124 102.2C315.444 102.28 313.764 102.36 312.004 102.28C311.844 102.28 311.684 102.2 311.524 102.2C311.364 102.2 311.284 102.04 311.204 101.88C311.044 101.64 310.964 101.32 310.964 101C310.884 95.56 310.884 90.04 310.964 84.6C310.964 84.12 310.964 83.64 311.044 83.16C311.204 82.12 311.204 81.08 311.284 80.04C311.284 79.72 311.284 79.4 311.364 79.08C311.364 78.92 311.444 78.76 311.524 78.6C311.844 78.12 312.244 77.72 312.804 77.48C313.124 77.32 313.524 77.08 313.924 77C314.724 76.92 315.524 76.68 316.244 76.44C316.484 76.36 316.564 75.96 316.404 75.8C316.244 75.48 316.004 75.32 315.684 75.24C315.364 75.16 315.044 75.16 314.724 75.16C308.724 75.16 302.724 75.16 296.644 75.16C296.324 75.16 296.004 75.16 295.684 75.16C295.284 75.24 294.884 75.4 294.564 75.56C294.484 75.64 294.484 75.72 294.404 75.8C294.164 76.04 294.244 76.44 294.564 76.52C294.884 76.68 295.204 76.76 295.524 76.84C295.924 76.92 296.324 77 296.724 77C297.284 77.08 297.764 77.32 298.324 77.48C298.404 77.56 298.484 77.56 298.564 77.64C298.884 77.88 299.124 78.12 299.204 78.6C299.204 79.56 299.204 80.52 299.364 81.48C299.444 82.44 299.444 83.32 299.444 84.2C299.524 85.96 299.524 87.8 299.524 89.56C299.524 95.56 299.524 101.56 299.524 107.56C299.524 109.72 299.444 111.8 299.444 113.96C299.444 114.44 299.444 114.92 299.364 115.4C299.284 116.12 299.284 116.84 299.284 117.56C299.204 119.56 299.204 121.48 299.204 123.4C299.124 124.68 299.044 125.88 298.964 127.08C298.964 127.48 298.724 127.88 298.484 128.12C298.084 128.6 297.604 128.92 297.044 129.08C296.324 129.24 295.684 129.48 294.964 129.72C294.324 129.8 293.764 130.04 293.124 130.28C292.884 130.36 292.724 130.52 292.564 130.76C292.484 130.92 292.404 131 292.484 131.16C292.564 131.32 292.644 131.48 292.804 131.48C293.204 131.64 293.604 131.64 294.004 131.64C297.364 131.56 300.644 131.56 302.644 131.56ZM375.312 106.84C375.312 103.32 375.312 100.6 375.312 97.96C375.312 97.24 375.312 96.52 375.312 95.8C375.152 92.44 375.232 89.08 375.232 85.8C375.232 85.08 375.232 84.28 375.392 83.56C375.552 82.84 375.552 82.12 375.632 81.4C375.632 80.68 375.632 79.96 375.712 79.24C375.712 78.92 375.872 78.6 376.112 78.36C376.512 77.8 376.992 77.4 377.712 77.24C377.952 77.16 378.272 77.08 378.592 77C379.312 76.84 380.032 76.6 380.672 76.36C380.912 76.28 380.992 76.04 380.832 75.8C380.752 75.72 380.752 75.64 380.672 75.56C380.432 75.4 380.112 75.24 379.792 75.24C379.392 75.16 378.992 75.16 378.592 75.16C372.512 75.16 366.512 75.16 360.512 75.16C360.272 75.16 360.032 75.16 359.792 75.16C359.232 75.24 358.752 75.48 358.432 76.04C358.352 76.2 358.352 76.36 358.512 76.44C358.752 76.6 358.912 76.68 359.152 76.76C359.472 76.84 359.792 76.92 360.112 76.92C361.072 77 361.872 77.24 362.752 77.56C363.152 77.72 363.552 78.2 363.552 78.68C363.552 78.84 363.632 79 363.632 79.16C363.632 80.44 363.632 81.72 363.632 83C363.632 84.12 363.552 85.16 363.712 86.2C363.792 87.32 363.792 88.44 363.792 89.64C363.872 91.16 363.872 92.68 363.792 94.2C363.792 95.32 363.872 96.36 363.712 97.4C363.632 97.8 363.632 98.2 363.632 98.6C363.632 99.88 363.632 101.24 363.632 102.52C363.552 109.4 363.712 116.36 363.552 123.24C363.472 124.68 363.392 126.12 362.992 127.56C362.912 127.88 362.752 128.12 362.432 128.36C361.952 128.68 361.312 129 360.672 129.16C359.392 129.4 358.192 129.8 356.992 130.36C356.832 130.44 356.752 130.52 356.752 130.76C356.752 131.08 356.992 131.32 357.312 131.4C357.552 131.4 357.792 131.48 358.032 131.48C360.592 131.48 363.072 131.48 365.632 131.48C366.112 131.48 366.592 131.48 367.072 131.32C367.712 131.16 368.352 131.16 368.992 131.16C371.792 131.16 374.512 131.16 377.312 131.16C378.032 131.16 378.752 131.16 379.472 131.16C379.712 131.16 379.952 131.08 380.192 131.08C380.272 131.08 380.352 131 380.432 131C380.592 130.92 380.912 130.52 380.832 130.44C380.752 130.2 380.592 129.96 380.432 129.8C380.352 129.8 380.272 129.72 380.192 129.72C379.392 129.64 378.592 129.4 377.872 129.16C377.072 128.92 376.352 128.6 375.712 128.04C375.472 127.8 375.312 127.56 375.232 127.16C375.232 127 375.232 126.84 375.232 126.68C375.232 123.88 375.152 121 375.232 118.2C375.312 114.12 375.392 110.04 375.312 106.84ZM406.334 131.08C407.134 131.08 407.934 131.08 408.734 131.08C414.174 131.08 419.614 131.08 425.054 131.08C425.774 131.08 426.414 131.08 427.054 131C427.534 131 428.014 130.76 428.414 130.52C428.654 130.28 428.814 129.96 428.894 129.64C428.974 129 428.974 128.36 429.054 127.72C429.134 127.32 429.134 126.92 429.214 126.52C429.374 125.88 429.454 125.24 429.454 124.6C429.534 123.56 429.534 122.52 429.694 121.48C430.014 120.2 430.014 118.84 429.934 117.56C429.934 117.16 429.454 116.84 429.054 117C428.734 117 428.494 117.24 428.334 117.56C428.254 117.8 428.174 118.04 428.174 118.28C428.014 118.92 427.934 119.56 427.694 120.12C427.534 120.76 427.294 121.4 426.974 121.96C426.734 122.52 426.414 123.08 426.174 123.72C425.934 124.2 425.614 124.68 425.294 125.16C424.974 125.56 424.654 125.88 424.254 126.2C423.934 126.44 423.614 126.68 423.214 126.84C422.734 127.16 422.254 127.4 421.694 127.56C420.414 127.88 419.214 128.2 417.854 128.28C416.734 128.28 415.614 128.28 414.494 128.52C414.094 128.6 413.614 128.6 413.214 128.6C410.254 128.6 407.214 128.6 404.254 128.6C404.014 128.6 403.774 128.6 403.534 128.6C403.374 128.52 402.974 128.28 402.974 128.12C402.894 127.96 402.814 127.8 402.814 127.64C402.814 126.68 402.734 125.72 402.734 124.76C402.734 121.32 402.734 117.88 402.734 114.52C402.734 112.84 402.734 111.24 402.974 109.64C403.054 109.24 403.054 108.84 403.054 108.44C403.134 107.32 403.134 106.12 403.214 105C403.214 104.76 403.214 104.52 403.294 104.28C403.294 104.12 403.614 103.8 403.774 103.8C404.014 103.72 404.414 103.64 404.734 103.64C407.294 103.72 409.934 103.72 412.494 103.72C413.534 103.72 414.414 103.96 415.294 104.44C415.454 104.6 415.694 104.68 415.934 104.84C416.014 104.84 416.014 104.92 416.094 105C416.414 105.16 416.654 105.4 416.734 105.72C417.134 106.68 417.454 107.72 417.694 108.68C417.854 109.24 418.014 109.8 418.254 110.36C418.334 110.44 418.414 110.6 418.494 110.76C418.654 111 418.814 111.08 419.134 111.08C419.374 111.08 419.694 110.76 419.774 110.44C419.774 110.2 419.774 109.96 419.774 109.72C419.774 109.08 419.694 108.44 419.534 107.8C419.374 107.16 419.294 106.52 419.294 105.88C419.214 104.68 419.214 103.48 419.294 102.2C419.374 101.72 419.294 101.24 419.454 100.76C419.694 99.24 419.694 97.72 419.854 96.2C419.934 95.56 419.854 95 419.854 94.44C419.854 94.28 419.854 94.12 419.774 93.96C419.694 93.88 419.534 93.72 419.454 93.64C419.374 93.56 418.894 93.72 418.814 93.8C418.654 94.04 418.494 94.2 418.414 94.44C418.174 95.16 418.014 95.88 417.934 96.6C417.774 97.32 417.534 97.96 417.294 98.68C417.134 99.24 416.734 99.64 416.254 99.96C415.374 100.52 414.494 100.84 413.534 100.84C413.134 100.84 412.734 100.92 412.334 100.92C409.614 100.92 406.974 100.92 404.254 100.92C404.174 100.92 404.094 100.92 404.014 100.92C403.694 100.84 403.374 100.52 403.374 100.28C403.374 99.56 403.374 98.76 403.374 98.04C403.374 97.4 403.294 96.76 403.374 96.12C403.534 95.32 403.534 94.52 403.534 93.72C403.534 91.96 403.534 90.28 403.534 88.6C403.534 87.24 403.614 85.96 403.374 84.68C403.294 84.44 403.294 84.2 403.294 83.96C403.294 82.36 403.214 80.68 403.214 79.08C403.134 78.84 403.214 78.6 403.214 78.36C403.214 78.12 403.534 77.72 403.854 77.64C404.174 77.56 404.494 77.56 404.814 77.56C407.854 77.56 410.974 77.56 414.014 77.56C415.054 77.56 416.014 77.56 416.974 77.56C417.294 77.56 417.614 77.56 417.934 77.64C418.654 77.88 419.374 77.88 420.094 78.04C420.334 78.12 420.574 78.2 420.734 78.36C420.894 78.44 421.054 78.52 421.134 78.6C422.494 79.8 423.614 81.24 424.574 82.76C424.974 83.4 425.374 84.12 425.774 84.84C425.854 85 425.934 85.16 425.934 85.32C426.174 86.04 426.494 86.68 426.574 87.4C426.574 87.64 426.654 87.88 426.734 88.12C426.734 88.28 426.814 88.44 426.974 88.52C427.054 88.6 427.214 88.68 427.374 88.68C427.534 88.76 427.934 88.44 427.934 88.28C427.934 88.12 428.014 87.96 428.014 87.8C428.014 86.6 428.014 85.4 427.854 84.2C427.774 83.4 427.694 82.52 427.694 81.72C427.694 80.52 427.694 79.32 427.694 78.12C427.614 77.32 427.614 76.6 427.454 75.88C427.454 75.64 427.054 75.32 426.814 75.24C426.414 75.16 426.014 75.16 425.614 75.16C417.614 75.08 409.694 75.08 401.694 75C401.134 75 400.574 75 400.014 75.08C398.974 75.16 397.854 75.16 396.814 75.16C396.254 75.16 395.694 75.24 395.134 75.32C393.534 75.64 391.934 75.56 390.254 75.32C389.054 75.16 387.854 75.16 386.654 75.24C386.414 75.24 386.094 75.56 386.094 75.88C386.094 76.04 386.174 76.2 386.254 76.36C386.574 76.68 386.894 76.92 387.294 76.92C388.174 77 389.054 77.32 389.934 77.48C390.334 77.56 390.654 77.8 390.974 78.12C391.214 78.28 391.374 78.6 391.374 78.92C391.454 79.4 391.454 79.88 391.454 80.36C391.454 83.8 391.454 87.24 391.454 90.6C391.534 92.2 391.534 93.72 391.614 95.24C391.614 95.72 391.614 96.2 391.694 96.68C391.854 97.48 391.854 98.36 391.854 99.16C391.854 101.24 391.854 103.4 391.934 105.48C392.014 106.52 391.934 107.56 391.854 108.6C391.614 110.2 391.614 111.72 391.534 113.24C391.534 114.28 391.534 115.4 391.454 116.44C391.454 116.92 391.454 117.4 391.374 117.88C391.054 118.92 391.134 119.96 391.134 121C391.134 122.2 391.134 123.32 391.134 124.44C391.134 125.24 391.054 126.04 390.974 126.84C390.894 127.48 390.574 127.96 390.014 128.2C389.694 128.44 389.294 128.6 388.894 128.76C388.334 129 387.694 129.08 387.054 129.16C386.494 129.24 385.934 129.48 385.454 129.8C385.294 129.96 385.214 130.2 385.214 130.44C385.214 130.68 385.454 130.92 385.614 131C385.934 131.16 386.254 131.16 386.574 131.16C390.974 131.16 395.374 131.24 399.774 131.24C401.854 131.24 404.014 131.32 406.094 131.08C406.174 131.08 406.254 131.08 406.334 131.08ZM440.165 75.88C439.925 75.88 439.685 75.88 439.365 75.88C438.485 75.88 437.685 76.28 436.965 76.92C436.805 77.08 436.645 77.24 436.485 77.4C435.765 78.12 435.365 79 435.205 80.04C435.125 80.76 435.205 81.48 435.285 82.2C435.365 83 435.685 83.64 436.085 84.28C436.645 85.08 437.365 85.72 438.325 86.12C438.565 86.2 438.805 86.28 438.965 86.36C439.205 86.52 439.285 86.76 439.365 87C439.365 87.32 439.285 87.64 439.125 87.96C438.885 88.36 438.645 88.84 438.325 89.16C438.165 89.4 438.005 89.56 437.925 89.8C437.925 89.96 437.845 90.12 438.005 90.28C438.085 90.44 438.245 90.68 438.405 90.84C438.645 91 438.885 91 439.125 90.92C439.765 90.68 440.485 90.36 441.045 89.96C441.845 89.4 442.485 88.76 442.965 88.04C443.205 87.64 443.445 87.16 443.605 86.76C443.925 86.04 444.165 85.4 444.485 84.68C444.565 84.44 444.645 84.2 444.645 83.96C444.805 83.4 444.885 82.84 444.965 82.28C445.205 81.16 444.965 80.04 444.565 78.92C444.245 78.2 443.845 77.48 443.285 76.84C443.125 76.68 442.965 76.52 442.725 76.44C442.485 76.28 442.245 76.2 442.085 76.12C441.685 75.96 441.285 75.88 440.885 75.88C440.645 75.8 440.405 75.88 440.165 75.88ZM460.947 87.08C460.947 84.6 460.947 84.6 461.667 82.44C461.827 82.04 461.907 81.64 462.067 81.24C462.627 80.12 463.427 79.24 464.467 78.6C464.547 78.52 464.627 78.52 464.707 78.44C465.667 78.12 466.547 77.8 467.507 77.88C468.707 77.88 469.827 77.88 470.947 77.88C471.267 77.88 471.587 77.88 471.907 77.96C472.707 78.2 473.507 78.36 474.227 78.68C476.307 79.64 477.907 81.08 479.027 83.08C479.267 83.56 479.507 84.04 479.827 84.52C480.307 85.4 480.547 86.36 480.787 87.32C480.867 88.28 481.347 89.16 481.507 90.12C481.507 90.2 481.587 90.28 481.667 90.36C481.747 90.52 481.987 90.6 482.227 90.68C482.387 90.68 482.787 90.44 482.787 90.28C482.947 89.48 483.187 88.68 483.187 87.88C483.267 86.04 483.267 84.12 483.107 82.28C482.947 81.32 482.947 80.36 482.867 79.4C482.867 79.08 482.867 78.76 482.787 78.44C482.707 78.2 482.547 77.96 482.387 77.8C482.227 77.72 482.147 77.56 481.987 77.48C481.347 77.16 480.707 76.84 479.987 76.52C479.267 76.28 478.467 76.04 477.667 75.8C477.107 75.64 476.467 75.48 475.827 75.48C475.187 75.4 474.627 75.4 474.067 75.32C473.267 75.16 472.467 75.16 471.667 75.16C470.227 75.16 468.707 75.16 467.267 75.16C466.387 75.16 465.507 75.24 464.627 75.32C463.827 75.48 463.027 75.56 462.227 75.8C461.987 75.96 461.747 75.96 461.507 75.96C460.627 76.12 459.827 76.44 458.947 76.52C458.467 76.6 457.987 76.84 457.587 77.08C457.027 77.4 456.547 77.64 456.147 78.04C455.827 78.44 455.427 78.76 455.107 79.08C454.787 79.48 454.467 79.8 454.147 80.2C453.587 81 453.027 81.8 452.547 82.6C452.387 82.84 452.227 83 452.147 83.24C451.987 83.88 451.667 84.44 451.587 85.08C451.347 86.2 451.107 87.32 450.947 88.44C450.707 89.56 450.707 90.68 450.787 91.8C451.027 92.6 451.027 93.4 451.107 94.2C451.107 94.44 451.187 94.76 451.267 94.92C451.587 96.12 451.987 97.32 452.627 98.36C452.947 98.92 453.347 99.56 453.747 100.2C454.707 101.72 455.907 103.08 457.427 104.04C457.587 104.2 457.827 104.36 457.987 104.52C458.547 105 459.107 105.4 459.827 105.72C460.067 105.88 460.387 106.04 460.627 106.2C462.707 107.56 464.787 108.76 467.027 109.8C467.907 110.2 468.707 110.68 469.507 111.24C471.107 112.28 472.467 113.56 473.747 114.92C474.467 115.72 474.947 116.6 475.107 117.72C475.187 118.04 475.267 118.36 475.347 118.68C475.507 119.48 475.507 120.28 475.427 121.08C475.427 121.16 475.427 121.24 475.427 121.32C475.107 122.12 474.867 123 474.547 123.88C474.067 124.92 473.347 125.8 472.387 126.44C472.067 126.76 471.747 126.84 471.347 127.08C470.307 127.32 469.347 127.56 468.227 127.56C466.947 127.56 465.667 127.56 464.387 127.56C464.147 127.56 463.827 127.56 463.587 127.56C462.707 127.32 461.667 127.24 460.787 126.92C460.227 126.76 459.667 126.52 459.187 126.2C458.947 126.04 458.627 125.88 458.387 125.72C457.587 125.32 456.867 124.76 456.227 124.12C455.987 123.88 455.667 123.56 455.347 123.32C454.387 122.28 453.587 121.16 452.947 119.96C452.547 119.32 452.227 118.68 452.067 117.96C451.827 117.24 451.587 116.6 451.427 115.88C451.427 115.64 451.267 115.4 451.107 115.24C451.027 115.08 450.627 114.92 450.467 115C450.387 115.16 450.227 115.24 450.147 115.4C450.067 115.48 450.067 115.64 450.067 115.8C450.147 116.84 450.147 117.8 450.387 118.76C450.467 119.16 450.467 119.56 450.547 119.96C450.627 121.56 450.627 123.16 450.947 124.76C451.027 125.16 451.027 125.56 451.027 126.04C451.027 126.44 451.107 126.84 451.107 127.24C451.187 127.72 451.347 128.2 451.587 128.6C451.667 128.84 451.827 129 452.067 129.08C453.187 129.56 454.307 130.12 455.507 130.36C456.547 130.6 457.587 130.92 458.627 131C459.427 131.08 460.227 131.16 461.027 131.16C464.147 131.16 467.187 131.08 470.307 131.08C470.707 131.08 471.107 131 471.507 130.92C472.147 130.84 472.787 130.6 473.427 130.6C474.067 130.52 474.627 130.2 475.267 130.12C477.347 129.72 479.107 128.84 480.547 127.24C480.627 127.16 480.787 127 480.867 126.92C481.587 126.2 482.227 125.48 482.787 124.68C483.027 124.36 483.267 124.04 483.507 123.72C483.907 123.16 484.307 122.52 484.627 121.88C485.187 120.84 485.587 119.8 485.987 118.76C486.067 118.52 486.147 118.28 486.227 118.04C486.547 116.52 486.547 116.52 486.547 114.92C486.547 114.44 486.547 113.96 486.547 113.48C486.467 113.16 486.387 112.84 486.307 112.52C485.827 110.76 485.187 109.08 484.387 107.48C483.987 106.76 483.507 106.12 482.947 105.56C482.147 104.68 481.267 103.8 480.307 103.08C478.547 101.72 476.867 100.36 475.027 99.16C473.427 98.2 471.907 97.08 470.307 96.12C469.187 95.48 468.147 94.68 467.027 93.96C466.467 93.56 465.907 93 465.347 92.6C465.027 92.28 464.707 92.04 464.467 91.8C463.587 91.16 462.867 90.36 462.227 89.56C461.827 89.08 461.507 88.6 461.347 88.12C461.267 87.8 461.107 87.48 460.947 87.08ZM518.758 87.48C518.998 87.48 519.238 87.64 519.318 87.88C520.838 90.76 522.278 93.64 523.718 96.6C523.798 96.76 523.878 97 524.038 97.24C524.678 98.92 525.318 100.28 526.198 101.88C526.918 103.08 527.398 104.36 527.878 105.64C528.518 107.48 529.078 109.32 529.958 111.08C530.118 111.32 530.198 111.48 530.278 111.72C530.758 113.32 531.478 114.76 531.958 116.28C532.438 117.72 532.918 119.08 533.638 120.36C533.958 121.32 534.518 122.28 534.838 123.32C534.998 123.8 535.238 124.36 535.478 124.84C536.198 126.12 536.838 127.48 537.398 128.84C537.558 129 537.638 129.24 537.718 129.48C537.798 129.56 537.798 129.56 537.878 129.64C538.038 130.04 538.598 130.04 538.918 129.72C539.078 129.4 539.238 129.16 539.398 128.84C539.798 127.72 540.278 126.6 540.678 125.48C540.998 124.6 541.238 123.72 541.558 122.92C541.878 121.8 542.198 120.76 542.678 119.72C543.318 118.28 543.878 116.84 544.438 115.4C544.758 114.6 545.158 113.8 545.558 113C545.958 112.12 546.278 111.16 546.518 110.2C546.758 109.4 547.078 108.52 547.318 107.64C547.638 106.6 548.038 105.48 548.358 104.44C548.918 103 549.318 101.48 549.958 100.12C550.118 99.88 550.198 99.64 550.198 99.4C550.758 97.72 551.318 96.04 551.878 94.28C552.598 91.8 553.558 89.4 554.598 87C554.838 86.6 554.998 86.12 555.238 85.72C555.238 85.64 555.318 85.56 555.398 85.56C555.478 85.48 555.558 85.48 555.638 85.56C555.718 85.56 555.878 85.72 555.958 85.88C556.118 86.76 556.038 87.64 556.038 88.52C556.038 95.64 556.038 102.68 556.038 109.72C556.038 110.28 555.958 110.92 555.958 111.48C555.878 112.2 555.798 112.92 555.798 113.64C555.798 116.76 555.718 119.8 555.718 122.92C555.718 123.96 555.638 125 555.558 126.04C555.478 126.52 555.318 127 555.238 127.48C555.158 127.72 554.998 127.96 554.838 128.12C554.838 128.12 554.758 128.2 554.678 128.28C554.038 128.76 553.318 129.16 552.438 129.24C551.558 129.56 550.598 129.72 549.718 130.12C549.558 130.2 549.398 130.28 549.318 130.44C549.238 130.52 549.158 130.68 549.078 130.84C549.078 131 549.398 131.4 549.478 131.4C549.718 131.48 549.958 131.56 550.198 131.56C552.998 131.48 555.718 131.48 558.518 131.48C559.878 131.48 561.238 131.48 562.598 131.32C563.078 131.24 563.638 131.24 564.118 131.24C566.118 131.24 568.118 131.24 570.198 131.16C570.758 131.16 571.318 131.16 571.878 131.08C572.038 131.08 572.198 131 572.358 131C572.518 130.92 572.758 130.6 572.758 130.44C572.758 130.2 572.518 129.88 572.438 129.8C572.278 129.8 572.118 129.64 571.958 129.64C570.758 129.56 569.718 129.16 568.758 128.6C568.438 128.52 568.198 128.28 567.878 128.12C567.638 127.88 567.478 127.64 567.318 127.32C567.158 126.92 566.998 126.44 567.078 125.96C567.318 124.92 567.318 123.96 567.318 123C567.318 120.92 567.318 118.76 567.318 116.68C567.398 113.4 567.398 110.2 567.398 106.92C567.318 99.64 567.398 92.28 567.398 85C567.398 83.88 567.398 82.68 567.478 81.56C567.478 80.68 567.638 79.8 567.878 78.92C567.958 78.36 568.358 77.88 568.838 77.56C569.158 77.32 569.478 77.08 569.878 77C570.758 76.92 571.638 76.68 572.438 76.36C572.678 76.28 572.678 76.2 572.678 75.96C572.678 75.64 572.438 75.32 572.198 75.24C571.878 75.16 571.558 75.16 571.238 75.16C568.118 75.16 564.998 75.16 561.958 75.16C559.398 75.16 559.398 75.16 556.838 75.56C556.758 75.56 556.678 75.56 556.598 75.56C556.358 75.72 556.198 75.8 555.958 75.88C555.798 76.04 555.558 76.2 555.478 76.44C555.238 76.84 554.918 77.24 554.758 77.72C554.038 79.24 553.398 80.84 552.838 82.44C552.438 83.64 552.038 84.76 551.558 85.88C550.678 87.96 549.878 90.04 549.158 92.28C548.998 92.76 548.838 93.32 548.598 93.88C547.878 95.8 547.078 97.8 546.198 99.72C545.318 101.88 544.358 104.04 543.558 106.28C543.318 106.76 543.158 107.32 542.918 107.8C542.838 108.04 542.678 108.12 542.518 108.04C542.358 108.04 542.278 107.96 542.198 107.8C542.038 107.48 541.958 107.16 541.798 106.84C541.318 105.96 540.838 105 540.438 104.04C539.958 103 539.398 102.04 538.918 100.92C538.838 100.6 538.598 100.2 538.438 99.88C537.798 98.76 537.238 97.56 536.678 96.36C536.278 95.64 535.958 94.92 535.638 94.2C535.238 93.16 534.838 92.2 534.278 91.32C533.398 89.48 532.438 87.72 531.558 85.88C531.238 85.32 530.998 84.68 530.758 84.12C529.878 82.28 529.078 80.36 528.278 78.52C527.958 77.88 527.638 77.24 527.318 76.52C527.238 76.36 527.158 76.12 526.998 75.88C526.838 75.56 526.438 75.32 526.038 75.24C525.798 75.16 525.558 75.08 525.318 75.08C524.518 75.08 523.718 75 522.918 75C520.838 75 518.838 75 516.838 75C515.878 75 514.998 75 514.118 75.24C513.398 75.32 512.678 75.4 511.958 75.4C511.478 75.48 510.998 75.48 510.518 75.56C510.118 75.56 509.718 75.64 509.318 75.8C508.998 75.96 508.678 76.04 508.438 76.2C508.358 76.2 508.278 76.28 508.278 76.36C508.038 76.52 508.118 76.84 508.278 77C508.518 77.16 508.838 77.32 509.158 77.32C510.118 77.32 511.078 77.32 512.038 77.4C512.278 77.4 512.518 77.48 512.758 77.56C512.998 77.56 513.398 78.04 513.398 78.28C513.398 78.52 513.398 78.76 513.398 79C513.398 80.6 513.398 82.2 513.398 83.88C513.398 84.36 513.318 84.84 513.398 85.32C513.638 86.36 513.638 87.4 513.718 88.44C513.798 90.28 513.718 92.04 514.038 93.8C514.118 94.04 514.118 94.28 514.118 94.52C514.198 96.52 514.278 98.44 514.358 100.36C514.358 101.56 514.358 102.68 514.518 103.8C514.598 104.28 514.598 104.76 514.598 105.24C514.678 110.2 514.758 115.16 514.678 120.12C514.678 121.4 514.678 122.76 514.678 124.04C514.678 125.4 514.438 126.76 514.278 128.12C514.198 128.6 513.878 128.92 513.558 129.08C513.078 129.24 512.598 129.48 512.198 129.56C511.238 129.8 510.278 130.12 509.318 130.12C509.078 130.12 508.838 130.2 508.598 130.28C508.358 130.36 508.198 130.52 508.038 130.76C507.958 130.92 507.878 131.08 508.038 131.24C508.118 131.32 508.278 131.48 508.358 131.48C509.318 131.64 510.358 131.56 511.318 131.56C511.638 131.48 511.958 131.48 512.278 131.4C512.678 131.24 513.078 131.24 513.478 131.16C515.238 131.16 516.998 131.16 518.838 131.16C519.398 131.16 519.958 131.24 520.518 131.24C521.558 131.56 522.598 131.56 523.638 131.56C524.198 131.56 524.838 131.48 525.398 131.48C525.558 131.48 525.638 131.4 525.798 131.32C526.198 131.08 526.278 130.6 525.958 130.28C525.718 130.04 525.478 129.88 525.078 129.8C524.678 129.72 524.278 129.72 523.878 129.72C522.838 129.72 521.798 129.48 520.758 129.24C520.118 129.08 519.558 128.76 518.998 128.44C518.758 128.28 518.518 127.96 518.518 127.64C518.518 126.92 518.518 126.2 518.518 125.4C518.678 121.64 518.678 117.8 518.678 113.96C518.678 110.44 518.678 106.84 518.678 103.24C518.678 102.52 518.678 101.8 518.678 101.08C518.518 97.32 518.518 93.56 518.518 89.88C518.518 89.16 518.598 88.52 518.598 87.88C518.598 87.72 518.678 87.56 518.758 87.48ZM596.025 119.16C595.865 118.44 595.625 117.88 595.465 117.24C595.065 115.64 594.825 114.04 594.825 112.36C594.825 111.4 594.825 110.44 594.825 109.48C594.825 109.08 594.825 108.68 594.745 108.28C594.505 107.24 594.585 106.12 594.585 105.08C594.585 100.12 594.585 95.16 594.585 90.2C594.585 88.92 594.585 87.64 594.585 86.36C594.585 85.88 594.585 85.4 594.665 84.92C594.745 84.12 594.825 83.4 594.825 82.68C594.825 81.72 594.905 80.76 594.905 79.8C594.905 79.4 595.065 79 595.305 78.6C595.625 78.04 596.025 77.64 596.665 77.4C597.305 77.16 597.945 77 598.585 76.84C599.065 76.84 599.545 76.6 599.945 76.36C600.105 76.28 600.105 75.88 600.025 75.72C599.865 75.56 599.705 75.48 599.545 75.48C599.145 75.48 598.745 75.4 598.345 75.4C594.185 75.4 590.105 75.4 585.945 75.4C583.865 75.4 581.865 75.4 579.865 75.4C579.545 75.4 579.225 75.4 578.905 75.48C578.665 75.56 578.425 75.64 578.265 75.8C578.185 75.96 578.105 76.12 578.025 76.2C578.025 76.36 578.345 76.68 578.505 76.76C578.665 76.76 578.825 76.84 578.985 76.84C579.945 76.92 580.905 77.16 581.865 77.4C582.265 77.56 582.585 77.8 582.905 78.04C582.985 78.12 583.065 78.28 583.145 78.44C583.145 78.76 583.225 79.08 583.225 79.4C583.225 81.4 583.145 83.32 583.225 85.24C583.305 88.68 583.305 92.12 583.305 95.48C583.225 98.04 583.225 100.52 583.225 103.08C583.225 104.92 583.225 106.76 583.225 108.68C583.225 110.52 583.145 112.44 583.145 114.28C583.145 115.4 583.225 116.52 583.625 117.64C583.865 119.24 584.505 120.76 585.305 122.2C585.385 122.36 585.465 122.44 585.545 122.6C586.025 123.48 586.585 124.28 587.225 124.92C587.625 125.4 588.025 125.72 588.425 126.2C589.305 127.08 590.265 127.8 591.225 128.52C591.465 128.68 591.785 128.92 592.105 129C593.145 129.4 594.185 129.88 595.225 130.28C595.785 130.44 596.345 130.52 596.905 130.6C597.625 130.68 598.345 130.68 599.065 130.76C600.665 131.08 602.345 131.16 603.945 131.16C605.145 131.08 606.345 131.08 607.625 131.08C608.505 131 609.385 131 610.265 130.76C610.585 130.68 610.905 130.68 611.225 130.68C612.345 130.52 613.465 130.52 614.585 130.2C614.665 130.12 614.745 130.12 614.825 130.12C615.785 130.2 616.585 129.8 617.465 129.56C617.945 129.4 618.505 129.16 619.065 129C619.705 128.68 620.345 128.36 620.985 127.96C621.625 127.48 622.265 127 622.905 126.52C623.705 125.96 624.345 125.24 624.825 124.36C625.145 123.8 625.385 123.16 625.705 122.6C626.425 121.4 626.665 120.04 626.985 118.68C627.225 117 627.545 115.32 627.465 113.64C627.465 113.08 627.465 112.52 627.465 111.88C627.465 106.44 627.465 101 627.465 95.56C627.465 94.68 627.465 93.8 627.465 92.92C627.465 91.96 627.465 91 627.225 89.96C627.145 89.56 627.145 89 627.145 88.52C627.065 87.56 627.065 86.6 626.985 85.64C626.985 85.16 626.985 84.6 626.905 84.2C626.665 82.68 626.745 81.24 626.745 79.8C626.745 79.32 626.825 78.84 626.985 78.36C627.065 78.04 627.305 77.8 627.545 77.64C628.105 77.32 628.745 77 629.385 76.92C629.705 76.92 630.025 76.92 630.345 76.84C631.225 76.52 632.105 76.52 632.985 76.44C633.145 76.44 633.305 76.36 633.465 76.36C633.625 76.28 633.945 75.96 633.865 75.8C633.785 75.64 633.705 75.48 633.625 75.4C633.465 75.32 633.305 75.24 633.145 75.24C632.585 75.08 632.025 75.08 631.465 75.16C630.185 75.32 628.905 75.32 627.545 75.4C626.025 75.4 624.505 75.4 622.985 75.48C621.705 75.56 620.505 75.56 619.305 75.48C618.265 75.4 617.225 75.4 616.105 75.56C615.945 75.56 615.785 75.56 615.705 75.64C615.465 75.72 615.225 75.88 615.225 76.12C615.145 76.44 615.385 76.84 615.625 76.92C615.785 76.92 615.945 77 616.105 77C616.745 77 617.385 77 618.105 77.08C618.425 77.08 618.745 77.08 619.065 77.16C619.785 77.32 620.505 77.32 621.225 77.4C621.545 77.48 621.865 77.56 622.105 77.72C622.345 77.8 622.585 77.88 622.825 78.04C623.225 78.28 623.545 78.68 623.545 79.16C623.545 79.56 623.545 79.88 623.545 80.2C623.545 85.16 623.625 90.04 623.705 95C623.705 96.68 623.785 98.28 623.785 99.88C623.865 101.08 623.785 102.2 624.025 103.32C624.025 103.56 624.025 103.8 624.025 104.04C624.025 106.12 624.105 108.28 624.105 110.36C624.105 111 624.105 111.64 623.945 112.28C623.785 113.24 623.785 114.28 623.705 115.24C623.625 116.12 623.705 117 623.545 117.88C623.145 119.32 622.665 120.68 622.025 122.12C621.625 122.6 621.145 123.16 620.665 123.72C620.505 123.96 620.265 124.2 620.025 124.44C619.225 125.08 618.345 125.8 617.465 126.28C616.585 126.76 615.705 127.16 614.745 127.24C614.345 127.24 614.025 127.32 613.705 127.32C612.585 127.64 611.465 127.64 610.345 127.64C609.465 127.64 608.585 127.56 607.705 127.56C606.585 127.56 605.545 127.48 604.505 127.08C604.185 126.92 603.785 126.76 603.465 126.6C601.145 125.32 599.145 123.64 597.625 121.48C597.145 120.76 596.665 120.04 596.025 119.16ZM648.974 105.96C648.894 101.48 648.894 95.08 648.894 88.68C648.894 88.44 648.894 88.28 648.894 88.12C648.894 88.04 648.894 87.96 648.894 87.88C648.974 87.8 649.054 87.64 649.134 87.48C649.294 87.56 649.454 87.56 649.614 87.64C650.174 88.12 650.654 88.68 651.054 89.24C652.654 91.24 654.254 93.16 656.014 95C656.334 95.32 656.574 95.72 656.894 96.12C657.774 97.24 658.494 98.36 659.214 99.56C659.854 100.52 660.494 101.48 661.214 102.28C661.854 103 662.334 103.72 662.814 104.44C663.454 105.4 664.094 106.36 664.814 107.24C666.574 109.72 668.414 112.28 670.094 114.84C670.894 115.96 671.694 117.08 672.574 118.12C672.894 118.52 673.214 118.92 673.454 119.32C675.214 121.72 676.894 124.2 678.494 126.76C679.374 128.04 680.334 129.24 681.534 130.28C681.614 130.28 681.614 130.36 681.694 130.44C682.254 130.76 682.894 131 683.534 130.84C683.854 130.76 684.174 130.68 684.494 130.52C684.814 130.44 684.974 130.12 685.054 129.8C685.054 129.56 685.134 129.32 685.134 129.08C685.134 125.64 685.134 122.28 685.054 118.84C684.974 112.2 684.894 105.48 684.894 98.84C684.894 97.8 684.894 96.76 684.894 95.72C684.894 94.44 684.974 93.24 684.734 92.04C684.654 91.64 684.654 91.24 684.654 90.84C684.654 87 684.574 83.16 684.574 79.4C684.574 79.24 684.574 79.08 684.574 78.92C684.654 78.28 684.894 77.8 685.294 77.4C685.774 76.84 686.414 76.44 687.214 76.44C688.334 76.44 689.454 76.2 690.574 75.88C690.814 75.88 690.974 75.72 691.134 75.48C691.214 75.48 691.214 75.32 691.214 75.24C691.214 75.16 691.054 75 690.894 75C690.734 74.92 690.574 74.92 690.414 74.92C685.534 74.92 680.654 74.92 675.774 75C675.614 75 675.454 75 675.294 75C675.054 75.08 674.734 75.4 674.814 75.72C674.814 75.88 675.134 76.28 675.294 76.28C675.534 76.28 675.774 76.36 676.014 76.36C676.654 76.36 677.294 76.36 677.934 76.36C678.414 76.36 678.894 76.36 679.374 76.44C679.934 76.6 680.414 76.92 680.654 77.48C680.894 77.96 681.054 78.44 681.054 78.92C681.134 79.48 681.134 80.04 681.134 80.6C681.134 82.52 681.134 84.52 681.134 86.44C681.134 92.6 681.134 98.76 681.054 105C681.054 105.56 681.054 106.12 681.054 106.68C681.054 106.76 680.974 106.84 680.894 106.92C680.894 107.08 680.734 107.16 680.574 107.16C680.174 107.24 679.854 107.08 679.694 106.84C678.894 105.8 678.094 104.76 677.374 103.72C676.654 102.6 675.934 101.56 675.134 100.52C673.934 99.08 672.814 97.56 671.774 96.04C671.294 95.4 670.814 94.76 670.334 94.12C669.454 93 668.494 92.04 667.614 90.92C667.054 90.36 666.574 89.72 666.014 89.08C665.534 88.44 664.894 87.8 664.414 87C664.174 86.68 663.854 86.36 663.614 86.04C663.054 85.48 662.494 84.92 661.934 84.28C661.214 83.4 660.494 82.52 659.774 81.64C659.294 81.08 658.894 80.52 658.414 79.96C657.854 79.32 657.294 78.76 656.734 78.2C656.174 77.64 655.534 77.08 654.974 76.44C654.734 76.28 654.494 76.04 654.254 75.8C654.014 75.64 653.694 75.48 653.374 75.48C653.214 75.4 653.054 75.4 652.894 75.4C649.454 75.32 646.094 75.32 642.654 75.4C642.494 75.4 642.334 75.4 642.174 75.48C641.614 75.48 641.054 75.72 640.574 76.04C640.494 76.12 640.334 76.28 640.254 76.36C640.094 76.6 640.094 77.08 640.254 77.24C640.494 77.48 640.654 77.64 640.894 77.72C641.534 78.04 642.094 78.52 642.574 79.08C643.134 79.56 643.454 80.2 643.614 81C643.694 81.56 643.694 82.12 643.854 82.68C644.014 83.56 644.094 84.44 644.014 85.32C643.934 89.16 644.014 92.92 644.094 96.76C644.174 98.76 644.174 100.68 644.174 102.6C644.174 110.52 644.094 118.36 644.174 126.28C644.174 126.76 644.174 127.24 644.094 127.72C644.014 128.44 643.614 128.92 642.894 129.16C642.334 129.32 641.694 129.56 641.054 129.56C640.414 129.64 639.934 129.88 639.454 130.12C639.214 130.28 639.054 130.44 638.974 130.68C638.894 130.84 638.814 131 638.974 131.16C639.054 131.24 639.134 131.4 639.294 131.48C639.614 131.48 639.934 131.56 640.254 131.56C644.334 131.56 648.414 131.56 652.414 131.56C653.134 131.56 653.774 131.56 654.414 131.56C654.574 131.56 654.734 131.48 654.894 131.4C655.054 131.4 655.214 131.08 655.134 130.84C654.974 130.52 654.734 130.28 654.414 130.2C653.374 129.96 652.414 129.64 651.294 129.56C650.974 129.56 650.654 129.48 650.334 129.4C649.534 129.24 649.054 128.52 648.974 127.88C648.974 126.44 648.894 124.92 648.894 123.48C648.894 118.28 648.894 113.08 648.974 105.96ZM711.161 130.6C711.321 130.6 711.561 130.68 711.801 130.76C712.681 131 713.561 131.08 714.441 131.16C715.001 131.16 715.561 131.24 716.121 131.32C719.081 131.88 721.961 131.88 724.921 131.64C725.721 131.56 726.521 131.4 727.321 131.24C728.601 131.16 729.881 130.76 731.161 130.6C731.481 130.6 731.801 130.44 732.041 130.36C734.441 129.64 736.601 128.52 738.601 127.24C738.761 127.08 738.921 127 739.001 126.92C739.241 126.76 739.321 126.52 739.401 126.28C739.401 125.96 739.401 125.64 739.401 125.32C739.401 123.32 739.401 121.4 739.401 119.48C739.401 118.68 739.481 117.96 739.721 117.32C739.881 116.92 739.881 116.52 739.881 116.12C739.881 115.8 739.721 115.64 739.481 115.56C739.241 115.4 739.001 115.56 738.761 115.64C738.441 115.88 738.201 116.2 738.041 116.6C737.801 117 737.561 117.48 737.401 117.96C737.241 118.52 737.001 119.16 736.841 119.8C736.441 120.92 736.041 122.12 735.481 123.16C735.161 123.72 734.761 124.28 734.361 124.76C733.721 125.48 733.001 126.12 732.201 126.76C731.481 127.24 730.681 127.72 729.881 128.04C729.321 128.28 728.761 128.44 728.201 128.6C727.481 128.76 726.681 128.92 725.881 129.08C725.721 129.08 725.561 129.08 725.401 129.08C723.961 129.16 722.601 129.16 721.241 129C720.121 128.92 719.001 128.76 717.801 128.68C717.561 128.68 717.321 128.68 717.081 128.6C715.481 128.04 713.961 127.32 712.521 126.36C712.281 126.28 712.121 126.12 711.961 125.96C711.241 125.32 710.681 124.68 710.281 123.88C709.721 122.6 709.001 121.4 708.281 120.28C707.801 119.56 707.481 118.84 707.161 118.12C706.921 117.56 706.681 117.08 706.681 116.44C706.601 115.56 706.201 114.76 706.121 113.8C706.041 112.92 705.801 112.12 705.561 111.24C705.321 110.2 705.161 109.16 705.161 108.12C705.161 106.68 705.161 105.32 705.161 103.96C705.161 103.16 705.161 102.36 705.321 101.56C705.561 100.36 705.561 99.24 705.561 98.12C705.641 96.84 705.641 95.56 706.041 94.28C706.041 94.2 706.041 94.12 706.121 94.04C706.121 93 706.441 92.12 706.761 91.16C707.401 89.48 707.961 87.8 708.921 86.12C709.321 85.56 709.801 84.92 710.281 84.28C711.081 83.16 711.961 82.12 713.161 81.32C713.481 81.08 713.721 80.84 714.121 80.6C715.161 79.72 716.281 78.92 717.561 78.36C719.001 77.72 720.201 77.4 721.321 77.32C722.361 77.32 723.401 77.24 724.441 77.4C725.801 77.56 725.801 77.56 727.321 77.96C727.961 78.12 728.521 78.44 729.161 78.6C729.801 78.76 730.441 79 730.921 79.32C731.721 79.88 732.601 80.44 733.321 81C733.961 81.48 734.521 82.12 735.001 82.84C735.561 83.8 736.121 84.76 736.681 85.8C737.161 86.68 737.561 87.72 737.801 88.76C737.961 89.24 738.201 89.8 738.361 90.36C738.361 90.52 738.521 90.6 738.521 90.76C738.681 91 739.161 91.16 739.401 91C739.721 90.84 739.881 90.52 739.881 90.2C739.881 89.08 739.801 87.96 739.561 86.84C739.481 86.36 739.401 85.88 739.321 85.4C739.321 85 739.241 84.52 739.161 84.2C738.921 83.32 738.921 82.44 738.841 81.48C738.841 80.92 738.841 80.36 738.761 79.8C738.761 79.4 738.681 79 738.521 78.6C738.281 78.2 737.961 77.8 737.561 77.56C736.601 76.76 735.481 76.36 734.281 76.04C733.881 75.96 733.481 75.96 733.081 75.8C732.441 75.64 731.801 75.56 731.161 75.56C730.521 75.48 729.881 75.48 729.241 75.48C728.041 75.48 726.921 75.48 725.801 75.4C725.001 75.4 724.201 75.48 723.401 75.16C723.321 75.16 723.241 75.16 723.161 75.16C721.801 75.08 720.521 75 719.241 75.32C718.521 75.48 717.801 75.48 717.081 75.64C716.441 75.88 715.881 76.04 715.241 76.12C714.601 76.2 713.961 76.44 713.321 76.52C713.001 76.52 712.681 76.68 712.361 76.76C711.801 77.08 711.161 77.32 710.601 77.64C709.241 78.36 707.961 79.16 706.601 79.88C705.641 80.36 704.761 81 703.881 81.56C703.641 81.72 703.321 81.96 703.161 82.2C702.201 83.08 701.321 83.96 700.361 84.92C699.721 85.56 699.321 86.36 698.681 87C697.881 87.96 697.321 89.08 696.841 90.12C696.441 90.84 696.121 91.64 695.801 92.36C695.721 92.68 695.561 93 695.481 93.32C695.401 94.04 695.081 94.68 694.921 95.4C694.681 96.44 694.441 97.48 694.441 98.52C694.361 99 694.281 99.48 694.201 99.96C694.041 100.68 694.041 101.4 694.041 102.12C693.961 103.72 693.961 105.24 694.121 106.76C694.121 107.8 694.281 108.84 694.441 109.88C694.601 110.52 694.841 111.16 695.001 111.8C695.241 112.84 695.721 113.72 696.121 114.76C696.281 115.32 696.521 115.8 696.841 116.28C697.401 117.24 697.961 118.28 698.521 119.24C698.761 119.72 699.081 120.28 699.401 120.68C700.121 121.48 700.681 122.36 701.241 123.24C701.481 123.56 701.641 123.8 701.801 124.04C703.801 126.36 706.121 128.28 708.921 129.56C709.641 129.88 710.361 130.2 711.161 130.6ZM755.691 131.56C760.411 131.56 763.691 131.48 767.051 131.48C767.371 131.48 767.691 131.48 768.011 131.4C768.331 131.4 768.651 131.32 768.971 131.24C769.051 131.24 769.131 131.16 769.211 131.08C769.451 131 769.611 130.68 769.531 130.52C769.451 130.28 769.291 130.12 769.051 130.04C768.731 129.96 768.411 129.8 768.091 129.8C766.891 129.56 765.771 129.08 764.651 128.52C764.251 128.36 763.931 127.88 763.931 127.4C763.851 125.16 763.851 123 763.851 120.84C763.851 118.04 763.931 115.32 764.011 112.52C764.011 111.16 764.011 109.8 764.011 108.36C763.931 107.8 763.931 107.24 763.931 106.68C763.931 106.52 764.011 106.36 764.011 106.2C764.011 105.8 764.331 105.4 764.731 105.32C765.851 105.32 766.971 105.24 768.171 105.24C769.131 105.16 770.091 105.16 771.051 105C771.371 104.92 771.691 104.92 772.011 104.84C774.171 104.76 776.411 104.68 778.571 104.68C780.971 104.76 783.291 104.76 785.691 104.76C786.011 104.76 786.331 104.84 786.651 104.84C786.891 104.84 787.211 105.16 787.211 105.48C787.211 105.8 787.211 106.04 787.211 106.28C787.211 110.92 787.291 115.48 787.371 120.12C787.451 122.6 787.371 125 787.291 127.48C787.291 127.88 787.051 128.28 786.651 128.44C785.531 129 784.331 129.56 783.051 129.72C782.811 129.72 782.571 129.88 782.331 129.96C782.171 129.96 782.091 130.12 782.011 130.28C781.771 130.52 781.931 130.92 782.251 131C782.491 131.16 782.651 131.16 782.971 131.16C784.011 131.24 785.051 131.24 786.091 131.24C788.651 131.24 791.131 131.24 793.691 131.24C794.091 131.24 794.491 131.24 794.891 131.32C795.531 131.48 796.171 131.56 796.811 131.56C799.371 131.56 802.011 131.56 804.571 131.56C804.811 131.56 805.051 131.48 805.291 131.48C805.611 131.48 805.771 131 805.691 130.76C805.611 130.6 805.531 130.44 805.371 130.36C804.651 130.04 803.851 129.72 803.051 129.56C802.411 129.48 801.771 129.24 801.211 129.08C800.811 128.92 800.491 128.68 800.091 128.52C799.771 128.28 799.531 127.96 799.451 127.48C799.371 126.92 799.371 126.36 799.211 125.8C799.051 125.08 798.971 124.36 798.971 123.64C798.971 120.44 798.971 117.32 798.971 114.12C798.891 108.92 798.891 103.72 798.891 98.52C798.811 93.8 798.731 89.08 798.891 84.44C798.971 83.8 798.971 83.24 798.971 82.68C798.971 81.56 798.971 80.44 798.971 79.32C798.971 79.08 798.971 78.76 798.971 78.52C799.051 78.28 799.211 78.12 799.371 77.96C799.691 77.8 799.931 77.56 800.251 77.48C801.211 77.24 802.091 77 803.131 76.92C803.371 76.92 803.611 76.84 803.771 76.76C804.091 76.68 804.171 76.2 803.931 75.96C803.771 75.72 803.451 75.56 803.131 75.48C802.891 75.48 802.651 75.48 802.411 75.48C796.011 75.48 789.531 75.48 783.131 75.48C782.891 75.48 782.651 75.48 782.411 75.56C782.331 75.56 782.251 75.56 782.171 75.64C781.931 75.72 781.771 76.12 782.011 76.44C782.171 76.68 782.491 76.84 782.811 76.92C783.611 77 784.411 77.24 785.131 77.48C785.771 77.64 786.171 77.96 786.491 78.44C786.651 78.68 786.811 78.84 786.811 79.08C786.891 80.2 787.131 81.16 787.131 82.28C787.211 84.52 787.371 86.84 787.291 89.08C787.291 90.92 787.371 92.84 787.291 94.68C787.291 96.6 787.211 98.6 787.211 100.52C787.211 100.68 787.211 100.84 787.131 101C787.131 101.16 786.891 101.48 786.731 101.56C786.571 101.64 786.411 101.72 786.251 101.72C785.531 101.72 784.811 101.8 784.091 101.8C781.051 101.8 778.091 101.88 775.051 101.88C773.611 101.96 772.091 101.88 770.651 102.2C770.491 102.2 770.331 102.2 770.171 102.2C768.491 102.28 766.811 102.36 765.051 102.28C764.891 102.28 764.731 102.2 764.571 102.2C764.411 102.2 764.331 102.04 764.251 101.88C764.091 101.64 764.011 101.32 764.011 101C763.931 95.56 763.931 90.04 764.011 84.6C764.011 84.12 764.011 83.64 764.091 83.16C764.251 82.12 764.251 81.08 764.331 80.04C764.331 79.72 764.331 79.4 764.411 79.08C764.411 78.92 764.491 78.76 764.571 78.6C764.891 78.12 765.291 77.72 765.851 77.48C766.171 77.32 766.571 77.08 766.971 77C767.771 76.92 768.571 76.68 769.291 76.44C769.531 76.36 769.611 75.96 769.451 75.8C769.291 75.48 769.051 75.32 768.731 75.24C768.411 75.16 768.091 75.16 767.771 75.16C761.771 75.16 755.771 75.16 749.691 75.16C749.371 75.16 749.051 75.16 748.731 75.16C748.331 75.24 747.931 75.4 747.611 75.56C747.531 75.64 747.531 75.72 747.451 75.8C747.211 76.04 747.291 76.44 747.611 76.52C747.931 76.68 748.251 76.76 748.571 76.84C748.971 76.92 749.371 77 749.771 77C750.331 77.08 750.811 77.32 751.371 77.48C751.451 77.56 751.531 77.56 751.611 77.64C751.931 77.88 752.171 78.12 752.251 78.6C752.251 79.56 752.251 80.52 752.411 81.48C752.491 82.44 752.491 83.32 752.491 84.2C752.571 85.96 752.571 87.8 752.571 89.56C752.571 95.56 752.571 101.56 752.571 107.56C752.571 109.72 752.491 111.8 752.491 113.96C752.491 114.44 752.491 114.92 752.411 115.4C752.331 116.12 752.331 116.84 752.331 117.56C752.251 119.56 752.251 121.48 752.251 123.4C752.171 124.68 752.091 125.88 752.011 127.08C752.011 127.48 751.771 127.88 751.531 128.12C751.131 128.6 750.651 128.92 750.091 129.08C749.371 129.24 748.731 129.48 748.011 129.72C747.371 129.8 746.811 130.04 746.171 130.28C745.931 130.36 745.771 130.52 745.611 130.76C745.531 130.92 745.451 131 745.531 131.16C745.611 131.32 745.691 131.48 745.851 131.48C746.251 131.64 746.651 131.64 747.051 131.64C750.411 131.56 753.691 131.56 755.691 131.56ZM828.359 106.84C828.359 103.32 828.359 100.6 828.359 97.96C828.359 97.24 828.359 96.52 828.359 95.8C828.199 92.44 828.279 89.08 828.279 85.8C828.279 85.08 828.279 84.28 828.439 83.56C828.599 82.84 828.599 82.12 828.679 81.4C828.679 80.68 828.679 79.96 828.759 79.24C828.759 78.92 828.919 78.6 829.159 78.36C829.559 77.8 830.039 77.4 830.759 77.24C830.999 77.16 831.319 77.08 831.639 77C832.359 76.84 833.079 76.6 833.719 76.36C833.959 76.28 834.039 76.04 833.879 75.8C833.799 75.72 833.799 75.64 833.719 75.56C833.479 75.4 833.159 75.24 832.839 75.24C832.439 75.16 832.039 75.16 831.639 75.16C825.559 75.16 819.559 75.16 813.559 75.16C813.319 75.16 813.079 75.16 812.839 75.16C812.279 75.24 811.799 75.48 811.479 76.04C811.399 76.2 811.399 76.36 811.559 76.44C811.799 76.6 811.959 76.68 812.199 76.76C812.519 76.84 812.839 76.92 813.159 76.92C814.119 77 814.919 77.24 815.799 77.56C816.199 77.72 816.599 78.2 816.599 78.68C816.599 78.84 816.679 79 816.679 79.16C816.679 80.44 816.679 81.72 816.679 83C816.679 84.12 816.599 85.16 816.759 86.2C816.839 87.32 816.839 88.44 816.839 89.64C816.919 91.16 816.919 92.68 816.839 94.2C816.839 95.32 816.919 96.36 816.759 97.4C816.679 97.8 816.679 98.2 816.679 98.6C816.679 99.88 816.679 101.24 816.679 102.52C816.599 109.4 816.759 116.36 816.599 123.24C816.519 124.68 816.439 126.12 816.039 127.56C815.959 127.88 815.799 128.12 815.479 128.36C814.999 128.68 814.359 129 813.719 129.16C812.439 129.4 811.239 129.8 810.039 130.36C809.879 130.44 809.799 130.52 809.799 130.76C809.799 131.08 810.039 131.32 810.359 131.4C810.599 131.4 810.839 131.48 811.079 131.48C813.639 131.48 816.119 131.48 818.679 131.48C819.159 131.48 819.639 131.48 820.119 131.32C820.759 131.16 821.399 131.16 822.039 131.16C824.839 131.16 827.559 131.16 830.359 131.16C831.079 131.16 831.799 131.16 832.519 131.16C832.759 131.16 832.999 131.08 833.239 131.08C833.319 131.08 833.399 131 833.479 131C833.639 130.92 833.959 130.52 833.879 130.44C833.799 130.2 833.639 129.96 833.479 129.8C833.399 129.8 833.319 129.72 833.239 129.72C832.439 129.64 831.639 129.4 830.919 129.16C830.119 128.92 829.399 128.6 828.759 128.04C828.519 127.8 828.359 127.56 828.279 127.16C828.279 127 828.279 126.84 828.279 126.68C828.279 123.88 828.199 121 828.279 118.2C828.359 114.12 828.439 110.04 828.359 106.84ZM859.381 131.08C860.181 131.08 860.981 131.08 861.781 131.08C867.221 131.08 872.661 131.08 878.101 131.08C878.821 131.08 879.461 131.08 880.101 131C880.581 131 881.061 130.76 881.461 130.52C881.701 130.28 881.861 129.96 881.941 129.64C882.021 129 882.021 128.36 882.101 127.72C882.181 127.32 882.181 126.92 882.261 126.52C882.421 125.88 882.501 125.24 882.501 124.6C882.581 123.56 882.581 122.52 882.741 121.48C883.061 120.2 883.061 118.84 882.981 117.56C882.981 117.16 882.501 116.84 882.101 117C881.781 117 881.541 117.24 881.381 117.56C881.301 117.8 881.221 118.04 881.221 118.28C881.061 118.92 880.981 119.56 880.741 120.12C880.581 120.76 880.341 121.4 880.021 121.96C879.781 122.52 879.461 123.08 879.221 123.72C878.981 124.2 878.661 124.68 878.341 125.16C878.021 125.56 877.701 125.88 877.301 126.2C876.981 126.44 876.661 126.68 876.261 126.84C875.781 127.16 875.301 127.4 874.741 127.56C873.461 127.88 872.261 128.2 870.901 128.28C869.781 128.28 868.661 128.28 867.541 128.52C867.141 128.6 866.661 128.6 866.261 128.6C863.301 128.6 860.261 128.6 857.301 128.6C857.061 128.6 856.821 128.6 856.581 128.6C856.421 128.52 856.021 128.28 856.021 128.12C855.941 127.96 855.861 127.8 855.861 127.64C855.861 126.68 855.781 125.72 855.781 124.76C855.781 121.32 855.781 117.88 855.781 114.52C855.781 112.84 855.781 111.24 856.021 109.64C856.101 109.24 856.101 108.84 856.101 108.44C856.181 107.32 856.181 106.12 856.261 105C856.261 104.76 856.261 104.52 856.341 104.28C856.341 104.12 856.661 103.8 856.821 103.8C857.061 103.72 857.461 103.64 857.781 103.64C860.341 103.72 862.981 103.72 865.541 103.72C866.581 103.72 867.461 103.96 868.341 104.44C868.501 104.6 868.741 104.68 868.981 104.84C869.061 104.84 869.061 104.92 869.141 105C869.461 105.16 869.701 105.4 869.781 105.72C870.181 106.68 870.501 107.72 870.741 108.68C870.901 109.24 871.061 109.8 871.301 110.36C871.381 110.44 871.461 110.6 871.541 110.76C871.701 111 871.861 111.08 872.181 111.08C872.421 111.08 872.741 110.76 872.821 110.44C872.821 110.2 872.821 109.96 872.821 109.72C872.821 109.08 872.741 108.44 872.581 107.8C872.421 107.16 872.341 106.52 872.341 105.88C872.261 104.68 872.261 103.48 872.341 102.2C872.421 101.72 872.341 101.24 872.501 100.76C872.741 99.24 872.741 97.72 872.901 96.2C872.981 95.56 872.901 95 872.901 94.44C872.901 94.28 872.901 94.12 872.821 93.96C872.741 93.88 872.581 93.72 872.501 93.64C872.421 93.56 871.941 93.72 871.861 93.8C871.701 94.04 871.541 94.2 871.461 94.44C871.221 95.16 871.061 95.88 870.981 96.6C870.821 97.32 870.581 97.96 870.341 98.68C870.181 99.24 869.781 99.64 869.301 99.96C868.421 100.52 867.541 100.84 866.581 100.84C866.181 100.84 865.781 100.92 865.381 100.92C862.661 100.92 860.021 100.92 857.301 100.92C857.221 100.92 857.141 100.92 857.061 100.92C856.741 100.84 856.421 100.52 856.421 100.28C856.421 99.56 856.421 98.76 856.421 98.04C856.421 97.4 856.341 96.76 856.421 96.12C856.581 95.32 856.581 94.52 856.581 93.72C856.581 91.96 856.581 90.28 856.581 88.6C856.581 87.24 856.661 85.96 856.421 84.68C856.341 84.44 856.341 84.2 856.341 83.96C856.341 82.36 856.261 80.68 856.261 79.08C856.181 78.84 856.261 78.6 856.261 78.36C856.261 78.12 856.581 77.72 856.901 77.64C857.221 77.56 857.541 77.56 857.861 77.56C860.901 77.56 864.021 77.56 867.061 77.56C868.101 77.56 869.061 77.56 870.021 77.56C870.341 77.56 870.661 77.56 870.981 77.64C871.701 77.88 872.421 77.88 873.141 78.04C873.381 78.12 873.621 78.2 873.781 78.36C873.941 78.44 874.101 78.52 874.181 78.6C875.541 79.8 876.661 81.24 877.621 82.76C878.021 83.4 878.421 84.12 878.821 84.84C878.901 85 878.981 85.16 878.981 85.32C879.221 86.04 879.541 86.68 879.621 87.4C879.621 87.64 879.701 87.88 879.781 88.12C879.781 88.28 879.861 88.44 880.021 88.52C880.101 88.6 880.261 88.68 880.421 88.68C880.581 88.76 880.981 88.44 880.981 88.28C880.981 88.12 881.061 87.96 881.061 87.8C881.061 86.6 881.061 85.4 880.901 84.2C880.821 83.4 880.741 82.52 880.741 81.72C880.741 80.52 880.741 79.32 880.741 78.12C880.661 77.32 880.661 76.6 880.501 75.88C880.501 75.64 880.101 75.32 879.861 75.24C879.461 75.16 879.061 75.16 878.661 75.16C870.661 75.08 862.741 75.08 854.741 75C854.181 75 853.621 75 853.061 75.08C852.021 75.16 850.901 75.16 849.861 75.16C849.301 75.16 848.741 75.24 848.181 75.32C846.581 75.64 844.981 75.56 843.301 75.32C842.101 75.16 840.901 75.16 839.701 75.24C839.461 75.24 839.141 75.56 839.141 75.88C839.141 76.04 839.221 76.2 839.301 76.36C839.621 76.68 839.941 76.92 840.341 76.92C841.221 77 842.101 77.32 842.981 77.48C843.381 77.56 843.701 77.8 844.021 78.12C844.261 78.28 844.421 78.6 844.421 78.92C844.501 79.4 844.501 79.88 844.501 80.36C844.501 83.8 844.501 87.24 844.501 90.6C844.581 92.2 844.581 93.72 844.661 95.24C844.661 95.72 844.661 96.2 844.741 96.68C844.901 97.48 844.901 98.36 844.901 99.16C844.901 101.24 844.901 103.4 844.981 105.48C845.061 106.52 844.981 107.56 844.901 108.6C844.661 110.2 844.661 111.72 844.581 113.24C844.581 114.28 844.581 115.4 844.501 116.44C844.501 116.92 844.501 117.4 844.421 117.88C844.101 118.92 844.181 119.96 844.181 121C844.181 122.2 844.181 123.32 844.181 124.44C844.181 125.24 844.101 126.04 844.021 126.84C843.941 127.48 843.621 127.96 843.061 128.2C842.741 128.44 842.341 128.6 841.941 128.76C841.381 129 840.741 129.08 840.101 129.16C839.541 129.24 838.981 129.48 838.501 129.8C838.341 129.96 838.261 130.2 838.261 130.44C838.261 130.68 838.501 130.92 838.661 131C838.981 131.16 839.301 131.16 839.621 131.16C844.021 131.16 848.421 131.24 852.821 131.24C854.901 131.24 857.061 131.32 859.141 131.08C859.221 131.08 859.301 131.08 859.381 131.08ZM899.932 87.08C899.932 84.6 899.932 84.6 900.652 82.44C900.812 82.04 900.892 81.64 901.052 81.24C901.612 80.12 902.412 79.24 903.452 78.6C903.532 78.52 903.612 78.52 903.692 78.44C904.652 78.12 905.532 77.8 906.492 77.88C907.692 77.88 908.812 77.88 909.932 77.88C910.252 77.88 910.572 77.88 910.892 77.96C911.692 78.2 912.492 78.36 913.212 78.68C915.292 79.64 916.892 81.08 918.012 83.08C918.252 83.56 918.492 84.04 918.812 84.52C919.292 85.4 919.532 86.36 919.772 87.32C919.852 88.28 920.332 89.16 920.492 90.12C920.492 90.2 920.572 90.28 920.652 90.36C920.732 90.52 920.972 90.6 921.212 90.68C921.372 90.68 921.772 90.44 921.772 90.28C921.932 89.48 922.172 88.68 922.172 87.88C922.252 86.04 922.252 84.12 922.092 82.28C921.932 81.32 921.932 80.36 921.852 79.4C921.852 79.08 921.852 78.76 921.772 78.44C921.692 78.2 921.532 77.96 921.372 77.8C921.212 77.72 921.132 77.56 920.972 77.48C920.332 77.16 919.692 76.84 918.972 76.52C918.252 76.28 917.452 76.04 916.652 75.8C916.092 75.64 915.452 75.48 914.812 75.48C914.172 75.4 913.612 75.4 913.052 75.32C912.252 75.16 911.452 75.16 910.652 75.16C909.212 75.16 907.692 75.16 906.252 75.16C905.372 75.16 904.492 75.24 903.612 75.32C902.812 75.48 902.012 75.56 901.212 75.8C900.972 75.96 900.732 75.96 900.492 75.96C899.612 76.12 898.812 76.44 897.932 76.52C897.452 76.6 896.972 76.84 896.572 77.08C896.012 77.4 895.532 77.64 895.132 78.04C894.812 78.44 894.412 78.76 894.092 79.08C893.772 79.48 893.452 79.8 893.132 80.2C892.572 81 892.012 81.8 891.532 82.6C891.372 82.84 891.212 83 891.132 83.24C890.972 83.88 890.652 84.44 890.572 85.08C890.332 86.2 890.092 87.32 889.932 88.44C889.692 89.56 889.692 90.68 889.772 91.8C890.012 92.6 890.012 93.4 890.092 94.2C890.092 94.44 890.172 94.76 890.252 94.92C890.572 96.12 890.972 97.32 891.612 98.36C891.932 98.92 892.332 99.56 892.732 100.2C893.692 101.72 894.892 103.08 896.412 104.04C896.572 104.2 896.812 104.36 896.972 104.52C897.532 105 898.092 105.4 898.812 105.72C899.052 105.88 899.372 106.04 899.612 106.2C901.692 107.56 903.772 108.76 906.012 109.8C906.892 110.2 907.692 110.68 908.492 111.24C910.092 112.28 911.452 113.56 912.732 114.92C913.452 115.72 913.932 116.6 914.092 117.72C914.172 118.04 914.252 118.36 914.332 118.68C914.492 119.48 914.492 120.28 914.412 121.08C914.412 121.16 914.412 121.24 914.412 121.32C914.092 122.12 913.852 123 913.532 123.88C913.052 124.92 912.332 125.8 911.372 126.44C911.052 126.76 910.732 126.84 910.332 127.08C909.292 127.32 908.332 127.56 907.212 127.56C905.932 127.56 904.652 127.56 903.372 127.56C903.132 127.56 902.812 127.56 902.572 127.56C901.692 127.32 900.652 127.24 899.772 126.92C899.212 126.76 898.652 126.52 898.172 126.2C897.932 126.04 897.612 125.88 897.372 125.72C896.572 125.32 895.852 124.76 895.212 124.12C894.972 123.88 894.652 123.56 894.332 123.32C893.372 122.28 892.572 121.16 891.932 119.96C891.532 119.32 891.212 118.68 891.052 117.96C890.812 117.24 890.572 116.6 890.412 115.88C890.412 115.64 890.252 115.4 890.092 115.24C890.012 115.08 889.612 114.92 889.452 115C889.372 115.16 889.212 115.24 889.132 115.4C889.052 115.48 889.052 115.64 889.052 115.8C889.132 116.84 889.132 117.8 889.372 118.76C889.452 119.16 889.452 119.56 889.532 119.96C889.612 121.56 889.612 123.16 889.932 124.76C890.012 125.16 890.012 125.56 890.012 126.04C890.012 126.44 890.092 126.84 890.092 127.24C890.172 127.72 890.332 128.2 890.572 128.6C890.652 128.84 890.812 129 891.052 129.08C892.172 129.56 893.292 130.12 894.492 130.36C895.532 130.6 896.572 130.92 897.612 131C898.412 131.08 899.212 131.16 900.012 131.16C903.132 131.16 906.172 131.08 909.292 131.08C909.692 131.08 910.092 131 910.492 130.92C911.132 130.84 911.772 130.6 912.412 130.6C913.052 130.52 913.612 130.2 914.252 130.12C916.332 129.72 918.092 128.84 919.532 127.24C919.612 127.16 919.772 127 919.852 126.92C920.572 126.2 921.212 125.48 921.772 124.68C922.012 124.36 922.252 124.04 922.492 123.72C922.892 123.16 923.292 122.52 923.612 121.88C924.172 120.84 924.572 119.8 924.972 118.76C925.052 118.52 925.132 118.28 925.212 118.04C925.532 116.52 925.532 116.52 925.532 114.92C925.532 114.44 925.532 113.96 925.532 113.48C925.452 113.16 925.372 112.84 925.292 112.52C924.812 110.76 924.172 109.08 923.372 107.48C922.972 106.76 922.492 106.12 921.932 105.56C921.132 104.68 920.252 103.8 919.292 103.08C917.532 101.72 915.852 100.36 914.012 99.16C912.412 98.2 910.892 97.08 909.292 96.12C908.172 95.48 907.132 94.68 906.012 93.96C905.452 93.56 904.892 93 904.332 92.6C904.012 92.28 903.692 92.04 903.452 91.8C902.572 91.16 901.852 90.36 901.212 89.56C900.812 89.08 900.492 88.6 900.332 88.12C900.252 87.8 900.092 87.48 899.932 87.08Z" fill="white"/>
<path d="M1047 136.557C1036.56 136.557 1032.66 131.78 1032.13 130.102C1031.84 129.209 1031.73 127.659 1031.78 125.361C1029.95 121.587 1031.84 113.291 1033.17 111.814C1035.01 109.79 1037.4 109.443 1038.17 109.37C1040.48 107.638 1044.11 107 1046.76 107C1051.45 107 1057.31 107.547 1061.05 111.814C1062.66 113.655 1063.67 120.219 1062.48 124.213C1062.61 127.057 1062.52 129.026 1062.19 130.084L1062.17 130.157L1062.13 130.23C1061.2 131.707 1057.41 136.557 1047 136.557ZM1046.76 108.295C1044.27 108.295 1040.87 108.878 1038.82 110.501L1038.65 110.629H1038.43C1038.17 110.629 1035.87 110.756 1034.14 112.652C1033.17 113.728 1031.29 121.66 1033.01 124.887L1033.08 125.033V125.197C1033.01 127.951 1033.19 129.154 1033.36 129.664C1033.74 130.85 1037.17 135.244 1047 135.244C1056.56 135.244 1060.06 131.014 1060.96 129.61C1061.14 128.935 1061.32 127.44 1061.18 124.14V124.03L1061.22 123.921C1062.39 120.183 1061.34 114.075 1060.08 112.634C1056.67 108.787 1051.18 108.295 1046.76 108.295Z" fill="#FDF1E3"/>
<path d="M1046.76 131.196C1044.05 131.196 1043.25 128.589 1042.55 126.309C1041.98 124.45 1041.43 122.681 1040.08 122.353C1038.56 121.988 1037.9 123.027 1037.02 124.814C1036.47 125.908 1035.98 126.929 1035.01 127.258C1034.51 127.422 1033.96 127.367 1033.38 127.075C1032.28 126.528 1031.54 125.361 1031.21 123.611C1030.41 119.417 1032.06 113.035 1033.17 111.814C1035.04 109.753 1037.44 109.425 1038.19 109.37C1040.3 107.802 1043.54 107 1046.76 107C1051.45 107 1057.31 107.547 1061.05 111.814C1062.64 113.619 1063.49 119.545 1062.7 123.337C1062.26 125.434 1061.4 126.802 1060.13 127.403C1059.57 127.677 1059.04 127.713 1058.54 127.549C1057.57 127.203 1057.06 126.091 1056.53 124.924C1055.65 123.009 1055.01 121.879 1053.47 122.243C1052.09 122.572 1051.56 124.358 1050.99 126.237C1050.28 128.57 1049.47 131.196 1046.76 131.196ZM1039.47 120.985C1039.75 120.985 1040.04 121.022 1040.37 121.095C1042.46 121.587 1043.14 123.793 1043.78 125.927C1044.55 128.406 1045.12 129.902 1046.76 129.902C1048.41 129.902 1048.98 128.388 1049.75 125.872C1050.41 123.72 1051.07 121.496 1053.16 121.003C1055.85 120.347 1056.91 122.681 1057.7 124.395C1058.1 125.27 1058.52 126.182 1058.98 126.346C1059.04 126.364 1059.2 126.437 1059.57 126.255C1060.67 125.726 1061.18 124.249 1061.42 123.082C1062.22 119.18 1061.16 113.911 1060.06 112.652C1056.67 108.787 1051.16 108.295 1046.75 108.295C1044.25 108.295 1040.96 108.878 1038.96 110.355C1038.89 110.464 1038.78 110.556 1038.65 110.61C1037.77 111.358 1037.2 112.324 1037.2 113.509C1037.2 117.12 1043.05 118.469 1046.73 118.469C1051.49 118.469 1055.72 115.406 1057.24 114.166C1053.34 111.431 1049.24 110.701 1046.8 110.938C1045.39 111.066 1043.72 111.54 1043.72 113.054C1043.72 113.582 1043.89 114.002 1044.22 114.312C1045.06 115.114 1046.69 115.041 1046.71 115.041C1047.08 115.023 1047.37 115.296 1047.39 115.643C1047.41 115.989 1047.13 116.299 1046.78 116.317C1046.69 116.317 1044.58 116.427 1043.32 115.242C1042.72 114.676 1042.42 113.947 1042.42 113.054C1042.42 111.139 1043.98 109.899 1046.67 109.644C1049.47 109.389 1054.29 110.264 1058.65 113.601L1059.26 114.056L1058.71 114.567C1058.49 114.786 1053.17 119.727 1046.71 119.727C1042.37 119.727 1035.9 118.068 1035.9 113.491C1035.9 112.561 1036.16 111.723 1036.62 110.993C1035.83 111.267 1034.9 111.777 1034.11 112.652C1033.28 113.564 1031.75 119.581 1032.46 123.356C1032.72 124.687 1033.21 125.544 1033.92 125.908C1034.31 126.109 1034.49 126.036 1034.57 126.018C1035.01 125.872 1035.43 125.033 1035.83 124.231C1036.54 122.827 1037.46 120.985 1039.47 120.985Z" fill="#FDF1E3"/>
</g>
<defs>
<clipPath id="clip0_754_42">
<rect width="150" height="1080" fill="white" transform="translate(1080) rotate(90)"/>
</clipPath>
</defs>
</svg>
