<svg width="1080" height="150" viewBox="0 0 1080 150" fill="none" xmlns="http://www.w3.org/2000/svg">
<g clip-path="url(#clip0_754_106)">
<rect width="150" height="1080" transform="translate(1080) rotate(90)" fill="#DD8964"/>
<path d="M121.503 94.446C9.13466 106.97 -331.702 47.2943 -395 45.3848C-110.788 -36.5323 647.944 -333.86 1026.06 -364.201C1404.18 -394.541 1609.07 -202.901 1691.87 -98.4491C1751.14 -23.6658 1740.14 25.4803 1561.32 36.136C1411.45 45.0664 1307.86 -10.9742 1186.08 -4.98039C1064.31 1.01338 1077.42 73.7469 913.571 79.1985C749.724 84.6502 525.265 19.2282 366.851 22.2777C208.438 25.3272 233.871 81.9219 121.503 94.446Z" fill="#A3BD9B"/>
<path d="M187.066 83.4013C74.6981 95.9255 -235.125 40.2806 -298.423 38.3711C-14.2113 -43.546 744.521 -340.874 1122.64 -371.214C1500.75 -401.555 1674.64 -213.945 1757.43 -109.494C1816.7 -34.7105 1805.7 14.4355 1626.88 25.0913C1477.01 34.0217 1373.42 -22.0189 1251.65 -16.0251C1129.87 -10.0313 1142.98 62.7022 979.134 68.1538C815.288 73.6055 590.828 8.18356 432.415 11.233C274.001 14.2825 299.434 70.8772 187.066 83.4013Z" stroke="#FDF1E3" stroke-opacity="0.2" stroke-width="6"/>
<path d="M429.04 75.16C428.16 75.16 427.2 75.16 426.32 75.16C425.92 75.16 425.52 75.16 425.12 75.24C424.16 75.4 423.2 75.48 422.24 75.48C421.6 75.56 420.96 75.56 420.32 75.8C420.08 75.8 419.84 75.88 419.6 75.88C418.32 76.12 417.04 76.52 415.92 77.08C415.04 77.48 414.16 77.96 413.28 78.36C413.04 78.44 412.8 78.6 412.64 78.76C411.36 79.56 410.08 80.52 408.96 81.56C408.48 82.12 408 82.68 407.6 83.24C406.96 84.2 406.24 85.08 405.6 86.04C405.04 86.92 404.64 87.88 404.16 88.84C404 89.32 403.76 89.72 403.52 90.2C402.56 91.88 401.84 93.64 401.44 95.56C401.44 95.72 401.36 95.88 401.28 96.04C401.04 97.08 400.8 98.12 400.72 99.16C400.56 101 400.48 102.92 400.48 104.76C400.48 105.24 400.56 105.72 400.64 106.2C400.72 107.48 400.96 108.6 401.52 111.24C401.6 111.96 401.84 112.68 402.16 113.32C402.24 113.56 402.4 113.72 402.48 113.96C402.8 115.16 403.44 116.2 404 117.32C404.4 118.2 404.96 119 405.68 119.72C406.24 120.28 406.72 120.84 407.36 121.48C407.76 121.8 408.16 122.2 408.64 122.52C409.52 123.16 410.32 123.8 411.04 124.6C411.68 125.16 412.4 125.72 413.12 126.28C414.48 127.16 415.84 127.96 417.28 128.76C417.52 128.92 417.68 129 417.92 129.08C419.2 129.64 420.48 130.12 421.76 130.68C422.24 130.84 422.64 131 423.2 131.08C423.52 131.08 423.84 131.16 424.16 131.24C424.96 131.48 425.92 131.48 426.8 131.56C427.84 131.56 428.88 131.56 429.92 131.48C430.4 131.48 430.96 131.48 431.44 131.4C432.24 131.24 433.04 131.16 433.84 131.08C434.96 131 436 130.6 437.12 130.36C437.84 130.12 438.56 129.96 439.2 129.56C439.6 129.32 440 129.08 440.48 128.92C441.52 128.44 442.48 127.8 443.36 127.08C443.76 126.76 444.24 126.36 444.72 126.04C446.16 125 447.44 123.72 448.56 122.36C449.68 121.08 450.72 119.72 451.6 118.28C451.92 117.8 452.16 117.24 452.4 116.76C452.96 115.48 453.28 114.12 453.84 112.84C454.24 111.88 454.32 110.84 454.56 109.8C454.8 109.24 454.72 108.68 454.8 108.12C454.8 107.64 454.88 107.16 455.04 106.68C455.2 106.2 455.2 105.72 455.2 105.24C455.2 103.8 455.28 102.28 455.2 100.84C455.2 100.12 455.2 99.4 454.96 98.68C454.88 98.36 454.88 98.04 454.8 97.72C454.8 96.92 454.56 96.12 454.32 95.32C453.68 92.68 452.56 90.28 451.04 88.04C450.24 86.76 449.28 85.56 448.32 84.28C447.6 83.24 446.64 82.36 445.68 81.48C444.8 80.68 443.84 79.88 442.96 79.08C442.08 78.36 441.12 77.72 440.08 77.16C439.52 76.92 438.96 76.6 438.4 76.36C437.36 75.8 436.24 75.48 435.12 75.48C434.48 75.48 433.76 75.48 433.12 75.32C432.48 75.16 431.84 75.16 431.2 75.16C430.48 75.16 429.76 75.16 429.04 75.16ZM413.36 105.96C413.36 105.08 413.36 104.2 413.44 103.32C413.44 103 413.44 102.68 413.44 102.36C413.76 100.92 413.76 99.48 413.84 97.96C413.92 97.16 413.92 96.36 414.16 95.56C414.4 94.76 414.4 93.8 414.64 92.92C414.8 91.64 415.12 90.44 415.6 89.16C416 87.56 416.64 86.12 417.28 84.6C417.6 83.88 418 83.16 418.56 82.6C418.72 82.44 418.8 82.36 418.88 82.2C419.52 81.24 420.32 80.44 421.28 79.8C421.6 79.56 421.92 79.24 422.16 79C422.88 78.44 423.68 78.04 424.56 77.8C424.8 77.72 425.04 77.72 425.28 77.64C425.84 77.48 426.4 77.48 426.96 77.56C427.2 77.56 427.44 77.64 427.68 77.72C428.4 77.8 429.12 77.88 429.84 77.96C430.72 78.04 431.6 78.28 432.4 78.68C433.2 79 434 79.4 434.8 79.88C435.84 80.44 436.72 81.08 437.36 82.04C437.92 82.84 438.48 83.64 438.96 84.52C439.36 85 439.6 85.64 439.84 86.2C440.48 87.72 440.96 89.24 441.44 90.84C441.68 91.48 441.76 92.28 441.92 92.92C442.16 93.72 442.24 94.52 442.48 95.32C442.64 96.04 442.72 96.76 442.88 97.48C443.12 98.36 443.2 99.24 443.36 100.12C443.36 100.28 443.44 100.44 443.36 100.6C443.36 102.2 443.52 103.8 443.28 105.48C443.12 106.36 443.12 107.24 443.12 108.12C443.04 109.8 442.72 111.48 442.32 113.16C442.08 114.12 441.84 115.08 441.6 116.04C441.28 117.72 440.72 119.48 439.84 121C439.28 122.12 438.72 123.16 438.08 124.2C437.76 124.76 437.36 125.32 436.96 125.8C436.32 126.68 435.52 127.32 434.48 127.72C433.68 127.96 432.96 128.2 432.16 128.44C431.84 128.52 431.52 128.6 431.2 128.6C429.76 128.76 428.32 128.68 426.8 128.52C426.08 128.52 425.44 128.2 424.72 128.04C424.08 127.8 423.52 127.56 422.88 127.32C422.56 127.16 422.16 126.92 421.84 126.68C420.32 125.56 418.96 124.28 417.68 122.92C417.36 122.6 417.12 122.2 416.88 121.72C416.32 120.28 415.6 118.92 415.04 117.48C414.88 117.16 414.8 116.92 414.8 116.6C414.64 115.64 414.32 114.84 414.32 113.96C414.24 113.72 414.16 113.48 414.08 113.24C413.92 112.76 413.84 112.28 413.84 111.8C413.76 111.16 413.68 110.52 413.52 109.88C413.44 109.56 413.36 109.24 413.36 108.92C413.36 107.96 413.36 107 413.36 105.96ZM473.29 75.08C469.45 75.08 465.69 75.08 461.85 75.08C461.21 75.08 460.57 75.08 459.93 75.08C459.29 75.08 458.81 75.4 458.49 75.88C458.33 76.04 458.41 76.36 458.65 76.44C459.21 76.76 459.77 76.84 460.33 76.84C461.21 77 462.09 77.24 462.89 77.56C463.21 77.72 463.53 78.12 463.53 78.52C463.53 79.16 463.61 79.8 463.61 80.44C463.61 82.76 463.61 85 463.69 87.32C463.69 87.8 463.69 88.28 463.77 88.76C463.93 90.12 463.93 91.48 463.93 92.84C463.93 93.32 463.93 93.72 463.85 94.12C463.61 95.32 463.61 96.52 463.61 97.72C463.61 104.12 463.61 110.6 463.61 117C463.61 119 463.53 121 463.53 123.08C463.53 123.72 463.53 124.36 463.37 125C463.29 125.72 463.21 126.44 463.05 127.16C462.97 127.4 462.89 127.64 462.65 127.8C462.41 128.12 462.09 128.36 461.69 128.52C461.05 128.68 460.49 128.92 459.85 129.08C459.05 129.24 458.33 129.56 457.53 129.8C457.45 129.8 457.37 129.8 457.29 129.88C457.21 129.88 457.13 129.96 457.13 130.04C456.89 130.12 456.81 130.44 456.81 130.68C456.89 130.84 457.13 131 457.37 131.08C458.09 131.16 458.81 131.08 459.53 131.08C465.77 131.08 472.01 131 478.33 131C478.57 131 478.81 131 479.05 130.92C479.53 130.92 480.01 130.76 480.41 130.44C480.49 130.36 480.57 130.2 480.57 130.04C480.49 129.88 480.49 129.72 480.33 129.64C479.69 129.4 479.05 129.24 478.41 129.16C478.09 129.08 477.77 129 477.53 128.84C476.97 128.6 476.49 128.36 476.01 128.12C475.85 128.04 475.69 127.88 475.61 127.8C475.37 127.64 475.29 127.4 475.21 127.24C475.13 126.92 475.13 126.52 475.13 126.2C475.05 123.4 475.05 120.52 475.13 117.72C475.13 114.68 475.21 111.72 475.21 108.68C475.21 108.36 475.29 108.04 475.29 107.72C475.29 107.56 475.53 107.24 475.69 107.16C476.73 106.84 477.77 106.76 478.81 106.84C479.05 106.92 479.29 107 479.45 107.16C479.61 107.32 479.85 107.56 479.93 107.72C480.65 108.76 481.29 109.72 481.93 110.76C482.89 112.28 483.93 113.8 484.73 115.32C484.81 115.48 484.89 115.64 484.97 115.8C485.93 117.4 487.05 118.92 488.01 120.44C488.65 121.4 489.37 122.28 490.01 123.24C490.65 124.28 491.21 125.4 491.77 126.44C492.09 126.92 492.41 127.4 492.65 127.88C492.81 128.2 492.73 128.52 492.41 128.76C492.17 128.84 491.93 129 491.77 129C491.53 129.08 491.29 129.08 491.05 129.16C490.25 129.24 489.45 129.4 488.65 129.64C488.57 129.72 488.57 129.8 488.49 129.88C488.33 130.2 488.41 130.68 488.73 130.92C488.97 131.08 489.21 131.16 489.45 131.16C490.33 131.16 491.21 131.16 492.09 131.16C493.93 131.16 495.85 131.08 497.69 131.08C501.69 131 505.69 131 509.61 131C509.77 131 509.93 130.92 510.09 130.92C510.57 130.92 510.89 130.6 511.05 130.2C511.05 130.04 511.13 129.88 511.05 129.8C510.89 129.56 510.81 129.32 510.57 129.24C509.93 129 509.37 128.76 508.73 128.68C508.01 128.6 507.45 128.36 506.81 128.2C506.09 128.04 505.45 127.64 504.97 127.08C504.73 126.68 504.41 126.28 504.09 125.88C503.61 125.16 503.21 124.36 502.73 123.64C502.33 123.08 502.01 122.52 501.61 121.96C501.13 121.16 500.57 120.36 500.17 119.48C499.85 118.84 499.45 118.2 499.05 117.56C498.73 117.16 498.41 116.68 498.09 116.2C497.21 114.84 496.41 113.4 495.45 112.12C494.41 110.6 493.37 109 492.33 107.4C491.93 106.76 491.53 106.04 491.05 105.4C490.97 105.24 490.89 105.08 490.89 104.92C490.81 104.76 490.89 104.6 491.05 104.44C491.69 103.96 492.57 103.4 493.45 102.84C493.85 102.68 494.33 102.44 494.73 102.2C495.77 101.48 496.73 100.84 497.77 100.12C498.41 99.64 499.05 99.16 499.61 98.6C499.85 98.36 500.09 98.12 500.25 97.88C500.89 96.92 501.61 95.96 502.09 95C502.25 94.6 502.41 94.28 502.57 93.88C503.05 92.44 503.05 92.28 503.13 91C503.13 89.8 503.05 88.6 503.05 87.32C503.05 86.52 502.81 85.72 502.49 85C502.33 84.6 502.17 84.28 501.93 83.88C501.53 83.24 501.05 82.52 500.65 81.88C500.49 81.64 500.33 81.48 500.17 81.24C499.53 80.52 498.89 79.8 498.09 79.24C497.61 78.92 497.21 78.52 496.73 78.2C496.41 77.96 496.09 77.72 495.77 77.48C494.57 76.76 493.37 76.12 492.01 75.88C491.05 75.48 490.09 75.4 489.13 75.4C488.73 75.32 488.33 75.4 487.93 75.32C486.65 75 485.29 75.08 484.01 75.08C480.41 75.08 476.89 75.08 473.29 75.08ZM475.77 104.2C475.53 104.04 475.29 103.88 475.29 103.64C475.21 103.32 475.21 103 475.21 102.68C475.21 97.56 475.21 92.44 475.13 87.32C475.13 86.28 475.21 85.16 475.21 84.12C475.29 82.68 475.37 81.24 475.37 79.72C475.53 79.4 475.61 79 475.77 78.6C475.85 78.28 476.09 78.04 476.41 77.96C478.25 77.48 478.25 77.48 480.01 77.48C480.41 77.48 480.81 77.48 481.21 77.48C481.93 77.48 482.65 77.48 483.37 77.8C484.89 77.96 486.09 78.76 487.29 79.64C487.37 79.64 487.45 79.72 487.45 79.8C487.93 80.36 488.41 80.92 488.81 81.56C489.05 81.88 489.21 82.28 489.29 82.6C489.61 83.64 489.85 84.68 489.93 85.72C490.01 86.52 490.01 87.32 490.17 88.12C490.33 88.6 490.33 89.08 490.25 89.56C490.01 90.92 489.93 92.2 489.85 93.48C489.77 93.8 489.69 94.12 489.61 94.44C489.53 94.84 489.45 95.24 489.29 95.56C489.05 96.2 488.89 96.84 488.57 97.4C488.09 98.28 487.53 99.24 486.81 100.04C485.77 101.24 484.49 102.28 483.05 103.08C482.49 103.48 481.77 103.72 481.05 103.72C480.49 103.8 480.01 103.8 479.53 103.88C479.21 103.88 478.89 103.88 478.57 103.96C478.09 104.12 477.61 104.2 477.13 104.2C476.65 104.2 476.17 104.2 475.77 104.2ZM521.56 105.08C521.56 107 521.56 108.92 521.56 110.92C521.56 113.56 521.56 116.28 521.56 118.92C521.56 121.64 521.48 124.28 521.48 127C521.48 127.24 521.48 127.48 521.48 127.72C521.4 128.04 521.32 128.36 521.16 128.6C521.08 128.84 520.92 129.08 520.68 129.08C519.72 129.4 518.84 129.64 517.8 129.64C517.48 129.64 517.16 129.72 516.84 129.72C516.68 129.8 516.52 129.8 516.36 129.88C516.04 129.96 515.8 130.12 515.64 130.44C515.48 130.68 515.56 131 515.72 131C515.96 131.08 516.2 131.16 516.44 131.16C518.12 131.16 519.72 131.24 521.32 131.24C521.88 131.24 522.44 131.32 523 131.4C523.8 131.48 524.52 131.48 525.24 131.48C529.88 131.48 534.44 131.56 539.08 131.56C540.04 131.56 541.08 131.48 542.04 131.4C543.4 131.16 544.76 131.16 546.12 130.76C546.6 130.6 547.24 130.68 547.8 130.44C548.36 130.28 549 130.12 549.64 129.96C550.04 129.8 550.44 129.72 550.76 129.48C551.56 129.16 552.2 128.76 553 128.44C553.72 128.12 554.52 127.88 555.24 127.56C558.12 126.2 560.6 124.2 562.84 121.88C563 121.64 563.24 121.4 563.4 121.16C563.64 120.84 563.88 120.44 564.04 120.12C564.68 119.16 565.16 118.12 565.72 117.16C566.04 116.36 566.2 115.56 566.52 114.84C566.92 113.8 567.08 112.68 567.4 111.56C567.48 111 567.48 110.44 567.56 109.88C567.8 108.68 567.96 107.48 568.04 106.2C568.04 105.88 568.12 105.56 568.2 105.24C568.36 104.6 568.36 103.96 568.36 103.32C568.36 102.12 568.36 100.92 568.36 99.72C568.36 99.48 568.36 99.16 568.28 99C567.96 97.96 568.04 96.84 567.64 95.88C567.56 95.64 567.48 95.4 567.48 95.16C567.4 94.28 567 93.48 566.84 92.6C566.36 91.08 565.8 89.64 565.32 88.2C564.92 87.32 564.44 86.44 563.88 85.64C563.48 85.08 563.08 84.44 562.68 83.8C562.52 83.56 562.36 83.32 562.12 83.08C561.56 82.6 561 82.12 560.44 81.64C559.24 80.68 558.04 79.72 556.84 78.76C555.8 77.88 554.68 77.32 553.4 76.92C552.2 76.52 550.84 76.44 549.64 76.04C548.36 75.96 547.08 75.56 545.8 75.32C545.16 75.08 544.52 75.08 543.88 75.08C541.56 74.92 539.16 75 536.84 75.24C536.36 75.32 535.88 75.4 535.4 75.4C534.84 75.4 534.28 75.4 533.64 75.4C528.76 75.4 523.8 75.4 518.84 75.4C518.28 75.4 517.72 75.4 517.08 75.4C516.76 75.48 516.52 75.56 516.2 75.72C516.04 75.88 515.96 75.96 515.96 76.12C515.8 76.44 516.04 76.84 516.28 76.92C516.52 76.92 516.76 77 517 77C517.64 77.08 518.28 77.08 519 77.08C519.4 77.16 519.72 77.24 520.12 77.48C520.6 77.8 521 78.2 521.08 78.76C521.24 79.64 521.32 80.52 521.48 81.4C521.56 81.8 521.64 82.2 521.64 82.6C521.64 83.48 521.72 84.28 521.72 85.08C521.72 88.44 521.8 91.72 521.64 95.08C521.56 97.16 521.56 99.24 521.56 101.4C521.56 102.6 521.56 103.8 521.56 105.08ZM556.68 103.16C556.68 104.2 556.68 105.16 556.68 106.12C556.6 106.92 556.6 107.72 556.44 108.52C556.28 109.24 556.28 109.96 556.28 110.68C556.2 111.24 556.12 111.64 556.04 112.12C555.88 112.52 555.88 112.92 555.8 113.32C555.72 113.64 555.72 113.96 555.56 114.28C555.32 114.76 555.24 115.24 555.08 115.64C554.92 116.28 554.76 116.92 554.52 117.56C554.36 118.04 554.04 118.6 553.8 119.08C553.72 119.32 553.64 119.56 553.56 119.72C553 120.52 552.52 121.4 552.12 122.28C551.48 123.8 550.44 125.08 549.32 126.2C549.16 126.36 549.08 126.44 548.92 126.6C548.28 127.32 547.4 127.8 546.52 128.12C546.04 128.28 545.56 128.44 545.08 128.52C544.84 128.6 544.6 128.68 544.36 128.68C543.88 128.68 543.4 128.68 542.92 128.76C542.52 128.76 542.12 128.76 541.72 128.84C540.44 129.08 539.16 129.08 537.8 129.08C536.36 129.08 534.92 129.08 533.48 129C533.16 129 532.84 128.68 532.84 128.36C532.84 128.2 532.84 128.04 532.84 127.88C532.84 127.56 532.84 127.24 532.84 126.92C532.84 122.44 532.92 117.96 533 113.56C533 111.08 533 108.68 533 106.2C533 103.24 533 100.2 533 97.24C533 96.6 533.08 95.96 533.16 95.24C533.24 94.28 533.32 93.32 533.4 92.36C533.4 91.48 533.48 90.6 533.64 89.72C533.8 89.08 533.72 88.44 533.72 87.8C533.72 85.16 533.72 82.6 533.72 79.96C533.72 79.56 533.72 79.16 533.8 78.76C533.8 78.6 533.8 78.44 533.8 78.28C533.88 78.04 534.04 77.88 534.28 77.72C534.44 77.64 534.6 77.56 534.76 77.56C535.96 77.4 537.16 77.4 538.36 77.16C539.48 77.08 540.6 77 541.8 77.24C542.2 77.32 542.6 77.4 543 77.4C544.04 77.4 545.08 77.72 546.12 77.88C547.24 78.2 548.2 78.68 549.08 79.48C550.04 80.36 550.76 81.4 551.56 82.44C551.64 82.6 551.72 82.76 551.8 82.84C552.04 83.32 552.28 83.72 552.44 84.2C553.24 86.04 554.04 87.96 554.76 89.8C554.92 90.2 555.08 90.52 555.24 90.92C555.8 92.28 556.12 93.72 556.2 95.16C556.28 96.2 556.28 97.32 556.52 98.36C556.68 98.84 556.68 99.48 556.68 100.04C556.68 101.08 556.68 102.12 556.68 103.16ZM594.491 131.08C595.291 131.08 596.091 131.08 596.891 131.08C602.331 131.08 607.771 131.08 613.211 131.08C613.931 131.08 614.571 131.08 615.211 131C615.691 131 616.171 130.76 616.571 130.52C616.811 130.28 616.971 129.96 617.051 129.64C617.131 129 617.131 128.36 617.211 127.72C617.291 127.32 617.291 126.92 617.371 126.52C617.531 125.88 617.611 125.24 617.611 124.6C617.691 123.56 617.691 122.52 617.851 121.48C618.171 120.2 618.171 118.84 618.091 117.56C618.091 117.16 617.611 116.84 617.211 117C616.891 117 616.651 117.24 616.491 117.56C616.411 117.8 616.331 118.04 616.331 118.28C616.171 118.92 616.091 119.56 615.851 120.12C615.691 120.76 615.451 121.4 615.131 121.96C614.891 122.52 614.571 123.08 614.331 123.72C614.091 124.2 613.771 124.68 613.451 125.16C613.131 125.56 612.811 125.88 612.411 126.2C612.091 126.44 611.771 126.68 611.371 126.84C610.891 127.16 610.411 127.4 609.851 127.56C608.571 127.88 607.371 128.2 606.011 128.28C604.891 128.28 603.771 128.28 602.651 128.52C602.251 128.6 601.771 128.6 601.371 128.6C598.411 128.6 595.371 128.6 592.411 128.6C592.171 128.6 591.931 128.6 591.691 128.6C591.531 128.52 591.131 128.28 591.131 128.12C591.051 127.96 590.971 127.8 590.971 127.64C590.971 126.68 590.891 125.72 590.891 124.76C590.891 121.32 590.891 117.88 590.891 114.52C590.891 112.84 590.891 111.24 591.131 109.64C591.211 109.24 591.211 108.84 591.211 108.44C591.291 107.32 591.291 106.12 591.371 105C591.371 104.76 591.371 104.52 591.451 104.28C591.451 104.12 591.771 103.8 591.931 103.8C592.171 103.72 592.571 103.64 592.891 103.64C595.451 103.72 598.091 103.72 600.651 103.72C601.691 103.72 602.571 103.96 603.451 104.44C603.611 104.6 603.851 104.68 604.091 104.84C604.171 104.84 604.171 104.92 604.251 105C604.571 105.16 604.811 105.4 604.891 105.72C605.291 106.68 605.611 107.72 605.851 108.68C606.011 109.24 606.171 109.8 606.411 110.36C606.491 110.44 606.571 110.6 606.651 110.76C606.811 111 606.971 111.08 607.291 111.08C607.531 111.08 607.851 110.76 607.931 110.44C607.931 110.2 607.931 109.96 607.931 109.72C607.931 109.08 607.851 108.44 607.691 107.8C607.531 107.16 607.451 106.52 607.451 105.88C607.371 104.68 607.371 103.48 607.451 102.2C607.531 101.72 607.451 101.24 607.611 100.76C607.851 99.24 607.851 97.72 608.011 96.2C608.091 95.56 608.011 95 608.011 94.44C608.011 94.28 608.011 94.12 607.931 93.96C607.851 93.88 607.691 93.72 607.611 93.64C607.531 93.56 607.051 93.72 606.971 93.8C606.811 94.04 606.651 94.2 606.571 94.44C606.331 95.16 606.171 95.88 606.091 96.6C605.931 97.32 605.691 97.96 605.451 98.68C605.291 99.24 604.891 99.64 604.411 99.96C603.531 100.52 602.651 100.84 601.691 100.84C601.291 100.84 600.891 100.92 600.491 100.92C597.771 100.92 595.131 100.92 592.411 100.92C592.331 100.92 592.251 100.92 592.171 100.92C591.851 100.84 591.531 100.52 591.531 100.28C591.531 99.56 591.531 98.76 591.531 98.04C591.531 97.4 591.451 96.76 591.531 96.12C591.691 95.32 591.691 94.52 591.691 93.72C591.691 91.96 591.691 90.28 591.691 88.6C591.691 87.24 591.771 85.96 591.531 84.68C591.451 84.44 591.451 84.2 591.451 83.96C591.451 82.36 591.371 80.68 591.371 79.08C591.291 78.84 591.371 78.6 591.371 78.36C591.371 78.12 591.691 77.72 592.011 77.64C592.331 77.56 592.651 77.56 592.971 77.56C596.011 77.56 599.131 77.56 602.171 77.56C603.211 77.56 604.171 77.56 605.131 77.56C605.451 77.56 605.771 77.56 606.091 77.64C606.811 77.88 607.531 77.88 608.251 78.04C608.491 78.12 608.731 78.2 608.891 78.36C609.051 78.44 609.211 78.52 609.291 78.6C610.651 79.8 611.771 81.24 612.731 82.76C613.131 83.4 613.531 84.12 613.931 84.84C614.011 85 614.091 85.16 614.091 85.32C614.331 86.04 614.651 86.68 614.731 87.4C614.731 87.64 614.811 87.88 614.891 88.12C614.891 88.28 614.971 88.44 615.131 88.52C615.211 88.6 615.371 88.68 615.531 88.68C615.691 88.76 616.091 88.44 616.091 88.28C616.091 88.12 616.171 87.96 616.171 87.8C616.171 86.6 616.171 85.4 616.011 84.2C615.931 83.4 615.851 82.52 615.851 81.72C615.851 80.52 615.851 79.32 615.851 78.12C615.771 77.32 615.771 76.6 615.611 75.88C615.611 75.64 615.211 75.32 614.971 75.24C614.571 75.16 614.171 75.16 613.771 75.16C605.771 75.08 597.851 75.08 589.851 75C589.291 75 588.731 75 588.171 75.08C587.131 75.16 586.011 75.16 584.971 75.16C584.411 75.16 583.851 75.24 583.291 75.32C581.691 75.64 580.091 75.56 578.411 75.32C577.211 75.16 576.011 75.16 574.811 75.24C574.571 75.24 574.251 75.56 574.251 75.88C574.251 76.04 574.331 76.2 574.411 76.36C574.731 76.68 575.051 76.92 575.451 76.92C576.331 77 577.211 77.32 578.091 77.48C578.491 77.56 578.811 77.8 579.131 78.12C579.371 78.28 579.531 78.6 579.531 78.92C579.611 79.4 579.611 79.88 579.611 80.36C579.611 83.8 579.611 87.24 579.611 90.6C579.691 92.2 579.691 93.72 579.771 95.24C579.771 95.72 579.771 96.2 579.851 96.68C580.011 97.48 580.011 98.36 580.011 99.16C580.011 101.24 580.011 103.4 580.091 105.48C580.171 106.52 580.091 107.56 580.011 108.6C579.771 110.2 579.771 111.72 579.691 113.24C579.691 114.28 579.691 115.4 579.611 116.44C579.611 116.92 579.611 117.4 579.531 117.88C579.211 118.92 579.291 119.96 579.291 121C579.291 122.2 579.291 123.32 579.291 124.44C579.291 125.24 579.211 126.04 579.131 126.84C579.051 127.48 578.731 127.96 578.171 128.2C577.851 128.44 577.451 128.6 577.051 128.76C576.491 129 575.851 129.08 575.211 129.16C574.651 129.24 574.091 129.48 573.611 129.8C573.451 129.96 573.371 130.2 573.371 130.44C573.371 130.68 573.611 130.92 573.771 131C574.091 131.16 574.411 131.16 574.731 131.16C579.131 131.16 583.531 131.24 587.931 131.24C590.011 131.24 592.171 131.32 594.251 131.08C594.331 131.08 594.411 131.08 594.491 131.08ZM640.321 75.08C636.481 75.08 632.721 75.08 628.881 75.08C628.241 75.08 627.601 75.08 626.961 75.08C626.321 75.08 625.841 75.4 625.521 75.88C625.361 76.04 625.441 76.36 625.681 76.44C626.241 76.76 626.801 76.84 627.361 76.84C628.241 77 629.121 77.24 629.921 77.56C630.241 77.72 630.561 78.12 630.561 78.52C630.561 79.16 630.641 79.8 630.641 80.44C630.641 82.76 630.641 85 630.721 87.32C630.721 87.8 630.721 88.28 630.801 88.76C630.961 90.12 630.961 91.48 630.961 92.84C630.961 93.32 630.961 93.72 630.881 94.12C630.641 95.32 630.641 96.52 630.641 97.72C630.641 104.12 630.641 110.6 630.641 117C630.641 119 630.561 121 630.561 123.08C630.561 123.72 630.561 124.36 630.401 125C630.321 125.72 630.241 126.44 630.081 127.16C630.001 127.4 629.921 127.64 629.681 127.8C629.441 128.12 629.121 128.36 628.721 128.52C628.081 128.68 627.521 128.92 626.881 129.08C626.081 129.24 625.361 129.56 624.561 129.8C624.481 129.8 624.401 129.8 624.321 129.88C624.241 129.88 624.161 129.96 624.161 130.04C623.921 130.12 623.841 130.44 623.841 130.68C623.921 130.84 624.161 131 624.401 131.08C625.121 131.16 625.841 131.08 626.561 131.08C632.801 131.08 639.041 131 645.361 131C645.601 131 645.841 131 646.081 130.92C646.561 130.92 647.041 130.76 647.441 130.44C647.521 130.36 647.601 130.2 647.601 130.04C647.521 129.88 647.521 129.72 647.361 129.64C646.721 129.4 646.081 129.24 645.441 129.16C645.121 129.08 644.801 129 644.561 128.84C644.001 128.6 643.521 128.36 643.041 128.12C642.881 128.04 642.721 127.88 642.641 127.8C642.401 127.64 642.321 127.4 642.241 127.24C642.161 126.92 642.161 126.52 642.161 126.2C642.081 123.4 642.081 120.52 642.161 117.72C642.161 114.68 642.241 111.72 642.241 108.68C642.241 108.36 642.321 108.04 642.321 107.72C642.321 107.56 642.561 107.24 642.721 107.16C643.761 106.84 644.801 106.76 645.841 106.84C646.081 106.92 646.321 107 646.481 107.16C646.641 107.32 646.881 107.56 646.961 107.72C647.681 108.76 648.321 109.72 648.961 110.76C649.921 112.28 650.961 113.8 651.761 115.32C651.841 115.48 651.921 115.64 652.001 115.8C652.961 117.4 654.081 118.92 655.041 120.44C655.681 121.4 656.401 122.28 657.041 123.24C657.681 124.28 658.241 125.4 658.801 126.44C659.121 126.92 659.441 127.4 659.681 127.88C659.841 128.2 659.761 128.52 659.441 128.76C659.201 128.84 658.961 129 658.801 129C658.561 129.08 658.321 129.08 658.081 129.16C657.281 129.24 656.481 129.4 655.681 129.64C655.601 129.72 655.601 129.8 655.521 129.88C655.361 130.2 655.441 130.68 655.761 130.92C656.001 131.08 656.241 131.16 656.481 131.16C657.361 131.16 658.241 131.16 659.121 131.16C660.961 131.16 662.881 131.08 664.721 131.08C668.721 131 672.721 131 676.641 131C676.801 131 676.961 130.92 677.121 130.92C677.601 130.92 677.921 130.6 678.081 130.2C678.081 130.04 678.161 129.88 678.081 129.8C677.921 129.56 677.841 129.32 677.601 129.24C676.961 129 676.401 128.76 675.761 128.68C675.041 128.6 674.481 128.36 673.841 128.2C673.121 128.04 672.481 127.64 672.001 127.08C671.761 126.68 671.441 126.28 671.121 125.88C670.641 125.16 670.241 124.36 669.761 123.64C669.361 123.08 669.041 122.52 668.641 121.96C668.161 121.16 667.601 120.36 667.201 119.48C666.881 118.84 666.481 118.2 666.081 117.56C665.761 117.16 665.441 116.68 665.121 116.2C664.241 114.84 663.441 113.4 662.481 112.12C661.441 110.6 660.401 109 659.361 107.4C658.961 106.76 658.561 106.04 658.081 105.4C658.001 105.24 657.921 105.08 657.921 104.92C657.841 104.76 657.921 104.6 658.081 104.44C658.721 103.96 659.601 103.4 660.481 102.84C660.881 102.68 661.361 102.44 661.761 102.2C662.801 101.48 663.761 100.84 664.801 100.12C665.441 99.64 666.081 99.16 666.641 98.6C666.881 98.36 667.121 98.12 667.281 97.88C667.921 96.92 668.641 95.96 669.121 95C669.281 94.6 669.441 94.28 669.601 93.88C670.081 92.44 670.081 92.28 670.161 91C670.161 89.8 670.081 88.6 670.081 87.32C670.081 86.52 669.841 85.72 669.521 85C669.361 84.6 669.201 84.28 668.961 83.88C668.561 83.24 668.081 82.52 667.681 81.88C667.521 81.64 667.361 81.48 667.201 81.24C666.561 80.52 665.921 79.8 665.121 79.24C664.641 78.92 664.241 78.52 663.761 78.2C663.441 77.96 663.121 77.72 662.801 77.48C661.601 76.76 660.401 76.12 659.041 75.88C658.081 75.48 657.121 75.4 656.161 75.4C655.761 75.32 655.361 75.4 654.961 75.32C653.681 75 652.321 75.08 651.041 75.08C647.441 75.08 643.921 75.08 640.321 75.08ZM642.801 104.2C642.561 104.04 642.321 103.88 642.321 103.64C642.241 103.32 642.241 103 642.241 102.68C642.241 97.56 642.241 92.44 642.161 87.32C642.161 86.28 642.241 85.16 642.241 84.12C642.321 82.68 642.401 81.24 642.401 79.72C642.561 79.4 642.641 79 642.801 78.6C642.881 78.28 643.121 78.04 643.441 77.96C645.281 77.48 645.281 77.48 647.041 77.48C647.441 77.48 647.841 77.48 648.241 77.48C648.961 77.48 649.681 77.48 650.401 77.8C651.921 77.96 653.121 78.76 654.321 79.64C654.401 79.64 654.481 79.72 654.481 79.8C654.961 80.36 655.441 80.92 655.841 81.56C656.081 81.88 656.241 82.28 656.321 82.6C656.641 83.64 656.881 84.68 656.961 85.72C657.041 86.52 657.041 87.32 657.201 88.12C657.361 88.6 657.361 89.08 657.281 89.56C657.041 90.92 656.961 92.2 656.881 93.48C656.801 93.8 656.721 94.12 656.641 94.44C656.561 94.84 656.481 95.24 656.321 95.56C656.081 96.2 655.921 96.84 655.601 97.4C655.121 98.28 654.561 99.24 653.841 100.04C652.801 101.24 651.521 102.28 650.081 103.08C649.521 103.48 648.801 103.72 648.081 103.72C647.521 103.8 647.041 103.8 646.561 103.88C646.241 103.88 645.921 103.88 645.601 103.96C645.121 104.12 644.641 104.2 644.161 104.2C643.681 104.2 643.201 104.2 642.801 104.2Z" fill="white"/>
<path d="M1047 136.557C1036.56 136.557 1032.66 131.78 1032.13 130.102C1031.84 129.209 1031.73 127.659 1031.78 125.361C1029.95 121.587 1031.84 113.291 1033.17 111.814C1035.01 109.79 1037.4 109.443 1038.17 109.37C1040.48 107.638 1044.11 107 1046.76 107C1051.45 107 1057.31 107.547 1061.05 111.814C1062.66 113.655 1063.67 120.219 1062.48 124.213C1062.61 127.057 1062.52 129.026 1062.19 130.084L1062.17 130.157L1062.13 130.23C1061.2 131.707 1057.41 136.557 1047 136.557ZM1046.76 108.295C1044.27 108.295 1040.87 108.878 1038.82 110.501L1038.65 110.629H1038.43C1038.17 110.629 1035.87 110.756 1034.14 112.652C1033.17 113.728 1031.29 121.66 1033.01 124.887L1033.08 125.033V125.197C1033.01 127.951 1033.19 129.154 1033.36 129.664C1033.74 130.85 1037.17 135.244 1047 135.244C1056.56 135.244 1060.06 131.014 1060.96 129.61C1061.14 128.935 1061.32 127.44 1061.18 124.14V124.03L1061.22 123.921C1062.39 120.183 1061.34 114.075 1060.08 112.634C1056.67 108.787 1051.18 108.295 1046.76 108.295Z" fill="#FDF1E3"/>
<path d="M1046.76 131.196C1044.05 131.196 1043.25 128.589 1042.55 126.309C1041.98 124.45 1041.43 122.681 1040.08 122.353C1038.56 121.988 1037.9 123.027 1037.02 124.814C1036.47 125.908 1035.98 126.929 1035.01 127.258C1034.51 127.422 1033.96 127.367 1033.38 127.075C1032.28 126.528 1031.54 125.361 1031.21 123.611C1030.41 119.417 1032.06 113.035 1033.17 111.814C1035.04 109.753 1037.44 109.425 1038.19 109.37C1040.3 107.802 1043.54 107 1046.76 107C1051.45 107 1057.31 107.547 1061.05 111.814C1062.64 113.619 1063.49 119.545 1062.7 123.337C1062.26 125.434 1061.4 126.802 1060.13 127.403C1059.57 127.677 1059.04 127.713 1058.54 127.549C1057.57 127.203 1057.06 126.091 1056.53 124.924C1055.65 123.009 1055.01 121.879 1053.47 122.243C1052.09 122.572 1051.56 124.358 1050.99 126.237C1050.28 128.57 1049.47 131.196 1046.76 131.196ZM1039.47 120.985C1039.75 120.985 1040.04 121.022 1040.37 121.095C1042.46 121.587 1043.14 123.793 1043.78 125.927C1044.55 128.406 1045.12 129.902 1046.76 129.902C1048.41 129.902 1048.98 128.388 1049.75 125.872C1050.41 123.72 1051.07 121.496 1053.16 121.003C1055.85 120.347 1056.91 122.681 1057.7 124.395C1058.1 125.27 1058.52 126.182 1058.98 126.346C1059.04 126.364 1059.2 126.437 1059.57 126.255C1060.67 125.726 1061.18 124.249 1061.42 123.082C1062.22 119.18 1061.16 113.911 1060.06 112.652C1056.67 108.787 1051.16 108.295 1046.75 108.295C1044.25 108.295 1040.96 108.878 1038.96 110.355C1038.89 110.464 1038.78 110.556 1038.65 110.61C1037.77 111.358 1037.2 112.324 1037.2 113.509C1037.2 117.12 1043.05 118.469 1046.73 118.469C1051.49 118.469 1055.72 115.406 1057.24 114.166C1053.34 111.431 1049.24 110.701 1046.8 110.938C1045.39 111.066 1043.72 111.54 1043.72 113.054C1043.72 113.582 1043.89 114.002 1044.22 114.312C1045.06 115.114 1046.69 115.041 1046.71 115.041C1047.08 115.023 1047.37 115.296 1047.39 115.643C1047.41 115.989 1047.13 116.299 1046.78 116.317C1046.69 116.317 1044.58 116.427 1043.32 115.242C1042.72 114.676 1042.42 113.947 1042.42 113.054C1042.42 111.139 1043.98 109.899 1046.67 109.644C1049.47 109.389 1054.29 110.264 1058.65 113.601L1059.26 114.056L1058.71 114.567C1058.49 114.786 1053.17 119.727 1046.71 119.727C1042.37 119.727 1035.9 118.068 1035.9 113.491C1035.9 112.561 1036.16 111.723 1036.62 110.993C1035.83 111.267 1034.9 111.777 1034.11 112.652C1033.28 113.564 1031.75 119.581 1032.46 123.356C1032.72 124.687 1033.21 125.544 1033.92 125.908C1034.31 126.109 1034.49 126.036 1034.57 126.018C1035.01 125.872 1035.43 125.033 1035.83 124.231C1036.54 122.827 1037.46 120.985 1039.47 120.985Z" fill="#FDF1E3"/>
</g>
<defs>
<clipPath id="clip0_754_106">
<rect width="150" height="1080" fill="white" transform="translate(1080) rotate(90)"/>
</clipPath>
</defs>
</svg>
