<svg width="1080" height="150" viewBox="0 0 1080 150" fill="none" xmlns="http://www.w3.org/2000/svg">
<g clip-path="url(#clip0_757_2)">
<rect width="150" height="1080" transform="translate(1080) rotate(90)" fill="#DD8964"/>
<path d="M121.503 94.446C9.13466 106.97 -331.702 47.2943 -395 45.3848C-110.788 -36.5323 647.944 -333.86 1026.06 -364.201C1404.18 -394.541 1609.07 -202.901 1691.87 -98.4491C1751.14 -23.6658 1740.14 25.4803 1561.32 36.136C1411.45 45.0664 1307.86 -10.9742 1186.08 -4.98039C1064.31 1.01338 1077.42 73.7469 913.571 79.1985C749.724 84.6502 525.265 19.2282 366.851 22.2777C208.438 25.3272 233.871 81.9219 121.503 94.446Z" fill="#A3BD9B"/>
<path d="M187.066 83.4013C74.6981 95.9255 -235.125 40.2806 -298.423 38.3711C-14.2113 -43.546 744.521 -340.874 1122.64 -371.214C1500.75 -401.555 1674.64 -213.945 1757.43 -109.494C1816.7 -34.7105 1805.7 14.4355 1626.88 25.0913C1477.01 34.0217 1373.42 -22.0189 1251.65 -16.0251C1129.87 -10.0313 1142.98 62.7022 979.134 68.1538C815.288 73.6055 590.828 8.18356 432.415 11.233C274.001 14.2825 299.434 70.8772 187.066 83.4013Z" stroke="#FDF1E3" stroke-opacity="0.2" stroke-width="6"/>
<path d="M320.04 75.08C316.2 75.08 312.44 75.08 308.6 75.08C307.96 75.08 307.32 75.08 306.68 75.08C306.04 75.08 305.56 75.4 305.24 75.88C305.08 76.04 305.16 76.36 305.4 76.44C305.96 76.76 306.52 76.84 307.08 76.84C307.96 77 308.84 77.24 309.64 77.56C309.96 77.72 310.28 78.12 310.28 78.52C310.28 79.16 310.36 79.8 310.36 80.44C310.36 82.76 310.36 85 310.44 87.32C310.44 87.8 310.44 88.28 310.52 88.76C310.68 90.12 310.68 91.48 310.68 92.84C310.68 93.32 310.68 93.72 310.6 94.12C310.36 95.32 310.36 96.52 310.36 97.72C310.36 104.12 310.36 110.6 310.36 117C310.36 119 310.28 121 310.28 123.08C310.28 123.72 310.28 124.36 310.12 125C310.04 125.72 309.96 126.44 309.8 127.16C309.72 127.4 309.64 127.64 309.4 127.8C309.16 128.12 308.84 128.36 308.44 128.52C307.8 128.68 307.24 128.92 306.6 129.08C305.8 129.24 305.08 129.56 304.28 129.8C304.2 129.8 304.12 129.8 304.04 129.88C303.96 129.88 303.88 129.96 303.88 130.04C303.64 130.12 303.56 130.44 303.56 130.68C303.64 130.84 303.88 131 304.12 131.08C304.84 131.16 305.56 131.08 306.28 131.08C312.52 131.08 318.76 131 325.08 131C325.32 131 325.56 131 325.8 130.92C326.28 130.92 326.76 130.76 327.16 130.44C327.24 130.36 327.32 130.2 327.32 130.04C327.24 129.88 327.24 129.72 327.08 129.64C326.44 129.4 325.8 129.24 325.16 129.16C324.84 129.08 324.52 129 324.28 128.84C323.72 128.6 323.24 128.36 322.76 128.12C322.6 128.04 322.44 127.88 322.36 127.8C322.12 127.64 322.04 127.4 321.96 127.24C321.88 126.92 321.88 126.52 321.88 126.2C321.8 123.4 321.8 120.52 321.88 117.72C321.88 114.68 321.96 111.72 321.96 108.68C321.96 108.36 322.04 108.04 322.04 107.72C322.04 107.56 322.28 107.24 322.44 107.16C323.48 106.84 324.52 106.76 325.56 106.84C325.8 106.92 326.04 107 326.2 107.16C326.36 107.32 326.6 107.56 326.68 107.72C327.4 108.76 328.04 109.72 328.68 110.76C329.64 112.28 330.68 113.8 331.48 115.32C331.56 115.48 331.64 115.64 331.72 115.8C332.68 117.4 333.8 118.92 334.76 120.44C335.4 121.4 336.12 122.28 336.76 123.24C337.4 124.28 337.96 125.4 338.52 126.44C338.84 126.92 339.16 127.4 339.4 127.88C339.56 128.2 339.48 128.52 339.16 128.76C338.92 128.84 338.68 129 338.52 129C338.28 129.08 338.04 129.08 337.8 129.16C337 129.24 336.2 129.4 335.4 129.64C335.32 129.72 335.32 129.8 335.24 129.88C335.08 130.2 335.16 130.68 335.48 130.92C335.72 131.08 335.96 131.16 336.2 131.16C337.08 131.16 337.96 131.16 338.84 131.16C340.68 131.16 342.6 131.08 344.44 131.08C348.44 131 352.44 131 356.36 131C356.52 131 356.68 130.92 356.84 130.92C357.32 130.92 357.64 130.6 357.8 130.2C357.8 130.04 357.88 129.88 357.8 129.8C357.64 129.56 357.56 129.32 357.32 129.24C356.68 129 356.12 128.76 355.48 128.68C354.76 128.6 354.2 128.36 353.56 128.2C352.84 128.04 352.2 127.64 351.72 127.08C351.48 126.68 351.16 126.28 350.84 125.88C350.36 125.16 349.96 124.36 349.48 123.64C349.08 123.08 348.76 122.52 348.36 121.96C347.88 121.16 347.32 120.36 346.92 119.48C346.6 118.84 346.2 118.2 345.8 117.56C345.48 117.16 345.16 116.68 344.84 116.2C343.96 114.84 343.16 113.4 342.2 112.12C341.16 110.6 340.12 109 339.08 107.4C338.68 106.76 338.28 106.04 337.8 105.4C337.72 105.24 337.64 105.08 337.64 104.92C337.56 104.76 337.64 104.6 337.8 104.44C338.44 103.96 339.32 103.4 340.2 102.84C340.6 102.68 341.08 102.44 341.48 102.2C342.52 101.48 343.48 100.84 344.52 100.12C345.16 99.64 345.8 99.16 346.36 98.6C346.6 98.36 346.84 98.12 347 97.88C347.64 96.92 348.36 95.96 348.84 95C349 94.6 349.16 94.28 349.32 93.88C349.8 92.44 349.8 92.28 349.88 91C349.88 89.8 349.8 88.6 349.8 87.32C349.8 86.52 349.56 85.72 349.24 85C349.08 84.6 348.92 84.28 348.68 83.88C348.28 83.24 347.8 82.52 347.4 81.88C347.24 81.64 347.08 81.48 346.92 81.24C346.28 80.52 345.64 79.8 344.84 79.24C344.36 78.92 343.96 78.52 343.48 78.2C343.16 77.96 342.84 77.72 342.52 77.48C341.32 76.76 340.12 76.12 338.76 75.88C337.8 75.48 336.84 75.4 335.88 75.4C335.48 75.32 335.08 75.4 334.68 75.32C333.4 75 332.04 75.08 330.76 75.08C327.16 75.08 323.64 75.08 320.04 75.08ZM322.52 104.2C322.28 104.04 322.04 103.88 322.04 103.64C321.96 103.32 321.96 103 321.96 102.68C321.96 97.56 321.96 92.44 321.88 87.32C321.88 86.28 321.96 85.16 321.96 84.12C322.04 82.68 322.12 81.24 322.12 79.72C322.28 79.4 322.36 79 322.52 78.6C322.6 78.28 322.84 78.04 323.16 77.96C325 77.48 325 77.48 326.76 77.48C327.16 77.48 327.56 77.48 327.96 77.48C328.68 77.48 329.4 77.48 330.12 77.8C331.64 77.96 332.84 78.76 334.04 79.64C334.12 79.64 334.2 79.72 334.2 79.8C334.68 80.36 335.16 80.92 335.56 81.56C335.8 81.88 335.96 82.28 336.04 82.6C336.36 83.64 336.6 84.68 336.68 85.72C336.76 86.52 336.76 87.32 336.92 88.12C337.08 88.6 337.08 89.08 337 89.56C336.76 90.92 336.68 92.2 336.6 93.48C336.52 93.8 336.44 94.12 336.36 94.44C336.28 94.84 336.2 95.24 336.04 95.56C335.8 96.2 335.64 96.84 335.32 97.4C334.84 98.28 334.28 99.24 333.56 100.04C332.52 101.24 331.24 102.28 329.8 103.08C329.24 103.48 328.52 103.72 327.8 103.72C327.24 103.8 326.76 103.8 326.28 103.88C325.96 103.88 325.64 103.88 325.32 103.96C324.84 104.12 324.36 104.2 323.88 104.2C323.4 104.2 322.92 104.2 322.52 104.2ZM383.35 131.08C384.15 131.08 384.95 131.08 385.75 131.08C391.19 131.08 396.63 131.08 402.07 131.08C402.79 131.08 403.43 131.08 404.07 131C404.55 131 405.03 130.76 405.43 130.52C405.67 130.28 405.83 129.96 405.91 129.64C405.99 129 405.99 128.36 406.07 127.72C406.15 127.32 406.15 126.92 406.23 126.52C406.39 125.88 406.47 125.24 406.47 124.6C406.55 123.56 406.55 122.52 406.71 121.48C407.03 120.2 407.03 118.84 406.95 117.56C406.95 117.16 406.47 116.84 406.07 117C405.75 117 405.51 117.24 405.35 117.56C405.27 117.8 405.19 118.04 405.19 118.28C405.03 118.92 404.95 119.56 404.71 120.12C404.55 120.76 404.31 121.4 403.99 121.96C403.75 122.52 403.43 123.08 403.19 123.72C402.95 124.2 402.63 124.68 402.31 125.16C401.99 125.56 401.67 125.88 401.27 126.2C400.95 126.44 400.63 126.68 400.23 126.84C399.75 127.16 399.27 127.4 398.71 127.56C397.43 127.88 396.23 128.2 394.87 128.28C393.75 128.28 392.63 128.28 391.51 128.52C391.11 128.6 390.63 128.6 390.23 128.6C387.27 128.6 384.23 128.6 381.27 128.6C381.03 128.6 380.79 128.6 380.55 128.6C380.39 128.52 379.99 128.28 379.99 128.12C379.91 127.96 379.83 127.8 379.83 127.64C379.83 126.68 379.75 125.72 379.75 124.76C379.75 121.32 379.75 117.88 379.75 114.52C379.75 112.84 379.75 111.24 379.99 109.64C380.07 109.24 380.07 108.84 380.07 108.44C380.15 107.32 380.15 106.12 380.23 105C380.23 104.76 380.23 104.52 380.31 104.28C380.31 104.12 380.63 103.8 380.79 103.8C381.03 103.72 381.43 103.64 381.75 103.64C384.31 103.72 386.95 103.72 389.51 103.72C390.55 103.72 391.43 103.96 392.31 104.44C392.47 104.6 392.71 104.68 392.95 104.84C393.03 104.84 393.03 104.92 393.11 105C393.43 105.16 393.67 105.4 393.75 105.72C394.15 106.68 394.47 107.72 394.71 108.68C394.87 109.24 395.03 109.8 395.27 110.36C395.35 110.44 395.43 110.6 395.51 110.76C395.67 111 395.83 111.08 396.15 111.08C396.39 111.08 396.71 110.76 396.79 110.44C396.79 110.2 396.79 109.96 396.79 109.72C396.79 109.08 396.71 108.44 396.55 107.8C396.39 107.16 396.31 106.52 396.31 105.88C396.23 104.68 396.23 103.48 396.31 102.2C396.39 101.72 396.31 101.24 396.47 100.76C396.71 99.24 396.71 97.72 396.87 96.2C396.95 95.56 396.87 95 396.87 94.44C396.87 94.28 396.87 94.12 396.79 93.96C396.71 93.88 396.55 93.72 396.47 93.64C396.39 93.56 395.91 93.72 395.83 93.8C395.67 94.04 395.51 94.2 395.43 94.44C395.19 95.16 395.03 95.88 394.95 96.6C394.79 97.32 394.55 97.96 394.31 98.68C394.15 99.24 393.75 99.64 393.27 99.96C392.39 100.52 391.51 100.84 390.55 100.84C390.15 100.84 389.75 100.92 389.35 100.92C386.63 100.92 383.99 100.92 381.27 100.92C381.19 100.92 381.11 100.92 381.03 100.92C380.71 100.84 380.39 100.52 380.39 100.28C380.39 99.56 380.39 98.76 380.39 98.04C380.39 97.4 380.31 96.76 380.39 96.12C380.55 95.32 380.55 94.52 380.55 93.72C380.55 91.96 380.55 90.28 380.55 88.6C380.55 87.24 380.63 85.96 380.39 84.68C380.31 84.44 380.31 84.2 380.31 83.96C380.31 82.36 380.23 80.68 380.23 79.08C380.15 78.84 380.23 78.6 380.23 78.36C380.23 78.12 380.55 77.72 380.87 77.64C381.19 77.56 381.51 77.56 381.83 77.56C384.87 77.56 387.99 77.56 391.03 77.56C392.07 77.56 393.03 77.56 393.99 77.56C394.31 77.56 394.63 77.56 394.95 77.64C395.67 77.88 396.39 77.88 397.11 78.04C397.35 78.12 397.59 78.2 397.75 78.36C397.91 78.44 398.07 78.52 398.15 78.6C399.51 79.8 400.63 81.24 401.59 82.76C401.99 83.4 402.39 84.12 402.79 84.84C402.87 85 402.95 85.16 402.95 85.32C403.19 86.04 403.51 86.68 403.59 87.4C403.59 87.64 403.67 87.88 403.75 88.12C403.75 88.28 403.83 88.44 403.99 88.52C404.07 88.6 404.23 88.68 404.39 88.68C404.55 88.76 404.95 88.44 404.95 88.28C404.95 88.12 405.03 87.96 405.03 87.8C405.03 86.6 405.03 85.4 404.87 84.2C404.79 83.4 404.71 82.52 404.71 81.72C404.71 80.52 404.71 79.32 404.71 78.12C404.63 77.32 404.63 76.6 404.47 75.88C404.47 75.64 404.07 75.32 403.83 75.24C403.43 75.16 403.03 75.16 402.63 75.16C394.63 75.08 386.71 75.08 378.71 75C378.15 75 377.59 75 377.03 75.08C375.99 75.16 374.87 75.16 373.83 75.16C373.27 75.16 372.71 75.24 372.15 75.32C370.55 75.64 368.95 75.56 367.27 75.32C366.07 75.16 364.87 75.16 363.67 75.24C363.43 75.24 363.11 75.56 363.11 75.88C363.11 76.04 363.19 76.2 363.27 76.36C363.59 76.68 363.91 76.92 364.31 76.92C365.19 77 366.07 77.32 366.95 77.48C367.35 77.56 367.67 77.8 367.99 78.12C368.23 78.28 368.39 78.6 368.39 78.92C368.47 79.4 368.47 79.88 368.47 80.36C368.47 83.8 368.47 87.24 368.47 90.6C368.55 92.2 368.55 93.72 368.63 95.24C368.63 95.72 368.63 96.2 368.71 96.68C368.87 97.48 368.87 98.36 368.87 99.16C368.87 101.24 368.87 103.4 368.95 105.48C369.03 106.52 368.95 107.56 368.87 108.6C368.63 110.2 368.63 111.72 368.55 113.24C368.55 114.28 368.55 115.4 368.47 116.44C368.47 116.92 368.47 117.4 368.39 117.88C368.07 118.92 368.15 119.96 368.15 121C368.15 122.2 368.15 123.32 368.15 124.44C368.15 125.24 368.07 126.04 367.99 126.84C367.91 127.48 367.59 127.96 367.03 128.2C366.71 128.44 366.31 128.6 365.91 128.76C365.35 129 364.71 129.08 364.07 129.16C363.51 129.24 362.95 129.48 362.47 129.8C362.31 129.96 362.23 130.2 362.23 130.44C362.23 130.68 362.47 130.92 362.63 131C362.95 131.16 363.27 131.16 363.59 131.16C367.99 131.16 372.39 131.24 376.79 131.24C378.87 131.24 381.03 131.32 383.11 131.08C383.19 131.08 383.27 131.08 383.35 131.08ZM430.141 115.72C430.141 114.84 430.141 113.88 430.221 113C430.301 110.68 430.381 108.28 430.461 105.96C430.461 105.16 430.621 104.36 430.701 103.56C430.701 103.48 430.781 103.4 430.781 103.32C430.941 103.24 431.021 103.08 431.181 103.08C432.381 102.92 433.661 102.92 434.861 103.08C435.741 103.08 436.621 103.16 437.501 103.16C438.621 103.16 439.821 103.16 440.941 103.16C441.261 103.16 441.581 103.24 441.901 103.24C442.141 103.32 442.381 103.32 442.621 103.48C443.181 103.8 443.661 104.28 443.821 104.92C444.221 106.04 444.701 107.16 444.941 108.36C445.101 109 445.261 109.64 445.501 110.2C445.581 110.44 445.741 110.68 445.901 110.84C446.141 111.16 446.701 111.08 446.941 110.76C447.101 110.52 447.181 110.36 447.181 110.04C447.181 109.8 447.181 109.56 447.101 109.32C446.941 108.68 446.861 107.88 446.781 107.16C446.621 104.68 446.701 102.12 446.861 99.64C446.941 99.32 446.941 99 447.021 98.68C447.341 97.16 447.341 95.64 447.181 94.04C447.181 93.96 447.021 93.8 446.941 93.72C446.781 93.56 446.381 93.56 446.221 93.72C446.221 93.72 446.141 93.8 446.061 93.88C445.741 94.36 445.501 94.84 445.421 95.4C445.421 96.44 445.101 97.32 444.781 98.28C444.701 98.52 444.541 98.84 444.381 99.16C444.141 99.48 443.821 99.72 443.421 99.8C443.261 99.88 443.101 99.88 442.941 99.88C442.621 99.88 442.301 99.88 441.981 99.88C439.181 99.88 436.461 99.88 433.661 99.88C432.861 99.88 432.061 99.88 431.261 99.8C431.101 99.8 430.781 99.48 430.781 99.32C430.781 99.08 430.701 98.84 430.701 98.6C430.701 97.32 430.701 96.12 430.781 94.92C430.861 91.16 430.861 87.48 430.701 83.72C430.621 82.84 430.621 81.96 430.461 81.08C430.381 80.2 430.381 79.24 430.461 78.36C430.461 77.88 430.941 77.56 431.421 77.48C431.501 77.48 431.581 77.48 431.661 77.48C435.421 77.48 439.181 77.48 442.861 77.4C443.581 77.4 444.221 77.48 444.861 77.48C445.181 77.48 445.501 77.56 445.821 77.64C446.141 77.8 446.381 77.88 446.701 77.96C447.821 78.28 448.781 78.92 449.581 79.72C449.981 80.2 450.461 80.68 450.861 81.24C451.901 82.68 452.861 84.2 453.501 85.88C453.581 86.2 453.661 86.52 453.741 86.84C453.821 87.4 454.061 87.88 454.301 88.44C454.381 88.52 454.541 88.6 454.701 88.6C454.861 88.68 455.021 88.6 455.101 88.44C455.181 88.28 455.261 88.12 455.261 87.96C455.261 87.24 455.261 86.52 455.261 85.8C455.181 84.52 455.101 83.16 455.101 81.88C455.101 80.6 455.101 79.32 455.021 77.96C455.021 77.64 455.021 77.32 455.021 77C454.941 76.52 454.861 76.04 454.621 75.64C454.541 75.4 454.381 75.24 454.141 75.16C453.581 75 452.941 75.08 452.381 75.08C443.421 75.08 434.381 75.08 425.341 75.08C425.021 75.08 424.701 75.08 424.381 75.08C423.901 75.08 423.421 75.16 422.941 75.24C421.981 75.48 421.021 75.56 420.061 75.48C419.101 75.48 418.061 75.48 417.101 75.24C416.221 75.08 415.341 75.08 414.461 75.08C414.301 75.08 414.141 75.16 413.981 75.16C413.581 75.24 413.341 75.8 413.581 76.12C413.741 76.52 414.061 76.76 414.461 76.84C414.941 77 415.421 77 415.901 77.16C416.381 77.24 416.861 77.4 417.341 77.56C417.741 77.64 418.061 77.88 418.301 78.2C418.461 78.36 418.621 78.6 418.621 78.84C418.701 79.32 418.701 79.8 418.701 80.28C418.701 83.4 418.701 86.6 418.701 89.8C418.701 90.28 418.701 90.76 418.781 91.24C419.021 92.36 419.021 93.48 419.021 94.6C419.101 98.44 419.181 102.28 419.181 106.04C419.181 106.6 419.261 107.08 419.181 107.56C419.021 108.68 419.021 109.8 419.021 110.92C419.021 111.88 419.021 112.92 418.781 113.88C418.701 114.12 418.701 114.52 418.701 114.84C418.621 118.04 418.461 121.32 418.541 124.52C418.541 124.84 418.541 125.08 418.541 125.32C418.541 126.04 418.381 126.76 418.061 127.4C417.981 127.64 417.821 127.88 417.581 127.96C417.181 128.2 416.781 128.44 416.301 128.68C415.581 128.76 414.941 129.08 414.221 129.16C413.981 129.24 413.741 129.24 413.501 129.32C413.101 129.48 412.781 129.72 412.621 130.12C412.541 130.28 412.541 130.44 412.621 130.6C412.781 130.92 413.021 131.08 413.341 131.16C413.741 131.24 414.141 131.24 414.541 131.24C417.741 131.24 420.861 131.24 424.061 131.24C424.941 131.24 425.821 131.24 426.701 131.4C427.021 131.48 427.341 131.48 427.661 131.48C429.341 131.48 430.941 131.56 432.541 131.56C432.781 131.56 433.101 131.56 433.261 131.48C433.821 131.32 434.381 131.24 434.941 130.92C435.021 130.84 435.101 130.76 435.181 130.52C435.181 130.28 435.101 130.12 434.941 129.88C434.781 129.72 434.541 129.56 434.381 129.48C433.741 129.24 433.181 129 432.541 128.76C431.741 128.44 431.181 127.88 430.621 127.32C430.541 127.16 430.461 127 430.381 126.92C430.301 126.76 430.301 126.6 430.301 126.44C430.141 125.56 430.141 124.6 430.141 123.72C430.141 121.08 430.141 118.36 430.141 115.72ZM479.991 131.08C480.791 131.08 481.591 131.08 482.391 131.08C487.831 131.08 493.271 131.08 498.711 131.08C499.431 131.08 500.071 131.08 500.711 131C501.191 131 501.671 130.76 502.071 130.52C502.311 130.28 502.471 129.96 502.551 129.64C502.631 129 502.631 128.36 502.711 127.72C502.791 127.32 502.791 126.92 502.871 126.52C503.031 125.88 503.111 125.24 503.111 124.6C503.191 123.56 503.191 122.52 503.351 121.48C503.671 120.2 503.671 118.84 503.591 117.56C503.591 117.16 503.111 116.84 502.711 117C502.391 117 502.151 117.24 501.991 117.56C501.911 117.8 501.831 118.04 501.831 118.28C501.671 118.92 501.591 119.56 501.351 120.12C501.191 120.76 500.951 121.4 500.631 121.96C500.391 122.52 500.071 123.08 499.831 123.72C499.591 124.2 499.271 124.68 498.951 125.16C498.631 125.56 498.311 125.88 497.911 126.2C497.591 126.44 497.271 126.68 496.871 126.84C496.391 127.16 495.911 127.4 495.351 127.56C494.071 127.88 492.871 128.2 491.511 128.28C490.391 128.28 489.271 128.28 488.151 128.52C487.751 128.6 487.271 128.6 486.871 128.6C483.911 128.6 480.871 128.6 477.911 128.6C477.671 128.6 477.431 128.6 477.191 128.6C477.031 128.52 476.631 128.28 476.631 128.12C476.551 127.96 476.471 127.8 476.471 127.64C476.471 126.68 476.391 125.72 476.391 124.76C476.391 121.32 476.391 117.88 476.391 114.52C476.391 112.84 476.391 111.24 476.631 109.64C476.711 109.24 476.711 108.84 476.711 108.44C476.791 107.32 476.791 106.12 476.871 105C476.871 104.76 476.871 104.52 476.951 104.28C476.951 104.12 477.271 103.8 477.431 103.8C477.671 103.72 478.071 103.64 478.391 103.64C480.951 103.72 483.591 103.72 486.151 103.72C487.191 103.72 488.071 103.96 488.951 104.44C489.111 104.6 489.351 104.68 489.591 104.84C489.671 104.84 489.671 104.92 489.751 105C490.071 105.16 490.311 105.4 490.391 105.72C490.791 106.68 491.111 107.72 491.351 108.68C491.511 109.24 491.671 109.8 491.911 110.36C491.991 110.44 492.071 110.6 492.151 110.76C492.311 111 492.471 111.08 492.791 111.08C493.031 111.08 493.351 110.76 493.431 110.44C493.431 110.2 493.431 109.96 493.431 109.72C493.431 109.08 493.351 108.44 493.191 107.8C493.031 107.16 492.951 106.52 492.951 105.88C492.871 104.68 492.871 103.48 492.951 102.2C493.031 101.72 492.951 101.24 493.111 100.76C493.351 99.24 493.351 97.72 493.511 96.2C493.591 95.56 493.511 95 493.511 94.44C493.511 94.28 493.511 94.12 493.431 93.96C493.351 93.88 493.191 93.72 493.111 93.64C493.031 93.56 492.551 93.72 492.471 93.8C492.311 94.04 492.151 94.2 492.071 94.44C491.831 95.16 491.671 95.88 491.591 96.6C491.431 97.32 491.191 97.96 490.951 98.68C490.791 99.24 490.391 99.64 489.911 99.96C489.031 100.52 488.151 100.84 487.191 100.84C486.791 100.84 486.391 100.92 485.991 100.92C483.271 100.92 480.631 100.92 477.911 100.92C477.831 100.92 477.751 100.92 477.671 100.92C477.351 100.84 477.031 100.52 477.031 100.28C477.031 99.56 477.031 98.76 477.031 98.04C477.031 97.4 476.951 96.76 477.031 96.12C477.191 95.32 477.191 94.52 477.191 93.72C477.191 91.96 477.191 90.28 477.191 88.6C477.191 87.24 477.271 85.96 477.031 84.68C476.951 84.44 476.951 84.2 476.951 83.96C476.951 82.36 476.871 80.68 476.871 79.08C476.791 78.84 476.871 78.6 476.871 78.36C476.871 78.12 477.191 77.72 477.511 77.64C477.831 77.56 478.151 77.56 478.471 77.56C481.511 77.56 484.631 77.56 487.671 77.56C488.711 77.56 489.671 77.56 490.631 77.56C490.951 77.56 491.271 77.56 491.591 77.64C492.311 77.88 493.031 77.88 493.751 78.04C493.991 78.12 494.231 78.2 494.391 78.36C494.551 78.44 494.711 78.52 494.791 78.6C496.151 79.8 497.271 81.24 498.231 82.76C498.631 83.4 499.031 84.12 499.431 84.84C499.511 85 499.591 85.16 499.591 85.32C499.831 86.04 500.151 86.68 500.231 87.4C500.231 87.64 500.311 87.88 500.391 88.12C500.391 88.28 500.471 88.44 500.631 88.52C500.711 88.6 500.871 88.68 501.031 88.68C501.191 88.76 501.591 88.44 501.591 88.28C501.591 88.12 501.671 87.96 501.671 87.8C501.671 86.6 501.671 85.4 501.511 84.2C501.431 83.4 501.351 82.52 501.351 81.72C501.351 80.52 501.351 79.32 501.351 78.12C501.271 77.32 501.271 76.6 501.111 75.88C501.111 75.64 500.711 75.32 500.471 75.24C500.071 75.16 499.671 75.16 499.271 75.16C491.271 75.08 483.351 75.08 475.351 75C474.791 75 474.231 75 473.671 75.08C472.631 75.16 471.511 75.16 470.471 75.16C469.911 75.16 469.351 75.24 468.791 75.32C467.191 75.64 465.591 75.56 463.911 75.32C462.711 75.16 461.511 75.16 460.311 75.24C460.071 75.24 459.751 75.56 459.751 75.88C459.751 76.04 459.831 76.2 459.911 76.36C460.231 76.68 460.551 76.92 460.951 76.92C461.831 77 462.711 77.32 463.591 77.48C463.991 77.56 464.311 77.8 464.631 78.12C464.871 78.28 465.031 78.6 465.031 78.92C465.111 79.4 465.111 79.88 465.111 80.36C465.111 83.8 465.111 87.24 465.111 90.6C465.191 92.2 465.191 93.72 465.271 95.24C465.271 95.72 465.271 96.2 465.351 96.68C465.511 97.48 465.511 98.36 465.511 99.16C465.511 101.24 465.511 103.4 465.591 105.48C465.671 106.52 465.591 107.56 465.511 108.6C465.271 110.2 465.271 111.72 465.191 113.24C465.191 114.28 465.191 115.4 465.111 116.44C465.111 116.92 465.111 117.4 465.031 117.88C464.711 118.92 464.791 119.96 464.791 121C464.791 122.2 464.791 123.32 464.791 124.44C464.791 125.24 464.711 126.04 464.631 126.84C464.551 127.48 464.231 127.96 463.671 128.2C463.351 128.44 462.951 128.6 462.551 128.76C461.991 129 461.351 129.08 460.711 129.16C460.151 129.24 459.591 129.48 459.111 129.8C458.951 129.96 458.871 130.2 458.871 130.44C458.871 130.68 459.111 130.92 459.271 131C459.591 131.16 459.911 131.16 460.231 131.16C464.631 131.16 469.031 131.24 473.431 131.24C475.511 131.24 477.671 131.32 479.751 131.08C479.831 131.08 479.911 131.08 479.991 131.08ZM525.821 75.08C521.981 75.08 518.221 75.08 514.381 75.08C513.741 75.08 513.101 75.08 512.461 75.08C511.821 75.08 511.341 75.4 511.021 75.88C510.861 76.04 510.941 76.36 511.181 76.44C511.741 76.76 512.301 76.84 512.861 76.84C513.741 77 514.621 77.24 515.421 77.56C515.741 77.72 516.061 78.12 516.061 78.52C516.061 79.16 516.141 79.8 516.141 80.44C516.141 82.76 516.141 85 516.221 87.32C516.221 87.8 516.221 88.28 516.301 88.76C516.461 90.12 516.461 91.48 516.461 92.84C516.461 93.32 516.461 93.72 516.381 94.12C516.141 95.32 516.141 96.52 516.141 97.72C516.141 104.12 516.141 110.6 516.141 117C516.141 119 516.061 121 516.061 123.08C516.061 123.72 516.061 124.36 515.901 125C515.821 125.72 515.741 126.44 515.581 127.16C515.501 127.4 515.421 127.64 515.181 127.8C514.941 128.12 514.621 128.36 514.221 128.52C513.581 128.68 513.021 128.92 512.381 129.08C511.581 129.24 510.861 129.56 510.061 129.8C509.981 129.8 509.901 129.8 509.821 129.88C509.741 129.88 509.661 129.96 509.661 130.04C509.421 130.12 509.341 130.44 509.341 130.68C509.421 130.84 509.661 131 509.901 131.08C510.621 131.16 511.341 131.08 512.061 131.08C518.301 131.08 524.541 131 530.861 131C531.101 131 531.341 131 531.581 130.92C532.061 130.92 532.541 130.76 532.941 130.44C533.021 130.36 533.101 130.2 533.101 130.04C533.021 129.88 533.021 129.72 532.861 129.64C532.221 129.4 531.581 129.24 530.941 129.16C530.621 129.08 530.301 129 530.061 128.84C529.501 128.6 529.021 128.36 528.541 128.12C528.381 128.04 528.221 127.88 528.141 127.8C527.901 127.64 527.821 127.4 527.741 127.24C527.661 126.92 527.661 126.52 527.661 126.2C527.581 123.4 527.581 120.52 527.661 117.72C527.661 114.68 527.741 111.72 527.741 108.68C527.741 108.36 527.821 108.04 527.821 107.72C527.821 107.56 528.061 107.24 528.221 107.16C529.261 106.84 530.301 106.76 531.341 106.84C531.581 106.92 531.821 107 531.981 107.16C532.141 107.32 532.381 107.56 532.461 107.72C533.181 108.76 533.821 109.72 534.461 110.76C535.421 112.28 536.461 113.8 537.261 115.32C537.341 115.48 537.421 115.64 537.501 115.8C538.461 117.4 539.581 118.92 540.541 120.44C541.181 121.4 541.901 122.28 542.541 123.24C543.181 124.28 543.741 125.4 544.301 126.44C544.621 126.92 544.941 127.4 545.181 127.88C545.341 128.2 545.261 128.52 544.941 128.76C544.701 128.84 544.461 129 544.301 129C544.061 129.08 543.821 129.08 543.581 129.16C542.781 129.24 541.981 129.4 541.181 129.64C541.101 129.72 541.101 129.8 541.021 129.88C540.861 130.2 540.941 130.68 541.261 130.92C541.501 131.08 541.741 131.16 541.981 131.16C542.861 131.16 543.741 131.16 544.621 131.16C546.461 131.16 548.381 131.08 550.221 131.08C554.221 131 558.221 131 562.141 131C562.301 131 562.461 130.92 562.621 130.92C563.101 130.92 563.421 130.6 563.581 130.2C563.581 130.04 563.661 129.88 563.581 129.8C563.421 129.56 563.341 129.32 563.101 129.24C562.461 129 561.901 128.76 561.261 128.68C560.541 128.6 559.981 128.36 559.341 128.2C558.621 128.04 557.981 127.64 557.501 127.08C557.261 126.68 556.941 126.28 556.621 125.88C556.141 125.16 555.741 124.36 555.261 123.64C554.861 123.08 554.541 122.52 554.141 121.96C553.661 121.16 553.101 120.36 552.701 119.48C552.381 118.84 551.981 118.2 551.581 117.56C551.261 117.16 550.941 116.68 550.621 116.2C549.741 114.84 548.941 113.4 547.981 112.12C546.941 110.6 545.901 109 544.861 107.4C544.461 106.76 544.061 106.04 543.581 105.4C543.501 105.24 543.421 105.08 543.421 104.92C543.341 104.76 543.421 104.6 543.581 104.44C544.221 103.96 545.101 103.4 545.981 102.84C546.381 102.68 546.861 102.44 547.261 102.2C548.301 101.48 549.261 100.84 550.301 100.12C550.941 99.64 551.581 99.16 552.141 98.6C552.381 98.36 552.621 98.12 552.781 97.88C553.421 96.92 554.141 95.96 554.621 95C554.781 94.6 554.941 94.28 555.101 93.88C555.581 92.44 555.581 92.28 555.661 91C555.661 89.8 555.581 88.6 555.581 87.32C555.581 86.52 555.341 85.72 555.021 85C554.861 84.6 554.701 84.28 554.461 83.88C554.061 83.24 553.581 82.52 553.181 81.88C553.021 81.64 552.861 81.48 552.701 81.24C552.061 80.52 551.421 79.8 550.621 79.24C550.141 78.92 549.741 78.52 549.261 78.2C548.941 77.96 548.621 77.72 548.301 77.48C547.101 76.76 545.901 76.12 544.541 75.88C543.581 75.48 542.621 75.4 541.661 75.4C541.261 75.32 540.861 75.4 540.461 75.32C539.181 75 537.821 75.08 536.541 75.08C532.941 75.08 529.421 75.08 525.821 75.08ZM528.301 104.2C528.061 104.04 527.821 103.88 527.821 103.64C527.741 103.32 527.741 103 527.741 102.68C527.741 97.56 527.741 92.44 527.661 87.32C527.661 86.28 527.741 85.16 527.741 84.12C527.821 82.68 527.901 81.24 527.901 79.72C528.061 79.4 528.141 79 528.301 78.6C528.381 78.28 528.621 78.04 528.941 77.96C530.781 77.48 530.781 77.48 532.541 77.48C532.941 77.48 533.341 77.48 533.741 77.48C534.461 77.48 535.181 77.48 535.901 77.8C537.421 77.96 538.621 78.76 539.821 79.64C539.901 79.64 539.981 79.72 539.981 79.8C540.461 80.36 540.941 80.92 541.341 81.56C541.581 81.88 541.741 82.28 541.821 82.6C542.141 83.64 542.381 84.68 542.461 85.72C542.541 86.52 542.541 87.32 542.701 88.12C542.861 88.6 542.861 89.08 542.781 89.56C542.541 90.92 542.461 92.2 542.381 93.48C542.301 93.8 542.221 94.12 542.141 94.44C542.061 94.84 541.981 95.24 541.821 95.56C541.581 96.2 541.421 96.84 541.101 97.4C540.621 98.28 540.061 99.24 539.341 100.04C538.301 101.24 537.021 102.28 535.581 103.08C535.021 103.48 534.301 103.72 533.581 103.72C533.021 103.8 532.541 103.8 532.061 103.88C531.741 103.88 531.421 103.88 531.101 103.96C530.621 104.12 530.141 104.2 529.661 104.2C529.181 104.2 528.701 104.2 528.301 104.2ZM584.571 75.08C580.731 75.08 576.971 75.08 573.131 75.08C572.491 75.08 571.851 75.08 571.211 75.08C570.571 75.08 570.091 75.4 569.771 75.88C569.611 76.04 569.691 76.36 569.931 76.44C570.491 76.76 571.051 76.84 571.611 76.84C572.491 77 573.371 77.24 574.171 77.56C574.491 77.72 574.811 78.12 574.811 78.52C574.811 79.16 574.891 79.8 574.891 80.44C574.891 82.76 574.891 85 574.971 87.32C574.971 87.8 574.971 88.28 575.051 88.76C575.211 90.12 575.211 91.48 575.211 92.84C575.211 93.32 575.211 93.72 575.131 94.12C574.891 95.32 574.891 96.52 574.891 97.72C574.891 104.12 574.891 110.6 574.891 117C574.891 119 574.811 121 574.811 123.08C574.811 123.72 574.811 124.36 574.651 125C574.571 125.72 574.491 126.44 574.331 127.16C574.251 127.4 574.171 127.64 573.931 127.8C573.691 128.12 573.371 128.36 572.971 128.52C572.331 128.68 571.771 128.92 571.131 129.08C570.331 129.24 569.611 129.56 568.811 129.8C568.731 129.8 568.651 129.8 568.571 129.88C568.491 129.88 568.411 129.96 568.411 130.04C568.171 130.12 568.091 130.44 568.091 130.68C568.171 130.84 568.411 131 568.651 131.08C569.371 131.16 570.091 131.08 570.811 131.08C577.051 131.08 583.291 131 589.611 131C589.851 131 590.091 131 590.331 130.92C590.811 130.92 591.291 130.76 591.691 130.44C591.771 130.36 591.851 130.2 591.851 130.04C591.771 129.88 591.771 129.72 591.611 129.64C590.971 129.4 590.331 129.24 589.691 129.16C589.371 129.08 589.051 129 588.811 128.84C588.251 128.6 587.771 128.36 587.291 128.12C587.131 128.04 586.971 127.88 586.891 127.8C586.651 127.64 586.571 127.4 586.491 127.24C586.411 126.92 586.411 126.52 586.411 126.2C586.331 123.4 586.331 120.52 586.411 117.72C586.411 114.68 586.491 111.72 586.491 108.68C586.491 108.36 586.571 108.04 586.571 107.72C586.571 107.56 586.811 107.24 586.971 107.16C588.011 106.84 589.051 106.76 590.091 106.84C590.331 106.92 590.571 107 590.731 107.16C590.891 107.32 591.131 107.56 591.211 107.72C591.931 108.76 592.571 109.72 593.211 110.76C594.171 112.28 595.211 113.8 596.011 115.32C596.091 115.48 596.171 115.64 596.251 115.8C597.211 117.4 598.331 118.92 599.291 120.44C599.931 121.4 600.651 122.28 601.291 123.24C601.931 124.28 602.491 125.4 603.051 126.44C603.371 126.92 603.691 127.4 603.931 127.88C604.091 128.2 604.011 128.52 603.691 128.76C603.451 128.84 603.211 129 603.051 129C602.811 129.08 602.571 129.08 602.331 129.16C601.531 129.24 600.731 129.4 599.931 129.64C599.851 129.72 599.851 129.8 599.771 129.88C599.611 130.2 599.691 130.68 600.011 130.92C600.251 131.08 600.491 131.16 600.731 131.16C601.611 131.16 602.491 131.16 603.371 131.16C605.211 131.16 607.131 131.08 608.971 131.08C612.971 131 616.971 131 620.891 131C621.051 131 621.211 130.92 621.371 130.92C621.851 130.92 622.171 130.6 622.331 130.2C622.331 130.04 622.411 129.88 622.331 129.8C622.171 129.56 622.091 129.32 621.851 129.24C621.211 129 620.651 128.76 620.011 128.68C619.291 128.6 618.731 128.36 618.091 128.2C617.371 128.04 616.731 127.64 616.251 127.08C616.011 126.68 615.691 126.28 615.371 125.88C614.891 125.16 614.491 124.36 614.011 123.64C613.611 123.08 613.291 122.52 612.891 121.96C612.411 121.16 611.851 120.36 611.451 119.48C611.131 118.84 610.731 118.2 610.331 117.56C610.011 117.16 609.691 116.68 609.371 116.2C608.491 114.84 607.691 113.4 606.731 112.12C605.691 110.6 604.651 109 603.611 107.4C603.211 106.76 602.811 106.04 602.331 105.4C602.251 105.24 602.171 105.08 602.171 104.92C602.091 104.76 602.171 104.6 602.331 104.44C602.971 103.96 603.851 103.4 604.731 102.84C605.131 102.68 605.611 102.44 606.011 102.2C607.051 101.48 608.011 100.84 609.051 100.12C609.691 99.64 610.331 99.16 610.891 98.6C611.131 98.36 611.371 98.12 611.531 97.88C612.171 96.92 612.891 95.96 613.371 95C613.531 94.6 613.691 94.28 613.851 93.88C614.331 92.44 614.331 92.28 614.411 91C614.411 89.8 614.331 88.6 614.331 87.32C614.331 86.52 614.091 85.72 613.771 85C613.611 84.6 613.451 84.28 613.211 83.88C612.811 83.24 612.331 82.52 611.931 81.88C611.771 81.64 611.611 81.48 611.451 81.24C610.811 80.52 610.171 79.8 609.371 79.24C608.891 78.92 608.491 78.52 608.011 78.2C607.691 77.96 607.371 77.72 607.051 77.48C605.851 76.76 604.651 76.12 603.291 75.88C602.331 75.48 601.371 75.4 600.411 75.4C600.011 75.32 599.611 75.4 599.211 75.32C597.931 75 596.571 75.08 595.291 75.08C591.691 75.08 588.171 75.08 584.571 75.08ZM587.051 104.2C586.811 104.04 586.571 103.88 586.571 103.64C586.491 103.32 586.491 103 586.491 102.68C586.491 97.56 586.491 92.44 586.411 87.32C586.411 86.28 586.491 85.16 586.491 84.12C586.571 82.68 586.651 81.24 586.651 79.72C586.811 79.4 586.891 79 587.051 78.6C587.131 78.28 587.371 78.04 587.691 77.96C589.531 77.48 589.531 77.48 591.291 77.48C591.691 77.48 592.091 77.48 592.491 77.48C593.211 77.48 593.931 77.48 594.651 77.8C596.171 77.96 597.371 78.76 598.571 79.64C598.651 79.64 598.731 79.72 598.731 79.8C599.211 80.36 599.691 80.92 600.091 81.56C600.331 81.88 600.491 82.28 600.571 82.6C600.891 83.64 601.131 84.68 601.211 85.72C601.291 86.52 601.291 87.32 601.451 88.12C601.611 88.6 601.611 89.08 601.531 89.56C601.291 90.92 601.211 92.2 601.131 93.48C601.051 93.8 600.971 94.12 600.891 94.44C600.811 94.84 600.731 95.24 600.571 95.56C600.331 96.2 600.171 96.84 599.851 97.4C599.371 98.28 598.811 99.24 598.091 100.04C597.051 101.24 595.771 102.28 594.331 103.08C593.771 103.48 593.051 103.72 592.331 103.72C591.771 103.8 591.291 103.8 590.811 103.88C590.491 103.88 590.171 103.88 589.851 103.96C589.371 104.12 588.891 104.2 588.411 104.2C587.931 104.2 587.451 104.2 587.051 104.2ZM632.201 128.52C630.921 129 629.561 129.24 628.201 129.56C627.801 129.72 627.241 129.64 626.761 129.72C626.361 129.8 626.041 129.96 625.721 130.28C625.561 130.36 625.481 130.52 625.561 130.68C625.641 130.84 625.721 130.92 625.881 131C626.041 131 626.201 131.08 626.361 131.08C627.001 131.08 627.721 131.08 628.361 131.08C634.841 131.08 641.321 131.08 647.801 131.08C648.361 131.08 649.001 131 649.561 131C649.721 131 649.801 130.92 649.961 130.92C650.281 130.84 650.441 130.36 650.281 130.12C650.121 129.88 649.961 129.72 649.721 129.72C648.521 129.56 647.401 129.64 646.281 129.32C645.961 129.24 645.641 129.32 645.321 129.24C644.681 129.24 644.041 129.24 643.401 129.24C643.001 129.16 642.601 129.16 642.201 129C641.561 128.76 640.921 128.76 640.361 128.44C640.121 128.36 639.881 128.2 639.721 128.12C639.081 127.64 638.681 127.08 638.681 126.28C638.681 125.72 638.681 125.16 638.921 124.6C639.161 123.72 639.401 122.84 639.561 121.96C639.721 121.24 639.961 120.6 640.121 119.88C640.281 119.32 640.521 118.84 640.681 118.28C640.841 117.64 641.001 117 641.321 116.44C641.481 115.88 641.481 115.32 641.721 114.76C641.801 114.6 641.881 114.52 642.041 114.44C642.281 114.28 642.441 114.2 642.681 114.2C643.801 114.04 644.841 114.04 645.881 114.04C647.081 114.04 648.281 113.96 649.481 113.8C649.961 113.64 650.521 113.64 651.001 113.64C654.201 113.56 657.481 113.4 660.681 113.4C661.401 113.4 662.201 113.4 662.921 113.24C663.081 113.24 663.241 113.24 663.401 113.24C663.801 113.24 664.201 113.4 664.441 113.72C664.841 114.28 665.161 114.84 665.321 115.48C665.881 117.16 666.601 118.76 667.161 120.52C667.241 120.76 667.321 121.08 667.401 121.4C667.561 122.28 667.801 123.16 668.121 124.04C668.521 125.08 668.761 126.2 669.241 127.24C669.321 127.48 669.241 127.72 669.161 127.88C669.001 128.12 668.921 128.36 668.681 128.52C668.281 128.76 667.881 129.08 667.401 129.16C666.441 129.24 665.481 129.56 664.521 129.64C664.361 129.64 664.201 129.72 664.041 129.72C663.481 129.88 663.401 130.6 663.641 130.92C663.881 131.24 664.121 131.32 664.441 131.48C665.721 131.56 667.081 131.56 668.361 131.4C669.801 131.24 671.241 131.24 672.681 131.16C676.681 131.16 680.681 131.16 684.681 131.08C684.921 131.08 685.161 131.08 685.401 131.08C685.881 131.08 686.281 130.68 686.441 130.2C686.601 129.88 686.361 129.32 685.961 129.24C685.401 129.08 684.761 128.76 684.121 128.76C683.561 128.68 683.001 128.44 682.521 128.28C681.801 128.04 681.401 127.56 681.081 126.92C681.001 126.76 680.921 126.52 680.841 126.28C679.961 124.12 679.081 121.88 678.441 119.64C678.201 118.76 677.881 117.96 677.481 117.16C677.321 116.76 677.161 116.36 677.081 116.04C676.361 114.28 675.641 112.52 674.841 110.84C674.441 110.12 674.121 109.4 673.801 108.68C673.481 107.8 673.081 107 672.841 106.2C672.601 105.4 672.201 104.68 671.881 103.96C671.881 103.88 671.881 103.8 671.801 103.72C671.481 102.6 671.161 101.56 670.841 100.44C670.121 98.12 669.401 95.8 668.361 93.56C667.881 92.44 667.401 91.32 667.001 90.2C666.921 89.8 666.761 89.4 666.601 89.08C665.961 87.24 665.161 85.4 664.601 83.56C664.361 82.76 664.041 82.04 663.721 81.32C663.321 80.52 663.081 79.64 662.601 78.84C662.201 78.28 662.041 77.48 661.721 76.92C661.241 76.12 660.601 75.64 659.801 75.48C659.561 75.48 659.321 75.48 659.081 75.48C657.881 75.4 656.761 75.4 655.641 75.24C655.241 75.16 654.841 75.16 654.441 75.16C653.001 75.16 651.481 75.08 650.041 75.08C649.481 75.08 648.921 75.08 648.361 75.24C647.961 75.4 647.561 75.4 647.161 75.4C646.201 75.48 645.241 75.56 644.201 75.56C643.961 75.64 643.721 75.64 643.481 75.72C643.401 75.72 643.241 75.88 643.161 75.96C643.001 76.12 642.921 76.52 643.081 76.68C643.161 76.76 643.321 76.92 643.401 76.92C643.881 77 644.441 77 644.921 77C645.641 77 646.361 77 647.081 77C647.561 77.08 647.961 77.48 648.041 77.96C648.041 78.28 648.041 78.52 648.041 78.76C648.041 79.4 647.881 80.04 647.801 80.68C647.561 81.48 647.401 82.2 647.161 83C646.921 83.72 646.841 84.44 646.521 85.08C646.361 85.8 646.201 86.52 646.041 87.24C645.801 88.28 645.481 89.24 645.161 90.28C644.681 91.64 644.201 93 643.801 94.44C643.161 96.76 642.521 99.08 641.721 101.4C641.721 101.56 641.641 101.72 641.641 101.88C641.561 102.84 641.161 103.64 640.921 104.52C640.601 105.56 640.281 106.68 639.961 107.72C639.641 108.76 639.321 109.72 639.081 110.76C639.081 111 639.001 111.24 638.921 111.48C638.681 112.04 638.521 112.52 638.361 113.08C637.081 116.84 635.881 120.68 634.601 124.44C634.361 125.16 634.121 125.96 633.801 126.76C633.721 127.08 633.481 127.4 633.161 127.72C632.921 128.04 632.601 128.28 632.201 128.52ZM650.841 111.24C648.361 111.24 646.201 111.24 644.041 111.24C643.801 111.24 643.561 111.24 643.321 111.08C643.161 111 643.001 110.92 643.081 110.76C643.081 110.52 643.081 110.2 643.161 110.04C644.041 108.2 644.521 106.2 645.001 104.28C645.401 102.6 645.881 100.92 646.361 99.32C647.081 97.24 647.721 95.16 648.521 93.16C648.921 92.36 649.001 91.48 649.321 90.6C649.481 90.04 649.641 89.48 649.801 89C649.881 88.6 650.041 88.2 650.201 87.88C650.521 87.24 650.681 86.68 650.841 86.04C651.081 85.16 651.241 84.28 651.561 83.4C651.561 83.32 651.721 83.16 651.881 83.08C651.961 83 652.121 83 652.281 83.24C652.361 83.4 652.521 83.64 652.601 83.88C652.841 84.44 653.081 85 653.241 85.64C653.481 86.36 653.641 87.08 653.881 87.8C654.121 88.68 654.441 89.64 654.761 90.52C655.161 91.48 655.641 92.44 656.121 93.4C656.361 93.96 656.681 94.6 656.921 95.16C657.081 95.56 657.321 95.88 657.481 96.28C657.881 97.64 658.601 98.92 659.241 100.28C659.641 101.32 660.121 102.28 660.601 103.4C660.761 103.8 660.921 104.28 661.081 104.76C661.481 106.28 662.121 107.8 662.761 109.24C662.921 109.56 663.081 109.8 663.241 110.12C663.321 110.36 663.161 110.6 662.921 110.68C662.441 110.68 661.961 110.68 661.481 110.68C660.441 110.68 659.401 110.76 658.361 110.92C658.041 111 657.721 111 657.401 111C655.081 111.08 652.841 111.24 650.841 111.24ZM696.997 105.64C696.997 105.64 696.997 105.64 696.917 105.64C696.917 109.8 696.917 114.04 696.917 118.28C696.837 119.88 696.837 121.56 696.837 123.16C696.837 124.44 696.597 125.72 696.357 127C696.277 127.24 696.117 127.48 695.957 127.64C695.717 127.8 695.557 127.96 695.317 128.04C694.757 128.28 694.197 128.6 693.477 128.68C692.677 128.84 691.957 129.08 691.157 129.4C690.917 129.48 690.597 129.64 690.357 129.88C690.117 130.04 690.037 130.52 690.357 130.68C690.437 130.76 690.597 130.84 690.757 130.92C691.077 131 691.397 131 691.717 131C701.397 131.08 711.077 131.16 720.757 131.08C722.277 131.08 723.797 131 725.397 131C725.717 131 726.037 131 726.357 130.92C727.237 130.76 728.117 130.76 728.997 130.68C729.877 130.68 730.757 130.68 731.717 130.6C731.957 130.6 732.197 130.6 732.437 130.6C732.597 130.52 732.757 130.44 732.837 130.36C733.317 130.04 733.717 129.64 733.877 129.08C734.197 128.44 734.357 127.88 734.357 127.16C734.357 124.68 734.437 122.12 734.437 119.64C734.437 119 734.437 118.36 734.437 117.64C734.437 117.4 734.357 117.16 734.357 116.92C734.277 116.84 733.957 116.52 733.797 116.52C733.397 116.36 732.997 116.52 732.677 116.84C732.437 117.08 732.197 117.48 732.037 117.8C731.637 119.16 730.997 120.36 730.437 121.64C729.877 123.16 729.157 124.6 728.277 126.04C727.797 126.84 727.077 127.48 726.037 127.8C725.237 128.04 724.517 128.2 723.717 128.44C723.317 128.6 722.917 128.52 722.517 128.44C722.277 128.36 722.037 128.36 721.797 128.44C721.397 128.52 720.997 128.6 720.597 128.6C719.317 128.6 717.957 128.6 716.677 128.44C715.877 128.36 715.077 128.36 714.277 128.28C713.077 128.28 711.797 128.28 710.597 128.2C709.957 128.2 709.397 127.88 708.837 127.48C708.677 127.4 708.517 127.16 708.517 126.92C708.437 126.76 708.437 126.52 708.437 126.36C708.437 123.64 708.357 120.84 708.437 118.12C708.517 114.28 708.597 110.44 708.517 106.68C708.517 103.96 708.517 101.32 708.517 98.6C708.517 94.2 708.517 89.8 708.517 85.48C708.517 83.88 708.597 82.36 708.597 80.84C708.597 80.04 708.837 79.24 709.077 78.44C709.157 78.28 709.237 78.12 709.317 78.04C709.717 77.56 710.197 77.24 710.757 77.08C711.637 76.76 712.597 76.6 713.557 76.36C713.797 76.28 713.957 75.72 713.797 75.48C713.717 75.32 713.557 75.16 713.317 75.08C712.997 75.08 712.597 75 712.277 75C706.037 75 699.797 75 693.557 75C693.317 75 693.077 75 692.837 75.08C692.517 75.08 692.197 75.24 691.957 75.48C691.877 75.64 691.797 75.72 691.717 75.88C691.717 76.12 691.957 76.36 692.197 76.44C692.677 76.52 693.157 76.52 693.637 76.68C694.197 76.76 694.757 76.92 695.317 77C695.797 77.16 696.197 77.4 696.597 77.72C696.677 77.8 696.757 77.96 696.837 78.12C696.917 78.36 696.917 78.6 696.917 78.84C696.917 80.52 696.917 82.2 696.917 83.96C696.917 84.76 696.917 85.56 697.077 86.36C697.237 86.92 697.237 87.48 697.237 88.04C697.157 91.72 697.157 95.4 697.157 99.08C697.157 99.64 697.157 100.2 697.077 100.76C696.997 101.4 696.997 102.04 696.997 102.68C696.997 103.64 696.997 104.6 696.997 105.64ZM749.213 87.08C749.213 84.6 749.213 84.6 749.933 82.44C750.093 82.04 750.173 81.64 750.333 81.24C750.893 80.12 751.693 79.24 752.733 78.6C752.813 78.52 752.893 78.52 752.973 78.44C753.933 78.12 754.813 77.8 755.773 77.88C756.973 77.88 758.093 77.88 759.213 77.88C759.533 77.88 759.853 77.88 760.173 77.96C760.973 78.2 761.773 78.36 762.493 78.68C764.573 79.64 766.173 81.08 767.293 83.08C767.533 83.56 767.773 84.04 768.093 84.52C768.573 85.4 768.813 86.36 769.053 87.32C769.133 88.28 769.613 89.16 769.773 90.12C769.773 90.2 769.853 90.28 769.933 90.36C770.013 90.52 770.253 90.6 770.493 90.68C770.653 90.68 771.053 90.44 771.053 90.28C771.213 89.48 771.453 88.68 771.453 87.88C771.533 86.04 771.533 84.12 771.373 82.28C771.213 81.32 771.213 80.36 771.133 79.4C771.133 79.08 771.133 78.76 771.053 78.44C770.973 78.2 770.813 77.96 770.653 77.8C770.493 77.72 770.413 77.56 770.253 77.48C769.613 77.16 768.973 76.84 768.253 76.52C767.533 76.28 766.733 76.04 765.933 75.8C765.373 75.64 764.733 75.48 764.093 75.48C763.453 75.4 762.893 75.4 762.333 75.32C761.533 75.16 760.733 75.16 759.933 75.16C758.493 75.16 756.973 75.16 755.533 75.16C754.653 75.16 753.773 75.24 752.893 75.32C752.093 75.48 751.293 75.56 750.493 75.8C750.253 75.96 750.013 75.96 749.773 75.96C748.893 76.12 748.093 76.44 747.213 76.52C746.733 76.6 746.253 76.84 745.853 77.08C745.293 77.4 744.813 77.64 744.413 78.04C744.093 78.44 743.693 78.76 743.373 79.08C743.053 79.48 742.733 79.8 742.413 80.2C741.853 81 741.293 81.8 740.813 82.6C740.653 82.84 740.493 83 740.413 83.24C740.253 83.88 739.933 84.44 739.853 85.08C739.613 86.2 739.373 87.32 739.213 88.44C738.973 89.56 738.973 90.68 739.053 91.8C739.293 92.6 739.293 93.4 739.373 94.2C739.373 94.44 739.453 94.76 739.533 94.92C739.853 96.12 740.253 97.32 740.893 98.36C741.213 98.92 741.613 99.56 742.013 100.2C742.973 101.72 744.173 103.08 745.693 104.04C745.853 104.2 746.093 104.36 746.253 104.52C746.813 105 747.373 105.4 748.093 105.72C748.333 105.88 748.653 106.04 748.893 106.2C750.973 107.56 753.053 108.76 755.293 109.8C756.173 110.2 756.973 110.68 757.773 111.24C759.373 112.28 760.733 113.56 762.013 114.92C762.733 115.72 763.213 116.6 763.373 117.72C763.453 118.04 763.533 118.36 763.613 118.68C763.773 119.48 763.773 120.28 763.693 121.08C763.693 121.16 763.693 121.24 763.693 121.32C763.373 122.12 763.133 123 762.813 123.88C762.333 124.92 761.613 125.8 760.653 126.44C760.333 126.76 760.013 126.84 759.613 127.08C758.573 127.32 757.613 127.56 756.493 127.56C755.213 127.56 753.933 127.56 752.653 127.56C752.413 127.56 752.093 127.56 751.853 127.56C750.973 127.32 749.933 127.24 749.053 126.92C748.493 126.76 747.933 126.52 747.453 126.2C747.213 126.04 746.893 125.88 746.653 125.72C745.853 125.32 745.133 124.76 744.493 124.12C744.253 123.88 743.933 123.56 743.613 123.32C742.653 122.28 741.853 121.16 741.213 119.96C740.813 119.32 740.493 118.68 740.333 117.96C740.093 117.24 739.853 116.6 739.693 115.88C739.693 115.64 739.533 115.4 739.373 115.24C739.293 115.08 738.893 114.92 738.733 115C738.653 115.16 738.493 115.24 738.413 115.4C738.333 115.48 738.333 115.64 738.333 115.8C738.413 116.84 738.413 117.8 738.653 118.76C738.733 119.16 738.733 119.56 738.813 119.96C738.893 121.56 738.893 123.16 739.213 124.76C739.293 125.16 739.293 125.56 739.293 126.04C739.293 126.44 739.373 126.84 739.373 127.24C739.453 127.72 739.613 128.2 739.853 128.6C739.933 128.84 740.093 129 740.333 129.08C741.453 129.56 742.573 130.12 743.773 130.36C744.813 130.6 745.853 130.92 746.893 131C747.693 131.08 748.493 131.16 749.293 131.16C752.413 131.16 755.453 131.08 758.573 131.08C758.973 131.08 759.373 131 759.773 130.92C760.413 130.84 761.053 130.6 761.693 130.6C762.333 130.52 762.893 130.2 763.533 130.12C765.613 129.72 767.373 128.84 768.813 127.24C768.893 127.16 769.053 127 769.133 126.92C769.853 126.2 770.493 125.48 771.053 124.68C771.293 124.36 771.533 124.04 771.773 123.72C772.173 123.16 772.573 122.52 772.893 121.88C773.453 120.84 773.853 119.8 774.253 118.76C774.333 118.52 774.413 118.28 774.493 118.04C774.813 116.52 774.813 116.52 774.813 114.92C774.813 114.44 774.813 113.96 774.813 113.48C774.733 113.16 774.653 112.84 774.573 112.52C774.093 110.76 773.453 109.08 772.653 107.48C772.253 106.76 771.773 106.12 771.213 105.56C770.413 104.68 769.533 103.8 768.573 103.08C766.813 101.72 765.133 100.36 763.293 99.16C761.693 98.2 760.173 97.08 758.573 96.12C757.453 95.48 756.413 94.68 755.293 93.96C754.733 93.56 754.173 93 753.613 92.6C753.293 92.28 752.973 92.04 752.733 91.8C751.853 91.16 751.133 90.36 750.493 89.56C750.093 89.08 749.773 88.6 749.613 88.12C749.533 87.8 749.373 87.48 749.213 87.08Z" fill="white"/>
<path d="M1047 136.557C1036.56 136.557 1032.66 131.78 1032.13 130.102C1031.84 129.209 1031.73 127.659 1031.78 125.361C1029.95 121.587 1031.84 113.291 1033.17 111.814C1035.01 109.79 1037.4 109.443 1038.17 109.37C1040.48 107.638 1044.11 107 1046.76 107C1051.45 107 1057.31 107.547 1061.05 111.814C1062.66 113.655 1063.67 120.219 1062.48 124.213C1062.61 127.057 1062.52 129.026 1062.19 130.084L1062.17 130.157L1062.13 130.23C1061.2 131.707 1057.41 136.557 1047 136.557ZM1046.76 108.295C1044.27 108.295 1040.87 108.878 1038.82 110.501L1038.65 110.629H1038.43C1038.17 110.629 1035.87 110.756 1034.14 112.652C1033.17 113.728 1031.29 121.66 1033.01 124.887L1033.08 125.033V125.197C1033.01 127.951 1033.19 129.154 1033.36 129.664C1033.74 130.85 1037.17 135.244 1047 135.244C1056.56 135.244 1060.06 131.014 1060.96 129.61C1061.14 128.935 1061.32 127.44 1061.18 124.14V124.03L1061.22 123.921C1062.39 120.183 1061.34 114.075 1060.08 112.634C1056.67 108.787 1051.18 108.295 1046.76 108.295Z" fill="#FDF1E3"/>
<path d="M1046.76 131.196C1044.05 131.196 1043.25 128.589 1042.55 126.309C1041.98 124.45 1041.43 122.681 1040.08 122.353C1038.56 121.988 1037.9 123.027 1037.02 124.814C1036.47 125.908 1035.98 126.929 1035.01 127.258C1034.51 127.422 1033.96 127.367 1033.38 127.075C1032.28 126.528 1031.54 125.361 1031.21 123.611C1030.41 119.417 1032.06 113.035 1033.17 111.814C1035.04 109.753 1037.44 109.425 1038.19 109.37C1040.3 107.802 1043.54 107 1046.76 107C1051.45 107 1057.31 107.547 1061.05 111.814C1062.64 113.619 1063.49 119.545 1062.7 123.337C1062.26 125.434 1061.4 126.802 1060.13 127.403C1059.57 127.677 1059.04 127.713 1058.54 127.549C1057.57 127.203 1057.06 126.091 1056.53 124.924C1055.65 123.009 1055.01 121.879 1053.47 122.243C1052.09 122.572 1051.56 124.358 1050.99 126.237C1050.28 128.57 1049.47 131.196 1046.76 131.196ZM1039.47 120.985C1039.75 120.985 1040.04 121.022 1040.37 121.095C1042.46 121.587 1043.14 123.793 1043.78 125.927C1044.55 128.406 1045.12 129.902 1046.76 129.902C1048.41 129.902 1048.98 128.388 1049.75 125.872C1050.41 123.72 1051.07 121.496 1053.16 121.003C1055.85 120.347 1056.91 122.681 1057.7 124.395C1058.1 125.27 1058.52 126.182 1058.98 126.346C1059.04 126.364 1059.2 126.437 1059.57 126.255C1060.67 125.726 1061.18 124.249 1061.42 123.082C1062.22 119.18 1061.16 113.911 1060.06 112.652C1056.67 108.787 1051.16 108.295 1046.75 108.295C1044.25 108.295 1040.96 108.878 1038.96 110.355C1038.89 110.464 1038.78 110.556 1038.65 110.61C1037.77 111.358 1037.2 112.324 1037.2 113.509C1037.2 117.12 1043.05 118.469 1046.73 118.469C1051.49 118.469 1055.72 115.406 1057.24 114.166C1053.34 111.431 1049.24 110.701 1046.8 110.938C1045.39 111.066 1043.72 111.54 1043.72 113.054C1043.72 113.582 1043.89 114.002 1044.22 114.312C1045.06 115.114 1046.69 115.041 1046.71 115.041C1047.08 115.023 1047.37 115.296 1047.39 115.643C1047.41 115.989 1047.13 116.299 1046.78 116.317C1046.69 116.317 1044.58 116.427 1043.32 115.242C1042.72 114.676 1042.42 113.947 1042.42 113.054C1042.42 111.139 1043.98 109.899 1046.67 109.644C1049.47 109.389 1054.29 110.264 1058.65 113.601L1059.26 114.056L1058.71 114.567C1058.49 114.786 1053.17 119.727 1046.71 119.727C1042.37 119.727 1035.9 118.068 1035.9 113.491C1035.9 112.561 1036.16 111.723 1036.62 110.993C1035.83 111.267 1034.9 111.777 1034.11 112.652C1033.28 113.564 1031.75 119.581 1032.46 123.356C1032.72 124.687 1033.21 125.544 1033.92 125.908C1034.31 126.109 1034.49 126.036 1034.57 126.018C1035.01 125.872 1035.43 125.033 1035.83 124.231C1036.54 122.827 1037.46 120.985 1039.47 120.985Z" fill="#FDF1E3"/>
</g>
<defs>
<clipPath id="clip0_757_2">
<rect width="150" height="1080" fill="white" transform="translate(1080) rotate(90)"/>
</clipPath>
</defs>
</svg>
