<svg width="1080" height="150" viewBox="0 0 1080 150" fill="none" xmlns="http://www.w3.org/2000/svg">
<g clip-path="url(#clip0_757_2)">
<rect width="150" height="1080" transform="translate(1080) rotate(90)" fill="#DD8964"/>
<path d="M121.503 94.446C9.13466 106.97 -331.702 47.2943 -395 45.3848C-110.788 -36.5323 647.944 -333.86 1026.06 -364.201C1404.18 -394.541 1609.07 -202.901 1691.87 -98.4491C1751.14 -23.6658 1740.14 25.4803 1561.32 36.136C1411.45 45.0664 1307.86 -10.9742 1186.08 -4.98039C1064.31 1.01338 1077.42 73.7469 913.571 79.1985C749.724 84.6502 525.265 19.2282 366.851 22.2777C208.438 25.3272 233.871 81.9219 121.503 94.446Z" fill="#A3BD9B"/>
<path d="M187.066 83.4013C74.6981 95.9255 -235.125 40.2806 -298.423 38.3711C-14.2113 -43.546 744.521 -340.874 1122.64 -371.214C1500.75 -401.555 1674.64 -213.945 1757.43 -109.494C1816.7 -34.7105 1805.7 14.4355 1626.88 25.0913C1477.01 34.0217 1373.42 -22.0189 1251.65 -16.0251C1129.87 -10.0313 1142.98 62.7022 979.134 68.1538C815.288 73.6055 590.828 8.18356 432.415 11.233C274.001 14.2825 299.434 70.8772 187.066 83.4013Z" stroke="#FDF1E3" stroke-opacity="0.2" stroke-width="6"/>
<path d="M341.04 75.08C337.2 75.08 333.44 75.08 329.6 75.08C328.96 75.08 328.32 75.08 327.68 75.08C327.04 75.08 326.56 75.4 326.24 75.88C326.08 76.04 326.16 76.36 326.4 76.44C326.96 76.76 327.52 76.84 328.08 76.84C328.96 77 329.84 77.24 330.64 77.56C330.96 77.72 331.28 78.12 331.28 78.52C331.28 79.16 331.36 79.8 331.36 80.44C331.36 82.76 331.36 85 331.44 87.32C331.44 87.8 331.44 88.28 331.52 88.76C331.68 90.12 331.68 91.48 331.68 92.84C331.68 93.32 331.68 93.72 331.6 94.12C331.36 95.32 331.36 96.52 331.36 97.72C331.36 104.12 331.36 110.6 331.36 117C331.36 119 331.28 121 331.28 123.08C331.28 123.72 331.28 124.36 331.12 125C331.04 125.72 330.96 126.44 330.8 127.16C330.72 127.4 330.64 127.64 330.4 127.8C330.16 128.12 329.84 128.36 329.44 128.52C328.8 128.68 328.24 128.92 327.6 129.08C326.8 129.24 326.08 129.56 325.28 129.8C325.2 129.8 325.12 129.8 325.04 129.88C324.96 129.88 324.88 129.96 324.88 130.04C324.64 130.12 324.56 130.44 324.56 130.68C324.64 130.84 324.88 131 325.12 131.08C325.84 131.16 326.56 131.08 327.28 131.08C333.52 131.08 339.76 131 346.08 131C346.32 131 346.56 131 346.8 130.92C347.28 130.92 347.76 130.76 348.16 130.44C348.24 130.36 348.32 130.2 348.32 130.04C348.24 129.88 348.24 129.72 348.08 129.64C347.44 129.4 346.8 129.24 346.16 129.16C345.84 129.08 345.52 129 345.28 128.84C344.72 128.6 344.24 128.36 343.76 128.12C343.6 128.04 343.44 127.88 343.36 127.8C343.12 127.64 343.04 127.4 342.96 127.24C342.88 126.92 342.88 126.52 342.88 126.2C342.8 123.4 342.8 120.52 342.88 117.72C342.88 114.68 342.96 111.72 342.96 108.68C342.96 108.36 343.04 108.04 343.04 107.72C343.04 107.56 343.28 107.24 343.44 107.16C344.48 106.84 345.52 106.76 346.56 106.84C346.8 106.92 347.04 107 347.2 107.16C347.36 107.32 347.6 107.56 347.68 107.72C348.4 108.76 349.04 109.72 349.68 110.76C350.64 112.28 351.68 113.8 352.48 115.32C352.56 115.48 352.64 115.64 352.72 115.8C353.68 117.4 354.8 118.92 355.76 120.44C356.4 121.4 357.12 122.28 357.76 123.24C358.4 124.28 358.96 125.4 359.52 126.44C359.84 126.92 360.16 127.4 360.4 127.88C360.56 128.2 360.48 128.52 360.16 128.76C359.92 128.84 359.68 129 359.52 129C359.28 129.08 359.04 129.08 358.8 129.16C358 129.24 357.2 129.4 356.4 129.64C356.32 129.72 356.32 129.8 356.24 129.88C356.08 130.2 356.16 130.68 356.48 130.92C356.72 131.08 356.96 131.16 357.2 131.16C358.08 131.16 358.96 131.16 359.84 131.16C361.68 131.16 363.6 131.08 365.44 131.08C369.44 131 373.44 131 377.36 131C377.52 131 377.68 130.92 377.84 130.92C378.32 130.92 378.64 130.6 378.8 130.2C378.8 130.04 378.88 129.88 378.8 129.8C378.64 129.56 378.56 129.32 378.32 129.24C377.68 129 377.12 128.76 376.48 128.68C375.76 128.6 375.2 128.36 374.56 128.2C373.84 128.04 373.2 127.64 372.72 127.08C372.48 126.68 372.16 126.28 371.84 125.88C371.36 125.16 370.96 124.36 370.48 123.64C370.08 123.08 369.76 122.52 369.36 121.96C368.88 121.16 368.32 120.36 367.92 119.48C367.6 118.84 367.2 118.2 366.8 117.56C366.48 117.16 366.16 116.68 365.84 116.2C364.96 114.84 364.16 113.4 363.2 112.12C362.16 110.6 361.12 109 360.08 107.4C359.68 106.76 359.28 106.04 358.8 105.4C358.72 105.24 358.64 105.08 358.64 104.92C358.56 104.76 358.64 104.6 358.8 104.44C359.44 103.96 360.32 103.4 361.2 102.84C361.6 102.68 362.08 102.44 362.48 102.2C363.52 101.48 364.48 100.84 365.52 100.12C366.16 99.64 366.8 99.16 367.36 98.6C367.6 98.36 367.84 98.12 368 97.88C368.64 96.92 369.36 95.96 369.84 95C370 94.6 370.16 94.28 370.32 93.88C370.8 92.44 370.8 92.28 370.88 91C370.88 89.8 370.8 88.6 370.8 87.32C370.8 86.52 370.56 85.72 370.24 85C370.08 84.6 369.92 84.28 369.68 83.88C369.28 83.24 368.8 82.52 368.4 81.88C368.24 81.64 368.08 81.48 367.92 81.24C367.28 80.52 366.64 79.8 365.84 79.24C365.36 78.92 364.96 78.52 364.48 78.2C364.16 77.96 363.84 77.72 363.52 77.48C362.32 76.76 361.12 76.12 359.76 75.88C358.8 75.48 357.84 75.4 356.88 75.4C356.48 75.32 356.08 75.4 355.68 75.32C354.4 75 353.04 75.08 351.76 75.08C348.16 75.08 344.64 75.08 341.04 75.08ZM343.52 104.2C343.28 104.04 343.04 103.88 343.04 103.64C342.96 103.32 342.96 103 342.96 102.68C342.96 97.56 342.96 92.44 342.88 87.32C342.88 86.28 342.96 85.16 342.96 84.12C343.04 82.68 343.12 81.24 343.12 79.72C343.28 79.4 343.36 79 343.52 78.6C343.6 78.28 343.84 78.04 344.16 77.96C346 77.48 346 77.48 347.76 77.48C348.16 77.48 348.56 77.48 348.96 77.48C349.68 77.48 350.4 77.48 351.12 77.8C352.64 77.96 353.84 78.76 355.04 79.64C355.12 79.64 355.2 79.72 355.2 79.8C355.68 80.36 356.16 80.92 356.56 81.56C356.8 81.88 356.96 82.28 357.04 82.6C357.36 83.64 357.6 84.68 357.68 85.72C357.76 86.52 357.76 87.32 357.92 88.12C358.08 88.6 358.08 89.08 358 89.56C357.76 90.92 357.68 92.2 357.6 93.48C357.52 93.8 357.44 94.12 357.36 94.44C357.28 94.84 357.2 95.24 357.04 95.56C356.8 96.2 356.64 96.84 356.32 97.4C355.84 98.28 355.28 99.24 354.56 100.04C353.52 101.24 352.24 102.28 350.8 103.08C350.24 103.48 349.52 103.72 348.8 103.72C348.24 103.8 347.76 103.8 347.28 103.88C346.96 103.88 346.64 103.88 346.32 103.96C345.84 104.12 345.36 104.2 344.88 104.2C344.4 104.2 343.92 104.2 343.52 104.2ZM404.35 131.08C405.15 131.08 405.95 131.08 406.75 131.08C412.19 131.08 417.63 131.08 423.07 131.08C423.79 131.08 424.43 131.08 425.07 131C425.55 131 426.03 130.76 426.43 130.52C426.67 130.28 426.83 129.96 426.91 129.64C426.99 129 426.99 128.36 427.07 127.72C427.15 127.32 427.15 126.92 427.23 126.52C427.39 125.88 427.47 125.24 427.47 124.6C427.55 123.56 427.55 122.52 427.71 121.48C428.03 120.2 428.03 118.84 427.95 117.56C427.95 117.16 427.47 116.84 427.07 117C426.75 117 426.51 117.24 426.35 117.56C426.27 117.8 426.19 118.04 426.19 118.28C426.03 118.92 425.95 119.56 425.71 120.12C425.55 120.76 425.31 121.4 424.99 121.96C424.75 122.52 424.43 123.08 424.19 123.72C423.95 124.2 423.63 124.68 423.31 125.16C422.99 125.56 422.67 125.88 422.27 126.2C421.95 126.44 421.63 126.68 421.23 126.84C420.75 127.16 420.27 127.4 419.71 127.56C418.43 127.88 417.23 128.2 415.87 128.28C414.75 128.28 413.63 128.28 412.51 128.52C412.11 128.6 411.63 128.6 411.23 128.6C408.27 128.6 405.23 128.6 402.27 128.6C402.03 128.6 401.79 128.6 401.55 128.6C401.39 128.52 400.99 128.28 400.99 128.12C400.91 127.96 400.83 127.8 400.83 127.64C400.83 126.68 400.75 125.72 400.75 124.76C400.75 121.32 400.75 117.88 400.75 114.52C400.75 112.84 400.75 111.24 400.99 109.64C401.07 109.24 401.07 108.84 401.07 108.44C401.15 107.32 401.15 106.12 401.23 105C401.23 104.76 401.23 104.52 401.31 104.28C401.31 104.12 401.63 103.8 401.79 103.8C402.03 103.72 402.43 103.64 402.75 103.64C405.31 103.72 407.95 103.72 410.51 103.72C411.55 103.72 412.43 103.96 413.31 104.44C413.47 104.6 413.71 104.68 413.95 104.84C414.03 104.84 414.03 104.92 414.11 105C414.43 105.16 414.67 105.4 414.75 105.72C415.15 106.68 415.47 107.72 415.71 108.68C415.87 109.24 416.03 109.8 416.27 110.36C416.35 110.44 416.43 110.6 416.51 110.76C416.67 111 416.83 111.08 417.15 111.08C417.39 111.08 417.71 110.76 417.79 110.44C417.79 110.2 417.79 109.96 417.79 109.72C417.79 109.08 417.71 108.44 417.55 107.8C417.39 107.16 417.31 106.52 417.31 105.88C417.23 104.68 417.23 103.48 417.31 102.2C417.39 101.72 417.31 101.24 417.47 100.76C417.71 99.24 417.71 97.72 417.87 96.2C417.95 95.56 417.87 95 417.87 94.44C417.87 94.28 417.87 94.12 417.79 93.96C417.71 93.88 417.55 93.72 417.47 93.64C417.39 93.56 416.91 93.72 416.83 93.8C416.67 94.04 416.51 94.2 416.43 94.44C416.19 95.16 416.03 95.88 415.95 96.6C415.79 97.32 415.55 97.96 415.31 98.68C415.15 99.24 414.75 99.64 414.27 99.96C413.39 100.52 412.51 100.84 411.55 100.84C411.15 100.84 410.75 100.92 410.35 100.92C407.63 100.92 404.99 100.92 402.27 100.92C402.19 100.92 402.11 100.92 402.03 100.92C401.71 100.84 401.39 100.52 401.39 100.28C401.39 99.56 401.39 98.76 401.39 98.04C401.39 97.4 401.31 96.76 401.39 96.12C401.55 95.32 401.55 94.52 401.55 93.72C401.55 91.96 401.55 90.28 401.55 88.6C401.55 87.24 401.63 85.96 401.39 84.68C401.31 84.44 401.31 84.2 401.31 83.96C401.31 82.36 401.23 80.68 401.23 79.08C401.15 78.84 401.23 78.6 401.23 78.36C401.23 78.12 401.55 77.72 401.87 77.64C402.19 77.56 402.51 77.56 402.83 77.56C405.87 77.56 408.99 77.56 412.03 77.56C413.07 77.56 414.03 77.56 414.99 77.56C415.31 77.56 415.63 77.56 415.95 77.64C416.67 77.88 417.39 77.88 418.11 78.04C418.35 78.12 418.59 78.2 418.75 78.36C418.91 78.44 419.07 78.52 419.15 78.6C420.51 79.8 421.63 81.24 422.59 82.76C422.99 83.4 423.39 84.12 423.79 84.84C423.87 85 423.95 85.16 423.95 85.32C424.19 86.04 424.51 86.68 424.59 87.4C424.59 87.64 424.67 87.88 424.75 88.12C424.75 88.28 424.83 88.44 424.99 88.52C425.07 88.6 425.23 88.68 425.39 88.68C425.55 88.76 425.95 88.44 425.95 88.28C425.95 88.12 426.03 87.96 426.03 87.8C426.03 86.6 426.03 85.4 425.87 84.2C425.79 83.4 425.71 82.52 425.71 81.72C425.71 80.52 425.71 79.32 425.71 78.12C425.63 77.32 425.63 76.6 425.47 75.88C425.47 75.64 425.07 75.32 424.83 75.24C424.43 75.16 424.03 75.16 423.63 75.16C415.63 75.08 407.71 75.08 399.71 75C399.15 75 398.59 75 398.03 75.08C396.99 75.16 395.87 75.16 394.83 75.16C394.27 75.16 393.71 75.24 393.15 75.32C391.55 75.64 389.95 75.56 388.27 75.32C387.07 75.16 385.87 75.16 384.67 75.24C384.43 75.24 384.11 75.56 384.11 75.88C384.11 76.04 384.19 76.2 384.27 76.36C384.59 76.68 384.91 76.92 385.31 76.92C386.19 77 387.07 77.32 387.95 77.48C388.35 77.56 388.67 77.8 388.99 78.12C389.23 78.28 389.39 78.6 389.39 78.92C389.47 79.4 389.47 79.88 389.47 80.36C389.47 83.8 389.47 87.24 389.47 90.6C389.55 92.2 389.55 93.72 389.63 95.24C389.63 95.72 389.63 96.2 389.71 96.68C389.87 97.48 389.87 98.36 389.87 99.16C389.87 101.24 389.87 103.4 389.95 105.48C390.03 106.52 389.95 107.56 389.87 108.6C389.63 110.2 389.63 111.72 389.55 113.24C389.55 114.28 389.55 115.4 389.47 116.44C389.47 116.92 389.47 117.4 389.39 117.88C389.07 118.92 389.15 119.96 389.15 121C389.15 122.2 389.15 123.32 389.15 124.44C389.15 125.24 389.07 126.04 388.99 126.84C388.91 127.48 388.59 127.96 388.03 128.2C387.71 128.44 387.31 128.6 386.91 128.76C386.35 129 385.71 129.08 385.07 129.16C384.51 129.24 383.95 129.48 383.47 129.8C383.31 129.96 383.23 130.2 383.23 130.44C383.23 130.68 383.47 130.92 383.63 131C383.95 131.16 384.27 131.16 384.59 131.16C388.99 131.16 393.39 131.24 397.79 131.24C399.87 131.24 402.03 131.32 404.11 131.08C404.19 131.08 404.27 131.08 404.35 131.08ZM451.141 115.72C451.141 114.84 451.141 113.88 451.221 113C451.301 110.68 451.381 108.28 451.461 105.96C451.461 105.16 451.621 104.36 451.701 103.56C451.701 103.48 451.781 103.4 451.781 103.32C451.941 103.24 452.021 103.08 452.181 103.08C453.381 102.92 454.661 102.92 455.861 103.08C456.741 103.08 457.621 103.16 458.501 103.16C459.621 103.16 460.821 103.16 461.941 103.16C462.261 103.16 462.581 103.24 462.901 103.24C463.141 103.32 463.381 103.32 463.621 103.48C464.181 103.8 464.661 104.28 464.821 104.92C465.221 106.04 465.701 107.16 465.941 108.36C466.101 109 466.261 109.64 466.501 110.2C466.581 110.44 466.741 110.68 466.901 110.84C467.141 111.16 467.701 111.08 467.941 110.76C468.101 110.52 468.181 110.36 468.181 110.04C468.181 109.8 468.181 109.56 468.101 109.32C467.941 108.68 467.861 107.88 467.781 107.16C467.621 104.68 467.701 102.12 467.861 99.64C467.941 99.32 467.941 99 468.021 98.68C468.341 97.16 468.341 95.64 468.181 94.04C468.181 93.96 468.021 93.8 467.941 93.72C467.781 93.56 467.381 93.56 467.221 93.72C467.221 93.72 467.141 93.8 467.061 93.88C466.741 94.36 466.501 94.84 466.421 95.4C466.421 96.44 466.101 97.32 465.781 98.28C465.701 98.52 465.541 98.84 465.381 99.16C465.141 99.48 464.821 99.72 464.421 99.8C464.261 99.88 464.101 99.88 463.941 99.88C463.621 99.88 463.301 99.88 462.981 99.88C460.181 99.88 457.461 99.88 454.661 99.88C453.861 99.88 453.061 99.88 452.261 99.8C452.101 99.8 451.781 99.48 451.781 99.32C451.781 99.08 451.701 98.84 451.701 98.6C451.701 97.32 451.701 96.12 451.781 94.92C451.861 91.16 451.861 87.48 451.701 83.72C451.621 82.84 451.621 81.96 451.461 81.08C451.381 80.2 451.381 79.24 451.461 78.36C451.461 77.88 451.941 77.56 452.421 77.48C452.501 77.48 452.581 77.48 452.661 77.48C456.421 77.48 460.181 77.48 463.861 77.4C464.581 77.4 465.221 77.48 465.861 77.48C466.181 77.48 466.501 77.56 466.821 77.64C467.141 77.8 467.381 77.88 467.701 77.96C468.821 78.28 469.781 78.92 470.581 79.72C470.981 80.2 471.461 80.68 471.861 81.24C472.901 82.68 473.861 84.2 474.501 85.88C474.581 86.2 474.661 86.52 474.741 86.84C474.821 87.4 475.061 87.88 475.301 88.44C475.381 88.52 475.541 88.6 475.701 88.6C475.861 88.68 476.021 88.6 476.101 88.44C476.181 88.28 476.261 88.12 476.261 87.96C476.261 87.24 476.261 86.52 476.261 85.8C476.181 84.52 476.101 83.16 476.101 81.88C476.101 80.6 476.101 79.32 476.021 77.96C476.021 77.64 476.021 77.32 476.021 77C475.941 76.52 475.861 76.04 475.621 75.64C475.541 75.4 475.381 75.24 475.141 75.16C474.581 75 473.941 75.08 473.381 75.08C464.421 75.08 455.381 75.08 446.341 75.08C446.021 75.08 445.701 75.08 445.381 75.08C444.901 75.08 444.421 75.16 443.941 75.24C442.981 75.48 442.021 75.56 441.061 75.48C440.101 75.48 439.061 75.48 438.101 75.24C437.221 75.08 436.341 75.08 435.461 75.08C435.301 75.08 435.141 75.16 434.981 75.16C434.581 75.24 434.341 75.8 434.581 76.12C434.741 76.52 435.061 76.76 435.461 76.84C435.941 77 436.421 77 436.901 77.16C437.381 77.24 437.861 77.4 438.341 77.56C438.741 77.64 439.061 77.88 439.301 78.2C439.461 78.36 439.621 78.6 439.621 78.84C439.701 79.32 439.701 79.8 439.701 80.28C439.701 83.4 439.701 86.6 439.701 89.8C439.701 90.28 439.701 90.76 439.781 91.24C440.021 92.36 440.021 93.48 440.021 94.6C440.101 98.44 440.181 102.28 440.181 106.04C440.181 106.6 440.261 107.08 440.181 107.56C440.021 108.68 440.021 109.8 440.021 110.92C440.021 111.88 440.021 112.92 439.781 113.88C439.701 114.12 439.701 114.52 439.701 114.84C439.621 118.04 439.461 121.32 439.541 124.52C439.541 124.84 439.541 125.08 439.541 125.32C439.541 126.04 439.381 126.76 439.061 127.4C438.981 127.64 438.821 127.88 438.581 127.96C438.181 128.2 437.781 128.44 437.301 128.68C436.581 128.76 435.941 129.08 435.221 129.16C434.981 129.24 434.741 129.24 434.501 129.32C434.101 129.48 433.781 129.72 433.621 130.12C433.541 130.28 433.541 130.44 433.621 130.6C433.781 130.92 434.021 131.08 434.341 131.16C434.741 131.24 435.141 131.24 435.541 131.24C438.741 131.24 441.861 131.24 445.061 131.24C445.941 131.24 446.821 131.24 447.701 131.4C448.021 131.48 448.341 131.48 448.661 131.48C450.341 131.48 451.941 131.56 453.541 131.56C453.781 131.56 454.101 131.56 454.261 131.48C454.821 131.32 455.381 131.24 455.941 130.92C456.021 130.84 456.101 130.76 456.181 130.52C456.181 130.28 456.101 130.12 455.941 129.88C455.781 129.72 455.541 129.56 455.381 129.48C454.741 129.24 454.181 129 453.541 128.76C452.741 128.44 452.181 127.88 451.621 127.32C451.541 127.16 451.461 127 451.381 126.92C451.301 126.76 451.301 126.6 451.301 126.44C451.141 125.56 451.141 124.6 451.141 123.72C451.141 121.08 451.141 118.36 451.141 115.72ZM500.991 131.08C501.791 131.08 502.591 131.08 503.391 131.08C508.831 131.08 514.271 131.08 519.711 131.08C520.431 131.08 521.071 131.08 521.711 131C522.191 131 522.671 130.76 523.071 130.52C523.311 130.28 523.471 129.96 523.551 129.64C523.631 129 523.631 128.36 523.711 127.72C523.791 127.32 523.791 126.92 523.871 126.52C524.031 125.88 524.111 125.24 524.111 124.6C524.191 123.56 524.191 122.52 524.351 121.48C524.671 120.2 524.671 118.84 524.591 117.56C524.591 117.16 524.111 116.84 523.711 117C523.391 117 523.151 117.24 522.991 117.56C522.911 117.8 522.831 118.04 522.831 118.28C522.671 118.92 522.591 119.56 522.351 120.12C522.191 120.76 521.951 121.4 521.631 121.96C521.391 122.52 521.071 123.08 520.831 123.72C520.591 124.2 520.271 124.68 519.951 125.16C519.631 125.56 519.311 125.88 518.911 126.2C518.591 126.44 518.271 126.68 517.871 126.84C517.391 127.16 516.911 127.4 516.351 127.56C515.071 127.88 513.871 128.2 512.511 128.28C511.391 128.28 510.271 128.28 509.151 128.52C508.751 128.6 508.271 128.6 507.871 128.6C504.911 128.6 501.871 128.6 498.911 128.6C498.671 128.6 498.431 128.6 498.191 128.6C498.031 128.52 497.631 128.28 497.631 128.12C497.551 127.96 497.471 127.8 497.471 127.64C497.471 126.68 497.391 125.72 497.391 124.76C497.391 121.32 497.391 117.88 497.391 114.52C497.391 112.84 497.391 111.24 497.631 109.64C497.711 109.24 497.711 108.84 497.711 108.44C497.791 107.32 497.791 106.12 497.871 105C497.871 104.76 497.871 104.52 497.951 104.28C497.951 104.12 498.271 103.8 498.431 103.8C498.671 103.72 499.071 103.64 499.391 103.64C501.951 103.72 504.591 103.72 507.151 103.72C508.191 103.72 509.071 103.96 509.951 104.44C510.111 104.6 510.351 104.68 510.591 104.84C510.671 104.84 510.671 104.92 510.751 105C511.071 105.16 511.311 105.4 511.391 105.72C511.791 106.68 512.111 107.72 512.351 108.68C512.511 109.24 512.671 109.8 512.911 110.36C512.991 110.44 513.071 110.6 513.151 110.76C513.311 111 513.471 111.08 513.791 111.08C514.031 111.08 514.351 110.76 514.431 110.44C514.431 110.2 514.431 109.96 514.431 109.72C514.431 109.08 514.351 108.44 514.191 107.8C514.031 107.16 513.951 106.52 513.951 105.88C513.871 104.68 513.871 103.48 513.951 102.2C514.031 101.72 513.951 101.24 514.111 100.76C514.351 99.24 514.351 97.72 514.511 96.2C514.591 95.56 514.511 95 514.511 94.44C514.511 94.28 514.511 94.12 514.431 93.96C514.351 93.88 514.191 93.72 514.111 93.64C514.031 93.56 513.551 93.72 513.471 93.8C513.311 94.04 513.151 94.2 513.071 94.44C512.831 95.16 512.671 95.88 512.591 96.6C512.431 97.32 512.191 97.96 511.951 98.68C511.791 99.24 511.391 99.64 510.911 99.96C510.031 100.52 509.151 100.84 508.191 100.84C507.791 100.84 507.391 100.92 506.991 100.92C504.271 100.92 501.631 100.92 498.911 100.92C498.831 100.92 498.751 100.92 498.671 100.92C498.351 100.84 498.031 100.52 498.031 100.28C498.031 99.56 498.031 98.76 498.031 98.04C498.031 97.4 497.951 96.76 498.031 96.12C498.191 95.32 498.191 94.52 498.191 93.72C498.191 91.96 498.191 90.28 498.191 88.6C498.191 87.24 498.271 85.96 498.031 84.68C497.951 84.44 497.951 84.2 497.951 83.96C497.951 82.36 497.871 80.68 497.871 79.08C497.791 78.84 497.871 78.6 497.871 78.36C497.871 78.12 498.191 77.72 498.511 77.64C498.831 77.56 499.151 77.56 499.471 77.56C502.511 77.56 505.631 77.56 508.671 77.56C509.711 77.56 510.671 77.56 511.631 77.56C511.951 77.56 512.271 77.56 512.591 77.64C513.311 77.88 514.031 77.88 514.751 78.04C514.991 78.12 515.231 78.2 515.391 78.36C515.551 78.44 515.711 78.52 515.791 78.6C517.151 79.8 518.271 81.24 519.231 82.76C519.631 83.4 520.031 84.12 520.431 84.84C520.511 85 520.591 85.16 520.591 85.32C520.831 86.04 521.151 86.68 521.231 87.4C521.231 87.64 521.311 87.88 521.391 88.12C521.391 88.28 521.471 88.44 521.631 88.52C521.711 88.6 521.871 88.68 522.031 88.68C522.191 88.76 522.591 88.44 522.591 88.28C522.591 88.12 522.671 87.96 522.671 87.8C522.671 86.6 522.671 85.4 522.511 84.2C522.431 83.4 522.351 82.52 522.351 81.72C522.351 80.52 522.351 79.32 522.351 78.12C522.271 77.32 522.271 76.6 522.111 75.88C522.111 75.64 521.711 75.32 521.471 75.24C521.071 75.16 520.671 75.16 520.271 75.16C512.271 75.08 504.351 75.08 496.351 75C495.791 75 495.231 75 494.671 75.08C493.631 75.16 492.511 75.16 491.471 75.16C490.911 75.16 490.351 75.24 489.791 75.32C488.191 75.64 486.591 75.56 484.911 75.32C483.711 75.16 482.511 75.16 481.311 75.24C481.071 75.24 480.751 75.56 480.751 75.88C480.751 76.04 480.831 76.2 480.911 76.36C481.231 76.68 481.551 76.92 481.951 76.92C482.831 77 483.711 77.32 484.591 77.48C484.991 77.56 485.311 77.8 485.631 78.12C485.871 78.28 486.031 78.6 486.031 78.92C486.111 79.4 486.111 79.88 486.111 80.36C486.111 83.8 486.111 87.24 486.111 90.6C486.191 92.2 486.191 93.72 486.271 95.24C486.271 95.72 486.271 96.2 486.351 96.68C486.511 97.48 486.511 98.36 486.511 99.16C486.511 101.24 486.511 103.4 486.591 105.48C486.671 106.52 486.591 107.56 486.511 108.6C486.271 110.2 486.271 111.72 486.191 113.24C486.191 114.28 486.191 115.4 486.111 116.44C486.111 116.92 486.111 117.4 486.031 117.88C485.711 118.92 485.791 119.96 485.791 121C485.791 122.2 485.791 123.32 485.791 124.44C485.791 125.24 485.711 126.04 485.631 126.84C485.551 127.48 485.231 127.96 484.671 128.2C484.351 128.44 483.951 128.6 483.551 128.76C482.991 129 482.351 129.08 481.711 129.16C481.151 129.24 480.591 129.48 480.111 129.8C479.951 129.96 479.871 130.2 479.871 130.44C479.871 130.68 480.111 130.92 480.271 131C480.591 131.16 480.911 131.16 481.231 131.16C485.631 131.16 490.031 131.24 494.431 131.24C496.511 131.24 498.671 131.32 500.751 131.08C500.831 131.08 500.911 131.08 500.991 131.08ZM546.821 75.08C542.981 75.08 539.221 75.08 535.381 75.08C534.741 75.08 534.101 75.08 533.461 75.08C532.821 75.08 532.341 75.4 532.021 75.88C531.861 76.04 531.941 76.36 532.181 76.44C532.741 76.76 533.301 76.84 533.861 76.84C534.741 77 535.621 77.24 536.421 77.56C536.741 77.72 537.061 78.12 537.061 78.52C537.061 79.16 537.141 79.8 537.141 80.44C537.141 82.76 537.141 85 537.221 87.32C537.221 87.8 537.221 88.28 537.301 88.76C537.461 90.12 537.461 91.48 537.461 92.84C537.461 93.32 537.461 93.72 537.381 94.12C537.141 95.32 537.141 96.52 537.141 97.72C537.141 104.12 537.141 110.6 537.141 117C537.141 119 537.061 121 537.061 123.08C537.061 123.72 537.061 124.36 536.901 125C536.821 125.72 536.741 126.44 536.581 127.16C536.501 127.4 536.421 127.64 536.181 127.8C535.941 128.12 535.621 128.36 535.221 128.52C534.581 128.68 534.021 128.92 533.381 129.08C532.581 129.24 531.861 129.56 531.061 129.8C530.981 129.8 530.901 129.8 530.821 129.88C530.741 129.88 530.661 129.96 530.661 130.04C530.421 130.12 530.341 130.44 530.341 130.68C530.421 130.84 530.661 131 530.901 131.08C531.621 131.16 532.341 131.08 533.061 131.08C539.301 131.08 545.541 131 551.861 131C552.101 131 552.341 131 552.581 130.92C553.061 130.92 553.541 130.76 553.941 130.44C554.021 130.36 554.101 130.2 554.101 130.04C554.021 129.88 554.021 129.72 553.861 129.64C553.221 129.4 552.581 129.24 551.941 129.16C551.621 129.08 551.301 129 551.061 128.84C550.501 128.6 550.021 128.36 549.541 128.12C549.381 128.04 549.221 127.88 549.141 127.8C548.901 127.64 548.821 127.4 548.741 127.24C548.661 126.92 548.661 126.52 548.661 126.2C548.581 123.4 548.581 120.52 548.661 117.72C548.661 114.68 548.741 111.72 548.741 108.68C548.741 108.36 548.821 108.04 548.821 107.72C548.821 107.56 549.061 107.24 549.221 107.16C550.261 106.84 551.301 106.76 552.341 106.84C552.581 106.92 552.821 107 552.981 107.16C553.141 107.32 553.381 107.56 553.461 107.72C554.181 108.76 554.821 109.72 555.461 110.76C556.421 112.28 557.461 113.8 558.261 115.32C558.341 115.48 558.421 115.64 558.501 115.8C559.461 117.4 560.581 118.92 561.541 120.44C562.181 121.4 562.901 122.28 563.541 123.24C564.181 124.28 564.741 125.4 565.301 126.44C565.621 126.92 565.941 127.4 566.181 127.88C566.341 128.2 566.261 128.52 565.941 128.76C565.701 128.84 565.461 129 565.301 129C565.061 129.08 564.821 129.08 564.581 129.16C563.781 129.24 562.981 129.4 562.181 129.64C562.101 129.72 562.101 129.8 562.021 129.88C561.861 130.2 561.941 130.68 562.261 130.92C562.501 131.08 562.741 131.16 562.981 131.16C563.861 131.16 564.741 131.16 565.621 131.16C567.461 131.16 569.381 131.08 571.221 131.08C575.221 131 579.221 131 583.141 131C583.301 131 583.461 130.92 583.621 130.92C584.101 130.92 584.421 130.6 584.581 130.2C584.581 130.04 584.661 129.88 584.581 129.8C584.421 129.56 584.341 129.32 584.101 129.24C583.461 129 582.901 128.76 582.261 128.68C581.541 128.6 580.981 128.36 580.341 128.2C579.621 128.04 578.981 127.64 578.501 127.08C578.261 126.68 577.941 126.28 577.621 125.88C577.141 125.16 576.741 124.36 576.261 123.64C575.861 123.08 575.541 122.52 575.141 121.96C574.661 121.16 574.101 120.36 573.701 119.48C573.381 118.84 572.981 118.2 572.581 117.56C572.261 117.16 571.941 116.68 571.621 116.2C570.741 114.84 569.941 113.4 568.981 112.12C567.941 110.6 566.901 109 565.861 107.4C565.461 106.76 565.061 106.04 564.581 105.4C564.501 105.24 564.421 105.08 564.421 104.92C564.341 104.76 564.421 104.6 564.581 104.44C565.221 103.96 566.101 103.4 566.981 102.84C567.381 102.68 567.861 102.44 568.261 102.2C569.301 101.48 570.261 100.84 571.301 100.12C571.941 99.64 572.581 99.16 573.141 98.6C573.381 98.36 573.621 98.12 573.781 97.88C574.421 96.92 575.141 95.96 575.621 95C575.781 94.6 575.941 94.28 576.101 93.88C576.581 92.44 576.581 92.28 576.661 91C576.661 89.8 576.581 88.6 576.581 87.32C576.581 86.52 576.341 85.72 576.021 85C575.861 84.6 575.701 84.28 575.461 83.88C575.061 83.24 574.581 82.52 574.181 81.88C574.021 81.64 573.861 81.48 573.701 81.24C573.061 80.52 572.421 79.8 571.621 79.24C571.141 78.92 570.741 78.52 570.261 78.2C569.941 77.96 569.621 77.72 569.301 77.48C568.101 76.76 566.901 76.12 565.541 75.88C564.581 75.48 563.621 75.4 562.661 75.4C562.261 75.32 561.861 75.4 561.461 75.32C560.181 75 558.821 75.08 557.541 75.08C553.941 75.08 550.421 75.08 546.821 75.08ZM549.301 104.2C549.061 104.04 548.821 103.88 548.821 103.64C548.741 103.32 548.741 103 548.741 102.68C548.741 97.56 548.741 92.44 548.661 87.32C548.661 86.28 548.741 85.16 548.741 84.12C548.821 82.68 548.901 81.24 548.901 79.72C549.061 79.4 549.141 79 549.301 78.6C549.381 78.28 549.621 78.04 549.941 77.96C551.781 77.48 551.781 77.48 553.541 77.48C553.941 77.48 554.341 77.48 554.741 77.48C555.461 77.48 556.181 77.48 556.901 77.8C558.421 77.96 559.621 78.76 560.821 79.64C560.901 79.64 560.981 79.72 560.981 79.8C561.461 80.36 561.941 80.92 562.341 81.56C562.581 81.88 562.741 82.28 562.821 82.6C563.141 83.64 563.381 84.68 563.461 85.72C563.541 86.52 563.541 87.32 563.701 88.12C563.861 88.6 563.861 89.08 563.781 89.56C563.541 90.92 563.461 92.2 563.381 93.48C563.301 93.8 563.221 94.12 563.141 94.44C563.061 94.84 562.981 95.24 562.821 95.56C562.581 96.2 562.421 96.84 562.101 97.4C561.621 98.28 561.061 99.24 560.341 100.04C559.301 101.24 558.021 102.28 556.581 103.08C556.021 103.48 555.301 103.72 554.581 103.72C554.021 103.8 553.541 103.8 553.061 103.88C552.741 103.88 552.421 103.88 552.101 103.96C551.621 104.12 551.141 104.2 550.661 104.2C550.181 104.2 549.701 104.2 549.301 104.2ZM605.571 75.08C601.731 75.08 597.971 75.08 594.131 75.08C593.491 75.08 592.851 75.08 592.211 75.08C591.571 75.08 591.091 75.4 590.771 75.88C590.611 76.04 590.691 76.36 590.931 76.44C591.491 76.76 592.051 76.84 592.611 76.84C593.491 77 594.371 77.24 595.171 77.56C595.491 77.72 595.811 78.12 595.811 78.52C595.811 79.16 595.891 79.8 595.891 80.44C595.891 82.76 595.891 85 595.971 87.32C595.971 87.8 595.971 88.28 596.051 88.76C596.211 90.12 596.211 91.48 596.211 92.84C596.211 93.32 596.211 93.72 596.131 94.12C595.891 95.32 595.891 96.52 595.891 97.72C595.891 104.12 595.891 110.6 595.891 117C595.891 119 595.811 121 595.811 123.08C595.811 123.72 595.811 124.36 595.651 125C595.571 125.72 595.491 126.44 595.331 127.16C595.251 127.4 595.171 127.64 594.931 127.8C594.691 128.12 594.371 128.36 593.971 128.52C593.331 128.68 592.771 128.92 592.131 129.08C591.331 129.24 590.611 129.56 589.811 129.8C589.731 129.8 589.651 129.8 589.571 129.88C589.491 129.88 589.411 129.96 589.411 130.04C589.171 130.12 589.091 130.44 589.091 130.68C589.171 130.84 589.411 131 589.651 131.08C590.371 131.16 591.091 131.08 591.811 131.08C598.051 131.08 604.291 131 610.611 131C610.851 131 611.091 131 611.331 130.92C611.811 130.92 612.291 130.76 612.691 130.44C612.771 130.36 612.851 130.2 612.851 130.04C612.771 129.88 612.771 129.72 612.611 129.64C611.971 129.4 611.331 129.24 610.691 129.16C610.371 129.08 610.051 129 609.811 128.84C609.251 128.6 608.771 128.36 608.291 128.12C608.131 128.04 607.971 127.88 607.891 127.8C607.651 127.64 607.571 127.4 607.491 127.24C607.411 126.92 607.411 126.52 607.411 126.2C607.331 123.4 607.331 120.52 607.411 117.72C607.411 114.68 607.491 111.72 607.491 108.68C607.491 108.36 607.571 108.04 607.571 107.72C607.571 107.56 607.811 107.24 607.971 107.16C609.011 106.84 610.051 106.76 611.091 106.84C611.331 106.92 611.571 107 611.731 107.16C611.891 107.32 612.131 107.56 612.211 107.72C612.931 108.76 613.571 109.72 614.211 110.76C615.171 112.28 616.211 113.8 617.011 115.32C617.091 115.48 617.171 115.64 617.251 115.8C618.211 117.4 619.331 118.92 620.291 120.44C620.931 121.4 621.651 122.28 622.291 123.24C622.931 124.28 623.491 125.4 624.051 126.44C624.371 126.92 624.691 127.4 624.931 127.88C625.091 128.2 625.011 128.52 624.691 128.76C624.451 128.84 624.211 129 624.051 129C623.811 129.08 623.571 129.08 623.331 129.16C622.531 129.24 621.731 129.4 620.931 129.64C620.851 129.72 620.851 129.8 620.771 129.88C620.611 130.2 620.691 130.68 621.011 130.92C621.251 131.08 621.491 131.16 621.731 131.16C622.611 131.16 623.491 131.16 624.371 131.16C626.211 131.16 628.131 131.08 629.971 131.08C633.971 131 637.971 131 641.891 131C642.051 131 642.211 130.92 642.371 130.92C642.851 130.92 643.171 130.6 643.331 130.2C643.331 130.04 643.411 129.88 643.331 129.8C643.171 129.56 643.091 129.32 642.851 129.24C642.211 129 641.651 128.76 641.011 128.68C640.291 128.6 639.731 128.36 639.091 128.2C638.371 128.04 637.731 127.64 637.251 127.08C637.011 126.68 636.691 126.28 636.371 125.88C635.891 125.16 635.491 124.36 635.011 123.64C634.611 123.08 634.291 122.52 633.891 121.96C633.411 121.16 632.851 120.36 632.451 119.48C632.131 118.84 631.731 118.2 631.331 117.56C631.011 117.16 630.691 116.68 630.371 116.2C629.491 114.84 628.691 113.4 627.731 112.12C626.691 110.6 625.651 109 624.611 107.4C624.211 106.76 623.811 106.04 623.331 105.4C623.251 105.24 623.171 105.08 623.171 104.92C623.091 104.76 623.171 104.6 623.331 104.44C623.971 103.96 624.851 103.4 625.731 102.84C626.131 102.68 626.611 102.44 627.011 102.2C628.051 101.48 629.011 100.84 630.051 100.12C630.691 99.64 631.331 99.16 631.891 98.6C632.131 98.36 632.371 98.12 632.531 97.88C633.171 96.92 633.891 95.96 634.371 95C634.531 94.6 634.691 94.28 634.851 93.88C635.331 92.44 635.331 92.28 635.411 91C635.411 89.8 635.331 88.6 635.331 87.32C635.331 86.52 635.091 85.72 634.771 85C634.611 84.6 634.451 84.28 634.211 83.88C633.811 83.24 633.331 82.52 632.931 81.88C632.771 81.64 632.611 81.48 632.451 81.24C631.811 80.52 631.171 79.8 630.371 79.24C629.891 78.92 629.491 78.52 629.011 78.2C628.691 77.96 628.371 77.72 628.051 77.48C626.851 76.76 625.651 76.12 624.291 75.88C623.331 75.48 622.371 75.4 621.411 75.4C621.011 75.32 620.611 75.4 620.211 75.32C618.931 75 617.571 75.08 616.291 75.08C612.691 75.08 609.171 75.08 605.571 75.08ZM608.051 104.2C607.811 104.04 607.571 103.88 607.571 103.64C607.491 103.32 607.491 103 607.491 102.68C607.491 97.56 607.491 92.44 607.411 87.32C607.411 86.28 607.491 85.16 607.491 84.12C607.571 82.68 607.651 81.24 607.651 79.72C607.811 79.4 607.891 79 608.051 78.6C608.131 78.28 608.371 78.04 608.691 77.96C610.531 77.48 610.531 77.48 612.291 77.48C612.691 77.48 613.091 77.48 613.491 77.48C614.211 77.48 614.931 77.48 615.651 77.8C617.171 77.96 618.371 78.76 619.571 79.64C619.651 79.64 619.731 79.72 619.731 79.8C620.211 80.36 620.691 80.92 621.091 81.56C621.331 81.88 621.491 82.28 621.571 82.6C621.891 83.64 622.131 84.68 622.211 85.72C622.291 86.52 622.291 87.32 622.451 88.12C622.611 88.6 622.611 89.08 622.531 89.56C622.291 90.92 622.211 92.2 622.131 93.48C622.051 93.8 621.971 94.12 621.891 94.44C621.811 94.84 621.731 95.24 621.571 95.56C621.331 96.2 621.171 96.84 620.851 97.4C620.371 98.28 619.811 99.24 619.091 100.04C618.051 101.24 616.771 102.28 615.331 103.08C614.771 103.48 614.051 103.72 613.331 103.72C612.771 103.8 612.291 103.8 611.811 103.88C611.491 103.88 611.171 103.88 610.851 103.96C610.371 104.12 609.891 104.2 609.411 104.2C608.931 104.2 608.451 104.2 608.051 104.2ZM653.201 128.52C651.921 129 650.561 129.24 649.201 129.56C648.801 129.72 648.241 129.64 647.761 129.72C647.361 129.8 647.041 129.96 646.721 130.28C646.561 130.36 646.481 130.52 646.561 130.68C646.641 130.84 646.721 130.92 646.881 131C647.041 131 647.201 131.08 647.361 131.08C648.001 131.08 648.721 131.08 649.361 131.08C655.841 131.08 662.321 131.08 668.801 131.08C669.361 131.08 670.001 131 670.561 131C670.721 131 670.801 130.92 670.961 130.92C671.281 130.84 671.441 130.36 671.281 130.12C671.121 129.88 670.961 129.72 670.721 129.72C669.521 129.56 668.401 129.64 667.281 129.32C666.961 129.24 666.641 129.32 666.321 129.24C665.681 129.24 665.041 129.24 664.401 129.24C664.001 129.16 663.601 129.16 663.201 129C662.561 128.76 661.921 128.76 661.361 128.44C661.121 128.36 660.881 128.2 660.721 128.12C660.081 127.64 659.681 127.08 659.681 126.28C659.681 125.72 659.681 125.16 659.921 124.6C660.161 123.72 660.401 122.84 660.561 121.96C660.721 121.24 660.961 120.6 661.121 119.88C661.281 119.32 661.521 118.84 661.681 118.28C661.841 117.64 662.001 117 662.321 116.44C662.481 115.88 662.481 115.32 662.721 114.76C662.801 114.6 662.881 114.52 663.041 114.44C663.281 114.28 663.441 114.2 663.681 114.2C664.801 114.04 665.841 114.04 666.881 114.04C668.081 114.04 669.281 113.96 670.481 113.8C670.961 113.64 671.521 113.64 672.001 113.64C675.201 113.56 678.481 113.4 681.681 113.4C682.401 113.4 683.201 113.4 683.921 113.24C684.081 113.24 684.241 113.24 684.401 113.24C684.801 113.24 685.201 113.4 685.441 113.72C685.841 114.28 686.161 114.84 686.321 115.48C686.881 117.16 687.601 118.76 688.161 120.52C688.241 120.76 688.321 121.08 688.401 121.4C688.561 122.28 688.801 123.16 689.121 124.04C689.521 125.08 689.761 126.2 690.241 127.24C690.321 127.48 690.241 127.72 690.161 127.88C690.001 128.12 689.921 128.36 689.681 128.52C689.281 128.76 688.881 129.08 688.401 129.16C687.441 129.24 686.481 129.56 685.521 129.64C685.361 129.64 685.201 129.72 685.041 129.72C684.481 129.88 684.401 130.6 684.641 130.92C684.881 131.24 685.121 131.32 685.441 131.48C686.721 131.56 688.081 131.56 689.361 131.4C690.801 131.24 692.241 131.24 693.681 131.16C697.681 131.16 701.681 131.16 705.681 131.08C705.921 131.08 706.161 131.08 706.401 131.08C706.881 131.08 707.281 130.68 707.441 130.2C707.601 129.88 707.361 129.32 706.961 129.24C706.401 129.08 705.761 128.76 705.121 128.76C704.561 128.68 704.001 128.44 703.521 128.28C702.801 128.04 702.401 127.56 702.081 126.92C702.001 126.76 701.921 126.52 701.841 126.28C700.961 124.12 700.081 121.88 699.441 119.64C699.201 118.76 698.881 117.96 698.481 117.16C698.321 116.76 698.161 116.36 698.081 116.04C697.361 114.28 696.641 112.52 695.841 110.84C695.441 110.12 695.121 109.4 694.801 108.68C694.481 107.8 694.081 107 693.841 106.2C693.601 105.4 693.201 104.68 692.881 103.96C692.881 103.88 692.881 103.8 692.801 103.72C692.481 102.6 692.161 101.56 691.841 100.44C691.121 98.12 690.401 95.8 689.361 93.56C688.881 92.44 688.401 91.32 688.001 90.2C687.921 89.8 687.761 89.4 687.601 89.08C686.961 87.24 686.161 85.4 685.601 83.56C685.361 82.76 685.041 82.04 684.721 81.32C684.321 80.52 684.081 79.64 683.601 78.84C683.201 78.28 683.041 77.48 682.721 76.92C682.241 76.12 681.601 75.64 680.801 75.48C680.561 75.48 680.321 75.48 680.081 75.48C678.881 75.4 677.761 75.4 676.641 75.24C676.241 75.16 675.841 75.16 675.441 75.16C674.001 75.16 672.481 75.08 671.041 75.08C670.481 75.08 669.921 75.08 669.361 75.24C668.961 75.4 668.561 75.4 668.161 75.4C667.201 75.48 666.241 75.56 665.201 75.56C664.961 75.64 664.721 75.64 664.481 75.72C664.401 75.72 664.241 75.88 664.161 75.96C664.001 76.12 663.921 76.52 664.081 76.68C664.161 76.76 664.321 76.92 664.401 76.92C664.881 77 665.441 77 665.921 77C666.641 77 667.361 77 668.081 77C668.561 77.08 668.961 77.48 669.041 77.96C669.041 78.28 669.041 78.52 669.041 78.76C669.041 79.4 668.881 80.04 668.801 80.68C668.561 81.48 668.401 82.2 668.161 83C667.921 83.72 667.841 84.44 667.521 85.08C667.361 85.8 667.201 86.52 667.041 87.24C666.801 88.28 666.481 89.24 666.161 90.28C665.681 91.64 665.201 93 664.801 94.44C664.161 96.76 663.521 99.08 662.721 101.4C662.721 101.56 662.641 101.72 662.641 101.88C662.561 102.84 662.161 103.64 661.921 104.52C661.601 105.56 661.281 106.68 660.961 107.72C660.641 108.76 660.321 109.72 660.081 110.76C660.081 111 660.001 111.24 659.921 111.48C659.681 112.04 659.521 112.52 659.361 113.08C658.081 116.84 656.881 120.68 655.601 124.44C655.361 125.16 655.121 125.96 654.801 126.76C654.721 127.08 654.481 127.4 654.161 127.72C653.921 128.04 653.601 128.28 653.201 128.52ZM671.841 111.24C669.361 111.24 667.201 111.24 665.041 111.24C664.801 111.24 664.561 111.24 664.321 111.08C664.161 111 664.001 110.92 664.081 110.76C664.081 110.52 664.081 110.2 664.161 110.04C665.041 108.2 665.521 106.2 666.001 104.28C666.401 102.6 666.881 100.92 667.361 99.32C668.081 97.24 668.721 95.16 669.521 93.16C669.921 92.36 670.001 91.48 670.321 90.6C670.481 90.04 670.641 89.48 670.801 89C670.881 88.6 671.041 88.2 671.201 87.88C671.521 87.24 671.681 86.68 671.841 86.04C672.081 85.16 672.241 84.28 672.561 83.4C672.561 83.32 672.721 83.16 672.881 83.08C672.961 83 673.121 83 673.281 83.24C673.361 83.4 673.521 83.64 673.601 83.88C673.841 84.44 674.081 85 674.241 85.64C674.481 86.36 674.641 87.08 674.881 87.8C675.121 88.68 675.441 89.64 675.761 90.52C676.161 91.48 676.641 92.44 677.121 93.4C677.361 93.96 677.681 94.6 677.921 95.16C678.081 95.56 678.321 95.88 678.481 96.28C678.881 97.64 679.601 98.92 680.241 100.28C680.641 101.32 681.121 102.28 681.601 103.4C681.761 103.8 681.921 104.28 682.081 104.76C682.481 106.28 683.121 107.8 683.761 109.24C683.921 109.56 684.081 109.8 684.241 110.12C684.321 110.36 684.161 110.6 683.921 110.68C683.441 110.68 682.961 110.68 682.481 110.68C681.441 110.68 680.401 110.76 679.361 110.92C679.041 111 678.721 111 678.401 111C676.081 111.08 673.841 111.24 671.841 111.24ZM717.997 105.64C717.997 105.64 717.997 105.64 717.917 105.64C717.917 109.8 717.917 114.04 717.917 118.28C717.837 119.88 717.837 121.56 717.837 123.16C717.837 124.44 717.597 125.72 717.357 127C717.277 127.24 717.117 127.48 716.957 127.64C716.717 127.8 716.557 127.96 716.317 128.04C715.757 128.28 715.197 128.6 714.477 128.68C713.677 128.84 712.957 129.08 712.157 129.4C711.917 129.48 711.597 129.64 711.357 129.88C711.117 130.04 711.037 130.52 711.357 130.68C711.437 130.76 711.597 130.84 711.757 130.92C712.077 131 712.397 131 712.717 131C722.397 131.08 732.077 131.16 741.757 131.08C743.277 131.08 744.797 131 746.397 131C746.717 131 747.037 131 747.357 130.92C748.237 130.76 749.117 130.76 749.997 130.68C750.877 130.68 751.757 130.68 752.717 130.6C752.957 130.6 753.197 130.6 753.437 130.6C753.597 130.52 753.757 130.44 753.837 130.36C754.317 130.04 754.717 129.64 754.877 129.08C755.197 128.44 755.357 127.88 755.357 127.16C755.357 124.68 755.437 122.12 755.437 119.64C755.437 119 755.437 118.36 755.437 117.64C755.437 117.4 755.357 117.16 755.357 116.92C755.277 116.84 754.957 116.52 754.797 116.52C754.397 116.36 753.997 116.52 753.677 116.84C753.437 117.08 753.197 117.48 753.037 117.8C752.637 119.16 751.997 120.36 751.437 121.64C750.877 123.16 750.157 124.6 749.277 126.04C748.797 126.84 748.077 127.48 747.037 127.8C746.237 128.04 745.517 128.2 744.717 128.44C744.317 128.6 743.917 128.52 743.517 128.44C743.277 128.36 743.037 128.36 742.797 128.44C742.397 128.52 741.997 128.6 741.597 128.6C740.317 128.6 738.957 128.6 737.677 128.44C736.877 128.36 736.077 128.36 735.277 128.28C734.077 128.28 732.797 128.28 731.597 128.2C730.957 128.2 730.397 127.88 729.837 127.48C729.677 127.4 729.517 127.16 729.517 126.92C729.437 126.76 729.437 126.52 729.437 126.36C729.437 123.64 729.357 120.84 729.437 118.12C729.517 114.28 729.597 110.44 729.517 106.68C729.517 103.96 729.517 101.32 729.517 98.6C729.517 94.2 729.517 89.8 729.517 85.48C729.517 83.88 729.597 82.36 729.597 80.84C729.597 80.04 729.837 79.24 730.077 78.44C730.157 78.28 730.237 78.12 730.317 78.04C730.717 77.56 731.197 77.24 731.757 77.08C732.637 76.76 733.597 76.6 734.557 76.36C734.797 76.28 734.957 75.72 734.797 75.48C734.717 75.32 734.557 75.16 734.317 75.08C733.997 75.08 733.597 75 733.277 75C727.037 75 720.797 75 714.557 75C714.317 75 714.077 75 713.837 75.08C713.517 75.08 713.197 75.24 712.957 75.48C712.877 75.64 712.797 75.72 712.717 75.88C712.717 76.12 712.957 76.36 713.197 76.44C713.677 76.52 714.157 76.52 714.637 76.68C715.197 76.76 715.757 76.92 716.317 77C716.797 77.16 717.197 77.4 717.597 77.72C717.677 77.8 717.757 77.96 717.837 78.12C717.917 78.36 717.917 78.6 717.917 78.84C717.917 80.52 717.917 82.2 717.917 83.96C717.917 84.76 717.917 85.56 718.077 86.36C718.237 86.92 718.237 87.48 718.237 88.04C718.157 91.72 718.157 95.4 718.157 99.08C718.157 99.64 718.157 100.2 718.077 100.76C717.997 101.4 717.997 102.04 717.997 102.68C717.997 103.64 717.997 104.6 717.997 105.64Z" fill="white"/>
<path d="M1047 136.557C1036.56 136.557 1032.66 131.78 1032.13 130.102C1031.84 129.209 1031.73 127.659 1031.78 125.361C1029.95 121.587 1031.84 113.291 1033.17 111.814C1035.01 109.79 1037.4 109.443 1038.17 109.37C1040.48 107.638 1044.11 107 1046.76 107C1051.45 107 1057.31 107.547 1061.05 111.814C1062.66 113.655 1063.67 120.219 1062.48 124.213C1062.61 127.057 1062.52 129.026 1062.19 130.084L1062.17 130.157L1062.13 130.23C1061.2 131.707 1057.41 136.557 1047 136.557ZM1046.76 108.295C1044.27 108.295 1040.87 108.878 1038.82 110.501L1038.65 110.629H1038.43C1038.17 110.629 1035.87 110.756 1034.14 112.652C1033.17 113.728 1031.29 121.66 1033.01 124.887L1033.08 125.033V125.197C1033.01 127.951 1033.19 129.154 1033.36 129.664C1033.74 130.85 1037.17 135.244 1047 135.244C1056.56 135.244 1060.06 131.014 1060.96 129.61C1061.14 128.935 1061.32 127.44 1061.18 124.14V124.03L1061.22 123.921C1062.39 120.183 1061.34 114.075 1060.08 112.634C1056.67 108.787 1051.18 108.295 1046.76 108.295Z" fill="#FDF1E3"/>
<path d="M1046.76 131.196C1044.05 131.196 1043.25 128.589 1042.55 126.309C1041.98 124.45 1041.43 122.681 1040.08 122.353C1038.56 121.988 1037.9 123.027 1037.02 124.814C1036.47 125.908 1035.98 126.929 1035.01 127.258C1034.51 127.422 1033.96 127.367 1033.38 127.075C1032.28 126.528 1031.54 125.361 1031.21 123.611C1030.41 119.417 1032.06 113.035 1033.17 111.814C1035.04 109.753 1037.44 109.425 1038.19 109.37C1040.3 107.802 1043.54 107 1046.76 107C1051.45 107 1057.31 107.547 1061.05 111.814C1062.64 113.619 1063.49 119.545 1062.7 123.337C1062.26 125.434 1061.4 126.802 1060.13 127.403C1059.57 127.677 1059.04 127.713 1058.54 127.549C1057.57 127.203 1057.06 126.091 1056.53 124.924C1055.65 123.009 1055.01 121.879 1053.47 122.243C1052.09 122.572 1051.56 124.358 1050.99 126.237C1050.28 128.57 1049.47 131.196 1046.76 131.196ZM1039.47 120.985C1039.75 120.985 1040.04 121.022 1040.37 121.095C1042.46 121.587 1043.14 123.793 1043.78 125.927C1044.55 128.406 1045.12 129.902 1046.76 129.902C1048.41 129.902 1048.98 128.388 1049.75 125.872C1050.41 123.72 1051.07 121.496 1053.16 121.003C1055.85 120.347 1056.91 122.681 1057.7 124.395C1058.1 125.27 1058.52 126.182 1058.98 126.346C1059.04 126.364 1059.2 126.437 1059.57 126.255C1060.67 125.726 1061.18 124.249 1061.42 123.082C1062.22 119.18 1061.16 113.911 1060.06 112.652C1056.67 108.787 1051.16 108.295 1046.75 108.295C1044.25 108.295 1040.96 108.878 1038.96 110.355C1038.89 110.464 1038.78 110.556 1038.65 110.61C1037.77 111.358 1037.2 112.324 1037.2 113.509C1037.2 117.12 1043.05 118.469 1046.73 118.469C1051.49 118.469 1055.72 115.406 1057.24 114.166C1053.34 111.431 1049.24 110.701 1046.8 110.938C1045.39 111.066 1043.72 111.54 1043.72 113.054C1043.72 113.582 1043.89 114.002 1044.22 114.312C1045.06 115.114 1046.69 115.041 1046.71 115.041C1047.08 115.023 1047.37 115.296 1047.39 115.643C1047.41 115.989 1047.13 116.299 1046.78 116.317C1046.69 116.317 1044.58 116.427 1043.32 115.242C1042.72 114.676 1042.42 113.947 1042.42 113.054C1042.42 111.139 1043.98 109.899 1046.67 109.644C1049.47 109.389 1054.29 110.264 1058.65 113.601L1059.26 114.056L1058.71 114.567C1058.49 114.786 1053.17 119.727 1046.71 119.727C1042.37 119.727 1035.9 118.068 1035.9 113.491C1035.9 112.561 1036.16 111.723 1036.62 110.993C1035.83 111.267 1034.9 111.777 1034.11 112.652C1033.28 113.564 1031.75 119.581 1032.46 123.356C1032.72 124.687 1033.21 125.544 1033.92 125.908C1034.31 126.109 1034.49 126.036 1034.57 126.018C1035.01 125.872 1035.43 125.033 1035.83 124.231C1036.54 122.827 1037.46 120.985 1039.47 120.985Z" fill="#FDF1E3"/>
</g>
<defs>
<clipPath id="clip0_757_2">
<rect width="150" height="1080" fill="white" transform="translate(1080) rotate(90)"/>
</clipPath>
</defs>
</svg>
