<svg width="1080" height="150" viewBox="0 0 1080 150" fill="none" xmlns="http://www.w3.org/2000/svg">
<g clip-path="url(#clip0_759_18)">
<rect width="150" height="1080" transform="translate(1080) rotate(90)" fill="#DD8964"/>
<path d="M121.503 94.446C9.13466 106.97 -331.702 47.2943 -395 45.3848C-110.788 -36.5323 647.944 -333.86 1026.06 -364.201C1404.18 -394.541 1609.07 -202.901 1691.87 -98.4491C1751.14 -23.6658 1740.14 25.4803 1561.32 36.136C1411.45 45.0664 1307.86 -10.9742 1186.08 -4.98039C1064.31 1.01338 1077.42 73.7469 913.571 79.1985C749.724 84.6502 525.265 19.2282 366.851 22.2777C208.438 25.3272 233.871 81.9219 121.503 94.446Z" fill="#A3BD9B"/>
<path d="M187.066 83.4013C74.6981 95.9255 -235.125 40.2806 -298.423 38.3711C-14.2113 -43.546 744.521 -340.874 1122.64 -371.214C1500.75 -401.555 1674.64 -213.945 1757.43 -109.494C1816.7 -34.7105 1805.7 14.4355 1626.88 25.0913C1477.01 34.0217 1373.42 -22.0189 1251.65 -16.0251C1129.87 -10.0313 1142.98 62.7022 979.134 68.1538C815.288 73.6055 590.828 8.18356 432.415 11.233C274.001 14.2825 299.434 70.8772 187.066 83.4013Z" stroke="#FDF1E3" stroke-opacity="0.2" stroke-width="6"/>
<path d="M124.6 78.04C126.12 78.04 127.64 78.04 129.24 78.04C129.4 78.04 129.56 78.04 129.72 78.12C130.52 78.36 131.24 79.24 131.24 80.12C131.24 81 131.24 81.88 131.24 82.76C131.24 83.96 131.24 85.08 131.32 86.2C131.32 87.4 131.32 88.6 131.32 89.88C131.32 98.28 131.24 106.76 131.24 115.16C131.24 115.64 131.24 116.12 131.16 116.6C131.08 117.4 131.08 118.12 131.08 118.84C131 121.16 130.92 123.56 130.84 125.88C130.84 126.12 130.84 126.36 130.76 126.6C130.6 127.24 130.36 127.8 129.72 128.2C129.48 128.36 129.16 128.52 128.84 128.6C128.28 128.76 127.64 129 127 129.16C126.36 129.4 125.8 129.56 125.16 129.8C124.92 129.88 124.76 130.04 124.6 130.28C124.44 130.52 124.6 131 124.92 131C125.16 131.08 125.4 131.16 125.64 131.16C132.36 131.08 139.08 131.08 145.8 131C146.04 131 146.28 131 146.52 131C146.84 130.92 147.16 130.84 147.48 130.76C147.56 130.68 147.64 130.68 147.72 130.6C147.8 130.52 147.88 130.36 147.96 130.2C148.04 130.12 147.8 129.64 147.64 129.64C147.16 129.48 146.68 129.32 146.2 129.24C145.32 129.08 144.52 128.68 143.72 128.36C143.48 128.2 143.32 128.12 143.08 127.96C142.76 127.64 142.52 127.32 142.52 126.92C142.52 124.76 142.44 122.68 142.44 120.6C142.6 115.8 142.68 111 142.6 106.2C142.6 99.72 142.6 93.24 142.6 86.68C142.6 85.56 142.6 84.44 142.68 83.32C142.68 81.32 142.68 81.32 143.08 79.4C143.16 78.92 143.56 78.6 144.04 78.44C144.2 78.44 144.36 78.36 144.52 78.36C144.76 78.36 145 78.36 145.24 78.36C146.6 78.36 148.04 78.44 149.4 78.44C149.8 78.44 150.2 78.6 150.6 78.68C151.24 78.84 151.8 79.08 152.36 79.4C152.6 79.48 152.84 79.64 153 79.72C153.88 80.36 154.6 81.16 155.16 82.12C155.32 82.52 155.56 82.92 155.8 83.4C156.28 84.2 156.6 85.16 156.84 86.12C156.92 86.84 157.16 87.48 157.4 88.2C157.4 88.28 157.48 88.36 157.56 88.36C157.64 88.52 157.8 88.6 157.96 88.6C158.04 88.68 158.12 88.68 158.2 88.68C158.76 88.68 159.16 88.36 159.16 87.88C159.24 86.68 159.08 85.56 158.92 84.44C158.84 83.72 158.76 83 158.76 82.28C158.68 80.84 158.6 79.32 158.6 77.88C158.52 77.4 158.52 76.92 158.52 76.44C158.44 76.12 158.36 75.8 158.2 75.48C158.04 75.24 157.88 75.16 157.64 75.08C157.32 75 157 75 156.68 75C155.4 74.92 154.04 74.92 152.76 74.92C145.48 75 138.2 75 130.84 75C127 75 123.24 75 119.4 75.08C118.68 75.08 117.96 75.08 117.24 75.08C116.92 75.16 116.6 75.24 116.28 75.4C116.04 75.56 115.8 75.96 115.8 76.2C115.72 76.44 115.72 76.68 115.72 76.92C115.64 77.88 115.64 78.84 115.48 79.88C115.4 80.36 115.4 80.84 115.4 81.32C115.32 82.2 115.32 83.08 115.24 83.96C115.24 85 115.24 86.12 114.92 87.08C114.84 87.4 114.92 87.72 115 88.04C115.24 88.68 115.88 88.84 116.44 88.52C116.52 88.52 116.6 88.44 116.6 88.36C116.92 87.88 117.16 87.32 117.16 86.76C117.32 85.56 117.8 84.44 118.36 83.32C118.68 82.76 119 82.2 119.32 81.64C119.64 81.16 119.96 80.76 120.36 80.36C120.76 80.04 121.08 79.72 121.48 79.4C122.04 78.92 122.68 78.52 123.4 78.36C123.8 78.28 124.2 78.12 124.6 78.04ZM184.569 131.08C185.369 131.08 186.169 131.08 186.969 131.08C192.409 131.08 197.849 131.08 203.289 131.08C204.009 131.08 204.649 131.08 205.289 131C205.769 131 206.249 130.76 206.649 130.52C206.889 130.28 207.049 129.96 207.129 129.64C207.209 129 207.209 128.36 207.289 127.72C207.369 127.32 207.369 126.92 207.449 126.52C207.609 125.88 207.689 125.24 207.689 124.6C207.769 123.56 207.769 122.52 207.929 121.48C208.249 120.2 208.249 118.84 208.169 117.56C208.169 117.16 207.689 116.84 207.289 117C206.969 117 206.729 117.24 206.569 117.56C206.489 117.8 206.409 118.04 206.409 118.28C206.249 118.92 206.169 119.56 205.929 120.12C205.769 120.76 205.529 121.4 205.209 121.96C204.969 122.52 204.649 123.08 204.409 123.72C204.169 124.2 203.849 124.68 203.529 125.16C203.209 125.56 202.889 125.88 202.489 126.2C202.169 126.44 201.849 126.68 201.449 126.84C200.969 127.16 200.489 127.4 199.929 127.56C198.649 127.88 197.449 128.2 196.089 128.28C194.969 128.28 193.849 128.28 192.729 128.52C192.329 128.6 191.849 128.6 191.449 128.6C188.489 128.6 185.449 128.6 182.489 128.6C182.249 128.6 182.009 128.6 181.769 128.6C181.609 128.52 181.209 128.28 181.209 128.12C181.129 127.96 181.049 127.8 181.049 127.64C181.049 126.68 180.969 125.72 180.969 124.76C180.969 121.32 180.969 117.88 180.969 114.52C180.969 112.84 180.969 111.24 181.209 109.64C181.289 109.24 181.289 108.84 181.289 108.44C181.369 107.32 181.369 106.12 181.449 105C181.449 104.76 181.449 104.52 181.529 104.28C181.529 104.12 181.849 103.8 182.009 103.8C182.249 103.72 182.649 103.64 182.969 103.64C185.529 103.72 188.169 103.72 190.729 103.72C191.769 103.72 192.649 103.96 193.529 104.44C193.689 104.6 193.929 104.68 194.169 104.84C194.249 104.84 194.249 104.92 194.329 105C194.649 105.16 194.889 105.4 194.969 105.72C195.369 106.68 195.689 107.72 195.929 108.68C196.089 109.24 196.249 109.8 196.489 110.36C196.569 110.44 196.649 110.6 196.729 110.76C196.889 111 197.049 111.08 197.369 111.08C197.609 111.08 197.929 110.76 198.009 110.44C198.009 110.2 198.009 109.96 198.009 109.72C198.009 109.08 197.929 108.44 197.769 107.8C197.609 107.16 197.529 106.52 197.529 105.88C197.449 104.68 197.449 103.48 197.529 102.2C197.609 101.72 197.529 101.24 197.689 100.76C197.929 99.24 197.929 97.72 198.089 96.2C198.169 95.56 198.089 95 198.089 94.44C198.089 94.28 198.089 94.12 198.009 93.96C197.929 93.88 197.769 93.72 197.689 93.64C197.609 93.56 197.129 93.72 197.049 93.8C196.889 94.04 196.729 94.2 196.649 94.44C196.409 95.16 196.249 95.88 196.169 96.6C196.009 97.32 195.769 97.96 195.529 98.68C195.369 99.24 194.969 99.64 194.489 99.96C193.609 100.52 192.729 100.84 191.769 100.84C191.369 100.84 190.969 100.92 190.569 100.92C187.849 100.92 185.209 100.92 182.489 100.92C182.409 100.92 182.329 100.92 182.249 100.92C181.929 100.84 181.609 100.52 181.609 100.28C181.609 99.56 181.609 98.76 181.609 98.04C181.609 97.4 181.529 96.76 181.609 96.12C181.769 95.32 181.769 94.52 181.769 93.72C181.769 91.96 181.769 90.28 181.769 88.6C181.769 87.24 181.849 85.96 181.609 84.68C181.529 84.44 181.529 84.2 181.529 83.96C181.529 82.36 181.449 80.68 181.449 79.08C181.369 78.84 181.449 78.6 181.449 78.36C181.449 78.12 181.769 77.72 182.089 77.64C182.409 77.56 182.729 77.56 183.049 77.56C186.089 77.56 189.209 77.56 192.249 77.56C193.289 77.56 194.249 77.56 195.209 77.56C195.529 77.56 195.849 77.56 196.169 77.64C196.889 77.88 197.609 77.88 198.329 78.04C198.569 78.12 198.809 78.2 198.969 78.36C199.129 78.44 199.289 78.52 199.369 78.6C200.729 79.8 201.849 81.24 202.809 82.76C203.209 83.4 203.609 84.12 204.009 84.84C204.089 85 204.169 85.16 204.169 85.32C204.409 86.04 204.729 86.68 204.809 87.4C204.809 87.64 204.889 87.88 204.969 88.12C204.969 88.28 205.049 88.44 205.209 88.52C205.289 88.6 205.449 88.68 205.609 88.68C205.769 88.76 206.169 88.44 206.169 88.28C206.169 88.12 206.249 87.96 206.249 87.8C206.249 86.6 206.249 85.4 206.089 84.2C206.009 83.4 205.929 82.52 205.929 81.72C205.929 80.52 205.929 79.32 205.929 78.12C205.849 77.32 205.849 76.6 205.689 75.88C205.689 75.64 205.289 75.32 205.049 75.24C204.649 75.16 204.249 75.16 203.849 75.16C195.849 75.08 187.929 75.08 179.929 75C179.369 75 178.809 75 178.249 75.08C177.209 75.16 176.089 75.16 175.049 75.16C174.489 75.16 173.929 75.24 173.369 75.32C171.769 75.64 170.169 75.56 168.489 75.32C167.289 75.16 166.089 75.16 164.889 75.24C164.649 75.24 164.329 75.56 164.329 75.88C164.329 76.04 164.409 76.2 164.489 76.36C164.809 76.68 165.129 76.92 165.529 76.92C166.409 77 167.289 77.32 168.169 77.48C168.569 77.56 168.889 77.8 169.209 78.12C169.449 78.28 169.609 78.6 169.609 78.92C169.689 79.4 169.689 79.88 169.689 80.36C169.689 83.8 169.689 87.24 169.689 90.6C169.769 92.2 169.769 93.72 169.849 95.24C169.849 95.72 169.849 96.2 169.929 96.68C170.089 97.48 170.089 98.36 170.089 99.16C170.089 101.24 170.089 103.4 170.169 105.48C170.249 106.52 170.169 107.56 170.089 108.6C169.849 110.2 169.849 111.72 169.769 113.24C169.769 114.28 169.769 115.4 169.689 116.44C169.689 116.92 169.689 117.4 169.609 117.88C169.289 118.92 169.369 119.96 169.369 121C169.369 122.2 169.369 123.32 169.369 124.44C169.369 125.24 169.289 126.04 169.209 126.84C169.129 127.48 168.809 127.96 168.249 128.2C167.929 128.44 167.529 128.6 167.129 128.76C166.569 129 165.929 129.08 165.289 129.16C164.729 129.24 164.169 129.48 163.689 129.8C163.529 129.96 163.449 130.2 163.449 130.44C163.449 130.68 163.689 130.92 163.849 131C164.169 131.16 164.489 131.16 164.809 131.16C169.209 131.16 173.609 131.24 178.009 131.24C180.089 131.24 182.249 131.32 184.329 131.08C184.409 131.08 184.489 131.08 184.569 131.08ZM230.399 75.08C226.559 75.08 222.799 75.08 218.959 75.08C218.319 75.08 217.679 75.08 217.039 75.08C216.399 75.08 215.919 75.4 215.599 75.88C215.439 76.04 215.519 76.36 215.759 76.44C216.319 76.76 216.879 76.84 217.439 76.84C218.319 77 219.199 77.24 219.999 77.56C220.319 77.72 220.639 78.12 220.639 78.52C220.639 79.16 220.719 79.8 220.719 80.44C220.719 82.76 220.719 85 220.799 87.32C220.799 87.8 220.799 88.28 220.879 88.76C221.039 90.12 221.039 91.48 221.039 92.84C221.039 93.32 221.039 93.72 220.959 94.12C220.719 95.32 220.719 96.52 220.719 97.72C220.719 104.12 220.719 110.6 220.719 117C220.719 119 220.639 121 220.639 123.08C220.639 123.72 220.639 124.36 220.479 125C220.399 125.72 220.319 126.44 220.159 127.16C220.079 127.4 219.999 127.64 219.759 127.8C219.519 128.12 219.199 128.36 218.799 128.52C218.159 128.68 217.599 128.92 216.959 129.08C216.159 129.24 215.439 129.56 214.639 129.8C214.559 129.8 214.479 129.8 214.399 129.88C214.319 129.88 214.239 129.96 214.239 130.04C213.999 130.12 213.919 130.44 213.919 130.68C213.999 130.84 214.239 131 214.479 131.08C215.199 131.16 215.919 131.08 216.639 131.08C222.879 131.08 229.119 131 235.439 131C235.679 131 235.919 131 236.159 130.92C236.639 130.92 237.119 130.76 237.519 130.44C237.599 130.36 237.679 130.2 237.679 130.04C237.599 129.88 237.599 129.72 237.439 129.64C236.799 129.4 236.159 129.24 235.519 129.16C235.199 129.08 234.879 129 234.639 128.84C234.079 128.6 233.599 128.36 233.119 128.12C232.959 128.04 232.799 127.88 232.719 127.8C232.479 127.64 232.399 127.4 232.319 127.24C232.239 126.92 232.239 126.52 232.239 126.2C232.159 123.4 232.159 120.52 232.239 117.72C232.239 114.68 232.319 111.72 232.319 108.68C232.319 108.36 232.399 108.04 232.399 107.72C232.399 107.56 232.639 107.24 232.799 107.16C233.839 106.84 234.879 106.76 235.919 106.84C236.159 106.92 236.399 107 236.559 107.16C236.719 107.32 236.959 107.56 237.039 107.72C237.759 108.76 238.399 109.72 239.039 110.76C239.999 112.28 241.039 113.8 241.839 115.32C241.919 115.48 241.999 115.64 242.079 115.8C243.039 117.4 244.159 118.92 245.119 120.44C245.759 121.4 246.479 122.28 247.119 123.24C247.759 124.28 248.319 125.4 248.879 126.44C249.199 126.92 249.519 127.4 249.759 127.88C249.919 128.2 249.839 128.52 249.519 128.76C249.279 128.84 249.039 129 248.879 129C248.639 129.08 248.399 129.08 248.159 129.16C247.359 129.24 246.559 129.4 245.759 129.64C245.679 129.72 245.679 129.8 245.599 129.88C245.439 130.2 245.519 130.68 245.839 130.92C246.079 131.08 246.319 131.16 246.559 131.16C247.439 131.16 248.319 131.16 249.199 131.16C251.039 131.16 252.959 131.08 254.799 131.08C258.799 131 262.799 131 266.719 131C266.879 131 267.039 130.92 267.199 130.92C267.679 130.92 267.999 130.6 268.159 130.2C268.159 130.04 268.239 129.88 268.159 129.8C267.999 129.56 267.919 129.32 267.679 129.24C267.039 129 266.479 128.76 265.839 128.68C265.119 128.6 264.559 128.36 263.919 128.2C263.199 128.04 262.559 127.64 262.079 127.08C261.839 126.68 261.519 126.28 261.199 125.88C260.719 125.16 260.319 124.36 259.839 123.64C259.439 123.08 259.119 122.52 258.719 121.96C258.239 121.16 257.679 120.36 257.279 119.48C256.959 118.84 256.559 118.2 256.159 117.56C255.839 117.16 255.519 116.68 255.199 116.2C254.319 114.84 253.519 113.4 252.559 112.12C251.519 110.6 250.479 109 249.439 107.4C249.039 106.76 248.639 106.04 248.159 105.4C248.079 105.24 247.999 105.08 247.999 104.92C247.919 104.76 247.999 104.6 248.159 104.44C248.799 103.96 249.679 103.4 250.559 102.84C250.959 102.68 251.439 102.44 251.839 102.2C252.879 101.48 253.839 100.84 254.879 100.12C255.519 99.64 256.159 99.16 256.719 98.6C256.959 98.36 257.199 98.12 257.359 97.88C257.999 96.92 258.719 95.96 259.199 95C259.359 94.6 259.519 94.28 259.679 93.88C260.159 92.44 260.159 92.28 260.239 91C260.239 89.8 260.159 88.6 260.159 87.32C260.159 86.52 259.919 85.72 259.599 85C259.439 84.6 259.279 84.28 259.039 83.88C258.639 83.24 258.159 82.52 257.759 81.88C257.599 81.64 257.439 81.48 257.279 81.24C256.639 80.52 255.999 79.8 255.199 79.24C254.719 78.92 254.319 78.52 253.839 78.2C253.519 77.96 253.199 77.72 252.879 77.48C251.679 76.76 250.479 76.12 249.119 75.88C248.159 75.48 247.199 75.4 246.239 75.4C245.839 75.32 245.439 75.4 245.039 75.32C243.759 75 242.399 75.08 241.119 75.08C237.519 75.08 233.999 75.08 230.399 75.08ZM232.879 104.2C232.639 104.04 232.399 103.88 232.399 103.64C232.319 103.32 232.319 103 232.319 102.68C232.319 97.56 232.319 92.44 232.239 87.32C232.239 86.28 232.319 85.16 232.319 84.12C232.399 82.68 232.479 81.24 232.479 79.72C232.639 79.4 232.719 79 232.879 78.6C232.959 78.28 233.199 78.04 233.519 77.96C235.359 77.48 235.359 77.48 237.119 77.48C237.519 77.48 237.919 77.48 238.319 77.48C239.039 77.48 239.759 77.48 240.479 77.8C241.999 77.96 243.199 78.76 244.399 79.64C244.479 79.64 244.559 79.72 244.559 79.8C245.039 80.36 245.519 80.92 245.919 81.56C246.159 81.88 246.319 82.28 246.399 82.6C246.719 83.64 246.959 84.68 247.039 85.72C247.119 86.52 247.119 87.32 247.279 88.12C247.439 88.6 247.439 89.08 247.359 89.56C247.119 90.92 247.039 92.2 246.959 93.48C246.879 93.8 246.799 94.12 246.719 94.44C246.639 94.84 246.559 95.24 246.399 95.56C246.159 96.2 245.999 96.84 245.679 97.4C245.199 98.28 244.639 99.24 243.919 100.04C242.879 101.24 241.599 102.28 240.159 103.08C239.599 103.48 238.879 103.72 238.159 103.72C237.599 103.8 237.119 103.8 236.639 103.88C236.319 103.88 235.999 103.88 235.679 103.96C235.199 104.12 234.719 104.2 234.239 104.2C233.759 104.2 233.279 104.2 232.879 104.2ZM283.789 87.48C284.029 87.48 284.269 87.64 284.349 87.88C285.869 90.76 287.309 93.64 288.749 96.6C288.829 96.76 288.909 97 289.069 97.24C289.709 98.92 290.349 100.28 291.229 101.88C291.949 103.08 292.429 104.36 292.909 105.64C293.549 107.48 294.109 109.32 294.989 111.08C295.149 111.32 295.229 111.48 295.309 111.72C295.789 113.32 296.509 114.76 296.989 116.28C297.469 117.72 297.949 119.08 298.669 120.36C298.989 121.32 299.549 122.28 299.869 123.32C300.029 123.8 300.269 124.36 300.509 124.84C301.229 126.12 301.869 127.48 302.429 128.84C302.589 129 302.669 129.24 302.749 129.48C302.829 129.56 302.829 129.56 302.909 129.64C303.069 130.04 303.629 130.04 303.949 129.72C304.109 129.4 304.269 129.16 304.429 128.84C304.829 127.72 305.309 126.6 305.709 125.48C306.029 124.6 306.269 123.72 306.589 122.92C306.909 121.8 307.229 120.76 307.709 119.72C308.349 118.28 308.909 116.84 309.469 115.4C309.789 114.6 310.189 113.8 310.589 113C310.989 112.12 311.309 111.16 311.549 110.2C311.789 109.4 312.109 108.52 312.349 107.64C312.669 106.6 313.069 105.48 313.389 104.44C313.949 103 314.349 101.48 314.989 100.12C315.149 99.88 315.229 99.64 315.229 99.4C315.789 97.72 316.349 96.04 316.909 94.28C317.629 91.8 318.589 89.4 319.629 87C319.869 86.6 320.029 86.12 320.269 85.72C320.269 85.64 320.349 85.56 320.429 85.56C320.509 85.48 320.589 85.48 320.669 85.56C320.749 85.56 320.909 85.72 320.989 85.88C321.149 86.76 321.069 87.64 321.069 88.52C321.069 95.64 321.069 102.68 321.069 109.72C321.069 110.28 320.989 110.92 320.989 111.48C320.909 112.2 320.829 112.92 320.829 113.64C320.829 116.76 320.749 119.8 320.749 122.92C320.749 123.96 320.669 125 320.589 126.04C320.509 126.52 320.349 127 320.269 127.48C320.189 127.72 320.029 127.96 319.869 128.12C319.869 128.12 319.789 128.2 319.709 128.28C319.069 128.76 318.349 129.16 317.469 129.24C316.589 129.56 315.629 129.72 314.749 130.12C314.589 130.2 314.429 130.28 314.349 130.44C314.269 130.52 314.189 130.68 314.109 130.84C314.109 131 314.429 131.4 314.509 131.4C314.749 131.48 314.989 131.56 315.229 131.56C318.029 131.48 320.749 131.48 323.549 131.48C324.909 131.48 326.269 131.48 327.629 131.32C328.109 131.24 328.669 131.24 329.149 131.24C331.149 131.24 333.149 131.24 335.229 131.16C335.789 131.16 336.349 131.16 336.909 131.08C337.069 131.08 337.229 131 337.389 131C337.549 130.92 337.789 130.6 337.789 130.44C337.789 130.2 337.549 129.88 337.469 129.8C337.309 129.8 337.149 129.64 336.989 129.64C335.789 129.56 334.749 129.16 333.789 128.6C333.469 128.52 333.229 128.28 332.909 128.12C332.669 127.88 332.509 127.64 332.349 127.32C332.189 126.92 332.029 126.44 332.109 125.96C332.349 124.92 332.349 123.96 332.349 123C332.349 120.92 332.349 118.76 332.349 116.68C332.429 113.4 332.429 110.2 332.429 106.92C332.349 99.64 332.429 92.28 332.429 85C332.429 83.88 332.429 82.68 332.509 81.56C332.509 80.68 332.669 79.8 332.909 78.92C332.989 78.36 333.389 77.88 333.869 77.56C334.189 77.32 334.509 77.08 334.909 77C335.789 76.92 336.669 76.68 337.469 76.36C337.709 76.28 337.709 76.2 337.709 75.96C337.709 75.64 337.469 75.32 337.229 75.24C336.909 75.16 336.589 75.16 336.269 75.16C333.149 75.16 330.029 75.16 326.989 75.16C324.429 75.16 324.429 75.16 321.869 75.56C321.789 75.56 321.709 75.56 321.629 75.56C321.389 75.72 321.229 75.8 320.989 75.88C320.829 76.04 320.589 76.2 320.509 76.44C320.269 76.84 319.949 77.24 319.789 77.72C319.069 79.24 318.429 80.84 317.869 82.44C317.469 83.64 317.069 84.76 316.589 85.88C315.709 87.96 314.909 90.04 314.189 92.28C314.029 92.76 313.869 93.32 313.629 93.88C312.909 95.8 312.109 97.8 311.229 99.72C310.349 101.88 309.389 104.04 308.589 106.28C308.349 106.76 308.189 107.32 307.949 107.8C307.869 108.04 307.709 108.12 307.549 108.04C307.389 108.04 307.309 107.96 307.229 107.8C307.069 107.48 306.989 107.16 306.829 106.84C306.349 105.96 305.869 105 305.469 104.04C304.989 103 304.429 102.04 303.949 100.92C303.869 100.6 303.629 100.2 303.469 99.88C302.829 98.76 302.269 97.56 301.709 96.36C301.309 95.64 300.989 94.92 300.669 94.2C300.269 93.16 299.869 92.2 299.309 91.32C298.429 89.48 297.469 87.72 296.589 85.88C296.269 85.32 296.029 84.68 295.789 84.12C294.909 82.28 294.109 80.36 293.309 78.52C292.989 77.88 292.669 77.24 292.349 76.52C292.269 76.36 292.189 76.12 292.029 75.88C291.869 75.56 291.469 75.32 291.069 75.24C290.829 75.16 290.589 75.08 290.349 75.08C289.549 75.08 288.749 75 287.949 75C285.869 75 283.869 75 281.869 75C280.909 75 280.029 75 279.149 75.24C278.429 75.32 277.709 75.4 276.989 75.4C276.509 75.48 276.029 75.48 275.549 75.56C275.149 75.56 274.749 75.64 274.349 75.8C274.029 75.96 273.709 76.04 273.469 76.2C273.389 76.2 273.309 76.28 273.309 76.36C273.069 76.52 273.149 76.84 273.309 77C273.549 77.16 273.869 77.32 274.189 77.32C275.149 77.32 276.109 77.32 277.069 77.4C277.309 77.4 277.549 77.48 277.789 77.56C278.029 77.56 278.429 78.04 278.429 78.28C278.429 78.52 278.429 78.76 278.429 79C278.429 80.6 278.429 82.2 278.429 83.88C278.429 84.36 278.349 84.84 278.429 85.32C278.669 86.36 278.669 87.4 278.749 88.44C278.829 90.28 278.749 92.04 279.069 93.8C279.149 94.04 279.149 94.28 279.149 94.52C279.229 96.52 279.309 98.44 279.389 100.36C279.389 101.56 279.389 102.68 279.549 103.8C279.629 104.28 279.629 104.76 279.629 105.24C279.709 110.2 279.789 115.16 279.709 120.12C279.709 121.4 279.709 122.76 279.709 124.04C279.709 125.4 279.469 126.76 279.309 128.12C279.229 128.6 278.909 128.92 278.589 129.08C278.109 129.24 277.629 129.48 277.229 129.56C276.269 129.8 275.309 130.12 274.349 130.12C274.109 130.12 273.869 130.2 273.629 130.28C273.389 130.36 273.229 130.52 273.069 130.76C272.989 130.92 272.909 131.08 273.069 131.24C273.149 131.32 273.309 131.48 273.389 131.48C274.349 131.64 275.389 131.56 276.349 131.56C276.669 131.48 276.989 131.48 277.309 131.4C277.709 131.24 278.109 131.24 278.509 131.16C280.269 131.16 282.029 131.16 283.869 131.16C284.429 131.16 284.989 131.24 285.549 131.24C286.589 131.56 287.629 131.56 288.669 131.56C289.229 131.56 289.869 131.48 290.429 131.48C290.589 131.48 290.669 131.4 290.829 131.32C291.229 131.08 291.309 130.6 290.989 130.28C290.749 130.04 290.509 129.88 290.109 129.8C289.709 129.72 289.309 129.72 288.909 129.72C287.869 129.72 286.829 129.48 285.789 129.24C285.149 129.08 284.589 128.76 284.029 128.44C283.789 128.28 283.549 127.96 283.549 127.64C283.549 126.92 283.549 126.2 283.549 125.4C283.709 121.64 283.709 117.8 283.709 113.96C283.709 110.44 283.709 106.84 283.709 103.24C283.709 102.52 283.709 101.8 283.709 101.08C283.549 97.32 283.549 93.56 283.549 89.88C283.549 89.16 283.629 88.52 283.629 87.88C283.629 87.72 283.709 87.56 283.789 87.48ZM354.416 87.08C354.416 84.6 354.416 84.6 355.136 82.44C355.296 82.04 355.376 81.64 355.536 81.24C356.096 80.12 356.896 79.24 357.936 78.6C358.016 78.52 358.096 78.52 358.176 78.44C359.136 78.12 360.016 77.8 360.976 77.88C362.176 77.88 363.296 77.88 364.416 77.88C364.736 77.88 365.056 77.88 365.376 77.96C366.176 78.2 366.976 78.36 367.696 78.68C369.776 79.64 371.376 81.08 372.496 83.08C372.736 83.56 372.976 84.04 373.296 84.52C373.776 85.4 374.016 86.36 374.256 87.32C374.336 88.28 374.816 89.16 374.976 90.12C374.976 90.2 375.056 90.28 375.136 90.36C375.216 90.52 375.456 90.6 375.696 90.68C375.856 90.68 376.256 90.44 376.256 90.28C376.416 89.48 376.656 88.68 376.656 87.88C376.736 86.04 376.736 84.12 376.576 82.28C376.416 81.32 376.416 80.36 376.336 79.4C376.336 79.08 376.336 78.76 376.256 78.44C376.176 78.2 376.016 77.96 375.856 77.8C375.696 77.72 375.616 77.56 375.456 77.48C374.816 77.16 374.176 76.84 373.456 76.52C372.736 76.28 371.936 76.04 371.136 75.8C370.576 75.64 369.936 75.48 369.296 75.48C368.656 75.4 368.096 75.4 367.536 75.32C366.736 75.16 365.936 75.16 365.136 75.16C363.696 75.16 362.176 75.16 360.736 75.16C359.856 75.16 358.976 75.24 358.096 75.32C357.296 75.48 356.496 75.56 355.696 75.8C355.456 75.96 355.216 75.96 354.976 75.96C354.096 76.12 353.296 76.44 352.416 76.52C351.936 76.6 351.456 76.84 351.056 77.08C350.496 77.4 350.016 77.64 349.616 78.04C349.296 78.44 348.896 78.76 348.576 79.08C348.256 79.48 347.936 79.8 347.616 80.2C347.056 81 346.496 81.8 346.016 82.6C345.856 82.84 345.696 83 345.616 83.24C345.456 83.88 345.136 84.44 345.056 85.08C344.816 86.2 344.576 87.32 344.416 88.44C344.176 89.56 344.176 90.68 344.256 91.8C344.496 92.6 344.496 93.4 344.576 94.2C344.576 94.44 344.656 94.76 344.736 94.92C345.056 96.12 345.456 97.32 346.096 98.36C346.416 98.92 346.816 99.56 347.216 100.2C348.176 101.72 349.376 103.08 350.896 104.04C351.056 104.2 351.296 104.36 351.456 104.52C352.016 105 352.576 105.4 353.296 105.72C353.536 105.88 353.856 106.04 354.096 106.2C356.176 107.56 358.256 108.76 360.496 109.8C361.376 110.2 362.176 110.68 362.976 111.24C364.576 112.28 365.936 113.56 367.216 114.92C367.936 115.72 368.416 116.6 368.576 117.72C368.656 118.04 368.736 118.36 368.816 118.68C368.976 119.48 368.976 120.28 368.896 121.08C368.896 121.16 368.896 121.24 368.896 121.32C368.576 122.12 368.336 123 368.016 123.88C367.536 124.92 366.816 125.8 365.856 126.44C365.536 126.76 365.216 126.84 364.816 127.08C363.776 127.32 362.816 127.56 361.696 127.56C360.416 127.56 359.136 127.56 357.856 127.56C357.616 127.56 357.296 127.56 357.056 127.56C356.176 127.32 355.136 127.24 354.256 126.92C353.696 126.76 353.136 126.52 352.656 126.2C352.416 126.04 352.096 125.88 351.856 125.72C351.056 125.32 350.336 124.76 349.696 124.12C349.456 123.88 349.136 123.56 348.816 123.32C347.856 122.28 347.056 121.16 346.416 119.96C346.016 119.32 345.696 118.68 345.536 117.96C345.296 117.24 345.056 116.6 344.896 115.88C344.896 115.64 344.736 115.4 344.576 115.24C344.496 115.08 344.096 114.92 343.936 115C343.856 115.16 343.696 115.24 343.616 115.4C343.536 115.48 343.536 115.64 343.536 115.8C343.616 116.84 343.616 117.8 343.856 118.76C343.936 119.16 343.936 119.56 344.016 119.96C344.096 121.56 344.096 123.16 344.416 124.76C344.496 125.16 344.496 125.56 344.496 126.04C344.496 126.44 344.576 126.84 344.576 127.24C344.656 127.72 344.816 128.2 345.056 128.6C345.136 128.84 345.296 129 345.536 129.08C346.656 129.56 347.776 130.12 348.976 130.36C350.016 130.6 351.056 130.92 352.096 131C352.896 131.08 353.696 131.16 354.496 131.16C357.616 131.16 360.656 131.08 363.776 131.08C364.176 131.08 364.576 131 364.976 130.92C365.616 130.84 366.256 130.6 366.896 130.6C367.536 130.52 368.096 130.2 368.736 130.12C370.816 129.72 372.576 128.84 374.016 127.24C374.096 127.16 374.256 127 374.336 126.92C375.056 126.2 375.696 125.48 376.256 124.68C376.496 124.36 376.736 124.04 376.976 123.72C377.376 123.16 377.776 122.52 378.096 121.88C378.656 120.84 379.056 119.8 379.456 118.76C379.536 118.52 379.616 118.28 379.696 118.04C380.016 116.52 380.016 116.52 380.016 114.92C380.016 114.44 380.016 113.96 380.016 113.48C379.936 113.16 379.856 112.84 379.776 112.52C379.296 110.76 378.656 109.08 377.856 107.48C377.456 106.76 376.976 106.12 376.416 105.56C375.616 104.68 374.736 103.8 373.776 103.08C372.016 101.72 370.336 100.36 368.496 99.16C366.896 98.2 365.376 97.08 363.776 96.12C362.656 95.48 361.616 94.68 360.496 93.96C359.936 93.56 359.376 93 358.816 92.6C358.496 92.28 358.176 92.04 357.936 91.8C357.056 91.16 356.336 90.36 355.696 89.56C355.296 89.08 354.976 88.6 354.816 88.12C354.736 87.8 354.576 87.48 354.416 87.08ZM415.827 99.64C415.667 99.72 415.587 99.8 415.427 99.88C415.187 100.04 414.867 100.12 414.627 100.2C414.147 100.44 413.587 100.68 413.027 100.84C411.987 101.24 411.027 101.88 410.067 102.44C409.507 102.92 408.867 103.16 408.387 103.72C408.307 103.8 408.147 103.88 407.987 103.96C407.107 104.36 406.467 105.08 405.747 105.72C405.587 105.88 405.507 106.04 405.347 106.2C405.107 106.44 404.947 106.76 404.707 107C404.067 107.8 403.427 108.6 402.867 109.4C402.787 109.48 402.707 109.56 402.707 109.64C402.467 110.04 402.307 110.44 402.067 110.76C401.827 111.24 401.667 111.64 401.507 112.12C401.267 112.76 401.107 113.4 400.947 114.12C400.707 114.84 400.547 115.64 400.547 116.44C400.547 116.76 400.467 117.16 400.467 117.48C400.467 117.56 400.467 117.72 400.467 117.88C400.467 118.68 400.547 119.4 400.707 120.12C400.787 120.44 400.867 120.68 400.867 121C400.947 121.24 401.027 121.48 401.107 121.72C401.347 122.36 401.667 123.08 401.987 123.8C402.147 124.2 402.387 124.6 402.627 124.92C403.107 125.4 403.507 125.96 403.987 126.52C404.147 126.76 404.387 127 404.627 127.16C404.947 127.48 405.267 127.8 405.587 128.04C405.907 128.28 406.227 128.52 406.547 128.68C407.427 129 408.307 129.4 409.187 129.8C409.427 129.88 409.667 129.96 409.907 130.04C411.027 130.28 412.147 130.52 413.187 130.76C414.307 131.08 415.427 131.08 416.547 131.24C416.707 131.24 416.787 131.24 416.867 131.24C417.427 131.24 417.907 131.24 418.467 131.24C419.187 131.24 419.907 131.16 420.627 131.08C420.707 131.08 420.707 131.08 420.787 131.08C421.187 131 421.667 130.92 422.067 130.84C422.947 130.68 423.907 130.6 424.707 130.2L424.787 130.12C426.147 129.8 427.427 129.24 428.707 128.76C429.667 128.44 430.627 127.96 431.587 127.56C431.747 127.48 431.907 127.4 431.987 127.32C432.467 126.92 433.027 126.68 433.587 126.52C433.667 126.6 433.747 126.6 433.747 126.68C434.387 127.32 435.027 127.88 435.667 128.52C435.907 128.84 436.227 129.08 436.627 129.32C436.787 129.4 436.947 129.48 437.107 129.64C437.507 130.04 438.067 130.28 438.627 130.52C438.787 130.6 439.027 130.68 439.267 130.76C439.507 130.84 439.827 130.84 440.067 130.92C440.467 131.08 440.867 131.08 441.187 131.08C441.907 131.08 442.547 131 443.267 131.24C443.987 131.24 444.707 131.24 445.427 131.16C445.747 131.16 446.067 131.16 446.387 131.16C447.347 131.08 448.307 131.08 449.267 131.08C449.507 131.08 449.747 131.08 449.987 130.92C450.387 130.76 450.787 130.6 451.187 130.36C451.747 130.12 452.227 129.8 452.707 129.32C453.187 128.92 453.587 128.44 454.067 128.04C454.147 127.96 454.227 127.88 454.307 127.8C454.867 127.08 455.507 126.44 455.987 125.72C455.987 125.64 456.067 125.64 456.067 125.56C456.387 125.32 456.547 125 456.627 124.6C456.627 124.44 456.707 124.28 456.787 124.12C456.867 123.88 456.867 123.64 456.947 123.48C456.867 123.24 456.787 123 456.547 122.92C456.067 122.76 455.587 122.84 455.187 123.08C454.707 123.4 454.227 123.72 453.747 124.04C453.347 124.28 453.027 124.52 452.627 124.68C452.227 124.84 451.907 125 451.507 125.16C451.187 125.32 450.867 125.4 450.547 125.4C449.907 125.4 449.347 125.32 448.707 125.32C448.547 125.32 448.387 125.24 448.227 125.08C447.907 124.84 447.667 124.6 447.347 124.36C446.707 123.72 445.987 123.16 445.507 122.44C445.347 122.28 445.267 122.12 445.107 122.04C444.707 121.64 444.387 121.16 444.067 120.68C443.987 120.6 443.907 120.44 443.827 120.28C443.827 119.8 444.067 119.4 444.387 119.08C445.027 118.44 445.667 117.8 446.307 117.16C446.387 117 446.467 116.92 446.547 116.84C446.707 116.6 446.867 116.36 447.107 116.2C447.507 115.88 447.907 115.48 448.147 114.92C448.547 114.36 448.947 113.72 449.427 113.24C449.587 113.08 449.667 112.92 449.827 112.84C450.227 112.28 450.547 111.64 450.947 111C451.187 110.68 451.427 110.28 451.747 109.96C452.067 109.64 452.307 109.32 452.547 108.92C452.627 108.76 452.787 108.6 452.867 108.44C453.507 107.48 454.147 106.44 454.707 105.48C454.947 105.16 455.107 104.84 455.267 104.52C455.667 103.96 455.987 103.32 456.467 102.76C456.547 102.68 456.547 102.6 456.627 102.52C456.787 102.12 457.027 101.88 457.427 101.72C458.067 101.4 458.627 101 459.347 100.76C459.667 100.6 459.907 100.44 460.227 100.28C460.627 100.04 460.867 99.72 460.707 99.16C460.467 98.76 459.907 98.84 459.587 98.6C459.427 98.68 459.347 98.68 459.187 98.68C458.547 98.76 457.827 98.84 457.107 98.68C456.947 98.68 456.787 98.68 456.627 98.68C456.067 98.76 455.427 98.68 454.867 98.6C454.627 98.6 454.387 98.6 454.147 98.6C453.107 98.52 452.067 98.52 451.027 98.52C450.547 98.52 450.067 98.52 449.587 98.68C449.427 98.68 449.347 98.68 449.187 98.68C447.827 98.68 446.387 98.68 445.027 98.6C444.707 98.6 444.307 98.6 443.987 98.68C443.667 98.68 443.507 98.84 443.507 99.16C443.427 99.56 443.507 99.96 443.827 100.28C444.067 100.36 444.227 100.44 444.467 100.52C444.867 100.68 445.107 100.84 445.427 101.08C445.987 101.48 446.387 102.04 446.787 102.6C446.867 102.6 446.867 102.68 446.947 102.76C447.187 103.32 447.347 103.96 447.347 104.6C447.347 104.84 447.347 105.16 447.347 105.4C447.347 105.72 447.267 106.04 447.107 106.28C446.787 106.92 446.547 107.64 446.147 108.28C445.587 109.08 445.027 109.88 444.467 110.6C444.307 110.92 444.067 111.16 443.827 111.4C443.347 111.88 442.867 112.36 442.547 112.84C442.467 112.92 442.387 113 442.307 113.08C441.987 113.4 441.667 113.72 441.347 113.96C441.027 114.2 440.867 114.52 440.547 114.68C440.467 114.68 440.387 114.6 440.307 114.6C439.827 114.44 439.427 114.2 439.187 113.8C439.027 113.56 438.787 113.32 438.627 113C437.987 111.88 437.267 110.76 436.627 109.64C436.467 109.32 436.227 109.08 436.067 108.76C435.427 107.8 434.787 106.92 434.227 105.96C433.987 105.64 433.747 105.24 433.427 104.92C432.787 104.04 432.147 103.24 431.587 102.28C430.947 101.16 430.307 100.12 429.507 99.16C429.187 98.68 428.867 98.28 428.547 97.72C428.627 97.64 428.707 97.56 428.787 97.56C429.107 97.48 429.427 97.4 429.667 97.32C430.067 97.16 430.387 97.08 430.787 97C431.587 96.6 432.467 96.44 433.267 95.96C433.507 95.88 433.747 95.8 433.987 95.64C434.307 95.56 434.547 95.4 434.867 95.32C435.267 95.08 435.667 94.92 435.987 94.6C436.227 94.44 436.547 94.28 436.867 94.04C437.347 93.72 437.907 93.4 438.387 93.08C438.467 93 438.547 92.92 438.627 92.84C438.867 92.6 439.187 92.28 439.427 92.04C440.147 91.4 440.707 90.52 441.187 89.72C441.267 89.64 441.267 89.56 441.267 89.48C441.587 88.76 441.907 87.96 442.227 87.16C442.467 86.52 442.627 85.88 442.627 85.16C442.627 84.76 442.627 84.28 442.627 83.8C442.627 83.32 442.547 82.76 442.307 82.28C442.147 81.96 441.987 81.56 441.907 81.16C441.587 80.52 441.187 79.88 440.707 79.32C440.627 79.24 440.547 79.16 440.467 79.08C439.747 78.52 439.107 77.88 438.307 77.4C437.907 77.16 437.507 76.84 437.107 76.6C436.467 76.28 435.827 75.88 435.107 75.64C434.627 75.48 434.147 75.32 433.667 75.16C432.387 74.76 431.107 74.6 429.827 74.84C429.507 74.84 429.187 74.92 428.867 75.08C428.627 75.16 428.387 75.24 428.147 75.32C427.827 75.48 427.587 75.56 427.267 75.56C426.627 75.64 426.067 75.88 425.427 76.12C425.267 76.2 425.027 76.28 424.787 76.28C424.467 76.44 424.147 76.52 423.907 76.76C423.747 76.84 423.587 76.92 423.507 77C423.107 77.16 422.707 77.4 422.307 77.64C422.067 77.88 421.747 78.04 421.427 78.2C420.947 78.36 420.547 78.6 420.147 78.92C419.587 79.4 418.947 79.8 418.467 80.44C418.387 80.6 418.307 80.68 418.147 80.76C417.507 81.4 416.947 82.12 416.387 82.84C416.307 83 416.227 83.16 416.067 83.32C415.667 84.28 415.347 85.16 415.027 86.12C414.547 87.32 414.387 88.68 414.387 89.96C414.387 91 414.387 92.04 414.387 93.08C414.387 94.12 414.467 95.24 414.707 96.28C414.787 96.52 414.787 96.76 414.867 97C415.107 97.64 415.347 98.36 415.587 99.08C415.667 99.24 415.747 99.4 415.827 99.64ZM417.107 103.08C417.347 103.24 417.427 103.4 417.587 103.56C417.987 104.28 418.467 104.92 418.867 105.56C419.187 106.12 419.587 106.6 419.907 107.16C419.987 107.24 420.067 107.32 420.067 107.48C420.227 107.88 420.467 108.2 420.787 108.52C421.347 109.32 421.987 110.04 422.547 110.84C422.627 111.08 422.867 111.32 423.027 111.56C423.107 111.72 423.267 111.8 423.347 111.96C423.587 112.52 424.067 112.92 424.387 113.48C424.787 114.04 425.187 114.6 425.587 115.16C426.147 116.04 426.707 116.84 427.267 117.64C427.987 118.68 428.787 119.72 429.427 120.84C429.507 121 429.667 121.16 429.667 121.4C429.507 121.96 429.187 122.44 428.627 122.76C428.307 123 427.907 123.16 427.507 123.24C427.027 123.4 426.467 123.56 425.987 123.64C425.747 123.64 425.587 123.72 425.427 123.72C425.267 123.72 425.107 123.72 425.027 123.8C424.467 123.96 423.987 124.04 423.427 124.12C422.867 124.28 422.227 124.28 421.587 124.2H421.507C420.547 123.88 419.587 123.72 418.707 123.16C418.627 123.08 418.467 123 418.307 122.92C418.147 122.84 417.987 122.68 417.907 122.52C417.667 122.28 417.427 122.12 417.187 121.88C416.627 121.32 416.067 120.84 415.587 120.28C415.427 120.2 415.427 120.04 415.347 119.96C415.107 119.56 414.787 119.08 414.627 118.6C414.387 118.12 414.227 117.64 414.067 117.16C413.747 116.28 413.427 115.32 413.107 114.36C412.947 113.96 412.867 113.56 412.867 113.16C412.707 112.2 412.787 111.32 412.707 110.44C412.707 109.88 412.787 109.32 412.947 108.76C413.187 107.96 413.507 107.16 413.987 106.36C414.467 105.56 415.027 104.76 415.747 104.12C416.147 103.72 416.627 103.4 417.107 103.08ZM426.787 95.16C426.387 94.6 426.147 94.04 425.907 93.4C425.427 92.12 425.027 90.84 424.787 89.56C424.707 88.68 424.547 87.88 424.547 87C424.627 86.36 424.627 85.8 424.627 85.16C424.547 83.96 424.867 82.68 425.267 81.56C425.347 81.32 425.427 81.16 425.507 80.92C425.747 80.12 426.387 79.64 427.107 79.32C427.187 79.32 427.267 79.24 427.347 79.24C427.907 79.24 428.547 79.16 429.107 79.4C429.427 79.48 429.747 79.64 430.147 79.72C430.787 80.04 431.267 80.44 431.667 81.08C431.827 81.32 431.987 81.48 432.147 81.72C432.387 81.96 432.627 82.28 432.787 82.6C433.267 83.24 433.667 83.96 433.907 84.76C434.227 85.72 434.387 86.68 434.387 87.72C434.307 88.84 433.987 89.96 433.427 91C433.267 91.24 433.027 91.48 432.867 91.72C432.627 91.96 432.387 92.12 432.147 92.36C431.427 93.08 430.627 93.64 429.747 94.04C428.867 94.44 427.907 94.84 427.027 95.16C426.947 95.16 426.867 95.16 426.787 95.16ZM497.832 130.6C497.992 130.6 498.232 130.68 498.472 130.76C499.352 131 500.232 131.08 501.112 131.16C501.672 131.16 502.232 131.24 502.792 131.32C505.752 131.88 508.632 131.88 511.592 131.64C512.392 131.56 513.192 131.4 513.992 131.24C515.272 131.16 516.552 130.76 517.832 130.6C518.152 130.6 518.472 130.44 518.712 130.36C521.112 129.64 523.272 128.52 525.272 127.24C525.432 127.08 525.592 127 525.672 126.92C525.912 126.76 525.992 126.52 526.072 126.28C526.072 125.96 526.072 125.64 526.072 125.32C526.072 123.32 526.072 121.4 526.072 119.48C526.072 118.68 526.153 117.96 526.392 117.32C526.552 116.92 526.552 116.52 526.552 116.12C526.552 115.8 526.392 115.64 526.153 115.56C525.912 115.4 525.672 115.56 525.432 115.64C525.112 115.88 524.872 116.2 524.712 116.6C524.472 117 524.232 117.48 524.072 117.96C523.913 118.52 523.672 119.16 523.512 119.8C523.112 120.92 522.712 122.12 522.152 123.16C521.832 123.72 521.432 124.28 521.032 124.76C520.392 125.48 519.672 126.12 518.872 126.76C518.152 127.24 517.352 127.72 516.552 128.04C515.992 128.28 515.432 128.44 514.872 128.6C514.152 128.76 513.352 128.92 512.552 129.08C512.392 129.08 512.232 129.08 512.072 129.08C510.632 129.16 509.272 129.16 507.912 129C506.792 128.92 505.672 128.76 504.472 128.68C504.232 128.68 503.992 128.68 503.752 128.6C502.152 128.04 500.632 127.32 499.192 126.36C498.952 126.28 498.792 126.12 498.632 125.96C497.912 125.32 497.352 124.68 496.952 123.88C496.392 122.6 495.672 121.4 494.952 120.28C494.472 119.56 494.152 118.84 493.832 118.12C493.592 117.56 493.352 117.08 493.352 116.44C493.272 115.56 492.872 114.76 492.792 113.8C492.712 112.92 492.472 112.12 492.232 111.24C491.992 110.2 491.832 109.16 491.832 108.12C491.832 106.68 491.832 105.32 491.832 103.96C491.832 103.16 491.832 102.36 491.992 101.56C492.232 100.36 492.232 99.24 492.232 98.12C492.312 96.84 492.312 95.56 492.712 94.28C492.712 94.2 492.712 94.12 492.792 94.04C492.792 93 493.112 92.12 493.432 91.16C494.072 89.48 494.632 87.8 495.592 86.12C495.992 85.56 496.472 84.92 496.952 84.28C497.752 83.16 498.632 82.12 499.832 81.32C500.152 81.08 500.392 80.84 500.792 80.6C501.832 79.72 502.952 78.92 504.232 78.36C505.672 77.72 506.872 77.4 507.992 77.32C509.032 77.32 510.072 77.24 511.112 77.4C512.472 77.56 512.472 77.56 513.992 77.96C514.632 78.12 515.192 78.44 515.832 78.6C516.472 78.76 517.112 79 517.592 79.32C518.392 79.88 519.272 80.44 519.992 81C520.632 81.48 521.192 82.12 521.673 82.84C522.232 83.8 522.793 84.76 523.352 85.8C523.832 86.68 524.232 87.72 524.472 88.76C524.633 89.24 524.872 89.8 525.033 90.36C525.033 90.52 525.192 90.6 525.192 90.76C525.352 91 525.832 91.16 526.072 91C526.392 90.84 526.552 90.52 526.552 90.2C526.552 89.08 526.473 87.96 526.232 86.84C526.153 86.36 526.072 85.88 525.992 85.4C525.992 85 525.912 84.52 525.832 84.2C525.592 83.32 525.592 82.44 525.512 81.48C525.512 80.92 525.512 80.36 525.432 79.8C525.432 79.4 525.352 79 525.192 78.6C524.952 78.2 524.633 77.8 524.232 77.56C523.272 76.76 522.152 76.36 520.953 76.04C520.552 75.96 520.152 75.96 519.752 75.8C519.113 75.64 518.472 75.56 517.832 75.56C517.192 75.48 516.552 75.48 515.912 75.48C514.712 75.48 513.592 75.48 512.472 75.4C511.672 75.4 510.872 75.48 510.072 75.16C509.992 75.16 509.912 75.16 509.832 75.16C508.472 75.08 507.192 75 505.912 75.32C505.192 75.48 504.472 75.48 503.752 75.64C503.112 75.88 502.552 76.04 501.912 76.12C501.272 76.2 500.632 76.44 499.992 76.52C499.672 76.52 499.352 76.68 499.032 76.76C498.472 77.08 497.832 77.32 497.272 77.64C495.912 78.36 494.632 79.16 493.272 79.88C492.312 80.36 491.432 81 490.552 81.56C490.312 81.72 489.992 81.96 489.832 82.2C488.872 83.08 487.992 83.96 487.032 84.92C486.392 85.56 485.992 86.36 485.352 87C484.552 87.96 483.992 89.08 483.512 90.12C483.112 90.84 482.792 91.64 482.472 92.36C482.392 92.68 482.232 93 482.152 93.32C482.072 94.04 481.752 94.68 481.592 95.4C481.352 96.44 481.112 97.48 481.112 98.52C481.032 99 480.952 99.48 480.872 99.96C480.712 100.68 480.712 101.4 480.712 102.12C480.632 103.72 480.632 105.24 480.792 106.76C480.792 107.8 480.952 108.84 481.112 109.88C481.272 110.52 481.512 111.16 481.672 111.8C481.912 112.84 482.392 113.72 482.792 114.76C482.952 115.32 483.192 115.8 483.512 116.28C484.072 117.24 484.632 118.28 485.192 119.24C485.432 119.72 485.752 120.28 486.072 120.68C486.792 121.48 487.352 122.36 487.912 123.24C488.152 123.56 488.312 123.8 488.472 124.04C490.472 126.36 492.792 128.28 495.592 129.56C496.312 129.88 497.032 130.2 497.832 130.6ZM560.602 75.16C559.722 75.16 558.762 75.16 557.882 75.16C557.482 75.16 557.082 75.16 556.682 75.24C555.722 75.4 554.762 75.48 553.802 75.48C553.162 75.56 552.522 75.56 551.882 75.8C551.642 75.8 551.402 75.88 551.162 75.88C549.882 76.12 548.602 76.52 547.482 77.08C546.602 77.48 545.722 77.96 544.842 78.36C544.602 78.44 544.362 78.6 544.202 78.76C542.922 79.56 541.642 80.52 540.522 81.56C540.042 82.12 539.562 82.68 539.162 83.24C538.522 84.2 537.802 85.08 537.162 86.04C536.602 86.92 536.202 87.88 535.722 88.84C535.562 89.32 535.322 89.72 535.082 90.2C534.122 91.88 533.402 93.64 533.002 95.56C533.002 95.72 532.922 95.88 532.842 96.04C532.602 97.08 532.362 98.12 532.282 99.16C532.122 101 532.042 102.92 532.042 104.76C532.042 105.24 532.122 105.72 532.202 106.2C532.282 107.48 532.522 108.6 533.082 111.24C533.162 111.96 533.402 112.68 533.722 113.32C533.802 113.56 533.962 113.72 534.042 113.96C534.362 115.16 535.002 116.2 535.562 117.32C535.962 118.2 536.522 119 537.242 119.72C537.802 120.28 538.282 120.84 538.922 121.48C539.322 121.8 539.722 122.2 540.202 122.52C541.082 123.16 541.882 123.8 542.602 124.6C543.242 125.16 543.962 125.72 544.682 126.28C546.042 127.16 547.402 127.96 548.842 128.76C549.082 128.92 549.242 129 549.482 129.08C550.762 129.64 552.042 130.12 553.322 130.68C553.802 130.84 554.202 131 554.762 131.08C555.082 131.08 555.402 131.16 555.722 131.24C556.522 131.48 557.482 131.48 558.362 131.56C559.402 131.56 560.442 131.56 561.482 131.48C561.962 131.48 562.522 131.48 563.002 131.4C563.802 131.24 564.602 131.16 565.402 131.08C566.522 131 567.562 130.6 568.682 130.36C569.402 130.12 570.122 129.96 570.762 129.56C571.162 129.32 571.562 129.08 572.042 128.92C573.082 128.44 574.043 127.8 574.922 127.08C575.322 126.76 575.802 126.36 576.283 126.04C577.723 125 579.002 123.72 580.122 122.36C581.242 121.08 582.282 119.72 583.162 118.28C583.482 117.8 583.722 117.24 583.962 116.76C584.522 115.48 584.842 114.12 585.402 112.84C585.802 111.88 585.883 110.84 586.122 109.8C586.362 109.24 586.283 108.68 586.362 108.12C586.362 107.64 586.442 107.16 586.603 106.68C586.762 106.2 586.762 105.72 586.762 105.24C586.762 103.8 586.842 102.28 586.762 100.84C586.762 100.12 586.762 99.4 586.522 98.68C586.442 98.36 586.442 98.04 586.362 97.72C586.362 96.92 586.122 96.12 585.883 95.32C585.242 92.68 584.122 90.28 582.602 88.04C581.803 86.76 580.842 85.56 579.882 84.28C579.162 83.24 578.202 82.36 577.242 81.48C576.362 80.68 575.402 79.88 574.522 79.08C573.642 78.36 572.682 77.72 571.642 77.16C571.083 76.92 570.522 76.6 569.962 76.36C568.922 75.8 567.802 75.48 566.682 75.48C566.042 75.48 565.322 75.48 564.682 75.32C564.042 75.16 563.402 75.16 562.762 75.16C562.042 75.16 561.322 75.16 560.602 75.16ZM544.922 105.96C544.922 105.08 544.922 104.2 545.002 103.32C545.002 103 545.002 102.68 545.002 102.36C545.322 100.92 545.322 99.48 545.402 97.96C545.482 97.16 545.482 96.36 545.722 95.56C545.962 94.76 545.962 93.8 546.202 92.92C546.362 91.64 546.682 90.44 547.162 89.16C547.562 87.56 548.202 86.12 548.842 84.6C549.162 83.88 549.562 83.16 550.122 82.6C550.282 82.44 550.362 82.36 550.442 82.2C551.082 81.24 551.882 80.44 552.842 79.8C553.162 79.56 553.482 79.24 553.722 79C554.442 78.44 555.242 78.04 556.122 77.8C556.362 77.72 556.602 77.72 556.842 77.64C557.402 77.48 557.962 77.48 558.522 77.56C558.762 77.56 559.002 77.64 559.242 77.72C559.962 77.8 560.682 77.88 561.402 77.96C562.282 78.04 563.162 78.28 563.962 78.68C564.762 79 565.562 79.4 566.362 79.88C567.402 80.44 568.282 81.08 568.922 82.04C569.482 82.84 570.042 83.64 570.522 84.52C570.922 85 571.162 85.64 571.402 86.2C572.042 87.72 572.522 89.24 573.002 90.84C573.242 91.48 573.323 92.28 573.482 92.92C573.722 93.72 573.802 94.52 574.043 95.32C574.202 96.04 574.282 96.76 574.443 97.48C574.682 98.36 574.762 99.24 574.922 100.12C574.922 100.28 575.002 100.44 574.922 100.6C574.922 102.2 575.082 103.8 574.842 105.48C574.682 106.36 574.682 107.24 574.682 108.12C574.602 109.8 574.282 111.48 573.882 113.16C573.642 114.12 573.402 115.08 573.162 116.04C572.842 117.72 572.282 119.48 571.402 121C570.842 122.12 570.282 123.16 569.642 124.2C569.322 124.76 568.922 125.32 568.522 125.8C567.882 126.68 567.082 127.32 566.042 127.72C565.242 127.96 564.522 128.2 563.722 128.44C563.402 128.52 563.082 128.6 562.762 128.6C561.322 128.76 559.882 128.68 558.362 128.52C557.642 128.52 557.002 128.2 556.282 128.04C555.642 127.8 555.082 127.56 554.442 127.32C554.122 127.16 553.722 126.92 553.402 126.68C551.882 125.56 550.522 124.28 549.242 122.92C548.922 122.6 548.682 122.2 548.442 121.72C547.882 120.28 547.162 118.92 546.602 117.48C546.442 117.16 546.362 116.92 546.362 116.6C546.202 115.64 545.882 114.84 545.882 113.96C545.802 113.72 545.722 113.48 545.642 113.24C545.482 112.76 545.402 112.28 545.402 111.8C545.322 111.16 545.242 110.52 545.082 109.88C545.002 109.56 544.922 109.24 544.922 108.92C544.922 107.96 544.922 107 544.922 105.96ZM602.286 105.96C602.206 101.48 602.206 95.08 602.206 88.68C602.206 88.44 602.206 88.28 602.206 88.12C602.206 88.04 602.206 87.96 602.206 87.88C602.286 87.8 602.366 87.64 602.446 87.48C602.606 87.56 602.766 87.56 602.926 87.64C603.486 88.12 603.966 88.68 604.366 89.24C605.966 91.24 607.566 93.16 609.326 95C609.646 95.32 609.886 95.72 610.206 96.12C611.086 97.24 611.806 98.36 612.526 99.56C613.166 100.52 613.806 101.48 614.526 102.28C615.166 103 615.646 103.72 616.126 104.44C616.766 105.4 617.406 106.36 618.126 107.24C619.886 109.72 621.726 112.28 623.406 114.84C624.206 115.96 625.006 117.08 625.886 118.12C626.206 118.52 626.526 118.92 626.766 119.32C628.526 121.72 630.206 124.2 631.806 126.76C632.686 128.04 633.646 129.24 634.846 130.28C634.926 130.28 634.926 130.36 635.006 130.44C635.566 130.76 636.206 131 636.846 130.84C637.166 130.76 637.486 130.68 637.806 130.52C638.126 130.44 638.286 130.12 638.366 129.8C638.366 129.56 638.446 129.32 638.446 129.08C638.446 125.64 638.446 122.28 638.366 118.84C638.286 112.2 638.206 105.48 638.206 98.84C638.206 97.8 638.206 96.76 638.206 95.72C638.206 94.44 638.286 93.24 638.046 92.04C637.966 91.64 637.966 91.24 637.966 90.84C637.966 87 637.886 83.16 637.886 79.4C637.886 79.24 637.886 79.08 637.886 78.92C637.966 78.28 638.206 77.8 638.606 77.4C639.086 76.84 639.726 76.44 640.526 76.44C641.646 76.44 642.766 76.2 643.886 75.88C644.126 75.88 644.286 75.72 644.446 75.48C644.526 75.48 644.526 75.32 644.526 75.24C644.526 75.16 644.366 75 644.206 75C644.046 74.92 643.886 74.92 643.726 74.92C638.846 74.92 633.966 74.92 629.086 75C628.926 75 628.766 75 628.606 75C628.366 75.08 628.046 75.4 628.126 75.72C628.126 75.88 628.446 76.28 628.606 76.28C628.846 76.28 629.086 76.36 629.326 76.36C629.966 76.36 630.606 76.36 631.246 76.36C631.726 76.36 632.206 76.36 632.686 76.44C633.246 76.6 633.726 76.92 633.966 77.48C634.206 77.96 634.366 78.44 634.366 78.92C634.446 79.48 634.446 80.04 634.446 80.6C634.446 82.52 634.446 84.52 634.446 86.44C634.446 92.6 634.446 98.76 634.366 105C634.366 105.56 634.366 106.12 634.366 106.68C634.366 106.76 634.286 106.84 634.206 106.92C634.206 107.08 634.046 107.16 633.886 107.16C633.486 107.24 633.166 107.08 633.006 106.84C632.206 105.8 631.406 104.76 630.686 103.72C629.966 102.6 629.246 101.56 628.446 100.52C627.246 99.08 626.126 97.56 625.086 96.04C624.606 95.4 624.126 94.76 623.646 94.12C622.766 93 621.806 92.04 620.926 90.92C620.366 90.36 619.886 89.72 619.326 89.08C618.846 88.44 618.206 87.8 617.726 87C617.486 86.68 617.166 86.36 616.926 86.04C616.366 85.48 615.806 84.92 615.246 84.28C614.526 83.4 613.806 82.52 613.086 81.64C612.606 81.08 612.206 80.52 611.726 79.96C611.166 79.32 610.606 78.76 610.046 78.2C609.486 77.64 608.846 77.08 608.286 76.44C608.046 76.28 607.806 76.04 607.566 75.8C607.326 75.64 607.006 75.48 606.686 75.48C606.526 75.4 606.366 75.4 606.206 75.4C602.766 75.32 599.406 75.32 595.966 75.4C595.806 75.4 595.646 75.4 595.486 75.48C594.926 75.48 594.366 75.72 593.886 76.04C593.806 76.12 593.646 76.28 593.566 76.36C593.406 76.6 593.406 77.08 593.566 77.24C593.806 77.48 593.966 77.64 594.206 77.72C594.846 78.04 595.406 78.52 595.886 79.08C596.446 79.56 596.766 80.2 596.926 81C597.006 81.56 597.006 82.12 597.166 82.68C597.326 83.56 597.406 84.44 597.326 85.32C597.246 89.16 597.326 92.92 597.406 96.76C597.486 98.76 597.486 100.68 597.486 102.6C597.486 110.52 597.406 118.36 597.486 126.28C597.486 126.76 597.486 127.24 597.406 127.72C597.326 128.44 596.926 128.92 596.206 129.16C595.646 129.32 595.006 129.56 594.366 129.56C593.726 129.64 593.246 129.88 592.766 130.12C592.526 130.28 592.366 130.44 592.286 130.68C592.206 130.84 592.126 131 592.286 131.16C592.366 131.24 592.446 131.4 592.606 131.48C592.926 131.48 593.246 131.56 593.566 131.56C597.646 131.56 601.726 131.56 605.726 131.56C606.446 131.56 607.086 131.56 607.726 131.56C607.886 131.56 608.046 131.48 608.206 131.4C608.366 131.4 608.526 131.08 608.446 130.84C608.286 130.52 608.046 130.28 607.726 130.2C606.686 129.96 605.726 129.64 604.606 129.56C604.286 129.56 603.966 129.48 603.646 129.4C602.846 129.24 602.366 128.52 602.286 127.88C602.286 126.44 602.206 124.92 602.206 123.48C602.206 118.28 602.206 113.08 602.286 105.96ZM655.31 105.08C655.31 107 655.31 108.92 655.31 110.92C655.31 113.56 655.31 116.28 655.31 118.92C655.31 121.64 655.23 124.28 655.23 127C655.23 127.24 655.23 127.48 655.23 127.72C655.15 128.04 655.07 128.36 654.91 128.6C654.83 128.84 654.67 129.08 654.43 129.08C653.47 129.4 652.59 129.64 651.55 129.64C651.23 129.64 650.91 129.72 650.59 129.72C650.43 129.8 650.27 129.8 650.11 129.88C649.79 129.96 649.55 130.12 649.39 130.44C649.23 130.68 649.31 131 649.47 131C649.71 131.08 649.95 131.16 650.19 131.16C651.87 131.16 653.47 131.24 655.07 131.24C655.63 131.24 656.19 131.32 656.75 131.4C657.55 131.48 658.27 131.48 658.99 131.48C663.63 131.48 668.19 131.56 672.83 131.56C673.79 131.56 674.83 131.48 675.79 131.4C677.15 131.16 678.51 131.16 679.87 130.76C680.35 130.6 680.99 130.68 681.55 130.44C682.11 130.28 682.75 130.12 683.39 129.96C683.79 129.8 684.19 129.72 684.51 129.48C685.31 129.16 685.95 128.76 686.75 128.44C687.47 128.12 688.27 127.88 688.99 127.56C691.87 126.2 694.35 124.2 696.59 121.88C696.75 121.64 696.99 121.4 697.15 121.16C697.39 120.84 697.63 120.44 697.79 120.12C698.43 119.16 698.91 118.12 699.47 117.16C699.79 116.36 699.95 115.56 700.27 114.84C700.67 113.8 700.83 112.68 701.15 111.56C701.23 111 701.23 110.44 701.31 109.88C701.55 108.68 701.71 107.48 701.79 106.2C701.79 105.88 701.87 105.56 701.95 105.24C702.11 104.6 702.11 103.96 702.11 103.32C702.11 102.12 702.11 100.92 702.11 99.72C702.11 99.48 702.11 99.16 702.03 99C701.71 97.96 701.79 96.84 701.39 95.88C701.31 95.64 701.23 95.4 701.23 95.16C701.15 94.28 700.75 93.48 700.59 92.6C700.11 91.08 699.55 89.64 699.07 88.2C698.67 87.32 698.19 86.44 697.63 85.64C697.23 85.08 696.83 84.44 696.43 83.8C696.27 83.56 696.11 83.32 695.87 83.08C695.31 82.6 694.75 82.12 694.19 81.64C692.99 80.68 691.79 79.72 690.59 78.76C689.55 77.88 688.43 77.32 687.15 76.92C685.95 76.52 684.59 76.44 683.39 76.04C682.11 75.96 680.83 75.56 679.55 75.32C678.91 75.08 678.27 75.08 677.63 75.08C675.31 74.92 672.91 75 670.59 75.24C670.11 75.32 669.63 75.4 669.15 75.4C668.59 75.4 668.03 75.4 667.39 75.4C662.51 75.4 657.55 75.4 652.59 75.4C652.03 75.4 651.47 75.4 650.83 75.4C650.51 75.48 650.27 75.56 649.95 75.72C649.79 75.88 649.71 75.96 649.71 76.12C649.55 76.44 649.79 76.84 650.03 76.92C650.27 76.92 650.51 77 650.75 77C651.39 77.08 652.03 77.08 652.75 77.08C653.15 77.16 653.47 77.24 653.87 77.48C654.35 77.8 654.75 78.2 654.83 78.76C654.99 79.64 655.07 80.52 655.23 81.4C655.31 81.8 655.39 82.2 655.39 82.6C655.39 83.48 655.47 84.28 655.47 85.08C655.47 88.44 655.55 91.72 655.39 95.08C655.31 97.16 655.31 99.24 655.31 101.4C655.31 102.6 655.31 103.8 655.31 105.08ZM690.43 103.16C690.43 104.2 690.43 105.16 690.43 106.12C690.35 106.92 690.35 107.72 690.19 108.52C690.03 109.24 690.03 109.96 690.03 110.68C689.95 111.24 689.87 111.64 689.79 112.12C689.63 112.52 689.63 112.92 689.55 113.32C689.47 113.64 689.47 113.96 689.31 114.28C689.07 114.76 688.99 115.24 688.83 115.64C688.67 116.28 688.51 116.92 688.27 117.56C688.11 118.04 687.79 118.6 687.55 119.08C687.47 119.32 687.39 119.56 687.31 119.72C686.75 120.52 686.27 121.4 685.87 122.28C685.23 123.8 684.19 125.08 683.07 126.2C682.91 126.36 682.83 126.44 682.67 126.6C682.03 127.32 681.15 127.8 680.27 128.12C679.79 128.28 679.31 128.44 678.83 128.52C678.59 128.6 678.35 128.68 678.11 128.68C677.63 128.68 677.15 128.68 676.67 128.76C676.27 128.76 675.87 128.76 675.47 128.84C674.19 129.08 672.91 129.08 671.55 129.08C670.11 129.08 668.67 129.08 667.23 129C666.91 129 666.59 128.68 666.59 128.36C666.59 128.2 666.59 128.04 666.59 127.88C666.59 127.56 666.59 127.24 666.59 126.92C666.59 122.44 666.67 117.96 666.75 113.56C666.75 111.08 666.75 108.68 666.75 106.2C666.75 103.24 666.75 100.2 666.75 97.24C666.75 96.6 666.83 95.96 666.91 95.24C666.99 94.28 667.07 93.32 667.15 92.36C667.15 91.48 667.23 90.6 667.39 89.72C667.55 89.08 667.47 88.44 667.47 87.8C667.47 85.16 667.47 82.6 667.47 79.96C667.47 79.56 667.47 79.16 667.55 78.76C667.55 78.6 667.55 78.44 667.55 78.28C667.63 78.04 667.79 77.88 668.03 77.72C668.19 77.64 668.35 77.56 668.51 77.56C669.71 77.4 670.91 77.4 672.11 77.16C673.23 77.08 674.35 77 675.55 77.24C675.95 77.32 676.35 77.4 676.75 77.4C677.79 77.4 678.83 77.72 679.87 77.88C680.99 78.2 681.95 78.68 682.83 79.48C683.79 80.36 684.51 81.4 685.31 82.44C685.39 82.6 685.47 82.76 685.55 82.84C685.79 83.32 686.03 83.72 686.19 84.2C686.99 86.04 687.79 87.96 688.51 89.8C688.67 90.2 688.83 90.52 688.99 90.92C689.55 92.28 689.87 93.72 689.95 95.16C690.03 96.2 690.03 97.32 690.27 98.36C690.43 98.84 690.43 99.48 690.43 100.04C690.43 101.08 690.43 102.12 690.43 103.16ZM724.641 106.84C724.641 103.32 724.641 100.6 724.641 97.96C724.641 97.24 724.641 96.52 724.641 95.8C724.481 92.44 724.561 89.08 724.561 85.8C724.561 85.08 724.561 84.28 724.721 83.56C724.881 82.84 724.881 82.12 724.961 81.4C724.961 80.68 724.961 79.96 725.041 79.24C725.041 78.92 725.201 78.6 725.441 78.36C725.841 77.8 726.321 77.4 727.041 77.24C727.281 77.16 727.601 77.08 727.921 77C728.641 76.84 729.361 76.6 730.001 76.36C730.241 76.28 730.321 76.04 730.161 75.8C730.081 75.72 730.081 75.64 730.001 75.56C729.761 75.4 729.441 75.24 729.121 75.24C728.721 75.16 728.321 75.16 727.921 75.16C721.841 75.16 715.841 75.16 709.841 75.16C709.601 75.16 709.361 75.16 709.121 75.16C708.561 75.24 708.081 75.48 707.761 76.04C707.681 76.2 707.681 76.36 707.841 76.44C708.081 76.6 708.241 76.68 708.481 76.76C708.801 76.84 709.121 76.92 709.441 76.92C710.401 77 711.201 77.24 712.081 77.56C712.481 77.72 712.881 78.2 712.881 78.68C712.881 78.84 712.961 79 712.961 79.16C712.961 80.44 712.961 81.72 712.961 83C712.961 84.12 712.881 85.16 713.041 86.2C713.121 87.32 713.121 88.44 713.121 89.64C713.201 91.16 713.201 92.68 713.121 94.2C713.121 95.32 713.201 96.36 713.041 97.4C712.961 97.8 712.961 98.2 712.961 98.6C712.961 99.88 712.961 101.24 712.961 102.52C712.881 109.4 713.041 116.36 712.881 123.24C712.801 124.68 712.721 126.12 712.321 127.56C712.241 127.88 712.081 128.12 711.761 128.36C711.281 128.68 710.641 129 710.001 129.16C708.721 129.4 707.521 129.8 706.321 130.36C706.161 130.44 706.081 130.52 706.081 130.76C706.081 131.08 706.321 131.32 706.641 131.4C706.881 131.4 707.121 131.48 707.361 131.48C709.921 131.48 712.401 131.48 714.961 131.48C715.441 131.48 715.921 131.48 716.401 131.32C717.041 131.16 717.681 131.16 718.321 131.16C721.121 131.16 723.841 131.16 726.641 131.16C727.361 131.16 728.081 131.16 728.801 131.16C729.041 131.16 729.281 131.08 729.521 131.08C729.601 131.08 729.681 131 729.761 131C729.921 130.92 730.241 130.52 730.161 130.44C730.081 130.2 729.921 129.96 729.761 129.8C729.681 129.8 729.601 129.72 729.521 129.72C728.721 129.64 727.921 129.4 727.201 129.16C726.401 128.92 725.681 128.6 725.041 128.04C724.801 127.8 724.641 127.56 724.561 127.16C724.561 127 724.561 126.84 724.561 126.68C724.561 123.88 724.481 121 724.561 118.2C724.641 114.12 724.721 110.04 724.641 106.84ZM743.662 78.04C745.182 78.04 746.702 78.04 748.302 78.04C748.462 78.04 748.622 78.04 748.782 78.12C749.582 78.36 750.302 79.24 750.302 80.12C750.302 81 750.302 81.88 750.302 82.76C750.302 83.96 750.302 85.08 750.382 86.2C750.382 87.4 750.382 88.6 750.382 89.88C750.382 98.28 750.302 106.76 750.302 115.16C750.302 115.64 750.302 116.12 750.222 116.6C750.142 117.4 750.142 118.12 750.142 118.84C750.062 121.16 749.982 123.56 749.902 125.88C749.902 126.12 749.902 126.36 749.822 126.6C749.662 127.24 749.422 127.8 748.782 128.2C748.542 128.36 748.222 128.52 747.902 128.6C747.342 128.76 746.702 129 746.062 129.16C745.422 129.4 744.862 129.56 744.222 129.8C743.982 129.88 743.822 130.04 743.662 130.28C743.502 130.52 743.662 131 743.982 131C744.222 131.08 744.462 131.16 744.702 131.16C751.422 131.08 758.142 131.08 764.862 131C765.102 131 765.342 131 765.582 131C765.902 130.92 766.222 130.84 766.542 130.76C766.622 130.68 766.702 130.68 766.782 130.6C766.862 130.52 766.942 130.36 767.022 130.2C767.102 130.12 766.862 129.64 766.702 129.64C766.222 129.48 765.742 129.32 765.262 129.24C764.382 129.08 763.582 128.68 762.782 128.36C762.542 128.2 762.382 128.12 762.142 127.96C761.822 127.64 761.582 127.32 761.582 126.92C761.582 124.76 761.502 122.68 761.502 120.6C761.662 115.8 761.742 111 761.662 106.2C761.662 99.72 761.662 93.24 761.662 86.68C761.662 85.56 761.662 84.44 761.742 83.32C761.742 81.32 761.742 81.32 762.142 79.4C762.222 78.92 762.622 78.6 763.102 78.44C763.262 78.44 763.422 78.36 763.582 78.36C763.822 78.36 764.062 78.36 764.302 78.36C765.662 78.36 767.102 78.44 768.462 78.44C768.862 78.44 769.262 78.6 769.662 78.68C770.302 78.84 770.862 79.08 771.422 79.4C771.662 79.48 771.902 79.64 772.062 79.72C772.942 80.36 773.662 81.16 774.222 82.12C774.382 82.52 774.622 82.92 774.862 83.4C775.342 84.2 775.662 85.16 775.902 86.12C775.982 86.84 776.222 87.48 776.462 88.2C776.462 88.28 776.543 88.36 776.622 88.36C776.702 88.52 776.862 88.6 777.022 88.6C777.102 88.68 777.182 88.68 777.262 88.68C777.822 88.68 778.222 88.36 778.222 87.88C778.302 86.68 778.142 85.56 777.982 84.44C777.902 83.72 777.822 83 777.822 82.28C777.742 80.84 777.663 79.32 777.663 77.88C777.582 77.4 777.582 76.92 777.582 76.44C777.502 76.12 777.422 75.8 777.262 75.48C777.102 75.24 776.943 75.16 776.702 75.08C776.382 75 776.062 75 775.742 75C774.462 74.92 773.102 74.92 771.822 74.92C764.542 75 757.262 75 749.902 75C746.062 75 742.302 75 738.462 75.08C737.742 75.08 737.022 75.08 736.302 75.08C735.982 75.16 735.662 75.24 735.342 75.4C735.102 75.56 734.862 75.96 734.862 76.2C734.782 76.44 734.782 76.68 734.782 76.92C734.702 77.88 734.702 78.84 734.542 79.88C734.462 80.36 734.462 80.84 734.462 81.32C734.382 82.2 734.382 83.08 734.302 83.96C734.302 85 734.302 86.12 733.982 87.08C733.902 87.4 733.982 87.72 734.062 88.04C734.302 88.68 734.942 88.84 735.502 88.52C735.582 88.52 735.662 88.44 735.662 88.36C735.982 87.88 736.222 87.32 736.222 86.76C736.382 85.56 736.862 84.44 737.422 83.32C737.742 82.76 738.062 82.2 738.382 81.64C738.702 81.16 739.022 80.76 739.422 80.36C739.822 80.04 740.142 79.72 740.542 79.4C741.102 78.92 741.742 78.52 742.462 78.36C742.862 78.28 743.262 78.12 743.662 78.04ZM800.031 106.84C800.031 103.32 800.031 100.6 800.031 97.96C800.031 97.24 800.031 96.52 800.031 95.8C799.871 92.44 799.951 89.08 799.951 85.8C799.951 85.08 799.951 84.28 800.111 83.56C800.271 82.84 800.271 82.12 800.351 81.4C800.351 80.68 800.351 79.96 800.431 79.24C800.431 78.92 800.591 78.6 800.831 78.36C801.231 77.8 801.711 77.4 802.431 77.24C802.671 77.16 802.991 77.08 803.311 77C804.031 76.84 804.751 76.6 805.391 76.36C805.631 76.28 805.711 76.04 805.551 75.8C805.471 75.72 805.471 75.64 805.391 75.56C805.151 75.4 804.831 75.24 804.511 75.24C804.111 75.16 803.711 75.16 803.311 75.16C797.231 75.16 791.231 75.16 785.231 75.16C784.991 75.16 784.751 75.16 784.511 75.16C783.951 75.24 783.471 75.48 783.151 76.04C783.071 76.2 783.071 76.36 783.231 76.44C783.471 76.6 783.631 76.68 783.871 76.76C784.191 76.84 784.511 76.92 784.831 76.92C785.791 77 786.591 77.24 787.471 77.56C787.871 77.72 788.271 78.2 788.271 78.68C788.271 78.84 788.351 79 788.351 79.16C788.351 80.44 788.351 81.72 788.351 83C788.351 84.12 788.271 85.16 788.431 86.2C788.511 87.32 788.511 88.44 788.511 89.64C788.591 91.16 788.591 92.68 788.511 94.2C788.511 95.32 788.591 96.36 788.431 97.4C788.351 97.8 788.351 98.2 788.351 98.6C788.351 99.88 788.351 101.24 788.351 102.52C788.271 109.4 788.431 116.36 788.271 123.24C788.191 124.68 788.111 126.12 787.711 127.56C787.631 127.88 787.471 128.12 787.151 128.36C786.671 128.68 786.031 129 785.391 129.16C784.111 129.4 782.911 129.8 781.711 130.36C781.551 130.44 781.471 130.52 781.471 130.76C781.471 131.08 781.711 131.32 782.031 131.4C782.271 131.4 782.511 131.48 782.751 131.48C785.311 131.48 787.791 131.48 790.351 131.48C790.831 131.48 791.311 131.48 791.791 131.32C792.431 131.16 793.071 131.16 793.711 131.16C796.511 131.16 799.231 131.16 802.031 131.16C802.751 131.16 803.471 131.16 804.191 131.16C804.431 131.16 804.671 131.08 804.911 131.08C804.991 131.08 805.071 131 805.151 131C805.311 130.92 805.631 130.52 805.551 130.44C805.471 130.2 805.311 129.96 805.151 129.8C805.071 129.8 804.991 129.72 804.911 129.72C804.111 129.64 803.311 129.4 802.591 129.16C801.791 128.92 801.071 128.6 800.431 128.04C800.191 127.8 800.031 127.56 799.951 127.16C799.951 127 799.951 126.84 799.951 126.68C799.951 123.88 799.871 121 799.951 118.2C800.031 114.12 800.111 110.04 800.031 106.84ZM838.493 75.16C837.613 75.16 836.653 75.16 835.773 75.16C835.373 75.16 834.973 75.16 834.573 75.24C833.613 75.4 832.653 75.48 831.693 75.48C831.053 75.56 830.413 75.56 829.773 75.8C829.533 75.8 829.293 75.88 829.053 75.88C827.773 76.12 826.493 76.52 825.373 77.08C824.493 77.48 823.613 77.96 822.733 78.36C822.493 78.44 822.253 78.6 822.093 78.76C820.813 79.56 819.533 80.52 818.413 81.56C817.933 82.12 817.453 82.68 817.053 83.24C816.413 84.2 815.693 85.08 815.053 86.04C814.493 86.92 814.093 87.88 813.613 88.84C813.453 89.32 813.213 89.72 812.973 90.2C812.013 91.88 811.293 93.64 810.893 95.56C810.893 95.72 810.813 95.88 810.733 96.04C810.493 97.08 810.253 98.12 810.173 99.16C810.013 101 809.933 102.92 809.933 104.76C809.933 105.24 810.013 105.72 810.093 106.2C810.173 107.48 810.413 108.6 810.973 111.24C811.053 111.96 811.293 112.68 811.613 113.32C811.693 113.56 811.853 113.72 811.933 113.96C812.253 115.16 812.893 116.2 813.453 117.32C813.853 118.2 814.413 119 815.133 119.72C815.693 120.28 816.173 120.84 816.813 121.48C817.213 121.8 817.613 122.2 818.093 122.52C818.973 123.16 819.773 123.8 820.493 124.6C821.133 125.16 821.853 125.72 822.573 126.28C823.933 127.16 825.293 127.96 826.733 128.76C826.973 128.92 827.133 129 827.373 129.08C828.653 129.64 829.933 130.12 831.213 130.68C831.693 130.84 832.093 131 832.653 131.08C832.973 131.08 833.293 131.16 833.613 131.24C834.413 131.48 835.373 131.48 836.253 131.56C837.293 131.56 838.333 131.56 839.373 131.48C839.853 131.48 840.413 131.48 840.893 131.4C841.693 131.24 842.493 131.16 843.293 131.08C844.413 131 845.453 130.6 846.573 130.36C847.293 130.12 848.013 129.96 848.653 129.56C849.053 129.32 849.453 129.08 849.933 128.92C850.973 128.44 851.933 127.8 852.813 127.08C853.213 126.76 853.693 126.36 854.173 126.04C855.613 125 856.893 123.72 858.013 122.36C859.133 121.08 860.173 119.72 861.053 118.28C861.373 117.8 861.613 117.24 861.853 116.76C862.413 115.48 862.733 114.12 863.293 112.84C863.693 111.88 863.773 110.84 864.013 109.8C864.253 109.24 864.173 108.68 864.253 108.12C864.253 107.64 864.333 107.16 864.493 106.68C864.653 106.2 864.653 105.72 864.653 105.24C864.653 103.8 864.733 102.28 864.653 100.84C864.653 100.12 864.653 99.4 864.413 98.68C864.333 98.36 864.333 98.04 864.253 97.72C864.253 96.92 864.013 96.12 863.773 95.32C863.133 92.68 862.013 90.28 860.493 88.04C859.693 86.76 858.733 85.56 857.773 84.28C857.053 83.24 856.093 82.36 855.133 81.48C854.253 80.68 853.293 79.88 852.413 79.08C851.533 78.36 850.573 77.72 849.533 77.16C848.973 76.92 848.413 76.6 847.853 76.36C846.813 75.8 845.693 75.48 844.573 75.48C843.933 75.48 843.213 75.48 842.573 75.32C841.933 75.16 841.293 75.16 840.653 75.16C839.933 75.16 839.213 75.16 838.493 75.16ZM822.813 105.96C822.813 105.08 822.813 104.2 822.893 103.32C822.893 103 822.893 102.68 822.893 102.36C823.213 100.92 823.213 99.48 823.293 97.96C823.373 97.16 823.373 96.36 823.613 95.56C823.853 94.76 823.853 93.8 824.093 92.92C824.253 91.64 824.573 90.44 825.053 89.16C825.453 87.56 826.093 86.12 826.733 84.6C827.053 83.88 827.453 83.16 828.013 82.6C828.173 82.44 828.253 82.36 828.333 82.2C828.973 81.24 829.773 80.44 830.733 79.8C831.053 79.56 831.373 79.24 831.613 79C832.333 78.44 833.133 78.04 834.013 77.8C834.253 77.72 834.493 77.72 834.733 77.64C835.293 77.48 835.853 77.48 836.413 77.56C836.653 77.56 836.893 77.64 837.133 77.72C837.853 77.8 838.573 77.88 839.293 77.96C840.173 78.04 841.053 78.28 841.853 78.68C842.653 79 843.453 79.4 844.253 79.88C845.293 80.44 846.173 81.08 846.813 82.04C847.373 82.84 847.933 83.64 848.413 84.52C848.813 85 849.053 85.64 849.293 86.2C849.933 87.72 850.413 89.24 850.893 90.84C851.133 91.48 851.213 92.28 851.373 92.92C851.613 93.72 851.693 94.52 851.933 95.32C852.093 96.04 852.173 96.76 852.333 97.48C852.573 98.36 852.653 99.24 852.813 100.12C852.813 100.28 852.893 100.44 852.813 100.6C852.813 102.2 852.973 103.8 852.733 105.48C852.573 106.36 852.573 107.24 852.573 108.12C852.493 109.8 852.173 111.48 851.773 113.16C851.533 114.12 851.293 115.08 851.053 116.04C850.733 117.72 850.173 119.48 849.293 121C848.733 122.12 848.173 123.16 847.533 124.2C847.213 124.76 846.813 125.32 846.413 125.8C845.773 126.68 844.973 127.32 843.933 127.72C843.133 127.96 842.413 128.2 841.613 128.44C841.293 128.52 840.973 128.6 840.653 128.6C839.213 128.76 837.773 128.68 836.253 128.52C835.533 128.52 834.893 128.2 834.173 128.04C833.533 127.8 832.973 127.56 832.333 127.32C832.013 127.16 831.613 126.92 831.293 126.68C829.773 125.56 828.413 124.28 827.133 122.92C826.813 122.6 826.573 122.2 826.333 121.72C825.773 120.28 825.053 118.92 824.493 117.48C824.333 117.16 824.253 116.92 824.253 116.6C824.093 115.64 823.773 114.84 823.773 113.96C823.693 113.72 823.613 113.48 823.533 113.24C823.373 112.76 823.293 112.28 823.293 111.8C823.213 111.16 823.133 110.52 822.973 109.88C822.893 109.56 822.813 109.24 822.813 108.92C822.813 107.96 822.813 107 822.813 105.96ZM880.177 105.96C880.097 101.48 880.097 95.08 880.097 88.68C880.097 88.44 880.097 88.28 880.097 88.12C880.097 88.04 880.097 87.96 880.097 87.88C880.177 87.8 880.257 87.64 880.337 87.48C880.497 87.56 880.657 87.56 880.817 87.64C881.377 88.12 881.857 88.68 882.257 89.24C883.857 91.24 885.457 93.16 887.217 95C887.537 95.32 887.777 95.72 888.097 96.12C888.977 97.24 889.697 98.36 890.417 99.56C891.057 100.52 891.697 101.48 892.417 102.28C893.057 103 893.537 103.72 894.017 104.44C894.657 105.4 895.297 106.36 896.017 107.24C897.777 109.72 899.617 112.28 901.297 114.84C902.097 115.96 902.897 117.08 903.777 118.12C904.097 118.52 904.417 118.92 904.657 119.32C906.417 121.72 908.097 124.2 909.697 126.76C910.577 128.04 911.537 129.24 912.737 130.28C912.817 130.28 912.817 130.36 912.897 130.44C913.457 130.76 914.097 131 914.737 130.84C915.057 130.76 915.377 130.68 915.697 130.52C916.017 130.44 916.177 130.12 916.257 129.8C916.257 129.56 916.337 129.32 916.337 129.08C916.337 125.64 916.337 122.28 916.257 118.84C916.177 112.2 916.097 105.48 916.097 98.84C916.097 97.8 916.097 96.76 916.097 95.72C916.097 94.44 916.177 93.24 915.937 92.04C915.857 91.64 915.857 91.24 915.857 90.84C915.857 87 915.777 83.16 915.777 79.4C915.777 79.24 915.777 79.08 915.777 78.92C915.857 78.28 916.097 77.8 916.497 77.4C916.977 76.84 917.617 76.44 918.417 76.44C919.537 76.44 920.657 76.2 921.777 75.88C922.017 75.88 922.177 75.72 922.337 75.48C922.417 75.48 922.417 75.32 922.417 75.24C922.417 75.16 922.257 75 922.097 75C921.937 74.92 921.777 74.92 921.617 74.92C916.737 74.92 911.857 74.92 906.977 75C906.817 75 906.657 75 906.497 75C906.257 75.08 905.937 75.4 906.017 75.72C906.017 75.88 906.337 76.28 906.497 76.28C906.737 76.28 906.977 76.36 907.217 76.36C907.857 76.36 908.497 76.36 909.137 76.36C909.617 76.36 910.097 76.36 910.577 76.44C911.137 76.6 911.617 76.92 911.857 77.48C912.097 77.96 912.257 78.44 912.257 78.92C912.337 79.48 912.337 80.04 912.337 80.6C912.337 82.52 912.337 84.52 912.337 86.44C912.337 92.6 912.337 98.76 912.257 105C912.257 105.56 912.257 106.12 912.257 106.68C912.257 106.76 912.177 106.84 912.097 106.92C912.097 107.08 911.937 107.16 911.777 107.16C911.377 107.24 911.057 107.08 910.897 106.84C910.097 105.8 909.297 104.76 908.577 103.72C907.857 102.6 907.137 101.56 906.337 100.52C905.137 99.08 904.017 97.56 902.977 96.04C902.497 95.4 902.017 94.76 901.537 94.12C900.657 93 899.697 92.04 898.817 90.92C898.257 90.36 897.777 89.72 897.217 89.08C896.737 88.44 896.097 87.8 895.617 87C895.377 86.68 895.057 86.36 894.817 86.04C894.257 85.48 893.697 84.92 893.137 84.28C892.417 83.4 891.697 82.52 890.977 81.64C890.497 81.08 890.097 80.52 889.617 79.96C889.057 79.32 888.497 78.76 887.937 78.2C887.377 77.64 886.737 77.08 886.177 76.44C885.937 76.28 885.697 76.04 885.457 75.8C885.217 75.64 884.897 75.48 884.577 75.48C884.417 75.4 884.257 75.4 884.097 75.4C880.657 75.32 877.297 75.32 873.857 75.4C873.697 75.4 873.537 75.4 873.377 75.48C872.817 75.48 872.257 75.72 871.777 76.04C871.697 76.12 871.537 76.28 871.457 76.36C871.297 76.6 871.297 77.08 871.457 77.24C871.697 77.48 871.857 77.64 872.097 77.72C872.737 78.04 873.297 78.52 873.777 79.08C874.337 79.56 874.657 80.2 874.817 81C874.897 81.56 874.897 82.12 875.057 82.68C875.217 83.56 875.297 84.44 875.217 85.32C875.137 89.16 875.217 92.92 875.297 96.76C875.377 98.76 875.377 100.68 875.377 102.6C875.377 110.52 875.297 118.36 875.377 126.28C875.377 126.76 875.377 127.24 875.297 127.72C875.217 128.44 874.817 128.92 874.097 129.16C873.537 129.32 872.897 129.56 872.257 129.56C871.617 129.64 871.137 129.88 870.657 130.12C870.417 130.28 870.257 130.44 870.177 130.68C870.097 130.84 870.017 131 870.177 131.16C870.257 131.24 870.337 131.4 870.497 131.48C870.817 131.48 871.137 131.56 871.457 131.56C875.537 131.56 879.617 131.56 883.617 131.56C884.337 131.56 884.977 131.56 885.617 131.56C885.777 131.56 885.937 131.48 886.097 131.4C886.257 131.4 886.417 131.08 886.337 130.84C886.177 130.52 885.937 130.28 885.617 130.2C884.577 129.96 883.617 129.64 882.497 129.56C882.177 129.56 881.857 129.48 881.537 129.4C880.737 129.24 880.257 128.52 880.177 127.88C880.177 126.44 880.097 124.92 880.097 123.48C880.097 118.28 880.097 113.08 880.177 105.96ZM938.401 87.08C938.401 84.6 938.401 84.6 939.121 82.44C939.281 82.04 939.361 81.64 939.521 81.24C940.081 80.12 940.881 79.24 941.921 78.6C942.001 78.52 942.081 78.52 942.161 78.44C943.121 78.12 944.001 77.8 944.961 77.88C946.161 77.88 947.281 77.88 948.401 77.88C948.721 77.88 949.041 77.88 949.361 77.96C950.161 78.2 950.961 78.36 951.681 78.68C953.761 79.64 955.361 81.08 956.481 83.08C956.721 83.56 956.961 84.04 957.281 84.52C957.761 85.4 958.001 86.36 958.241 87.32C958.321 88.28 958.801 89.16 958.961 90.12C958.961 90.2 959.041 90.28 959.121 90.36C959.201 90.52 959.441 90.6 959.681 90.68C959.841 90.68 960.241 90.44 960.241 90.28C960.401 89.48 960.641 88.68 960.641 87.88C960.721 86.04 960.721 84.12 960.561 82.28C960.401 81.32 960.401 80.36 960.321 79.4C960.321 79.08 960.321 78.76 960.241 78.44C960.161 78.2 960.001 77.96 959.841 77.8C959.681 77.72 959.601 77.56 959.441 77.48C958.801 77.16 958.161 76.84 957.441 76.52C956.721 76.28 955.921 76.04 955.121 75.8C954.561 75.64 953.921 75.48 953.281 75.48C952.641 75.4 952.081 75.4 951.521 75.32C950.721 75.16 949.921 75.16 949.121 75.16C947.681 75.16 946.161 75.16 944.721 75.16C943.841 75.16 942.961 75.24 942.081 75.32C941.281 75.48 940.481 75.56 939.681 75.8C939.441 75.96 939.201 75.96 938.961 75.96C938.081 76.12 937.281 76.44 936.401 76.52C935.921 76.6 935.441 76.84 935.041 77.08C934.481 77.4 934.001 77.64 933.601 78.04C933.281 78.44 932.881 78.76 932.561 79.08C932.241 79.48 931.921 79.8 931.601 80.2C931.041 81 930.481 81.8 930.001 82.6C929.841 82.84 929.681 83 929.601 83.24C929.441 83.88 929.121 84.44 929.041 85.08C928.801 86.2 928.561 87.32 928.401 88.44C928.161 89.56 928.161 90.68 928.241 91.8C928.481 92.6 928.481 93.4 928.561 94.2C928.561 94.44 928.641 94.76 928.721 94.92C929.041 96.12 929.441 97.32 930.081 98.36C930.401 98.92 930.801 99.56 931.201 100.2C932.161 101.72 933.361 103.08 934.881 104.04C935.041 104.2 935.281 104.36 935.441 104.52C936.001 105 936.561 105.4 937.281 105.72C937.521 105.88 937.841 106.04 938.081 106.2C940.161 107.56 942.241 108.76 944.481 109.8C945.361 110.2 946.161 110.68 946.961 111.24C948.561 112.28 949.921 113.56 951.201 114.92C951.921 115.72 952.401 116.6 952.561 117.72C952.641 118.04 952.721 118.36 952.801 118.68C952.961 119.48 952.961 120.28 952.881 121.08C952.881 121.16 952.881 121.24 952.881 121.32C952.561 122.12 952.321 123 952.001 123.88C951.521 124.92 950.801 125.8 949.841 126.44C949.521 126.76 949.201 126.84 948.801 127.08C947.761 127.32 946.801 127.56 945.681 127.56C944.401 127.56 943.121 127.56 941.841 127.56C941.601 127.56 941.281 127.56 941.041 127.56C940.161 127.32 939.121 127.24 938.241 126.92C937.681 126.76 937.121 126.52 936.641 126.2C936.401 126.04 936.081 125.88 935.841 125.72C935.041 125.32 934.321 124.76 933.681 124.12C933.441 123.88 933.121 123.56 932.801 123.32C931.841 122.28 931.041 121.16 930.401 119.96C930.001 119.32 929.681 118.68 929.521 117.96C929.281 117.24 929.041 116.6 928.881 115.88C928.881 115.64 928.721 115.4 928.561 115.24C928.481 115.08 928.081 114.92 927.921 115C927.841 115.16 927.681 115.24 927.601 115.4C927.521 115.48 927.521 115.64 927.521 115.8C927.601 116.84 927.601 117.8 927.841 118.76C927.921 119.16 927.921 119.56 928.001 119.96C928.081 121.56 928.081 123.16 928.401 124.76C928.481 125.16 928.481 125.56 928.481 126.04C928.481 126.44 928.561 126.84 928.561 127.24C928.641 127.72 928.801 128.2 929.041 128.6C929.121 128.84 929.281 129 929.521 129.08C930.641 129.56 931.761 130.12 932.961 130.36C934.001 130.6 935.041 130.92 936.081 131C936.881 131.08 937.681 131.16 938.481 131.16C941.601 131.16 944.641 131.08 947.761 131.08C948.161 131.08 948.561 131 948.961 130.92C949.601 130.84 950.241 130.6 950.881 130.6C951.521 130.52 952.081 130.2 952.721 130.12C954.801 129.72 956.561 128.84 958.001 127.24C958.081 127.16 958.241 127 958.321 126.92C959.041 126.2 959.681 125.48 960.241 124.68C960.481 124.36 960.721 124.04 960.961 123.72C961.361 123.16 961.761 122.52 962.081 121.88C962.641 120.84 963.041 119.8 963.441 118.76C963.521 118.52 963.601 118.28 963.681 118.04C964.001 116.52 964.001 116.52 964.001 114.92C964.001 114.44 964.001 113.96 964.001 113.48C963.921 113.16 963.841 112.84 963.761 112.52C963.281 110.76 962.641 109.08 961.841 107.48C961.441 106.76 960.961 106.12 960.401 105.56C959.601 104.68 958.721 103.8 957.761 103.08C956.001 101.72 954.321 100.36 952.481 99.16C950.881 98.2 949.361 97.08 947.761 96.12C946.641 95.48 945.601 94.68 944.481 93.96C943.921 93.56 943.361 93 942.801 92.6C942.481 92.28 942.161 92.04 941.921 91.8C941.041 91.16 940.321 90.36 939.681 89.56C939.281 89.08 938.961 88.6 938.801 88.12C938.721 87.8 938.561 87.48 938.401 87.08Z" fill="white"/>
<path d="M1047 136.557C1036.56 136.557 1032.66 131.78 1032.13 130.102C1031.84 129.209 1031.73 127.659 1031.78 125.361C1029.95 121.587 1031.84 113.291 1033.17 111.814C1035.01 109.79 1037.4 109.443 1038.17 109.37C1040.48 107.638 1044.11 107 1046.76 107C1051.45 107 1057.31 107.547 1061.05 111.814C1062.66 113.655 1063.67 120.219 1062.48 124.213C1062.61 127.057 1062.52 129.026 1062.19 130.084L1062.17 130.157L1062.13 130.23C1061.2 131.707 1057.41 136.557 1047 136.557ZM1046.76 108.295C1044.27 108.295 1040.87 108.878 1038.82 110.501L1038.65 110.629H1038.43C1038.17 110.629 1035.87 110.756 1034.14 112.652C1033.17 113.728 1031.29 121.66 1033.01 124.887L1033.08 125.033V125.197C1033.01 127.951 1033.19 129.154 1033.36 129.664C1033.74 130.85 1037.17 135.244 1047 135.244C1056.56 135.244 1060.06 131.014 1060.96 129.61C1061.14 128.935 1061.32 127.44 1061.18 124.14V124.03L1061.22 123.921C1062.39 120.183 1061.34 114.075 1060.08 112.634C1056.67 108.787 1051.18 108.295 1046.76 108.295Z" fill="#FDF1E3"/>
<path d="M1046.76 131.196C1044.05 131.196 1043.25 128.589 1042.55 126.309C1041.98 124.45 1041.43 122.681 1040.08 122.353C1038.56 121.988 1037.9 123.027 1037.02 124.814C1036.47 125.908 1035.98 126.929 1035.01 127.258C1034.51 127.422 1033.96 127.367 1033.38 127.075C1032.28 126.528 1031.54 125.361 1031.21 123.611C1030.41 119.417 1032.06 113.035 1033.17 111.814C1035.04 109.753 1037.44 109.425 1038.19 109.37C1040.3 107.802 1043.54 107 1046.76 107C1051.45 107 1057.31 107.547 1061.05 111.814C1062.64 113.619 1063.49 119.545 1062.7 123.337C1062.26 125.434 1061.4 126.802 1060.13 127.403C1059.57 127.677 1059.04 127.713 1058.54 127.549C1057.57 127.203 1057.06 126.091 1056.53 124.924C1055.65 123.009 1055.01 121.879 1053.47 122.243C1052.09 122.572 1051.56 124.358 1050.99 126.237C1050.28 128.57 1049.47 131.196 1046.76 131.196ZM1039.47 120.985C1039.75 120.985 1040.04 121.022 1040.37 121.095C1042.46 121.587 1043.14 123.793 1043.78 125.927C1044.55 128.406 1045.12 129.902 1046.76 129.902C1048.41 129.902 1048.98 128.388 1049.75 125.872C1050.41 123.72 1051.07 121.496 1053.16 121.003C1055.85 120.347 1056.91 122.681 1057.7 124.395C1058.1 125.27 1058.52 126.182 1058.98 126.346C1059.04 126.364 1059.2 126.437 1059.57 126.255C1060.67 125.726 1061.18 124.249 1061.42 123.082C1062.22 119.18 1061.16 113.911 1060.06 112.652C1056.67 108.787 1051.16 108.295 1046.75 108.295C1044.25 108.295 1040.96 108.878 1038.96 110.355C1038.89 110.464 1038.78 110.556 1038.65 110.61C1037.77 111.358 1037.2 112.324 1037.2 113.509C1037.2 117.12 1043.05 118.469 1046.73 118.469C1051.49 118.469 1055.72 115.406 1057.24 114.166C1053.34 111.431 1049.24 110.701 1046.8 110.938C1045.39 111.066 1043.72 111.54 1043.72 113.054C1043.72 113.582 1043.89 114.002 1044.22 114.312C1045.06 115.114 1046.69 115.041 1046.71 115.041C1047.08 115.023 1047.37 115.296 1047.39 115.643C1047.41 115.989 1047.13 116.299 1046.78 116.317C1046.69 116.317 1044.58 116.427 1043.32 115.242C1042.72 114.676 1042.42 113.947 1042.42 113.054C1042.42 111.139 1043.98 109.899 1046.67 109.644C1049.47 109.389 1054.29 110.264 1058.65 113.601L1059.26 114.056L1058.71 114.567C1058.49 114.786 1053.17 119.727 1046.71 119.727C1042.37 119.727 1035.9 118.068 1035.9 113.491C1035.9 112.561 1036.16 111.723 1036.62 110.993C1035.83 111.267 1034.9 111.777 1034.11 112.652C1033.28 113.564 1031.75 119.581 1032.46 123.356C1032.72 124.687 1033.21 125.544 1033.92 125.908C1034.31 126.109 1034.49 126.036 1034.57 126.018C1035.01 125.872 1035.43 125.033 1035.83 124.231C1036.54 122.827 1037.46 120.985 1039.47 120.985Z" fill="#FDF1E3"/>
</g>
<defs>
<clipPath id="clip0_759_18">
<rect width="150" height="1080" fill="white" transform="translate(1080) rotate(90)"/>
</clipPath>
</defs>
</svg>
