<svg width="1000" height="200" viewBox="0 0 1000 200" fill="none" xmlns="http://www.w3.org/2000/svg">
<g clip-path="url(#clip0_726_2)">
<rect width="200" height="1000" transform="translate(1000) rotate(90)" fill="#DD8964"/>
<path d="M-217.743 114.446C-311.348 126.97 -595.271 67.2943 -648 65.3848C-411.246 -16.5323 220.793 -313.86 535.772 -344.201C850.751 -374.541 1021.43 -182.901 1090.4 -78.4491C1139.78 -3.66573 1130.61 45.4803 981.65 56.136C856.808 65.0665 770.516 9.02585 669.074 15.0196C567.633 21.0134 578.553 93.7469 442.066 99.1986C305.578 104.65 118.599 39.2282 -13.3627 42.2777C-145.324 45.3272 -124.138 101.922 -217.743 114.446Z" fill="#A3BD9B"/>
<path d="M-163.127 103.401C-256.732 115.925 -514.821 60.2806 -567.55 58.3711C-330.796 -23.546 301.244 -320.874 616.222 -351.214C931.201 -381.555 1076.05 -193.945 1145.02 -89.4938C1194.39 -14.7105 1185.23 34.4355 1036.27 45.0913C911.423 54.0217 825.131 -2.01888 723.689 3.97492C622.248 9.96869 633.168 82.7022 496.681 88.1539C360.194 93.6055 173.214 28.1836 41.2528 31.2331C-90.7089 34.2826 -69.5225 90.8772 -163.127 103.401Z" stroke="#FDF1E3" stroke-opacity="0.2" stroke-width="6"/>
<path d="M962.002 183.557C951.562 183.557 947.661 178.78 947.13 177.102C946.837 176.209 946.727 174.659 946.782 172.361C944.95 168.587 946.837 160.291 948.174 158.814C950.005 156.79 952.405 156.443 953.174 156.37C955.482 154.638 959.108 154 961.764 154C966.453 154 972.314 154.547 976.05 158.814C977.662 160.655 978.669 167.219 977.479 171.213C977.607 174.057 977.515 176.026 977.186 177.084L977.167 177.157L977.131 177.23C976.197 178.707 972.405 183.557 962.002 183.557ZM961.764 155.295C959.273 155.295 955.866 155.878 953.815 157.501L953.65 157.629H953.431C953.174 157.629 950.866 157.756 949.145 159.652C948.174 160.728 946.287 168.66 948.009 171.887L948.082 172.033V172.197C948.009 174.951 948.192 176.154 948.357 176.664C948.742 177.85 952.167 182.244 962.002 182.244C971.563 182.244 975.061 178.014 975.959 176.61C976.142 175.935 976.325 174.44 976.178 171.14V171.03L976.215 170.921C977.387 167.183 976.343 161.075 975.079 159.634C971.673 155.787 966.178 155.295 961.764 155.295Z" fill="#FDF1E3"/>
<path d="M961.764 178.196C959.053 178.196 958.247 175.589 957.552 173.309C956.984 171.45 956.434 169.681 955.079 169.353C953.559 168.988 952.899 170.027 952.02 171.814C951.471 172.908 950.976 173.929 950.005 174.258C949.511 174.422 948.962 174.367 948.375 174.075C947.276 173.528 946.544 172.361 946.214 170.611C945.408 166.417 947.057 160.035 948.174 158.814C950.042 156.753 952.441 156.425 953.192 156.37C955.299 154.802 958.541 154 961.764 154C966.453 154 972.314 154.547 976.05 158.814C977.644 160.619 978.486 166.545 977.699 170.337C977.259 172.434 976.398 173.802 975.134 174.403C974.567 174.677 974.035 174.713 973.541 174.549C972.57 174.203 972.057 173.091 971.526 171.924C970.647 170.009 970.006 168.879 968.468 169.243C967.094 169.572 966.563 171.358 965.995 173.237C965.281 175.57 964.475 178.196 961.764 178.196ZM954.474 167.985C954.749 167.985 955.042 168.022 955.372 168.095C957.46 168.587 958.138 170.793 958.779 172.927C959.548 175.406 960.116 176.902 961.764 176.902C963.412 176.902 963.98 175.388 964.75 172.872C965.409 170.72 966.068 168.496 968.156 168.003C970.849 167.347 971.911 169.681 972.698 171.395C973.101 172.27 973.523 173.182 973.981 173.346C974.035 173.364 974.2 173.437 974.567 173.255C975.666 172.726 976.178 171.249 976.417 170.082C977.222 166.18 976.16 160.911 975.061 159.652C971.673 155.787 966.16 155.295 961.746 155.295C959.255 155.295 955.958 155.878 953.962 157.355C953.888 157.464 953.778 157.556 953.65 157.61C952.771 158.358 952.203 159.324 952.203 160.509C952.203 164.12 958.046 165.469 961.727 165.469C966.489 165.469 970.72 162.406 972.241 161.166C968.339 158.431 964.237 157.701 961.801 157.938C960.39 158.066 958.724 158.54 958.724 160.054C958.724 160.582 958.889 161.002 959.218 161.312C960.061 162.114 961.691 162.041 961.709 162.041C962.075 162.023 962.368 162.296 962.387 162.643C962.405 162.989 962.13 163.299 961.782 163.317C961.691 163.317 959.585 163.427 958.321 162.242C957.716 161.676 957.423 160.947 957.423 160.054C957.423 158.139 958.98 156.899 961.672 156.644C964.475 156.389 969.292 157.264 973.651 160.601L974.255 161.056L973.706 161.567C973.486 161.786 968.175 166.727 961.709 166.727C957.368 166.727 950.903 165.068 950.903 160.491C950.903 159.561 951.159 158.723 951.617 157.993C950.83 158.267 949.896 158.777 949.108 159.652C948.284 160.564 946.745 166.581 947.46 170.356C947.716 171.687 948.211 172.544 948.925 172.908C949.31 173.109 949.493 173.036 949.566 173.018C950.005 172.872 950.427 172.033 950.83 171.231C951.544 169.827 952.46 167.985 954.474 167.985Z" fill="#FDF1E3"/>
</g>
<defs>
<clipPath id="clip0_726_2">
<rect width="200" height="1000" fill="white" transform="translate(1000) rotate(90)"/>
</clipPath>
</defs>
</svg>
