<svg width="1080" height="150" viewBox="0 0 1080 150" fill="none" xmlns="http://www.w3.org/2000/svg">
<g clip-path="url(#clip0_753_2)">
<rect width="150" height="1080" transform="translate(1080) rotate(90)" fill="#DD8964"/>
<path d="M121.503 94.446C9.13466 106.97 -331.702 47.2943 -395 45.3848C-110.788 -36.5323 647.944 -333.86 1026.06 -364.201C1404.18 -394.541 1609.07 -202.901 1691.87 -98.4491C1751.14 -23.6658 1740.14 25.4803 1561.32 36.136C1411.45 45.0664 1307.86 -10.9742 1186.08 -4.98039C1064.31 1.01338 1077.42 73.7469 913.571 79.1985C749.724 84.6502 525.265 19.2282 366.851 22.2777C208.438 25.3272 233.871 81.9219 121.503 94.446Z" fill="#A3BD9B"/>
<path d="M187.066 83.4013C74.6981 95.9255 -235.125 40.2806 -298.423 38.3711C-14.2113 -43.546 744.521 -340.874 1122.64 -371.214C1500.75 -401.555 1674.64 -213.945 1757.43 -109.494C1816.7 -34.7105 1805.7 14.4355 1626.88 25.0913C1477.01 34.0217 1373.42 -22.0189 1251.65 -16.0251C1129.87 -10.0313 1142.98 62.7022 979.134 68.1538C815.288 73.6055 590.828 8.18356 432.415 11.233C274.001 14.2825 299.434 70.8772 187.066 83.4013Z" stroke="#FDF1E3" stroke-opacity="0.2" stroke-width="6"/>
<path d="M429.8 131.56C434.52 131.56 437.8 131.48 441.16 131.48C441.48 131.48 441.8 131.48 442.12 131.4C442.44 131.4 442.76 131.32 443.08 131.24C443.16 131.24 443.24 131.16 443.32 131.08C443.56 131 443.72 130.68 443.64 130.52C443.56 130.28 443.4 130.12 443.16 130.04C442.84 129.96 442.52 129.8 442.2 129.8C441 129.56 439.88 129.08 438.76 128.52C438.36 128.36 438.04 127.88 438.04 127.4C437.96 125.16 437.96 123 437.96 120.84C437.96 118.04 438.04 115.32 438.12 112.52C438.12 111.16 438.12 109.8 438.12 108.36C438.04 107.8 438.04 107.24 438.04 106.68C438.04 106.52 438.12 106.36 438.12 106.2C438.12 105.8 438.44 105.4 438.84 105.32C439.96 105.32 441.08 105.24 442.28 105.24C443.24 105.16 444.2 105.16 445.16 105C445.48 104.92 445.8 104.92 446.12 104.84C448.28 104.76 450.52 104.68 452.68 104.68C455.08 104.76 457.4 104.76 459.8 104.76C460.12 104.76 460.44 104.84 460.76 104.84C461 104.84 461.32 105.16 461.32 105.48C461.32 105.8 461.32 106.04 461.32 106.28C461.32 110.92 461.4 115.48 461.48 120.12C461.56 122.6 461.48 125 461.4 127.48C461.4 127.88 461.16 128.28 460.76 128.44C459.64 129 458.44 129.56 457.16 129.72C456.92 129.72 456.68 129.88 456.44 129.96C456.28 129.96 456.2 130.12 456.12 130.28C455.88 130.52 456.04 130.92 456.36 131C456.6 131.16 456.76 131.16 457.08 131.16C458.12 131.24 459.16 131.24 460.2 131.24C462.76 131.24 465.24 131.24 467.8 131.24C468.2 131.24 468.6 131.24 469 131.32C469.64 131.48 470.28 131.56 470.92 131.56C473.48 131.56 476.12 131.56 478.68 131.56C478.92 131.56 479.16 131.48 479.4 131.48C479.72 131.48 479.88 131 479.8 130.76C479.72 130.6 479.64 130.44 479.48 130.36C478.76 130.04 477.96 129.72 477.16 129.56C476.52 129.48 475.88 129.24 475.32 129.08C474.92 128.92 474.6 128.68 474.2 128.52C473.88 128.28 473.64 127.96 473.56 127.48C473.48 126.92 473.48 126.36 473.32 125.8C473.16 125.08 473.08 124.36 473.08 123.64C473.08 120.44 473.08 117.32 473.08 114.12C473 108.92 473 103.72 473 98.52C472.92 93.8 472.84 89.08 473 84.44C473.08 83.8 473.08 83.24 473.08 82.68C473.08 81.56 473.08 80.44 473.08 79.32C473.08 79.08 473.08 78.76 473.08 78.52C473.16 78.28 473.32 78.12 473.48 77.96C473.8 77.8 474.04 77.56 474.36 77.48C475.32 77.24 476.2 77 477.24 76.92C477.48 76.92 477.72 76.84 477.88 76.76C478.2 76.68 478.28 76.2 478.04 75.96C477.88 75.72 477.56 75.56 477.24 75.48C477 75.48 476.76 75.48 476.52 75.48C470.12 75.48 463.64 75.48 457.24 75.48C457 75.48 456.76 75.48 456.52 75.56C456.44 75.56 456.36 75.56 456.28 75.64C456.04 75.72 455.88 76.12 456.12 76.44C456.28 76.68 456.6 76.84 456.92 76.92C457.72 77 458.52 77.24 459.24 77.48C459.88 77.64 460.28 77.96 460.6 78.44C460.76 78.68 460.92 78.84 460.92 79.08C461 80.2 461.24 81.16 461.24 82.28C461.32 84.52 461.48 86.84 461.4 89.08C461.4 90.92 461.48 92.84 461.4 94.68C461.4 96.6 461.32 98.6 461.32 100.52C461.32 100.68 461.32 100.84 461.24 101C461.24 101.16 461 101.48 460.84 101.56C460.68 101.64 460.52 101.72 460.36 101.72C459.64 101.72 458.92 101.8 458.2 101.8C455.16 101.8 452.2 101.88 449.16 101.88C447.72 101.96 446.2 101.88 444.76 102.2C444.6 102.2 444.44 102.2 444.28 102.2C442.6 102.28 440.92 102.36 439.16 102.28C439 102.28 438.84 102.2 438.68 102.2C438.52 102.2 438.44 102.04 438.36 101.88C438.2 101.64 438.12 101.32 438.12 101C438.04 95.56 438.04 90.04 438.12 84.6C438.12 84.12 438.12 83.64 438.2 83.16C438.36 82.12 438.36 81.08 438.44 80.04C438.44 79.72 438.44 79.4 438.52 79.08C438.52 78.92 438.6 78.76 438.68 78.6C439 78.12 439.4 77.72 439.96 77.48C440.28 77.32 440.68 77.08 441.08 77C441.88 76.92 442.68 76.68 443.4 76.44C443.64 76.36 443.72 75.96 443.56 75.8C443.4 75.48 443.16 75.32 442.84 75.24C442.52 75.16 442.2 75.16 441.88 75.16C435.88 75.16 429.88 75.16 423.8 75.16C423.48 75.16 423.16 75.16 422.84 75.16C422.44 75.24 422.04 75.4 421.72 75.56C421.64 75.64 421.64 75.72 421.56 75.8C421.32 76.04 421.4 76.44 421.72 76.52C422.04 76.68 422.36 76.76 422.68 76.84C423.08 76.92 423.48 77 423.88 77C424.44 77.08 424.92 77.32 425.48 77.48C425.56 77.56 425.64 77.56 425.72 77.64C426.04 77.88 426.28 78.12 426.36 78.6C426.36 79.56 426.36 80.52 426.52 81.48C426.6 82.44 426.6 83.32 426.6 84.2C426.68 85.96 426.68 87.8 426.68 89.56C426.68 95.56 426.68 101.56 426.68 107.56C426.68 109.72 426.6 111.8 426.6 113.96C426.6 114.44 426.6 114.92 426.52 115.4C426.44 116.12 426.44 116.84 426.44 117.56C426.36 119.56 426.36 121.48 426.36 123.4C426.28 124.68 426.2 125.88 426.12 127.08C426.12 127.48 425.88 127.88 425.64 128.12C425.24 128.6 424.76 128.92 424.2 129.08C423.48 129.24 422.84 129.48 422.12 129.72C421.48 129.8 420.92 130.04 420.28 130.28C420.04 130.36 419.88 130.52 419.72 130.76C419.64 130.92 419.56 131 419.64 131.16C419.72 131.32 419.8 131.48 419.96 131.48C420.36 131.64 420.76 131.64 421.16 131.64C424.52 131.56 427.8 131.56 429.8 131.56ZM511.712 75.16C510.832 75.16 509.872 75.16 508.992 75.16C508.592 75.16 508.192 75.16 507.792 75.24C506.832 75.4 505.872 75.48 504.912 75.48C504.272 75.56 503.632 75.56 502.992 75.8C502.752 75.8 502.512 75.88 502.272 75.88C500.992 76.12 499.712 76.52 498.592 77.08C497.712 77.48 496.832 77.96 495.952 78.36C495.712 78.44 495.472 78.6 495.312 78.76C494.032 79.56 492.752 80.52 491.632 81.56C491.152 82.12 490.672 82.68 490.272 83.24C489.632 84.2 488.912 85.08 488.272 86.04C487.712 86.92 487.312 87.88 486.832 88.84C486.672 89.32 486.432 89.72 486.192 90.2C485.232 91.88 484.512 93.64 484.112 95.56C484.112 95.72 484.032 95.88 483.952 96.04C483.712 97.08 483.472 98.12 483.392 99.16C483.232 101 483.152 102.92 483.152 104.76C483.152 105.24 483.232 105.72 483.312 106.2C483.392 107.48 483.632 108.6 484.192 111.24C484.272 111.96 484.512 112.68 484.832 113.32C484.912 113.56 485.072 113.72 485.152 113.96C485.472 115.16 486.112 116.2 486.672 117.32C487.072 118.2 487.632 119 488.352 119.72C488.912 120.28 489.392 120.84 490.032 121.48C490.432 121.8 490.832 122.2 491.312 122.52C492.192 123.16 492.992 123.8 493.712 124.6C494.352 125.16 495.072 125.72 495.792 126.28C497.152 127.16 498.512 127.96 499.952 128.76C500.192 128.92 500.352 129 500.592 129.08C501.872 129.64 503.152 130.12 504.432 130.68C504.912 130.84 505.312 131 505.872 131.08C506.192 131.08 506.512 131.16 506.832 131.24C507.632 131.48 508.592 131.48 509.472 131.56C510.512 131.56 511.552 131.56 512.592 131.48C513.072 131.48 513.632 131.48 514.112 131.4C514.912 131.24 515.712 131.16 516.512 131.08C517.632 131 518.672 130.6 519.792 130.36C520.512 130.12 521.232 129.96 521.872 129.56C522.272 129.32 522.672 129.08 523.152 128.92C524.192 128.44 525.152 127.8 526.032 127.08C526.432 126.76 526.912 126.36 527.392 126.04C528.832 125 530.112 123.72 531.232 122.36C532.352 121.08 533.392 119.72 534.272 118.28C534.592 117.8 534.832 117.24 535.072 116.76C535.632 115.48 535.952 114.12 536.512 112.84C536.912 111.88 536.992 110.84 537.232 109.8C537.472 109.24 537.392 108.68 537.472 108.12C537.472 107.64 537.552 107.16 537.712 106.68C537.872 106.2 537.872 105.72 537.872 105.24C537.872 103.8 537.952 102.28 537.872 100.84C537.872 100.12 537.872 99.4 537.632 98.68C537.552 98.36 537.552 98.04 537.472 97.72C537.472 96.92 537.232 96.12 536.992 95.32C536.352 92.68 535.232 90.28 533.712 88.04C532.912 86.76 531.952 85.56 530.992 84.28C530.272 83.24 529.312 82.36 528.352 81.48C527.472 80.68 526.512 79.88 525.632 79.08C524.752 78.36 523.792 77.72 522.752 77.16C522.192 76.92 521.632 76.6 521.072 76.36C520.032 75.8 518.912 75.48 517.792 75.48C517.152 75.48 516.432 75.48 515.792 75.32C515.152 75.16 514.512 75.16 513.872 75.16C513.152 75.16 512.432 75.16 511.712 75.16ZM496.032 105.96C496.032 105.08 496.032 104.2 496.112 103.32C496.112 103 496.112 102.68 496.112 102.36C496.432 100.92 496.432 99.48 496.512 97.96C496.592 97.16 496.592 96.36 496.832 95.56C497.072 94.76 497.072 93.8 497.312 92.92C497.472 91.64 497.792 90.44 498.272 89.16C498.672 87.56 499.312 86.12 499.952 84.6C500.272 83.88 500.672 83.16 501.232 82.6C501.392 82.44 501.472 82.36 501.552 82.2C502.192 81.24 502.992 80.44 503.952 79.8C504.272 79.56 504.592 79.24 504.832 79C505.552 78.44 506.352 78.04 507.232 77.8C507.472 77.72 507.712 77.72 507.952 77.64C508.512 77.48 509.072 77.48 509.632 77.56C509.872 77.56 510.112 77.64 510.352 77.72C511.072 77.8 511.792 77.88 512.512 77.96C513.392 78.04 514.272 78.28 515.072 78.68C515.872 79 516.672 79.4 517.472 79.88C518.512 80.44 519.392 81.08 520.032 82.04C520.592 82.84 521.152 83.64 521.632 84.52C522.032 85 522.272 85.64 522.512 86.2C523.152 87.72 523.632 89.24 524.112 90.84C524.352 91.48 524.432 92.28 524.592 92.92C524.832 93.72 524.912 94.52 525.152 95.32C525.312 96.04 525.392 96.76 525.552 97.48C525.792 98.36 525.872 99.24 526.032 100.12C526.032 100.28 526.112 100.44 526.032 100.6C526.032 102.2 526.192 103.8 525.952 105.48C525.792 106.36 525.792 107.24 525.792 108.12C525.712 109.8 525.392 111.48 524.992 113.16C524.752 114.12 524.512 115.08 524.272 116.04C523.952 117.72 523.392 119.48 522.512 121C521.952 122.12 521.392 123.16 520.752 124.2C520.432 124.76 520.032 125.32 519.632 125.8C518.992 126.68 518.192 127.32 517.152 127.72C516.352 127.96 515.632 128.2 514.832 128.44C514.512 128.52 514.192 128.6 513.872 128.6C512.432 128.76 510.992 128.68 509.472 128.52C508.752 128.52 508.112 128.2 507.392 128.04C506.752 127.8 506.192 127.56 505.552 127.32C505.232 127.16 504.832 126.92 504.512 126.68C502.992 125.56 501.632 124.28 500.352 122.92C500.032 122.6 499.792 122.2 499.552 121.72C498.992 120.28 498.272 118.92 497.712 117.48C497.552 117.16 497.472 116.92 497.472 116.6C497.312 115.64 496.992 114.84 496.992 113.96C496.912 113.72 496.832 113.48 496.752 113.24C496.592 112.76 496.512 112.28 496.512 111.8C496.432 111.16 496.352 110.52 496.192 109.88C496.112 109.56 496.032 109.24 496.032 108.92C496.032 107.96 496.032 107 496.032 105.96ZM554.196 87.48C554.436 87.48 554.676 87.64 554.756 87.88C556.276 90.76 557.716 93.64 559.156 96.6C559.236 96.76 559.316 97 559.476 97.24C560.116 98.92 560.756 100.28 561.636 101.88C562.356 103.08 562.836 104.36 563.316 105.64C563.956 107.48 564.516 109.32 565.396 111.08C565.556 111.32 565.636 111.48 565.716 111.72C566.196 113.32 566.916 114.76 567.396 116.28C567.876 117.72 568.356 119.08 569.076 120.36C569.396 121.32 569.956 122.28 570.276 123.32C570.436 123.8 570.676 124.36 570.916 124.84C571.636 126.12 572.276 127.48 572.836 128.84C572.996 129 573.076 129.24 573.156 129.48C573.236 129.56 573.236 129.56 573.316 129.64C573.476 130.04 574.036 130.04 574.356 129.72C574.516 129.4 574.676 129.16 574.836 128.84C575.236 127.72 575.716 126.6 576.116 125.48C576.436 124.6 576.676 123.72 576.996 122.92C577.316 121.8 577.636 120.76 578.116 119.72C578.756 118.28 579.316 116.84 579.876 115.4C580.196 114.6 580.596 113.8 580.996 113C581.396 112.12 581.716 111.16 581.956 110.2C582.196 109.4 582.516 108.52 582.756 107.64C583.076 106.6 583.476 105.48 583.796 104.44C584.356 103 584.756 101.48 585.396 100.12C585.556 99.88 585.636 99.64 585.636 99.4C586.196 97.72 586.756 96.04 587.316 94.28C588.036 91.8 588.996 89.4 590.036 87C590.276 86.6 590.436 86.12 590.676 85.72C590.676 85.64 590.756 85.56 590.836 85.56C590.916 85.48 590.996 85.48 591.076 85.56C591.156 85.56 591.316 85.72 591.396 85.88C591.556 86.76 591.476 87.64 591.476 88.52C591.476 95.64 591.476 102.68 591.476 109.72C591.476 110.28 591.396 110.92 591.396 111.48C591.316 112.2 591.236 112.92 591.236 113.64C591.236 116.76 591.156 119.8 591.156 122.92C591.156 123.96 591.076 125 590.996 126.04C590.916 126.52 590.756 127 590.676 127.48C590.596 127.72 590.436 127.96 590.276 128.12C590.276 128.12 590.196 128.2 590.116 128.28C589.476 128.76 588.756 129.16 587.876 129.24C586.996 129.56 586.036 129.72 585.156 130.12C584.996 130.2 584.836 130.28 584.756 130.44C584.676 130.52 584.596 130.68 584.516 130.84C584.516 131 584.836 131.4 584.916 131.4C585.156 131.48 585.396 131.56 585.636 131.56C588.436 131.48 591.156 131.48 593.956 131.48C595.316 131.48 596.676 131.48 598.036 131.32C598.516 131.24 599.076 131.24 599.556 131.24C601.556 131.24 603.556 131.24 605.636 131.16C606.196 131.16 606.756 131.16 607.316 131.08C607.476 131.08 607.636 131 607.796 131C607.956 130.92 608.196 130.6 608.196 130.44C608.196 130.2 607.956 129.88 607.876 129.8C607.716 129.8 607.556 129.64 607.396 129.64C606.196 129.56 605.156 129.16 604.196 128.6C603.876 128.52 603.636 128.28 603.316 128.12C603.076 127.88 602.916 127.64 602.756 127.32C602.596 126.92 602.436 126.44 602.516 125.96C602.756 124.92 602.756 123.96 602.756 123C602.756 120.92 602.756 118.76 602.756 116.68C602.836 113.4 602.836 110.2 602.836 106.92C602.756 99.64 602.836 92.28 602.836 85C602.836 83.88 602.836 82.68 602.916 81.56C602.916 80.68 603.076 79.8 603.316 78.92C603.396 78.36 603.796 77.88 604.276 77.56C604.596 77.32 604.916 77.08 605.316 77C606.196 76.92 607.076 76.68 607.876 76.36C608.116 76.28 608.116 76.2 608.116 75.96C608.116 75.64 607.876 75.32 607.636 75.24C607.316 75.16 606.996 75.16 606.676 75.16C603.556 75.16 600.436 75.16 597.396 75.16C594.836 75.16 594.836 75.16 592.276 75.56C592.196 75.56 592.116 75.56 592.036 75.56C591.796 75.72 591.636 75.8 591.396 75.88C591.236 76.04 590.996 76.2 590.916 76.44C590.676 76.84 590.356 77.24 590.196 77.72C589.476 79.24 588.836 80.84 588.276 82.44C587.876 83.64 587.476 84.76 586.996 85.88C586.116 87.96 585.316 90.04 584.596 92.28C584.436 92.76 584.276 93.32 584.036 93.88C583.316 95.8 582.516 97.8 581.636 99.72C580.756 101.88 579.796 104.04 578.996 106.28C578.756 106.76 578.596 107.32 578.356 107.8C578.276 108.04 578.116 108.12 577.956 108.04C577.796 108.04 577.716 107.96 577.636 107.8C577.476 107.48 577.396 107.16 577.236 106.84C576.756 105.96 576.276 105 575.876 104.04C575.396 103 574.836 102.04 574.356 100.92C574.276 100.6 574.036 100.2 573.876 99.88C573.236 98.76 572.676 97.56 572.116 96.36C571.716 95.64 571.396 94.92 571.076 94.2C570.676 93.16 570.276 92.2 569.716 91.32C568.836 89.48 567.876 87.72 566.996 85.88C566.676 85.32 566.436 84.68 566.196 84.12C565.316 82.28 564.516 80.36 563.716 78.52C563.396 77.88 563.076 77.24 562.756 76.52C562.676 76.36 562.596 76.12 562.436 75.88C562.276 75.56 561.876 75.32 561.476 75.24C561.236 75.16 560.996 75.08 560.756 75.08C559.956 75.08 559.156 75 558.356 75C556.276 75 554.276 75 552.276 75C551.316 75 550.436 75 549.556 75.24C548.836 75.32 548.116 75.4 547.396 75.4C546.916 75.48 546.436 75.48 545.956 75.56C545.556 75.56 545.156 75.64 544.756 75.8C544.436 75.96 544.116 76.04 543.876 76.2C543.796 76.2 543.716 76.28 543.716 76.36C543.476 76.52 543.556 76.84 543.716 77C543.956 77.16 544.276 77.32 544.596 77.32C545.556 77.32 546.516 77.32 547.476 77.4C547.716 77.4 547.956 77.48 548.196 77.56C548.436 77.56 548.836 78.04 548.836 78.28C548.836 78.52 548.836 78.76 548.836 79C548.836 80.6 548.836 82.2 548.836 83.88C548.836 84.36 548.756 84.84 548.836 85.32C549.076 86.36 549.076 87.4 549.156 88.44C549.236 90.28 549.156 92.04 549.476 93.8C549.556 94.04 549.556 94.28 549.556 94.52C549.636 96.52 549.716 98.44 549.796 100.36C549.796 101.56 549.796 102.68 549.956 103.8C550.036 104.28 550.036 104.76 550.036 105.24C550.116 110.2 550.196 115.16 550.116 120.12C550.116 121.4 550.116 122.76 550.116 124.04C550.116 125.4 549.876 126.76 549.716 128.12C549.636 128.6 549.316 128.92 548.996 129.08C548.516 129.24 548.036 129.48 547.636 129.56C546.676 129.8 545.716 130.12 544.756 130.12C544.516 130.12 544.276 130.2 544.036 130.28C543.796 130.36 543.636 130.52 543.476 130.76C543.396 130.92 543.316 131.08 543.476 131.24C543.556 131.32 543.716 131.48 543.796 131.48C544.756 131.64 545.796 131.56 546.756 131.56C547.076 131.48 547.396 131.48 547.716 131.4C548.116 131.24 548.516 131.24 548.916 131.16C550.676 131.16 552.436 131.16 554.276 131.16C554.836 131.16 555.396 131.24 555.956 131.24C556.996 131.56 558.036 131.56 559.076 131.56C559.636 131.56 560.276 131.48 560.836 131.48C560.996 131.48 561.076 131.4 561.236 131.32C561.636 131.08 561.716 130.6 561.396 130.28C561.156 130.04 560.916 129.88 560.516 129.8C560.116 129.72 559.716 129.72 559.316 129.72C558.276 129.72 557.236 129.48 556.196 129.24C555.556 129.08 554.996 128.76 554.436 128.44C554.196 128.28 553.956 127.96 553.956 127.64C553.956 126.92 553.956 126.2 553.956 125.4C554.116 121.64 554.116 117.8 554.116 113.96C554.116 110.44 554.116 106.84 554.116 103.24C554.116 102.52 554.116 101.8 554.116 101.08C553.956 97.32 553.956 93.56 553.956 89.88C553.956 89.16 554.036 88.52 554.036 87.88C554.036 87.72 554.116 87.56 554.196 87.48ZM634.663 131.08C635.463 131.08 636.263 131.08 637.063 131.08C642.503 131.08 647.943 131.08 653.383 131.08C654.103 131.08 654.743 131.08 655.383 131C655.863 131 656.343 130.76 656.743 130.52C656.983 130.28 657.143 129.96 657.223 129.64C657.303 129 657.303 128.36 657.383 127.72C657.463 127.32 657.463 126.92 657.543 126.52C657.703 125.88 657.783 125.24 657.783 124.6C657.863 123.56 657.863 122.52 658.023 121.48C658.343 120.2 658.343 118.84 658.263 117.56C658.263 117.16 657.783 116.84 657.383 117C657.063 117 656.823 117.24 656.663 117.56C656.583 117.8 656.503 118.04 656.503 118.28C656.343 118.92 656.262 119.56 656.023 120.12C655.863 120.76 655.623 121.4 655.303 121.96C655.063 122.52 654.743 123.08 654.503 123.72C654.263 124.2 653.943 124.68 653.623 125.16C653.302 125.56 652.983 125.88 652.583 126.2C652.263 126.44 651.943 126.68 651.543 126.84C651.062 127.16 650.583 127.4 650.023 127.56C648.743 127.88 647.543 128.2 646.183 128.28C645.063 128.28 643.943 128.28 642.823 128.52C642.423 128.6 641.943 128.6 641.543 128.6C638.583 128.6 635.543 128.6 632.583 128.6C632.343 128.6 632.103 128.6 631.863 128.6C631.703 128.52 631.303 128.28 631.303 128.12C631.223 127.96 631.143 127.8 631.143 127.64C631.143 126.68 631.062 125.72 631.062 124.76C631.062 121.32 631.062 117.88 631.062 114.52C631.062 112.84 631.062 111.24 631.303 109.64C631.383 109.24 631.383 108.84 631.383 108.44C631.463 107.32 631.463 106.12 631.543 105C631.543 104.76 631.543 104.52 631.622 104.28C631.622 104.12 631.943 103.8 632.103 103.8C632.343 103.72 632.743 103.64 633.063 103.64C635.623 103.72 638.263 103.72 640.823 103.72C641.863 103.72 642.743 103.96 643.623 104.44C643.783 104.6 644.023 104.68 644.263 104.84C644.343 104.84 644.343 104.92 644.423 105C644.743 105.16 644.983 105.4 645.063 105.72C645.463 106.68 645.783 107.72 646.023 108.68C646.183 109.24 646.343 109.8 646.583 110.36C646.663 110.44 646.743 110.6 646.823 110.76C646.983 111 647.143 111.08 647.463 111.08C647.703 111.08 648.023 110.76 648.103 110.44C648.103 110.2 648.103 109.96 648.103 109.72C648.103 109.08 648.023 108.44 647.863 107.8C647.703 107.16 647.623 106.52 647.623 105.88C647.543 104.68 647.543 103.48 647.623 102.2C647.703 101.72 647.623 101.24 647.783 100.76C648.023 99.24 648.023 97.72 648.183 96.2C648.263 95.56 648.183 95 648.183 94.44C648.183 94.28 648.183 94.12 648.103 93.96C648.023 93.88 647.863 93.72 647.783 93.64C647.703 93.56 647.223 93.72 647.143 93.8C646.983 94.04 646.823 94.2 646.743 94.44C646.503 95.16 646.343 95.88 646.263 96.6C646.103 97.32 645.863 97.96 645.623 98.68C645.463 99.24 645.063 99.64 644.583 99.96C643.703 100.52 642.823 100.84 641.863 100.84C641.463 100.84 641.063 100.92 640.663 100.92C637.943 100.92 635.303 100.92 632.583 100.92C632.503 100.92 632.423 100.92 632.343 100.92C632.023 100.84 631.703 100.52 631.703 100.28C631.703 99.56 631.703 98.76 631.703 98.04C631.703 97.4 631.622 96.76 631.703 96.12C631.863 95.32 631.863 94.52 631.863 93.72C631.863 91.96 631.863 90.28 631.863 88.6C631.863 87.24 631.943 85.96 631.703 84.68C631.622 84.44 631.622 84.2 631.622 83.96C631.622 82.36 631.543 80.68 631.543 79.08C631.463 78.84 631.543 78.6 631.543 78.36C631.543 78.12 631.863 77.72 632.182 77.64C632.503 77.56 632.823 77.56 633.143 77.56C636.183 77.56 639.303 77.56 642.343 77.56C643.383 77.56 644.343 77.56 645.303 77.56C645.623 77.56 645.943 77.56 646.263 77.64C646.983 77.88 647.703 77.88 648.423 78.04C648.663 78.12 648.903 78.2 649.063 78.36C649.223 78.44 649.383 78.52 649.463 78.6C650.823 79.8 651.943 81.24 652.903 82.76C653.302 83.4 653.703 84.12 654.103 84.84C654.183 85 654.263 85.16 654.263 85.32C654.503 86.04 654.823 86.68 654.903 87.4C654.903 87.64 654.983 87.88 655.063 88.12C655.063 88.28 655.142 88.44 655.303 88.52C655.383 88.6 655.543 88.68 655.703 88.68C655.863 88.76 656.262 88.44 656.262 88.28C656.262 88.12 656.343 87.96 656.343 87.8C656.343 86.6 656.343 85.4 656.183 84.2C656.103 83.4 656.023 82.52 656.023 81.72C656.023 80.52 656.023 79.32 656.023 78.12C655.943 77.32 655.943 76.6 655.783 75.88C655.783 75.64 655.383 75.32 655.142 75.24C654.743 75.16 654.343 75.16 653.943 75.16C645.943 75.08 638.023 75.08 630.023 75C629.463 75 628.903 75 628.343 75.08C627.303 75.16 626.183 75.16 625.143 75.16C624.583 75.16 624.023 75.24 623.463 75.32C621.863 75.64 620.263 75.56 618.583 75.32C617.383 75.16 616.183 75.16 614.983 75.24C614.743 75.24 614.423 75.56 614.423 75.88C614.423 76.04 614.503 76.2 614.583 76.36C614.903 76.68 615.223 76.92 615.623 76.92C616.503 77 617.383 77.32 618.263 77.48C618.663 77.56 618.983 77.8 619.303 78.12C619.543 78.28 619.703 78.6 619.703 78.92C619.783 79.4 619.783 79.88 619.783 80.36C619.783 83.8 619.783 87.24 619.783 90.6C619.863 92.2 619.863 93.72 619.943 95.24C619.943 95.72 619.943 96.2 620.023 96.68C620.183 97.48 620.183 98.36 620.183 99.16C620.183 101.24 620.183 103.4 620.263 105.48C620.343 106.52 620.263 107.56 620.183 108.6C619.943 110.2 619.943 111.72 619.863 113.24C619.863 114.28 619.863 115.4 619.783 116.44C619.783 116.92 619.783 117.4 619.703 117.88C619.383 118.92 619.463 119.96 619.463 121C619.463 122.2 619.463 123.32 619.463 124.44C619.463 125.24 619.383 126.04 619.303 126.84C619.223 127.48 618.903 127.96 618.343 128.2C618.023 128.44 617.623 128.6 617.223 128.76C616.663 129 616.023 129.08 615.383 129.16C614.823 129.24 614.263 129.48 613.783 129.8C613.623 129.96 613.543 130.2 613.543 130.44C613.543 130.68 613.783 130.92 613.943 131C614.263 131.16 614.583 131.16 614.903 131.16C619.303 131.16 623.703 131.24 628.103 131.24C630.183 131.24 632.343 131.32 634.423 131.08C634.503 131.08 634.582 131.08 634.663 131.08Z" fill="white"/>
<path d="M1047 136.557C1036.56 136.557 1032.66 131.78 1032.13 130.102C1031.84 129.209 1031.73 127.659 1031.78 125.361C1029.95 121.587 1031.84 113.291 1033.17 111.814C1035.01 109.79 1037.4 109.443 1038.17 109.37C1040.48 107.638 1044.11 107 1046.76 107C1051.45 107 1057.31 107.547 1061.05 111.814C1062.66 113.655 1063.67 120.219 1062.48 124.213C1062.61 127.057 1062.52 129.026 1062.19 130.084L1062.17 130.157L1062.13 130.23C1061.2 131.707 1057.41 136.557 1047 136.557ZM1046.76 108.295C1044.27 108.295 1040.87 108.878 1038.82 110.501L1038.65 110.629H1038.43C1038.17 110.629 1035.87 110.756 1034.14 112.652C1033.17 113.728 1031.29 121.66 1033.01 124.887L1033.08 125.033V125.197C1033.01 127.951 1033.19 129.154 1033.36 129.664C1033.74 130.85 1037.17 135.244 1047 135.244C1056.56 135.244 1060.06 131.014 1060.96 129.61C1061.14 128.935 1061.32 127.44 1061.18 124.14V124.03L1061.22 123.921C1062.39 120.183 1061.34 114.075 1060.08 112.634C1056.67 108.787 1051.18 108.295 1046.76 108.295Z" fill="#FDF1E3"/>
<path d="M1046.76 131.196C1044.05 131.196 1043.25 128.589 1042.55 126.309C1041.98 124.45 1041.43 122.681 1040.08 122.353C1038.56 121.988 1037.9 123.027 1037.02 124.814C1036.47 125.908 1035.98 126.929 1035.01 127.258C1034.51 127.422 1033.96 127.367 1033.38 127.075C1032.28 126.528 1031.54 125.361 1031.21 123.611C1030.41 119.417 1032.06 113.035 1033.17 111.814C1035.04 109.753 1037.44 109.425 1038.19 109.37C1040.3 107.802 1043.54 107 1046.76 107C1051.45 107 1057.31 107.547 1061.05 111.814C1062.64 113.619 1063.49 119.545 1062.7 123.337C1062.26 125.434 1061.4 126.802 1060.13 127.403C1059.57 127.677 1059.04 127.713 1058.54 127.549C1057.57 127.203 1057.06 126.091 1056.53 124.924C1055.65 123.009 1055.01 121.879 1053.47 122.243C1052.09 122.572 1051.56 124.358 1050.99 126.237C1050.28 128.57 1049.47 131.196 1046.76 131.196ZM1039.47 120.985C1039.75 120.985 1040.04 121.022 1040.37 121.095C1042.46 121.587 1043.14 123.793 1043.78 125.927C1044.55 128.406 1045.12 129.902 1046.76 129.902C1048.41 129.902 1048.98 128.388 1049.75 125.872C1050.41 123.72 1051.07 121.496 1053.16 121.003C1055.85 120.347 1056.91 122.681 1057.7 124.395C1058.1 125.27 1058.52 126.182 1058.98 126.346C1059.04 126.364 1059.2 126.437 1059.57 126.255C1060.67 125.726 1061.18 124.249 1061.42 123.082C1062.22 119.18 1061.16 113.911 1060.06 112.652C1056.67 108.787 1051.16 108.295 1046.75 108.295C1044.25 108.295 1040.96 108.878 1038.96 110.355C1038.89 110.464 1038.78 110.556 1038.65 110.61C1037.77 111.358 1037.2 112.324 1037.2 113.509C1037.2 117.12 1043.05 118.469 1046.73 118.469C1051.49 118.469 1055.72 115.406 1057.24 114.166C1053.34 111.431 1049.24 110.701 1046.8 110.938C1045.39 111.066 1043.72 111.54 1043.72 113.054C1043.72 113.582 1043.89 114.002 1044.22 114.312C1045.06 115.114 1046.69 115.041 1046.71 115.041C1047.08 115.023 1047.37 115.296 1047.39 115.643C1047.41 115.989 1047.13 116.299 1046.78 116.317C1046.69 116.317 1044.58 116.427 1043.32 115.242C1042.72 114.676 1042.42 113.947 1042.42 113.054C1042.42 111.139 1043.98 109.899 1046.67 109.644C1049.47 109.389 1054.29 110.264 1058.65 113.601L1059.26 114.056L1058.71 114.567C1058.49 114.786 1053.17 119.727 1046.71 119.727C1042.37 119.727 1035.9 118.068 1035.9 113.491C1035.9 112.561 1036.16 111.723 1036.62 110.993C1035.83 111.267 1034.9 111.777 1034.11 112.652C1033.28 113.564 1031.75 119.581 1032.46 123.356C1032.72 124.687 1033.21 125.544 1033.92 125.908C1034.31 126.109 1034.49 126.036 1034.57 126.018C1035.01 125.872 1035.43 125.033 1035.83 124.231C1036.54 122.827 1037.46 120.985 1039.47 120.985Z" fill="#FDF1E3"/>
</g>
<defs>
<clipPath id="clip0_753_2">
<rect width="150" height="1080" fill="white" transform="translate(1080) rotate(90)"/>
</clipPath>
</defs>
</svg>
