<svg width="1080" height="150" viewBox="0 0 1080 150" fill="none" xmlns="http://www.w3.org/2000/svg">
<g clip-path="url(#clip0_762_2)">
<rect width="150" height="1080" transform="translate(1080) rotate(90)" fill="#DD8964"/>
<path d="M121.503 94.446C9.13466 106.97 -331.702 47.2943 -395 45.3848C-110.788 -36.5323 647.944 -333.86 1026.06 -364.201C1404.18 -394.541 1609.07 -202.901 1691.87 -98.4491C1751.14 -23.6658 1740.14 25.4803 1561.32 36.136C1411.45 45.0664 1307.86 -10.9742 1186.08 -4.98039C1064.31 1.01338 1077.42 73.7469 913.571 79.1985C749.724 84.6502 525.265 19.2282 366.851 22.2777C208.438 25.3272 233.871 81.9219 121.503 94.446Z" fill="#A3BD9B"/>
<path d="M187.066 83.4013C74.6981 95.9255 -235.125 40.2806 -298.423 38.3711C-14.2113 -43.546 744.521 -340.874 1122.64 -371.214C1500.75 -401.555 1674.64 -213.945 1757.43 -109.494C1816.7 -34.7105 1805.7 14.4355 1626.88 25.0913C1477.01 34.0217 1373.42 -22.0189 1251.65 -16.0251C1129.87 -10.0313 1142.98 62.7022 979.134 68.1538C815.288 73.6055 590.828 8.18356 432.415 11.233C274.001 14.2825 299.434 70.8772 187.066 83.4013Z" stroke="#FDF1E3" stroke-opacity="0.2" stroke-width="6"/>
<path d="M433.68 87.48C433.92 87.48 434.16 87.64 434.24 87.88C435.76 90.76 437.2 93.64 438.64 96.6C438.72 96.76 438.8 97 438.96 97.24C439.6 98.92 440.24 100.28 441.12 101.88C441.84 103.08 442.32 104.36 442.8 105.64C443.44 107.48 444 109.32 444.88 111.08C445.04 111.32 445.12 111.48 445.2 111.72C445.68 113.32 446.4 114.76 446.88 116.28C447.36 117.72 447.84 119.08 448.56 120.36C448.88 121.32 449.44 122.28 449.76 123.32C449.92 123.8 450.16 124.36 450.4 124.84C451.12 126.12 451.76 127.48 452.32 128.84C452.48 129 452.56 129.24 452.64 129.48C452.72 129.56 452.72 129.56 452.8 129.64C452.96 130.04 453.52 130.04 453.84 129.72C454 129.4 454.16 129.16 454.32 128.84C454.72 127.72 455.2 126.6 455.6 125.48C455.92 124.6 456.16 123.72 456.48 122.92C456.8 121.8 457.12 120.76 457.6 119.72C458.24 118.28 458.8 116.84 459.36 115.4C459.68 114.6 460.08 113.8 460.48 113C460.88 112.12 461.2 111.16 461.44 110.2C461.68 109.4 462 108.52 462.24 107.64C462.56 106.6 462.96 105.48 463.28 104.44C463.84 103 464.24 101.48 464.88 100.12C465.04 99.88 465.12 99.64 465.12 99.4C465.68 97.72 466.24 96.04 466.8 94.28C467.52 91.8 468.48 89.4 469.52 87C469.76 86.6 469.92 86.12 470.16 85.72C470.16 85.64 470.24 85.56 470.32 85.56C470.4 85.48 470.48 85.48 470.56 85.56C470.64 85.56 470.8 85.72 470.88 85.88C471.04 86.76 470.96 87.64 470.96 88.52C470.96 95.64 470.96 102.68 470.96 109.72C470.96 110.28 470.88 110.92 470.88 111.48C470.8 112.2 470.72 112.92 470.72 113.64C470.72 116.76 470.64 119.8 470.64 122.92C470.64 123.96 470.56 125 470.48 126.04C470.4 126.52 470.24 127 470.16 127.48C470.08 127.72 469.92 127.96 469.76 128.12C469.76 128.12 469.68 128.2 469.6 128.28C468.96 128.76 468.24 129.16 467.36 129.24C466.48 129.56 465.52 129.72 464.64 130.12C464.48 130.2 464.32 130.28 464.24 130.44C464.16 130.52 464.08 130.68 464 130.84C464 131 464.32 131.4 464.4 131.4C464.64 131.48 464.88 131.56 465.12 131.56C467.92 131.48 470.64 131.48 473.44 131.48C474.8 131.48 476.16 131.48 477.52 131.32C478 131.24 478.56 131.24 479.04 131.24C481.04 131.24 483.04 131.24 485.12 131.16C485.68 131.16 486.24 131.16 486.8 131.08C486.96 131.08 487.12 131 487.28 131C487.44 130.92 487.68 130.6 487.68 130.44C487.68 130.2 487.44 129.88 487.36 129.8C487.2 129.8 487.04 129.64 486.88 129.64C485.68 129.56 484.64 129.16 483.68 128.6C483.36 128.52 483.12 128.28 482.8 128.12C482.56 127.88 482.4 127.64 482.24 127.32C482.08 126.92 481.92 126.44 482 125.96C482.24 124.92 482.24 123.96 482.24 123C482.24 120.92 482.24 118.76 482.24 116.68C482.32 113.4 482.32 110.2 482.32 106.92C482.24 99.64 482.32 92.28 482.32 85C482.32 83.88 482.32 82.68 482.4 81.56C482.4 80.68 482.56 79.8 482.8 78.92C482.88 78.36 483.28 77.88 483.76 77.56C484.08 77.32 484.4 77.08 484.8 77C485.68 76.92 486.56 76.68 487.36 76.36C487.6 76.28 487.6 76.2 487.6 75.96C487.6 75.64 487.36 75.32 487.12 75.24C486.8 75.16 486.48 75.16 486.16 75.16C483.04 75.16 479.92 75.16 476.88 75.16C474.32 75.16 474.32 75.16 471.76 75.56C471.68 75.56 471.6 75.56 471.52 75.56C471.28 75.72 471.12 75.8 470.88 75.88C470.72 76.04 470.48 76.2 470.4 76.44C470.16 76.84 469.84 77.24 469.68 77.72C468.96 79.24 468.32 80.84 467.76 82.44C467.36 83.64 466.96 84.76 466.48 85.88C465.6 87.96 464.8 90.04 464.08 92.28C463.92 92.76 463.76 93.32 463.52 93.88C462.8 95.8 462 97.8 461.12 99.72C460.24 101.88 459.28 104.04 458.48 106.28C458.24 106.76 458.08 107.32 457.84 107.8C457.76 108.04 457.6 108.12 457.44 108.04C457.28 108.04 457.2 107.96 457.12 107.8C456.96 107.48 456.88 107.16 456.72 106.84C456.24 105.96 455.76 105 455.36 104.04C454.88 103 454.32 102.04 453.84 100.92C453.76 100.6 453.52 100.2 453.36 99.88C452.72 98.76 452.16 97.56 451.6 96.36C451.2 95.64 450.88 94.92 450.56 94.2C450.16 93.16 449.76 92.2 449.2 91.32C448.32 89.48 447.36 87.72 446.48 85.88C446.16 85.32 445.92 84.68 445.68 84.12C444.8 82.28 444 80.36 443.2 78.52C442.88 77.88 442.56 77.24 442.24 76.52C442.16 76.36 442.08 76.12 441.92 75.88C441.76 75.56 441.36 75.32 440.96 75.24C440.72 75.16 440.48 75.08 440.24 75.08C439.44 75.08 438.64 75 437.84 75C435.76 75 433.76 75 431.76 75C430.8 75 429.92 75 429.04 75.24C428.32 75.32 427.6 75.4 426.88 75.4C426.4 75.48 425.92 75.48 425.44 75.56C425.04 75.56 424.64 75.64 424.24 75.8C423.92 75.96 423.6 76.04 423.36 76.2C423.28 76.2 423.2 76.28 423.2 76.36C422.96 76.52 423.04 76.84 423.2 77C423.44 77.16 423.76 77.32 424.08 77.32C425.04 77.32 426 77.32 426.96 77.4C427.2 77.4 427.44 77.48 427.68 77.56C427.92 77.56 428.32 78.04 428.32 78.28C428.32 78.52 428.32 78.76 428.32 79C428.32 80.6 428.32 82.2 428.32 83.88C428.32 84.36 428.24 84.84 428.32 85.32C428.56 86.36 428.56 87.4 428.64 88.44C428.72 90.28 428.64 92.04 428.96 93.8C429.04 94.04 429.04 94.28 429.04 94.52C429.12 96.52 429.2 98.44 429.28 100.36C429.28 101.56 429.28 102.68 429.44 103.8C429.52 104.28 429.52 104.76 429.52 105.24C429.6 110.2 429.68 115.16 429.6 120.12C429.6 121.4 429.6 122.76 429.6 124.04C429.6 125.4 429.36 126.76 429.2 128.12C429.12 128.6 428.8 128.92 428.48 129.08C428 129.24 427.52 129.48 427.12 129.56C426.16 129.8 425.2 130.12 424.24 130.12C424 130.12 423.76 130.2 423.52 130.28C423.28 130.36 423.12 130.52 422.96 130.76C422.88 130.92 422.8 131.08 422.96 131.24C423.04 131.32 423.2 131.48 423.28 131.48C424.24 131.64 425.28 131.56 426.24 131.56C426.56 131.48 426.88 131.48 427.2 131.4C427.6 131.24 428 131.24 428.4 131.16C430.16 131.16 431.92 131.16 433.76 131.16C434.32 131.16 434.88 131.24 435.44 131.24C436.48 131.56 437.52 131.56 438.56 131.56C439.12 131.56 439.76 131.48 440.32 131.48C440.48 131.48 440.56 131.4 440.72 131.32C441.12 131.08 441.2 130.6 440.88 130.28C440.64 130.04 440.4 129.88 440 129.8C439.6 129.72 439.2 129.72 438.8 129.72C437.76 129.72 436.72 129.48 435.68 129.24C435.04 129.08 434.48 128.76 433.92 128.44C433.68 128.28 433.44 127.96 433.44 127.64C433.44 126.92 433.44 126.2 433.44 125.4C433.6 121.64 433.6 117.8 433.6 113.96C433.6 110.44 433.6 106.84 433.6 103.24C433.6 102.52 433.6 101.8 433.6 101.08C433.44 97.32 433.44 93.56 433.44 89.88C433.44 89.16 433.52 88.52 433.52 87.88C433.52 87.72 433.6 87.56 433.68 87.48ZM514.147 131.08C514.947 131.08 515.747 131.08 516.547 131.08C521.987 131.08 527.427 131.08 532.867 131.08C533.587 131.08 534.227 131.08 534.867 131C535.347 131 535.827 130.76 536.227 130.52C536.467 130.28 536.627 129.96 536.707 129.64C536.787 129 536.787 128.36 536.867 127.72C536.947 127.32 536.947 126.92 537.027 126.52C537.187 125.88 537.267 125.24 537.267 124.6C537.347 123.56 537.347 122.52 537.507 121.48C537.827 120.2 537.827 118.84 537.747 117.56C537.747 117.16 537.267 116.84 536.867 117C536.547 117 536.307 117.24 536.147 117.56C536.067 117.8 535.987 118.04 535.987 118.28C535.827 118.92 535.747 119.56 535.507 120.12C535.347 120.76 535.107 121.4 534.787 121.96C534.547 122.52 534.227 123.08 533.987 123.72C533.747 124.2 533.427 124.68 533.107 125.16C532.787 125.56 532.467 125.88 532.067 126.2C531.747 126.44 531.427 126.68 531.027 126.84C530.547 127.16 530.067 127.4 529.507 127.56C528.227 127.88 527.027 128.2 525.667 128.28C524.547 128.28 523.427 128.28 522.307 128.52C521.907 128.6 521.427 128.6 521.027 128.6C518.067 128.6 515.027 128.6 512.067 128.6C511.827 128.6 511.587 128.6 511.347 128.6C511.187 128.52 510.787 128.28 510.787 128.12C510.707 127.96 510.627 127.8 510.627 127.64C510.627 126.68 510.547 125.72 510.547 124.76C510.547 121.32 510.547 117.88 510.547 114.52C510.547 112.84 510.547 111.24 510.787 109.64C510.867 109.24 510.867 108.84 510.867 108.44C510.947 107.32 510.947 106.12 511.027 105C511.027 104.76 511.027 104.52 511.107 104.28C511.107 104.12 511.427 103.8 511.587 103.8C511.827 103.72 512.227 103.64 512.547 103.64C515.107 103.72 517.747 103.72 520.307 103.72C521.347 103.72 522.227 103.96 523.107 104.44C523.267 104.6 523.507 104.68 523.747 104.84C523.827 104.84 523.827 104.92 523.907 105C524.227 105.16 524.467 105.4 524.547 105.72C524.947 106.68 525.267 107.72 525.507 108.68C525.667 109.24 525.827 109.8 526.067 110.36C526.147 110.44 526.227 110.6 526.307 110.76C526.467 111 526.627 111.08 526.947 111.08C527.187 111.08 527.507 110.76 527.587 110.44C527.587 110.2 527.587 109.96 527.587 109.72C527.587 109.08 527.507 108.44 527.347 107.8C527.187 107.16 527.107 106.52 527.107 105.88C527.027 104.68 527.027 103.48 527.107 102.2C527.187 101.72 527.107 101.24 527.267 100.76C527.507 99.24 527.507 97.72 527.667 96.2C527.747 95.56 527.667 95 527.667 94.44C527.667 94.28 527.667 94.12 527.587 93.96C527.507 93.88 527.347 93.72 527.267 93.64C527.187 93.56 526.707 93.72 526.627 93.8C526.467 94.04 526.307 94.2 526.227 94.44C525.987 95.16 525.827 95.88 525.747 96.6C525.587 97.32 525.347 97.96 525.107 98.68C524.947 99.24 524.547 99.64 524.067 99.96C523.187 100.52 522.307 100.84 521.347 100.84C520.947 100.84 520.547 100.92 520.147 100.92C517.427 100.92 514.787 100.92 512.067 100.92C511.987 100.92 511.907 100.92 511.827 100.92C511.507 100.84 511.187 100.52 511.187 100.28C511.187 99.56 511.187 98.76 511.187 98.04C511.187 97.4 511.107 96.76 511.187 96.12C511.347 95.32 511.347 94.52 511.347 93.72C511.347 91.96 511.347 90.28 511.347 88.6C511.347 87.24 511.427 85.96 511.187 84.68C511.107 84.44 511.107 84.2 511.107 83.96C511.107 82.36 511.027 80.68 511.027 79.08C510.947 78.84 511.027 78.6 511.027 78.36C511.027 78.12 511.347 77.72 511.667 77.64C511.987 77.56 512.307 77.56 512.627 77.56C515.667 77.56 518.787 77.56 521.827 77.56C522.867 77.56 523.827 77.56 524.787 77.56C525.107 77.56 525.427 77.56 525.747 77.64C526.467 77.88 527.187 77.88 527.907 78.04C528.147 78.12 528.387 78.2 528.547 78.36C528.707 78.44 528.867 78.52 528.947 78.6C530.307 79.8 531.427 81.24 532.387 82.76C532.787 83.4 533.187 84.12 533.587 84.84C533.667 85 533.747 85.16 533.747 85.32C533.987 86.04 534.307 86.68 534.387 87.4C534.387 87.64 534.467 87.88 534.547 88.12C534.547 88.28 534.627 88.44 534.787 88.52C534.867 88.6 535.027 88.68 535.187 88.68C535.347 88.76 535.747 88.44 535.747 88.28C535.747 88.12 535.827 87.96 535.827 87.8C535.827 86.6 535.827 85.4 535.667 84.2C535.587 83.4 535.507 82.52 535.507 81.72C535.507 80.52 535.507 79.32 535.507 78.12C535.427 77.32 535.427 76.6 535.267 75.88C535.267 75.64 534.867 75.32 534.627 75.24C534.227 75.16 533.827 75.16 533.427 75.16C525.427 75.08 517.507 75.08 509.507 75C508.947 75 508.387 75 507.827 75.08C506.787 75.16 505.667 75.16 504.627 75.16C504.067 75.16 503.507 75.24 502.947 75.32C501.347 75.64 499.747 75.56 498.067 75.32C496.867 75.16 495.667 75.16 494.467 75.24C494.227 75.24 493.907 75.56 493.907 75.88C493.907 76.04 493.987 76.2 494.067 76.36C494.387 76.68 494.707 76.92 495.107 76.92C495.987 77 496.867 77.32 497.747 77.48C498.147 77.56 498.467 77.8 498.787 78.12C499.027 78.28 499.187 78.6 499.187 78.92C499.267 79.4 499.267 79.88 499.267 80.36C499.267 83.8 499.267 87.24 499.267 90.6C499.347 92.2 499.347 93.72 499.427 95.24C499.427 95.72 499.427 96.2 499.507 96.68C499.667 97.48 499.667 98.36 499.667 99.16C499.667 101.24 499.667 103.4 499.747 105.48C499.827 106.52 499.747 107.56 499.667 108.6C499.427 110.2 499.427 111.72 499.347 113.24C499.347 114.28 499.347 115.4 499.267 116.44C499.267 116.92 499.267 117.4 499.187 117.88C498.867 118.92 498.947 119.96 498.947 121C498.947 122.2 498.947 123.32 498.947 124.44C498.947 125.24 498.867 126.04 498.787 126.84C498.707 127.48 498.387 127.96 497.827 128.2C497.507 128.44 497.107 128.6 496.707 128.76C496.147 129 495.507 129.08 494.867 129.16C494.307 129.24 493.747 129.48 493.267 129.8C493.107 129.96 493.027 130.2 493.027 130.44C493.027 130.68 493.267 130.92 493.427 131C493.747 131.16 494.067 131.16 494.387 131.16C498.787 131.16 503.187 131.24 507.587 131.24C509.667 131.24 511.827 131.32 513.907 131.08C513.987 131.08 514.067 131.08 514.147 131.08ZM553.818 105.96C553.738 101.48 553.738 95.08 553.738 88.68C553.738 88.44 553.738 88.28 553.738 88.12C553.738 88.04 553.738 87.96 553.738 87.88C553.818 87.8 553.898 87.64 553.978 87.48C554.138 87.56 554.298 87.56 554.458 87.64C555.018 88.12 555.498 88.68 555.898 89.24C557.498 91.24 559.098 93.16 560.858 95C561.178 95.32 561.418 95.72 561.738 96.12C562.618 97.24 563.338 98.36 564.058 99.56C564.698 100.52 565.338 101.48 566.058 102.28C566.698 103 567.178 103.72 567.658 104.44C568.298 105.4 568.938 106.36 569.658 107.24C571.418 109.72 573.258 112.28 574.938 114.84C575.738 115.96 576.538 117.08 577.418 118.12C577.738 118.52 578.058 118.92 578.298 119.32C580.058 121.72 581.738 124.2 583.338 126.76C584.218 128.04 585.178 129.24 586.378 130.28C586.458 130.28 586.458 130.36 586.538 130.44C587.098 130.76 587.738 131 588.378 130.84C588.698 130.76 589.018 130.68 589.338 130.52C589.658 130.44 589.818 130.12 589.898 129.8C589.898 129.56 589.978 129.32 589.978 129.08C589.978 125.64 589.978 122.28 589.898 118.84C589.818 112.2 589.738 105.48 589.738 98.84C589.738 97.8 589.738 96.76 589.738 95.72C589.738 94.44 589.818 93.24 589.578 92.04C589.498 91.64 589.498 91.24 589.498 90.84C589.498 87 589.418 83.16 589.418 79.4C589.418 79.24 589.418 79.08 589.418 78.92C589.498 78.28 589.738 77.8 590.138 77.4C590.618 76.84 591.258 76.44 592.058 76.44C593.178 76.44 594.298 76.2 595.418 75.88C595.658 75.88 595.818 75.72 595.978 75.48C596.058 75.48 596.058 75.32 596.058 75.24C596.058 75.16 595.898 75 595.738 75C595.578 74.92 595.418 74.92 595.258 74.92C590.378 74.92 585.498 74.92 580.618 75C580.458 75 580.298 75 580.138 75C579.898 75.08 579.578 75.4 579.658 75.72C579.658 75.88 579.978 76.28 580.138 76.28C580.378 76.28 580.618 76.36 580.858 76.36C581.498 76.36 582.138 76.36 582.778 76.36C583.258 76.36 583.738 76.36 584.218 76.44C584.778 76.6 585.258 76.92 585.498 77.48C585.738 77.96 585.898 78.44 585.898 78.92C585.978 79.48 585.978 80.04 585.978 80.6C585.978 82.52 585.978 84.52 585.978 86.44C585.978 92.6 585.978 98.76 585.898 105C585.898 105.56 585.898 106.12 585.898 106.68C585.898 106.76 585.818 106.84 585.738 106.92C585.738 107.08 585.578 107.16 585.418 107.16C585.017 107.24 584.698 107.08 584.538 106.84C583.738 105.8 582.938 104.76 582.218 103.72C581.498 102.6 580.778 101.56 579.978 100.52C578.778 99.08 577.658 97.56 576.618 96.04C576.138 95.4 575.658 94.76 575.178 94.12C574.298 93 573.338 92.04 572.458 90.92C571.898 90.36 571.418 89.72 570.858 89.08C570.378 88.44 569.738 87.8 569.258 87C569.018 86.68 568.698 86.36 568.458 86.04C567.898 85.48 567.338 84.92 566.778 84.28C566.058 83.4 565.338 82.52 564.618 81.64C564.138 81.08 563.738 80.52 563.258 79.96C562.698 79.32 562.138 78.76 561.578 78.2C561.018 77.64 560.378 77.08 559.818 76.44C559.578 76.28 559.338 76.04 559.098 75.8C558.858 75.64 558.538 75.48 558.218 75.48C558.058 75.4 557.898 75.4 557.738 75.4C554.298 75.32 550.938 75.32 547.498 75.4C547.338 75.4 547.178 75.4 547.018 75.48C546.458 75.48 545.898 75.72 545.418 76.04C545.338 76.12 545.178 76.28 545.098 76.36C544.938 76.6 544.938 77.08 545.098 77.24C545.338 77.48 545.498 77.64 545.738 77.72C546.378 78.04 546.938 78.52 547.418 79.08C547.978 79.56 548.298 80.2 548.458 81C548.538 81.56 548.538 82.12 548.698 82.68C548.858 83.56 548.938 84.44 548.858 85.32C548.778 89.16 548.858 92.92 548.938 96.76C549.018 98.76 549.018 100.68 549.018 102.6C549.018 110.52 548.938 118.36 549.018 126.28C549.018 126.76 549.018 127.24 548.938 127.72C548.858 128.44 548.458 128.92 547.738 129.16C547.178 129.32 546.538 129.56 545.898 129.56C545.258 129.64 544.778 129.88 544.298 130.12C544.058 130.28 543.898 130.44 543.818 130.68C543.738 130.84 543.658 131 543.818 131.16C543.898 131.24 543.978 131.4 544.138 131.48C544.458 131.48 544.778 131.56 545.098 131.56C549.178 131.56 553.258 131.56 557.258 131.56C557.978 131.56 558.618 131.56 559.258 131.56C559.418 131.56 559.578 131.48 559.738 131.4C559.898 131.4 560.058 131.08 559.978 130.84C559.818 130.52 559.578 130.28 559.258 130.2C558.218 129.96 557.258 129.64 556.138 129.56C555.818 129.56 555.498 129.48 555.178 129.4C554.378 129.24 553.898 128.52 553.818 127.88C553.818 126.44 553.738 124.92 553.738 123.48C553.738 118.28 553.738 113.08 553.818 105.96ZM618.681 119.16C618.521 118.44 618.281 117.88 618.121 117.24C617.721 115.64 617.481 114.04 617.481 112.36C617.481 111.4 617.481 110.44 617.481 109.48C617.481 109.08 617.481 108.68 617.401 108.28C617.161 107.24 617.241 106.12 617.241 105.08C617.241 100.12 617.241 95.16 617.241 90.2C617.241 88.92 617.241 87.64 617.241 86.36C617.241 85.88 617.241 85.4 617.321 84.92C617.401 84.12 617.481 83.4 617.481 82.68C617.481 81.72 617.561 80.76 617.561 79.8C617.561 79.4 617.721 79 617.961 78.6C618.281 78.04 618.681 77.64 619.321 77.4C619.961 77.16 620.601 77 621.241 76.84C621.721 76.84 622.201 76.6 622.601 76.36C622.761 76.28 622.761 75.88 622.681 75.72C622.521 75.56 622.361 75.48 622.201 75.48C621.801 75.48 621.401 75.4 621.001 75.4C616.841 75.4 612.761 75.4 608.601 75.4C606.521 75.4 604.521 75.4 602.521 75.4C602.201 75.4 601.881 75.4 601.561 75.48C601.321 75.56 601.081 75.64 600.921 75.8C600.841 75.96 600.761 76.12 600.681 76.2C600.681 76.36 601.001 76.68 601.161 76.76C601.321 76.76 601.481 76.84 601.641 76.84C602.601 76.92 603.561 77.16 604.521 77.4C604.921 77.56 605.241 77.8 605.561 78.04C605.641 78.12 605.721 78.28 605.801 78.44C605.801 78.76 605.881 79.08 605.881 79.4C605.881 81.4 605.801 83.32 605.881 85.24C605.961 88.68 605.961 92.12 605.961 95.48C605.881 98.04 605.881 100.52 605.881 103.08C605.881 104.92 605.881 106.76 605.881 108.68C605.881 110.52 605.801 112.44 605.801 114.28C605.801 115.4 605.881 116.52 606.281 117.64C606.521 119.24 607.161 120.76 607.961 122.2C608.041 122.36 608.121 122.44 608.201 122.6C608.681 123.48 609.241 124.28 609.881 124.92C610.281 125.4 610.681 125.72 611.081 126.2C611.961 127.08 612.921 127.8 613.881 128.52C614.121 128.68 614.441 128.92 614.761 129C615.801 129.4 616.841 129.88 617.881 130.28C618.441 130.44 619.001 130.52 619.561 130.6C620.281 130.68 621.001 130.68 621.721 130.76C623.321 131.08 625.001 131.16 626.601 131.16C627.801 131.08 629.001 131.08 630.281 131.08C631.161 131 632.041 131 632.921 130.76C633.241 130.68 633.561 130.68 633.881 130.68C635.001 130.52 636.121 130.52 637.241 130.2C637.321 130.12 637.401 130.12 637.481 130.12C638.441 130.2 639.241 129.8 640.121 129.56C640.601 129.4 641.161 129.16 641.721 129C642.361 128.68 643.001 128.36 643.641 127.96C644.281 127.48 644.921 127 645.561 126.52C646.361 125.96 647.001 125.24 647.481 124.36C647.801 123.8 648.041 123.16 648.361 122.6C649.081 121.4 649.321 120.04 649.641 118.68C649.881 117 650.201 115.32 650.121 113.64C650.121 113.08 650.121 112.52 650.121 111.88C650.121 106.44 650.121 101 650.121 95.56C650.121 94.68 650.121 93.8 650.121 92.92C650.121 91.96 650.121 91 649.881 89.96C649.801 89.56 649.801 89 649.801 88.52C649.721 87.56 649.721 86.6 649.641 85.64C649.641 85.16 649.641 84.6 649.561 84.2C649.321 82.68 649.401 81.24 649.401 79.8C649.401 79.32 649.481 78.84 649.641 78.36C649.721 78.04 649.961 77.8 650.201 77.64C650.761 77.32 651.401 77 652.041 76.92C652.361 76.92 652.681 76.92 653.001 76.84C653.881 76.52 654.761 76.52 655.641 76.44C655.801 76.44 655.961 76.36 656.121 76.36C656.281 76.28 656.601 75.96 656.521 75.8C656.441 75.64 656.361 75.48 656.281 75.4C656.121 75.32 655.961 75.24 655.801 75.24C655.241 75.08 654.681 75.08 654.121 75.16C652.841 75.32 651.561 75.32 650.201 75.4C648.681 75.4 647.161 75.4 645.641 75.48C644.361 75.56 643.161 75.56 641.961 75.48C640.921 75.4 639.881 75.4 638.761 75.56C638.601 75.56 638.441 75.56 638.361 75.64C638.121 75.72 637.881 75.88 637.881 76.12C637.801 76.44 638.041 76.84 638.281 76.92C638.441 76.92 638.601 77 638.761 77C639.401 77 640.041 77 640.761 77.08C641.081 77.08 641.401 77.08 641.721 77.16C642.441 77.32 643.161 77.32 643.881 77.4C644.201 77.48 644.521 77.56 644.761 77.72C645.001 77.8 645.241 77.88 645.481 78.04C645.881 78.28 646.201 78.68 646.201 79.16C646.201 79.56 646.201 79.88 646.201 80.2C646.201 85.16 646.281 90.04 646.361 95C646.361 96.68 646.441 98.28 646.441 99.88C646.521 101.08 646.441 102.2 646.681 103.32C646.681 103.56 646.681 103.8 646.681 104.04C646.681 106.12 646.761 108.28 646.761 110.36C646.761 111 646.761 111.64 646.601 112.28C646.441 113.24 646.441 114.28 646.361 115.24C646.281 116.12 646.361 117 646.201 117.88C645.801 119.32 645.321 120.68 644.681 122.12C644.281 122.6 643.801 123.16 643.321 123.72C643.161 123.96 642.921 124.2 642.681 124.44C641.881 125.08 641.001 125.8 640.121 126.28C639.241 126.76 638.361 127.16 637.401 127.24C637.001 127.24 636.681 127.32 636.361 127.32C635.241 127.64 634.121 127.64 633.001 127.64C632.121 127.64 631.241 127.56 630.361 127.56C629.241 127.56 628.201 127.48 627.161 127.08C626.841 126.92 626.441 126.76 626.121 126.6C623.801 125.32 621.801 123.64 620.281 121.48C619.801 120.76 619.321 120.04 618.681 119.16Z" fill="white"/>
<path d="M1047 136.557C1036.56 136.557 1032.66 131.78 1032.13 130.102C1031.84 129.209 1031.73 127.659 1031.78 125.361C1029.95 121.587 1031.84 113.291 1033.17 111.814C1035.01 109.79 1037.4 109.443 1038.17 109.37C1040.48 107.638 1044.11 107 1046.76 107C1051.45 107 1057.31 107.547 1061.05 111.814C1062.66 113.655 1063.67 120.219 1062.48 124.213C1062.61 127.057 1062.52 129.026 1062.19 130.084L1062.17 130.157L1062.13 130.23C1061.2 131.707 1057.41 136.557 1047 136.557ZM1046.76 108.295C1044.27 108.295 1040.87 108.878 1038.82 110.501L1038.65 110.629H1038.43C1038.17 110.629 1035.87 110.756 1034.14 112.652C1033.17 113.728 1031.29 121.66 1033.01 124.887L1033.08 125.033V125.197C1033.01 127.951 1033.19 129.154 1033.36 129.664C1033.74 130.85 1037.17 135.244 1047 135.244C1056.56 135.244 1060.06 131.014 1060.96 129.61C1061.14 128.935 1061.32 127.44 1061.18 124.14V124.03L1061.22 123.921C1062.39 120.183 1061.34 114.075 1060.08 112.634C1056.67 108.787 1051.18 108.295 1046.76 108.295Z" fill="#FDF1E3"/>
<path d="M1046.76 131.196C1044.05 131.196 1043.25 128.589 1042.55 126.309C1041.98 124.45 1041.43 122.681 1040.08 122.353C1038.56 121.988 1037.9 123.027 1037.02 124.814C1036.47 125.908 1035.98 126.929 1035.01 127.258C1034.51 127.422 1033.96 127.367 1033.38 127.075C1032.28 126.528 1031.54 125.361 1031.21 123.611C1030.41 119.417 1032.06 113.035 1033.17 111.814C1035.04 109.753 1037.44 109.425 1038.19 109.37C1040.3 107.802 1043.54 107 1046.76 107C1051.45 107 1057.31 107.547 1061.05 111.814C1062.64 113.619 1063.49 119.545 1062.7 123.337C1062.26 125.434 1061.4 126.802 1060.13 127.403C1059.57 127.677 1059.04 127.713 1058.54 127.549C1057.57 127.203 1057.06 126.091 1056.53 124.924C1055.65 123.009 1055.01 121.879 1053.47 122.243C1052.09 122.572 1051.56 124.358 1050.99 126.237C1050.28 128.57 1049.47 131.196 1046.76 131.196ZM1039.47 120.985C1039.75 120.985 1040.04 121.022 1040.37 121.095C1042.46 121.587 1043.14 123.793 1043.78 125.927C1044.55 128.406 1045.12 129.902 1046.76 129.902C1048.41 129.902 1048.98 128.388 1049.75 125.872C1050.41 123.72 1051.07 121.496 1053.16 121.003C1055.85 120.347 1056.91 122.681 1057.7 124.395C1058.1 125.27 1058.52 126.182 1058.98 126.346C1059.04 126.364 1059.2 126.437 1059.57 126.255C1060.67 125.726 1061.18 124.249 1061.42 123.082C1062.22 119.18 1061.16 113.911 1060.06 112.652C1056.67 108.787 1051.16 108.295 1046.75 108.295C1044.25 108.295 1040.96 108.878 1038.96 110.355C1038.89 110.464 1038.78 110.556 1038.65 110.61C1037.77 111.358 1037.2 112.324 1037.2 113.509C1037.2 117.12 1043.05 118.469 1046.73 118.469C1051.49 118.469 1055.72 115.406 1057.24 114.166C1053.34 111.431 1049.24 110.701 1046.8 110.938C1045.39 111.066 1043.72 111.54 1043.72 113.054C1043.72 113.582 1043.89 114.002 1044.22 114.312C1045.06 115.114 1046.69 115.041 1046.71 115.041C1047.08 115.023 1047.37 115.296 1047.39 115.643C1047.41 115.989 1047.13 116.299 1046.78 116.317C1046.69 116.317 1044.58 116.427 1043.32 115.242C1042.72 114.676 1042.42 113.947 1042.42 113.054C1042.42 111.139 1043.98 109.899 1046.67 109.644C1049.47 109.389 1054.29 110.264 1058.65 113.601L1059.26 114.056L1058.71 114.567C1058.49 114.786 1053.17 119.727 1046.71 119.727C1042.37 119.727 1035.9 118.068 1035.9 113.491C1035.9 112.561 1036.16 111.723 1036.62 110.993C1035.83 111.267 1034.9 111.777 1034.11 112.652C1033.28 113.564 1031.75 119.581 1032.46 123.356C1032.72 124.687 1033.21 125.544 1033.92 125.908C1034.31 126.109 1034.49 126.036 1034.57 126.018C1035.01 125.872 1035.43 125.033 1035.83 124.231C1036.54 122.827 1037.46 120.985 1039.47 120.985Z" fill="#FDF1E3"/>
</g>
<defs>
<clipPath id="clip0_762_2">
<rect width="150" height="1080" fill="white" transform="translate(1080) rotate(90)"/>
</clipPath>
</defs>
</svg>
