<svg width="1080" height="150" viewBox="0 0 1080 150" fill="none" xmlns="http://www.w3.org/2000/svg">
<g clip-path="url(#clip0_766_2)">
<rect width="150" height="1080" transform="translate(1080) rotate(90)" fill="#DD8964"/>
<path d="M121.503 94.446C9.13466 106.97 -331.702 47.2943 -395 45.3848C-110.788 -36.5323 647.944 -333.86 1026.06 -364.201C1404.18 -394.541 1609.07 -202.901 1691.87 -98.4491C1751.14 -23.6658 1740.14 25.4803 1561.32 36.136C1411.45 45.0664 1307.86 -10.9742 1186.08 -4.98039C1064.31 1.01338 1077.42 73.7469 913.571 79.1985C749.724 84.6502 525.265 19.2282 366.851 22.2777C208.438 25.3272 233.871 81.9219 121.503 94.446Z" fill="#A3BD9B"/>
<path d="M187.066 83.4013C74.6981 95.9255 -235.125 40.2806 -298.423 38.3711C-14.2113 -43.546 744.521 -340.874 1122.64 -371.214C1500.75 -401.555 1674.64 -213.945 1757.43 -109.494C1816.7 -34.7105 1805.7 14.4355 1626.88 25.0913C1477.01 34.0217 1373.42 -22.0189 1251.65 -16.0251C1129.87 -10.0313 1142.98 62.7022 979.134 68.1538C815.288 73.6055 590.828 8.18356 432.415 11.233C274.001 14.2825 299.434 70.8772 187.066 83.4013Z" stroke="#FDF1E3" stroke-opacity="0.2" stroke-width="6"/>
<path d="M429.88 105.96C429.8 101.48 429.8 95.08 429.8 88.68C429.8 88.44 429.8 88.28 429.8 88.12C429.8 88.04 429.8 87.96 429.8 87.88C429.88 87.8 429.96 87.64 430.04 87.48C430.2 87.56 430.36 87.56 430.52 87.64C431.08 88.12 431.56 88.68 431.96 89.24C433.56 91.24 435.16 93.16 436.92 95C437.24 95.32 437.48 95.72 437.8 96.12C438.68 97.24 439.4 98.36 440.12 99.56C440.76 100.52 441.4 101.48 442.12 102.28C442.76 103 443.24 103.72 443.72 104.44C444.36 105.4 445 106.36 445.72 107.24C447.48 109.72 449.32 112.28 451 114.84C451.8 115.96 452.6 117.08 453.48 118.12C453.8 118.52 454.12 118.92 454.36 119.32C456.12 121.72 457.8 124.2 459.4 126.76C460.28 128.04 461.24 129.24 462.44 130.28C462.52 130.28 462.52 130.36 462.6 130.44C463.16 130.76 463.8 131 464.44 130.84C464.76 130.76 465.08 130.68 465.4 130.52C465.72 130.44 465.88 130.12 465.96 129.8C465.96 129.56 466.04 129.32 466.04 129.08C466.04 125.64 466.04 122.28 465.96 118.84C465.88 112.2 465.8 105.48 465.8 98.84C465.8 97.8 465.8 96.76 465.8 95.72C465.8 94.44 465.88 93.24 465.64 92.04C465.56 91.64 465.56 91.24 465.56 90.84C465.56 87 465.48 83.16 465.48 79.4C465.48 79.24 465.48 79.08 465.48 78.92C465.56 78.28 465.8 77.8 466.2 77.4C466.68 76.84 467.32 76.44 468.12 76.44C469.24 76.44 470.36 76.2 471.48 75.88C471.72 75.88 471.88 75.72 472.04 75.48C472.12 75.48 472.12 75.32 472.12 75.24C472.12 75.16 471.96 75 471.8 75C471.64 74.92 471.48 74.92 471.32 74.92C466.44 74.92 461.56 74.92 456.68 75C456.52 75 456.36 75 456.2 75C455.96 75.08 455.64 75.4 455.72 75.72C455.72 75.88 456.04 76.28 456.2 76.28C456.44 76.28 456.68 76.36 456.92 76.36C457.56 76.36 458.2 76.36 458.84 76.36C459.32 76.36 459.8 76.36 460.28 76.44C460.84 76.6 461.32 76.92 461.56 77.48C461.8 77.96 461.96 78.44 461.96 78.92C462.04 79.48 462.04 80.04 462.04 80.6C462.04 82.52 462.04 84.52 462.04 86.44C462.04 92.6 462.04 98.76 461.96 105C461.96 105.56 461.96 106.12 461.96 106.68C461.96 106.76 461.88 106.84 461.8 106.92C461.8 107.08 461.64 107.16 461.48 107.16C461.08 107.24 460.76 107.08 460.6 106.84C459.8 105.8 459 104.76 458.28 103.72C457.56 102.6 456.84 101.56 456.04 100.52C454.84 99.08 453.72 97.56 452.68 96.04C452.2 95.4 451.72 94.76 451.24 94.12C450.36 93 449.4 92.04 448.52 90.92C447.96 90.36 447.48 89.72 446.92 89.08C446.44 88.44 445.8 87.8 445.32 87C445.08 86.68 444.76 86.36 444.52 86.04C443.96 85.48 443.4 84.92 442.84 84.28C442.12 83.4 441.4 82.52 440.68 81.64C440.2 81.08 439.8 80.52 439.32 79.96C438.76 79.32 438.2 78.76 437.64 78.2C437.08 77.64 436.44 77.08 435.88 76.44C435.64 76.28 435.4 76.04 435.16 75.8C434.92 75.64 434.6 75.48 434.28 75.48C434.12 75.4 433.96 75.4 433.8 75.4C430.36 75.32 427 75.32 423.56 75.4C423.4 75.4 423.24 75.4 423.08 75.48C422.52 75.48 421.96 75.72 421.48 76.04C421.4 76.12 421.24 76.28 421.16 76.36C421 76.6 421 77.08 421.16 77.24C421.4 77.48 421.56 77.64 421.8 77.72C422.44 78.04 423 78.52 423.48 79.08C424.04 79.56 424.36 80.2 424.52 81C424.6 81.56 424.6 82.12 424.76 82.68C424.92 83.56 425 84.44 424.92 85.32C424.84 89.16 424.92 92.92 425 96.76C425.08 98.76 425.08 100.68 425.08 102.6C425.08 110.52 425 118.36 425.08 126.28C425.08 126.76 425.08 127.24 425 127.72C424.92 128.44 424.52 128.92 423.8 129.16C423.24 129.32 422.6 129.56 421.96 129.56C421.32 129.64 420.84 129.88 420.36 130.12C420.12 130.28 419.96 130.44 419.88 130.68C419.8 130.84 419.72 131 419.88 131.16C419.96 131.24 420.04 131.4 420.2 131.48C420.52 131.48 420.84 131.56 421.16 131.56C425.24 131.56 429.32 131.56 433.32 131.56C434.04 131.56 434.68 131.56 435.32 131.56C435.48 131.56 435.64 131.48 435.8 131.4C435.96 131.4 436.12 131.08 436.04 130.84C435.88 130.52 435.64 130.28 435.32 130.2C434.28 129.96 433.32 129.64 432.2 129.56C431.88 129.56 431.56 129.48 431.24 129.4C430.44 129.24 429.96 128.52 429.88 127.88C429.88 126.44 429.8 124.92 429.8 123.48C429.8 118.28 429.8 113.08 429.88 105.96ZM497.944 131.08C498.744 131.08 499.544 131.08 500.344 131.08C505.784 131.08 511.224 131.08 516.664 131.08C517.384 131.08 518.024 131.08 518.664 131C519.144 131 519.624 130.76 520.024 130.52C520.264 130.28 520.424 129.96 520.504 129.64C520.584 129 520.584 128.36 520.664 127.72C520.744 127.32 520.744 126.92 520.824 126.52C520.984 125.88 521.064 125.24 521.064 124.6C521.144 123.56 521.144 122.52 521.304 121.48C521.624 120.2 521.624 118.84 521.544 117.56C521.544 117.16 521.064 116.84 520.664 117C520.344 117 520.104 117.24 519.944 117.56C519.864 117.8 519.784 118.04 519.784 118.28C519.624 118.92 519.544 119.56 519.304 120.12C519.144 120.76 518.904 121.4 518.584 121.96C518.344 122.52 518.024 123.08 517.784 123.72C517.544 124.2 517.224 124.68 516.904 125.16C516.584 125.56 516.264 125.88 515.864 126.2C515.544 126.44 515.224 126.68 514.824 126.84C514.344 127.16 513.864 127.4 513.304 127.56C512.024 127.88 510.824 128.2 509.464 128.28C508.344 128.28 507.224 128.28 506.104 128.52C505.704 128.6 505.224 128.6 504.824 128.6C501.864 128.6 498.824 128.6 495.864 128.6C495.624 128.6 495.384 128.6 495.144 128.6C494.984 128.52 494.584 128.28 494.584 128.12C494.504 127.96 494.424 127.8 494.424 127.64C494.424 126.68 494.344 125.72 494.344 124.76C494.344 121.32 494.344 117.88 494.344 114.52C494.344 112.84 494.344 111.24 494.584 109.64C494.664 109.24 494.664 108.84 494.664 108.44C494.744 107.32 494.744 106.12 494.824 105C494.824 104.76 494.824 104.52 494.904 104.28C494.904 104.12 495.224 103.8 495.384 103.8C495.624 103.72 496.024 103.64 496.344 103.64C498.904 103.72 501.544 103.72 504.104 103.72C505.144 103.72 506.024 103.96 506.904 104.44C507.064 104.6 507.304 104.68 507.544 104.84C507.624 104.84 507.624 104.92 507.704 105C508.024 105.16 508.264 105.4 508.344 105.72C508.744 106.68 509.064 107.72 509.304 108.68C509.464 109.24 509.624 109.8 509.864 110.36C509.944 110.44 510.024 110.6 510.104 110.76C510.264 111 510.424 111.08 510.744 111.08C510.984 111.08 511.304 110.76 511.384 110.44C511.384 110.2 511.384 109.96 511.384 109.72C511.384 109.08 511.304 108.44 511.144 107.8C510.984 107.16 510.904 106.52 510.904 105.88C510.824 104.68 510.824 103.48 510.904 102.2C510.984 101.72 510.904 101.24 511.064 100.76C511.304 99.24 511.304 97.72 511.464 96.2C511.544 95.56 511.464 95 511.464 94.44C511.464 94.28 511.464 94.12 511.384 93.96C511.304 93.88 511.144 93.72 511.064 93.64C510.984 93.56 510.504 93.72 510.424 93.8C510.264 94.04 510.104 94.2 510.024 94.44C509.784 95.16 509.624 95.88 509.544 96.6C509.384 97.32 509.144 97.96 508.904 98.68C508.744 99.24 508.344 99.64 507.864 99.96C506.984 100.52 506.104 100.84 505.144 100.84C504.744 100.84 504.344 100.92 503.944 100.92C501.224 100.92 498.584 100.92 495.864 100.92C495.784 100.92 495.704 100.92 495.624 100.92C495.304 100.84 494.984 100.52 494.984 100.28C494.984 99.56 494.984 98.76 494.984 98.04C494.984 97.4 494.904 96.76 494.984 96.12C495.144 95.32 495.144 94.52 495.144 93.72C495.144 91.96 495.144 90.28 495.144 88.6C495.144 87.24 495.224 85.96 494.984 84.68C494.904 84.44 494.904 84.2 494.904 83.96C494.904 82.36 494.824 80.68 494.824 79.08C494.744 78.84 494.824 78.6 494.824 78.36C494.824 78.12 495.144 77.72 495.464 77.64C495.784 77.56 496.104 77.56 496.424 77.56C499.464 77.56 502.584 77.56 505.624 77.56C506.664 77.56 507.624 77.56 508.584 77.56C508.904 77.56 509.224 77.56 509.544 77.64C510.264 77.88 510.984 77.88 511.704 78.04C511.944 78.12 512.184 78.2 512.344 78.36C512.504 78.44 512.664 78.52 512.744 78.6C514.104 79.8 515.224 81.24 516.184 82.76C516.584 83.4 516.984 84.12 517.384 84.84C517.464 85 517.544 85.16 517.544 85.32C517.784 86.04 518.104 86.68 518.184 87.4C518.184 87.64 518.264 87.88 518.344 88.12C518.344 88.28 518.424 88.44 518.584 88.52C518.664 88.6 518.824 88.68 518.984 88.68C519.144 88.76 519.544 88.44 519.544 88.28C519.544 88.12 519.624 87.96 519.624 87.8C519.624 86.6 519.624 85.4 519.464 84.2C519.384 83.4 519.304 82.52 519.304 81.72C519.304 80.52 519.304 79.32 519.304 78.12C519.224 77.32 519.224 76.6 519.064 75.88C519.064 75.64 518.664 75.32 518.424 75.24C518.024 75.16 517.624 75.16 517.224 75.16C509.224 75.08 501.304 75.08 493.304 75C492.744 75 492.184 75 491.624 75.08C490.584 75.16 489.464 75.16 488.424 75.16C487.864 75.16 487.304 75.24 486.744 75.32C485.144 75.64 483.544 75.56 481.864 75.32C480.664 75.16 479.464 75.16 478.264 75.24C478.024 75.24 477.704 75.56 477.704 75.88C477.704 76.04 477.784 76.2 477.864 76.36C478.184 76.68 478.504 76.92 478.904 76.92C479.784 77 480.664 77.32 481.544 77.48C481.944 77.56 482.264 77.8 482.584 78.12C482.824 78.28 482.984 78.6 482.984 78.92C483.064 79.4 483.064 79.88 483.064 80.36C483.064 83.8 483.064 87.24 483.064 90.6C483.144 92.2 483.144 93.72 483.224 95.24C483.224 95.72 483.224 96.2 483.304 96.68C483.464 97.48 483.464 98.36 483.464 99.16C483.464 101.24 483.464 103.4 483.544 105.48C483.624 106.52 483.544 107.56 483.464 108.6C483.224 110.2 483.224 111.72 483.144 113.24C483.144 114.28 483.144 115.4 483.064 116.44C483.064 116.92 483.064 117.4 482.984 117.88C482.664 118.92 482.744 119.96 482.744 121C482.744 122.2 482.744 123.32 482.744 124.44C482.744 125.24 482.664 126.04 482.584 126.84C482.504 127.48 482.184 127.96 481.624 128.2C481.304 128.44 480.904 128.6 480.504 128.76C479.944 129 479.304 129.08 478.664 129.16C478.104 129.24 477.544 129.48 477.064 129.8C476.904 129.96 476.824 130.2 476.824 130.44C476.824 130.68 477.064 130.92 477.224 131C477.544 131.16 477.864 131.16 478.184 131.16C482.584 131.16 486.984 131.24 491.384 131.24C493.464 131.24 495.624 131.32 497.704 131.08C497.784 131.08 497.864 131.08 497.944 131.08ZM572.334 100.44C572.734 100.92 572.894 101.48 573.054 101.96C573.934 104.44 574.734 106.84 575.534 109.32C576.254 111.56 577.134 113.8 578.174 115.88C578.974 117.56 579.694 119.32 580.494 121C580.894 121.88 581.294 122.76 581.534 123.72C581.694 124.52 582.014 125.24 582.254 126.04C582.414 126.6 582.574 127.16 582.814 127.64C583.134 128.28 583.534 128.92 583.854 129.56C584.014 129.96 584.334 130.28 584.574 130.52C584.894 130.84 585.214 131.08 585.694 131.08C586.094 131.08 586.494 131.08 586.894 131.08C588.254 131.08 589.614 131.08 590.974 131.16C591.774 131.24 592.494 131.24 593.214 131.24C593.534 131.16 593.854 131.08 594.174 131C594.414 131 594.574 130.84 594.734 130.6C594.814 130.36 594.974 130.12 595.054 129.96C595.694 127.72 596.334 125.56 597.054 123.4C597.294 122.52 597.614 121.72 597.774 120.84C598.014 119.96 598.334 119.16 598.574 118.28C598.814 117.32 599.134 116.44 599.374 115.48C599.694 114.6 599.934 113.8 600.174 112.92C600.414 111.96 600.654 111 600.974 110.12C601.534 108.44 601.934 106.68 602.414 104.92C603.054 102.36 603.694 99.72 604.574 97.24C604.814 96.36 605.054 95.48 605.294 94.68C606.014 92.36 606.494 90.12 607.134 87.88C607.454 86.84 607.694 85.8 608.014 84.76C608.254 83.72 608.574 82.6 608.974 81.56C609.134 81.16 609.214 80.76 609.374 80.36C609.454 80.12 609.534 79.96 609.614 79.72C609.694 79.56 609.854 79.4 609.934 79.32C610.254 79.08 610.654 78.92 611.054 78.92C611.614 78.84 612.174 78.84 612.734 78.76C614.014 78.76 615.214 78.6 616.414 78.36C616.654 78.36 616.814 78.2 617.054 78.04C617.454 77.72 617.534 77.16 617.294 76.76C617.134 76.44 616.974 76.2 616.734 75.96C616.414 75.72 616.014 75.48 615.614 75.48C614.494 75.48 613.294 75.48 612.174 75.48C611.214 75.56 610.254 75.56 609.294 75.56C605.934 75.64 602.574 75.48 599.294 75.4C597.614 75.4 595.854 75.4 594.174 75.4C593.934 75.4 593.694 75.48 593.454 75.48C592.894 75.56 592.574 76.36 592.894 76.84C593.134 77.16 593.374 77.32 593.694 77.32C594.894 77.4 596.094 77.56 597.374 77.56C597.694 77.56 598.014 77.56 598.334 77.64C599.294 77.88 600.254 77.96 601.214 77.96C601.934 78.04 602.654 78.2 603.374 78.44C604.014 78.6 604.894 79.56 604.654 80.52C604.574 80.84 604.414 81.16 604.334 81.48C604.334 82.44 604.014 83.4 603.854 84.36C603.774 84.92 603.614 85.4 603.454 85.96C603.294 86.6 603.214 87.24 603.134 87.88C602.814 88.92 602.654 89.96 602.414 91C602.174 91.56 602.014 92.2 601.854 92.84C601.854 93.96 601.454 94.92 601.214 95.96C600.574 98.2 599.934 100.44 599.134 102.68C598.734 103.88 598.334 105 598.014 106.2C597.614 107.4 597.214 108.68 596.894 109.88C596.334 112.04 595.534 114.04 594.814 116.12C594.814 116.2 594.734 116.28 594.734 116.36C594.654 116.6 594.334 116.76 594.174 116.76C594.014 116.68 593.934 116.52 593.854 116.36C593.214 114.92 592.574 113.4 592.094 111.88C591.934 111.16 591.694 110.44 591.374 109.8C591.054 108.92 590.654 108.2 590.494 107.24C590.494 107 590.334 106.84 590.254 106.6C590.014 105.96 589.694 105.4 589.534 104.76C589.214 104.04 588.974 103.24 588.574 102.52C588.254 101.88 587.934 101.24 587.694 100.52C587.454 99.88 587.134 99.24 586.814 98.52C586.734 98.36 586.734 98.2 586.654 98.04C586.494 97.64 586.334 97.16 586.174 96.68C585.614 95.4 585.134 94.12 584.654 92.84C584.094 91.56 583.454 90.36 582.894 89.08C582.574 88.44 582.254 87.8 581.934 87.16C581.694 86.68 581.454 86.28 581.294 85.8C581.134 85.16 580.814 84.6 580.494 84.04C580.014 83.16 579.854 82.2 579.774 81.24C579.774 80.68 579.774 80.12 579.774 79.56C579.854 79.24 579.854 79 579.934 78.84C580.014 78.52 580.174 78.2 580.494 78.04C580.814 77.8 581.134 77.64 581.534 77.56C581.774 77.48 582.014 77.48 582.254 77.4C582.574 77.32 582.894 77.16 583.054 76.84C583.214 76.6 583.214 76.2 583.054 75.96C582.894 75.64 582.574 75.48 582.254 75.48C581.934 75.4 581.614 75.4 581.294 75.4C575.134 75.48 568.894 75.4 562.734 75.4C561.774 75.48 560.814 75.48 559.854 75.48C559.614 75.48 559.374 75.48 559.134 75.48C558.734 75.56 558.494 75.72 558.334 75.96C558.094 76.28 558.174 76.6 558.334 76.92C558.414 77 558.574 77.16 558.654 77.24C558.974 77.48 559.294 77.72 559.694 77.88C560.254 78.04 560.734 78.28 561.294 78.44C561.774 78.68 562.174 78.92 562.494 79.24C562.734 79.4 562.894 79.56 563.054 79.72C563.854 80.44 564.494 81.32 564.974 82.2C565.214 82.68 565.454 83.08 565.774 83.48C566.094 83.96 566.414 84.44 566.654 84.92C567.134 86.04 567.694 87.16 568.254 88.2C568.494 88.68 568.734 89.24 568.974 89.72C569.134 90.04 569.134 90.36 569.134 90.68C569.134 91.08 569.134 91.48 568.974 91.88C568.894 92.2 568.814 92.52 568.734 92.84C568.574 94.04 568.254 95.24 567.934 96.36C567.614 97.56 567.374 98.76 566.974 99.88C566.094 102.44 565.374 105 564.494 107.56C563.854 109.8 563.054 112.04 562.414 114.28C562.174 114.92 562.014 115.48 561.694 116.12C561.534 116.36 561.054 116.44 560.814 116.2C560.814 116.2 560.734 116.12 560.654 116.04C560.334 115.72 560.094 115.24 559.934 114.76C559.534 113.4 558.814 112.12 558.414 110.68C558.334 110.44 558.254 110.28 558.094 110.04C557.534 108.84 557.214 107.56 556.654 106.44C556.414 105.96 556.334 105.48 556.174 105.08C555.854 103.96 555.374 102.92 554.894 101.88C554.334 100.68 553.854 99.48 553.534 98.28C553.454 97.96 553.374 97.64 553.214 97.32C552.494 95.96 551.934 94.52 551.214 93.16C550.334 91.24 549.614 89.24 548.974 87.24C548.734 86.2 548.494 85.16 548.094 84.2C547.774 83.24 547.614 82.28 547.694 81.32C547.694 80.84 547.694 80.36 547.694 79.88C547.774 79.08 548.094 78.44 548.574 77.88C548.654 77.8 548.814 77.64 548.974 77.56C549.454 77.32 549.934 77 550.494 76.92C550.654 76.92 550.814 76.76 550.974 76.76C551.134 76.68 551.134 76.52 551.214 76.36C551.294 75.96 550.894 75.48 550.574 75.4C550.254 75.32 549.934 75.32 549.614 75.32C548.494 75.32 547.374 75.4 546.254 75.4C544.974 75.4 543.774 75.4 542.574 75.4C538.974 75.48 535.374 75.56 531.854 75.64C530.334 75.64 528.894 75.8 527.454 75.96C527.214 75.96 526.814 76.28 526.814 76.52C526.734 76.92 526.814 77.16 527.134 77.4C527.214 77.48 527.374 77.56 527.534 77.64C527.774 77.72 528.014 77.8 528.254 77.8C528.894 77.88 529.454 78.2 530.014 78.52C530.814 79.08 531.454 79.8 532.014 80.68C532.814 81.96 533.534 83.32 534.014 84.84C534.254 85.64 534.574 86.52 535.054 87.32C535.454 88.04 535.694 88.76 535.854 89.56C536.254 91 536.734 92.36 537.294 93.72C537.774 95.08 538.414 96.44 538.574 97.88C538.574 98.12 538.734 98.36 538.814 98.6C539.214 100.12 539.694 101.56 540.334 103C540.654 103.8 540.974 104.6 541.214 105.48C541.774 107.08 542.334 108.68 542.814 110.28C543.374 111.96 543.934 113.56 544.654 115.08C545.614 117.4 546.654 119.72 547.854 121.96C548.414 123 548.894 124.12 549.294 125.32C549.694 126.52 550.174 127.72 550.654 128.92C550.894 129.64 551.294 130.2 551.934 130.68C552.094 130.84 552.334 130.92 552.574 131C552.814 131.08 553.054 131.08 553.294 131.08C555.054 131.08 556.894 131.16 558.654 131.24C559.054 131.24 559.454 131.24 559.854 131.24C560.014 131.24 560.174 131.16 560.334 131.16C561.054 131.08 561.614 130.76 561.934 130.12C562.094 129.8 562.254 129.4 562.414 129C562.814 127.88 563.134 126.76 563.614 125.64C563.774 125.24 563.854 124.84 563.934 124.44C564.574 122.76 565.054 121.08 565.614 119.32C565.854 118.28 566.174 117.32 566.654 116.36C566.974 115.48 567.294 114.52 567.614 113.56C567.934 112.6 568.254 111.56 568.574 110.6C569.614 107.72 570.574 104.92 571.454 102.04C571.614 101.64 571.694 101.24 571.854 100.92C571.934 100.68 572.094 100.52 572.334 100.44ZM633.26 87.08C633.26 84.6 633.26 84.6 633.98 82.44C634.14 82.04 634.22 81.64 634.38 81.24C634.94 80.12 635.74 79.24 636.78 78.6C636.86 78.52 636.94 78.52 637.02 78.44C637.98 78.12 638.86 77.8 639.82 77.88C641.02 77.88 642.14 77.88 643.26 77.88C643.58 77.88 643.9 77.88 644.22 77.96C645.02 78.2 645.82 78.36 646.54 78.68C648.62 79.64 650.22 81.08 651.34 83.08C651.58 83.56 651.82 84.04 652.14 84.52C652.62 85.4 652.86 86.36 653.1 87.32C653.18 88.28 653.66 89.16 653.82 90.12C653.82 90.2 653.9 90.28 653.98 90.36C654.06 90.52 654.3 90.6 654.54 90.68C654.7 90.68 655.1 90.44 655.1 90.28C655.26 89.48 655.5 88.68 655.5 87.88C655.58 86.04 655.58 84.12 655.42 82.28C655.26 81.32 655.26 80.36 655.18 79.4C655.18 79.08 655.18 78.76 655.1 78.44C655.02 78.2 654.86 77.96 654.7 77.8C654.54 77.72 654.46 77.56 654.3 77.48C653.66 77.16 653.02 76.84 652.3 76.52C651.58 76.28 650.78 76.04 649.98 75.8C649.42 75.64 648.78 75.48 648.14 75.48C647.5 75.4 646.94 75.4 646.38 75.32C645.58 75.16 644.78 75.16 643.98 75.16C642.54 75.16 641.02 75.16 639.58 75.16C638.7 75.16 637.82 75.24 636.94 75.32C636.14 75.48 635.34 75.56 634.54 75.8C634.3 75.96 634.06 75.96 633.82 75.96C632.94 76.12 632.14 76.44 631.26 76.52C630.78 76.6 630.3 76.84 629.9 77.08C629.34 77.4 628.86 77.64 628.46 78.04C628.14 78.44 627.74 78.76 627.42 79.08C627.1 79.48 626.78 79.8 626.46 80.2C625.9 81 625.34 81.8 624.86 82.6C624.7 82.84 624.54 83 624.46 83.24C624.3 83.88 623.98 84.44 623.9 85.08C623.66 86.2 623.42 87.32 623.26 88.44C623.02 89.56 623.02 90.68 623.1 91.8C623.34 92.6 623.34 93.4 623.42 94.2C623.42 94.44 623.5 94.76 623.58 94.92C623.9 96.12 624.3 97.32 624.94 98.36C625.26 98.92 625.66 99.56 626.06 100.2C627.02 101.72 628.22 103.08 629.74 104.04C629.9 104.2 630.14 104.36 630.3 104.52C630.86 105 631.42 105.4 632.14 105.72C632.38 105.88 632.7 106.04 632.94 106.2C635.02 107.56 637.1 108.76 639.34 109.8C640.22 110.2 641.02 110.68 641.82 111.24C643.42 112.28 644.78 113.56 646.06 114.92C646.78 115.72 647.26 116.6 647.42 117.72C647.5 118.04 647.58 118.36 647.66 118.68C647.82 119.48 647.82 120.28 647.74 121.08C647.74 121.16 647.74 121.24 647.74 121.32C647.42 122.12 647.18 123 646.86 123.88C646.38 124.92 645.66 125.8 644.7 126.44C644.38 126.76 644.06 126.84 643.66 127.08C642.62 127.32 641.66 127.56 640.54 127.56C639.26 127.56 637.98 127.56 636.7 127.56C636.46 127.56 636.14 127.56 635.9 127.56C635.02 127.32 633.98 127.24 633.1 126.92C632.54 126.76 631.98 126.52 631.5 126.2C631.26 126.04 630.94 125.88 630.7 125.72C629.9 125.32 629.18 124.76 628.54 124.12C628.3 123.88 627.98 123.56 627.66 123.32C626.7 122.28 625.9 121.16 625.26 119.96C624.86 119.32 624.54 118.68 624.38 117.96C624.14 117.24 623.9 116.6 623.74 115.88C623.74 115.64 623.58 115.4 623.42 115.24C623.34 115.08 622.94 114.92 622.78 115C622.7 115.16 622.54 115.24 622.46 115.4C622.38 115.48 622.38 115.64 622.38 115.8C622.46 116.84 622.46 117.8 622.7 118.76C622.78 119.16 622.78 119.56 622.86 119.96C622.94 121.56 622.94 123.16 623.26 124.76C623.34 125.16 623.34 125.56 623.34 126.04C623.34 126.44 623.42 126.84 623.42 127.24C623.5 127.72 623.66 128.2 623.9 128.6C623.98 128.84 624.14 129 624.38 129.08C625.5 129.56 626.62 130.12 627.82 130.36C628.86 130.6 629.9 130.92 630.94 131C631.74 131.08 632.54 131.16 633.34 131.16C636.46 131.16 639.5 131.08 642.62 131.08C643.02 131.08 643.42 131 643.82 130.92C644.46 130.84 645.1 130.6 645.74 130.6C646.38 130.52 646.94 130.2 647.58 130.12C649.66 129.72 651.42 128.84 652.86 127.24C652.94 127.16 653.1 127 653.18 126.92C653.9 126.2 654.54 125.48 655.1 124.68C655.34 124.36 655.58 124.04 655.82 123.72C656.22 123.16 656.62 122.52 656.94 121.88C657.5 120.84 657.9 119.8 658.3 118.76C658.38 118.52 658.46 118.28 658.54 118.04C658.86 116.52 658.86 116.52 658.86 114.92C658.86 114.44 658.86 113.96 658.86 113.48C658.78 113.16 658.7 112.84 658.62 112.52C658.14 110.76 657.5 109.08 656.7 107.48C656.3 106.76 655.82 106.12 655.26 105.56C654.46 104.68 653.58 103.8 652.62 103.08C650.86 101.72 649.18 100.36 647.34 99.16C645.74 98.2 644.22 97.08 642.62 96.12C641.5 95.48 640.46 94.68 639.34 93.96C638.78 93.56 638.22 93 637.66 92.6C637.34 92.28 637.02 92.04 636.78 91.8C635.9 91.16 635.18 90.36 634.54 89.56C634.14 89.08 633.82 88.6 633.66 88.12C633.58 87.8 633.42 87.48 633.26 87.08Z" fill="white"/>
<path d="M1047 136.557C1036.56 136.557 1032.66 131.78 1032.13 130.102C1031.84 129.209 1031.73 127.659 1031.78 125.361C1029.95 121.587 1031.84 113.291 1033.17 111.814C1035.01 109.79 1037.4 109.443 1038.17 109.37C1040.48 107.638 1044.11 107 1046.76 107C1051.45 107 1057.31 107.547 1061.05 111.814C1062.66 113.655 1063.67 120.219 1062.48 124.213C1062.61 127.057 1062.52 129.026 1062.19 130.084L1062.17 130.157L1062.13 130.23C1061.2 131.707 1057.41 136.557 1047 136.557ZM1046.76 108.295C1044.27 108.295 1040.87 108.878 1038.82 110.501L1038.65 110.629H1038.43C1038.17 110.629 1035.87 110.756 1034.14 112.652C1033.17 113.728 1031.29 121.66 1033.01 124.887L1033.08 125.033V125.197C1033.01 127.951 1033.19 129.154 1033.36 129.664C1033.74 130.85 1037.17 135.244 1047 135.244C1056.56 135.244 1060.06 131.014 1060.96 129.61C1061.14 128.935 1061.32 127.44 1061.18 124.14V124.03L1061.22 123.921C1062.39 120.183 1061.34 114.075 1060.08 112.634C1056.67 108.787 1051.18 108.295 1046.76 108.295Z" fill="#FDF1E3"/>
<path d="M1046.76 131.196C1044.05 131.196 1043.25 128.589 1042.55 126.309C1041.98 124.45 1041.43 122.681 1040.08 122.353C1038.56 121.988 1037.9 123.027 1037.02 124.814C1036.47 125.908 1035.98 126.929 1035.01 127.258C1034.51 127.422 1033.96 127.367 1033.38 127.075C1032.28 126.528 1031.54 125.361 1031.21 123.611C1030.41 119.417 1032.06 113.035 1033.17 111.814C1035.04 109.753 1037.44 109.425 1038.19 109.37C1040.3 107.802 1043.54 107 1046.76 107C1051.45 107 1057.31 107.547 1061.05 111.814C1062.64 113.619 1063.49 119.545 1062.7 123.337C1062.26 125.434 1061.4 126.802 1060.13 127.403C1059.57 127.677 1059.04 127.713 1058.54 127.549C1057.57 127.203 1057.06 126.091 1056.53 124.924C1055.65 123.009 1055.01 121.879 1053.47 122.243C1052.09 122.572 1051.56 124.358 1050.99 126.237C1050.28 128.57 1049.47 131.196 1046.76 131.196ZM1039.47 120.985C1039.75 120.985 1040.04 121.022 1040.37 121.095C1042.46 121.587 1043.14 123.793 1043.78 125.927C1044.55 128.406 1045.12 129.902 1046.76 129.902C1048.41 129.902 1048.98 128.388 1049.75 125.872C1050.41 123.72 1051.07 121.496 1053.16 121.003C1055.85 120.347 1056.91 122.681 1057.7 124.395C1058.1 125.27 1058.52 126.182 1058.98 126.346C1059.04 126.364 1059.2 126.437 1059.57 126.255C1060.67 125.726 1061.18 124.249 1061.42 123.082C1062.22 119.18 1061.16 113.911 1060.06 112.652C1056.67 108.787 1051.16 108.295 1046.75 108.295C1044.25 108.295 1040.96 108.878 1038.96 110.355C1038.89 110.464 1038.78 110.556 1038.65 110.61C1037.77 111.358 1037.2 112.324 1037.2 113.509C1037.2 117.12 1043.05 118.469 1046.73 118.469C1051.49 118.469 1055.72 115.406 1057.24 114.166C1053.34 111.431 1049.24 110.701 1046.8 110.938C1045.39 111.066 1043.72 111.54 1043.72 113.054C1043.72 113.582 1043.89 114.002 1044.22 114.312C1045.06 115.114 1046.69 115.041 1046.71 115.041C1047.08 115.023 1047.37 115.296 1047.39 115.643C1047.41 115.989 1047.13 116.299 1046.78 116.317C1046.69 116.317 1044.58 116.427 1043.32 115.242C1042.72 114.676 1042.42 113.947 1042.42 113.054C1042.42 111.139 1043.98 109.899 1046.67 109.644C1049.47 109.389 1054.29 110.264 1058.65 113.601L1059.26 114.056L1058.71 114.567C1058.49 114.786 1053.17 119.727 1046.71 119.727C1042.37 119.727 1035.9 118.068 1035.9 113.491C1035.9 112.561 1036.16 111.723 1036.62 110.993C1035.83 111.267 1034.9 111.777 1034.11 112.652C1033.28 113.564 1031.75 119.581 1032.46 123.356C1032.72 124.687 1033.21 125.544 1033.92 125.908C1034.31 126.109 1034.49 126.036 1034.57 126.018C1035.01 125.872 1035.43 125.033 1035.83 124.231C1036.54 122.827 1037.46 120.985 1039.47 120.985Z" fill="#FDF1E3"/>
</g>
<defs>
<clipPath id="clip0_766_2">
<rect width="150" height="1080" fill="white" transform="translate(1080) rotate(90)"/>
</clipPath>
</defs>
</svg>
