<svg width="1080" height="150" viewBox="0 0 1080 150" fill="none" xmlns="http://www.w3.org/2000/svg">
<g clip-path="url(#clip0_759_18)">
<rect width="150" height="1080" transform="translate(1080) rotate(90)" fill="#DD8964"/>
<path d="M121.503 94.446C9.13466 106.97 -331.702 47.2943 -395 45.3848C-110.788 -36.5323 647.944 -333.86 1026.06 -364.201C1404.18 -394.541 1609.07 -202.901 1691.87 -98.4491C1751.14 -23.6658 1740.14 25.4803 1561.32 36.136C1411.45 45.0664 1307.86 -10.9742 1186.08 -4.98039C1064.31 1.01338 1077.42 73.7469 913.571 79.1985C749.724 84.6502 525.265 19.2282 366.851 22.2777C208.438 25.3272 233.871 81.9219 121.503 94.446Z" fill="#A3BD9B"/>
<path d="M187.066 83.4013C74.6981 95.9255 -235.125 40.2806 -298.423 38.3711C-14.2113 -43.546 744.521 -340.874 1122.64 -371.214C1500.75 -401.555 1674.64 -213.945 1757.43 -109.494C1816.7 -34.7105 1805.7 14.4355 1626.88 25.0913C1477.01 34.0217 1373.42 -22.0189 1251.65 -16.0251C1129.87 -10.0313 1142.98 62.7022 979.134 68.1538C815.288 73.6055 590.828 8.18356 432.415 11.233C274.001 14.2825 299.434 70.8772 187.066 83.4013Z" stroke="#FDF1E3" stroke-opacity="0.2" stroke-width="6"/>
<path d="M416.6 78.04C418.12 78.04 419.64 78.04 421.24 78.04C421.4 78.04 421.56 78.04 421.72 78.12C422.52 78.36 423.24 79.24 423.24 80.12C423.24 81 423.24 81.88 423.24 82.76C423.24 83.96 423.24 85.08 423.32 86.2C423.32 87.4 423.32 88.6 423.32 89.88C423.32 98.28 423.24 106.76 423.24 115.16C423.24 115.64 423.24 116.12 423.16 116.6C423.08 117.4 423.08 118.12 423.08 118.84C423 121.16 422.92 123.56 422.84 125.88C422.84 126.12 422.84 126.36 422.76 126.6C422.6 127.24 422.36 127.8 421.72 128.2C421.48 128.36 421.16 128.52 420.84 128.6C420.28 128.76 419.64 129 419 129.16C418.36 129.4 417.8 129.56 417.16 129.8C416.92 129.88 416.76 130.04 416.6 130.28C416.44 130.52 416.6 131 416.92 131C417.16 131.08 417.4 131.16 417.64 131.16C424.36 131.08 431.08 131.08 437.8 131C438.04 131 438.28 131 438.52 131C438.84 130.92 439.16 130.84 439.48 130.76C439.56 130.68 439.64 130.68 439.72 130.6C439.8 130.52 439.88 130.36 439.96 130.2C440.04 130.12 439.8 129.64 439.64 129.64C439.16 129.48 438.68 129.32 438.2 129.24C437.32 129.08 436.52 128.68 435.72 128.36C435.48 128.2 435.32 128.12 435.08 127.96C434.76 127.64 434.52 127.32 434.52 126.92C434.52 124.76 434.44 122.68 434.44 120.6C434.6 115.8 434.68 111 434.6 106.2C434.6 99.72 434.6 93.24 434.6 86.68C434.6 85.56 434.6 84.44 434.68 83.32C434.68 81.32 434.68 81.32 435.08 79.4C435.16 78.92 435.56 78.6 436.04 78.44C436.2 78.44 436.36 78.36 436.52 78.36C436.76 78.36 437 78.36 437.24 78.36C438.6 78.36 440.04 78.44 441.4 78.44C441.8 78.44 442.2 78.6 442.6 78.68C443.24 78.84 443.8 79.08 444.36 79.4C444.6 79.48 444.84 79.64 445 79.72C445.88 80.36 446.6 81.16 447.16 82.12C447.32 82.52 447.56 82.92 447.8 83.4C448.28 84.2 448.6 85.16 448.84 86.12C448.92 86.84 449.16 87.48 449.4 88.2C449.4 88.28 449.48 88.36 449.56 88.36C449.64 88.52 449.8 88.6 449.96 88.6C450.04 88.68 450.12 88.68 450.2 88.68C450.76 88.68 451.16 88.36 451.16 87.88C451.24 86.68 451.08 85.56 450.92 84.44C450.84 83.72 450.76 83 450.76 82.28C450.68 80.84 450.6 79.32 450.6 77.88C450.52 77.4 450.52 76.92 450.52 76.44C450.44 76.12 450.36 75.8 450.2 75.48C450.04 75.24 449.88 75.16 449.64 75.08C449.32 75 449 75 448.68 75C447.4 74.92 446.04 74.92 444.76 74.92C437.48 75 430.2 75 422.84 75C419 75 415.24 75 411.4 75.08C410.68 75.08 409.96 75.08 409.24 75.08C408.92 75.16 408.6 75.24 408.28 75.4C408.04 75.56 407.8 75.96 407.8 76.2C407.72 76.44 407.72 76.68 407.72 76.92C407.64 77.88 407.64 78.84 407.48 79.88C407.4 80.36 407.4 80.84 407.4 81.32C407.32 82.2 407.32 83.08 407.24 83.96C407.24 85 407.24 86.12 406.92 87.08C406.84 87.4 406.92 87.72 407 88.04C407.24 88.68 407.88 88.84 408.44 88.52C408.52 88.52 408.6 88.44 408.6 88.36C408.92 87.88 409.16 87.32 409.16 86.76C409.32 85.56 409.8 84.44 410.36 83.32C410.68 82.76 411 82.2 411.32 81.64C411.64 81.16 411.96 80.76 412.36 80.36C412.76 80.04 413.08 79.72 413.48 79.4C414.04 78.92 414.68 78.52 415.4 78.36C415.8 78.28 416.2 78.12 416.6 78.04ZM476.569 131.08C477.369 131.08 478.169 131.08 478.969 131.08C484.409 131.08 489.849 131.08 495.289 131.08C496.009 131.08 496.649 131.08 497.289 131C497.769 131 498.249 130.76 498.649 130.52C498.889 130.28 499.049 129.96 499.129 129.64C499.209 129 499.209 128.36 499.289 127.72C499.369 127.32 499.369 126.92 499.449 126.52C499.609 125.88 499.689 125.24 499.689 124.6C499.769 123.56 499.769 122.52 499.929 121.48C500.249 120.2 500.249 118.84 500.169 117.56C500.169 117.16 499.689 116.84 499.289 117C498.969 117 498.729 117.24 498.569 117.56C498.489 117.8 498.409 118.04 498.409 118.28C498.249 118.92 498.169 119.56 497.929 120.12C497.769 120.76 497.529 121.4 497.209 121.96C496.969 122.52 496.649 123.08 496.409 123.72C496.169 124.2 495.849 124.68 495.529 125.16C495.209 125.56 494.889 125.88 494.489 126.2C494.169 126.44 493.849 126.68 493.449 126.84C492.969 127.16 492.489 127.4 491.929 127.56C490.649 127.88 489.449 128.2 488.089 128.28C486.969 128.28 485.849 128.28 484.729 128.52C484.329 128.6 483.849 128.6 483.449 128.6C480.489 128.6 477.449 128.6 474.489 128.6C474.249 128.6 474.009 128.6 473.769 128.6C473.609 128.52 473.209 128.28 473.209 128.12C473.129 127.96 473.049 127.8 473.049 127.64C473.049 126.68 472.969 125.72 472.969 124.76C472.969 121.32 472.969 117.88 472.969 114.52C472.969 112.84 472.969 111.24 473.209 109.64C473.289 109.24 473.289 108.84 473.289 108.44C473.369 107.32 473.369 106.12 473.449 105C473.449 104.76 473.449 104.52 473.529 104.28C473.529 104.12 473.849 103.8 474.009 103.8C474.249 103.72 474.649 103.64 474.969 103.64C477.529 103.72 480.169 103.72 482.729 103.72C483.769 103.72 484.649 103.96 485.529 104.44C485.689 104.6 485.929 104.68 486.169 104.84C486.249 104.84 486.249 104.92 486.329 105C486.649 105.16 486.889 105.4 486.969 105.72C487.369 106.68 487.689 107.72 487.929 108.68C488.089 109.24 488.249 109.8 488.489 110.36C488.569 110.44 488.649 110.6 488.729 110.76C488.889 111 489.049 111.08 489.369 111.08C489.609 111.08 489.929 110.76 490.009 110.44C490.009 110.2 490.009 109.96 490.009 109.72C490.009 109.08 489.929 108.44 489.769 107.8C489.609 107.16 489.529 106.52 489.529 105.88C489.449 104.68 489.449 103.48 489.529 102.2C489.609 101.72 489.529 101.24 489.689 100.76C489.929 99.24 489.929 97.72 490.089 96.2C490.169 95.56 490.089 95 490.089 94.44C490.089 94.28 490.089 94.12 490.009 93.96C489.929 93.88 489.769 93.72 489.689 93.64C489.609 93.56 489.129 93.72 489.049 93.8C488.889 94.04 488.729 94.2 488.649 94.44C488.409 95.16 488.249 95.88 488.169 96.6C488.009 97.32 487.769 97.96 487.529 98.68C487.369 99.24 486.969 99.64 486.489 99.96C485.609 100.52 484.729 100.84 483.769 100.84C483.369 100.84 482.969 100.92 482.569 100.92C479.849 100.92 477.209 100.92 474.489 100.92C474.409 100.92 474.329 100.92 474.249 100.92C473.929 100.84 473.609 100.52 473.609 100.28C473.609 99.56 473.609 98.76 473.609 98.04C473.609 97.4 473.529 96.76 473.609 96.12C473.769 95.32 473.769 94.52 473.769 93.72C473.769 91.96 473.769 90.28 473.769 88.6C473.769 87.24 473.849 85.96 473.609 84.68C473.529 84.44 473.529 84.2 473.529 83.96C473.529 82.36 473.449 80.68 473.449 79.08C473.369 78.84 473.449 78.6 473.449 78.36C473.449 78.12 473.769 77.72 474.089 77.64C474.409 77.56 474.729 77.56 475.049 77.56C478.089 77.56 481.209 77.56 484.249 77.56C485.289 77.56 486.249 77.56 487.209 77.56C487.529 77.56 487.849 77.56 488.169 77.64C488.889 77.88 489.609 77.88 490.329 78.04C490.569 78.12 490.809 78.2 490.969 78.36C491.129 78.44 491.289 78.52 491.369 78.6C492.729 79.8 493.849 81.24 494.809 82.76C495.209 83.4 495.609 84.12 496.009 84.84C496.089 85 496.169 85.16 496.169 85.32C496.409 86.04 496.729 86.68 496.809 87.4C496.809 87.64 496.889 87.88 496.969 88.12C496.969 88.28 497.049 88.44 497.209 88.52C497.289 88.6 497.449 88.68 497.609 88.68C497.769 88.76 498.169 88.44 498.169 88.28C498.169 88.12 498.249 87.96 498.249 87.8C498.249 86.6 498.249 85.4 498.089 84.2C498.009 83.4 497.929 82.52 497.929 81.72C497.929 80.52 497.929 79.32 497.929 78.12C497.849 77.32 497.849 76.6 497.689 75.88C497.689 75.64 497.289 75.32 497.049 75.24C496.649 75.16 496.249 75.16 495.849 75.16C487.849 75.08 479.929 75.08 471.929 75C471.369 75 470.809 75 470.249 75.08C469.209 75.16 468.089 75.16 467.049 75.16C466.489 75.16 465.929 75.24 465.369 75.32C463.769 75.64 462.169 75.56 460.489 75.32C459.289 75.16 458.089 75.16 456.889 75.24C456.649 75.24 456.329 75.56 456.329 75.88C456.329 76.04 456.409 76.2 456.489 76.36C456.809 76.68 457.129 76.92 457.529 76.92C458.409 77 459.289 77.32 460.169 77.48C460.569 77.56 460.889 77.8 461.209 78.12C461.449 78.28 461.609 78.6 461.609 78.92C461.689 79.4 461.689 79.88 461.689 80.36C461.689 83.8 461.689 87.24 461.689 90.6C461.769 92.2 461.769 93.72 461.849 95.24C461.849 95.72 461.849 96.2 461.929 96.68C462.089 97.48 462.089 98.36 462.089 99.16C462.089 101.24 462.089 103.4 462.169 105.48C462.249 106.52 462.169 107.56 462.089 108.6C461.849 110.2 461.849 111.72 461.769 113.24C461.769 114.28 461.769 115.4 461.689 116.44C461.689 116.92 461.689 117.4 461.609 117.88C461.289 118.92 461.369 119.96 461.369 121C461.369 122.2 461.369 123.32 461.369 124.44C461.369 125.24 461.289 126.04 461.209 126.84C461.129 127.48 460.809 127.96 460.249 128.2C459.929 128.44 459.529 128.6 459.129 128.76C458.569 129 457.929 129.08 457.289 129.16C456.729 129.24 456.169 129.48 455.689 129.8C455.529 129.96 455.449 130.2 455.449 130.44C455.449 130.68 455.689 130.92 455.849 131C456.169 131.16 456.489 131.16 456.809 131.16C461.209 131.16 465.609 131.24 470.009 131.24C472.089 131.24 474.249 131.32 476.329 131.08C476.409 131.08 476.489 131.08 476.569 131.08ZM522.399 75.08C518.559 75.08 514.799 75.08 510.959 75.08C510.319 75.08 509.679 75.08 509.039 75.08C508.399 75.08 507.919 75.4 507.599 75.88C507.439 76.04 507.519 76.36 507.759 76.44C508.319 76.76 508.879 76.84 509.439 76.84C510.319 77 511.199 77.24 511.999 77.56C512.319 77.72 512.639 78.12 512.639 78.52C512.639 79.16 512.719 79.8 512.719 80.44C512.719 82.76 512.719 85 512.799 87.32C512.799 87.8 512.799 88.28 512.879 88.76C513.039 90.12 513.039 91.48 513.039 92.84C513.039 93.32 513.039 93.72 512.959 94.12C512.719 95.32 512.719 96.52 512.719 97.72C512.719 104.12 512.719 110.6 512.719 117C512.719 119 512.639 121 512.639 123.08C512.639 123.72 512.639 124.36 512.479 125C512.399 125.72 512.319 126.44 512.159 127.16C512.079 127.4 511.999 127.64 511.759 127.8C511.519 128.12 511.199 128.36 510.799 128.52C510.159 128.68 509.599 128.92 508.959 129.08C508.159 129.24 507.439 129.56 506.639 129.8C506.559 129.8 506.479 129.8 506.399 129.88C506.319 129.88 506.239 129.96 506.239 130.04C505.999 130.12 505.919 130.44 505.919 130.68C505.999 130.84 506.239 131 506.479 131.08C507.199 131.16 507.919 131.08 508.639 131.08C514.879 131.08 521.119 131 527.439 131C527.679 131 527.919 131 528.159 130.92C528.639 130.92 529.119 130.76 529.519 130.44C529.599 130.36 529.679 130.2 529.679 130.04C529.599 129.88 529.599 129.72 529.439 129.64C528.799 129.4 528.159 129.24 527.519 129.16C527.199 129.08 526.879 129 526.639 128.84C526.079 128.6 525.599 128.36 525.119 128.12C524.959 128.04 524.799 127.88 524.719 127.8C524.479 127.64 524.399 127.4 524.319 127.24C524.239 126.92 524.239 126.52 524.239 126.2C524.159 123.4 524.159 120.52 524.239 117.72C524.239 114.68 524.319 111.72 524.319 108.68C524.319 108.36 524.399 108.04 524.399 107.72C524.399 107.56 524.639 107.24 524.799 107.16C525.839 106.84 526.879 106.76 527.919 106.84C528.159 106.92 528.399 107 528.559 107.16C528.719 107.32 528.959 107.56 529.039 107.72C529.759 108.76 530.399 109.72 531.039 110.76C531.999 112.28 533.039 113.8 533.839 115.32C533.919 115.48 533.999 115.64 534.079 115.8C535.039 117.4 536.159 118.92 537.119 120.44C537.759 121.4 538.479 122.28 539.119 123.24C539.759 124.28 540.319 125.4 540.879 126.44C541.199 126.92 541.519 127.4 541.759 127.88C541.919 128.2 541.839 128.52 541.519 128.76C541.279 128.84 541.039 129 540.879 129C540.639 129.08 540.399 129.08 540.159 129.16C539.359 129.24 538.559 129.4 537.759 129.64C537.679 129.72 537.679 129.8 537.599 129.88C537.439 130.2 537.519 130.68 537.839 130.92C538.079 131.08 538.319 131.16 538.559 131.16C539.439 131.16 540.319 131.16 541.199 131.16C543.039 131.16 544.959 131.08 546.799 131.08C550.799 131 554.799 131 558.719 131C558.879 131 559.039 130.92 559.199 130.92C559.679 130.92 559.999 130.6 560.159 130.2C560.159 130.04 560.239 129.88 560.159 129.8C559.999 129.56 559.919 129.32 559.679 129.24C559.039 129 558.479 128.76 557.839 128.68C557.119 128.6 556.559 128.36 555.919 128.2C555.199 128.04 554.559 127.64 554.079 127.08C553.839 126.68 553.519 126.28 553.199 125.88C552.719 125.16 552.319 124.36 551.839 123.64C551.439 123.08 551.119 122.52 550.719 121.96C550.239 121.16 549.679 120.36 549.279 119.48C548.959 118.84 548.559 118.2 548.159 117.56C547.839 117.16 547.519 116.68 547.199 116.2C546.319 114.84 545.519 113.4 544.559 112.12C543.519 110.6 542.479 109 541.439 107.4C541.039 106.76 540.639 106.04 540.159 105.4C540.079 105.24 539.999 105.08 539.999 104.92C539.919 104.76 539.999 104.6 540.159 104.44C540.799 103.96 541.679 103.4 542.559 102.84C542.959 102.68 543.439 102.44 543.839 102.2C544.879 101.48 545.839 100.84 546.879 100.12C547.519 99.64 548.159 99.16 548.719 98.6C548.959 98.36 549.199 98.12 549.359 97.88C549.999 96.92 550.719 95.96 551.199 95C551.359 94.6 551.519 94.28 551.679 93.88C552.159 92.44 552.159 92.28 552.239 91C552.239 89.8 552.159 88.6 552.159 87.32C552.159 86.52 551.919 85.72 551.599 85C551.439 84.6 551.279 84.28 551.039 83.88C550.639 83.24 550.159 82.52 549.759 81.88C549.599 81.64 549.439 81.48 549.279 81.24C548.639 80.52 547.999 79.8 547.199 79.24C546.719 78.92 546.319 78.52 545.839 78.2C545.519 77.96 545.199 77.72 544.879 77.48C543.679 76.76 542.479 76.12 541.119 75.88C540.159 75.48 539.199 75.4 538.239 75.4C537.839 75.32 537.439 75.4 537.039 75.32C535.759 75 534.399 75.08 533.119 75.08C529.519 75.08 525.999 75.08 522.399 75.08ZM524.879 104.2C524.639 104.04 524.399 103.88 524.399 103.64C524.319 103.32 524.319 103 524.319 102.68C524.319 97.56 524.319 92.44 524.239 87.32C524.239 86.28 524.319 85.16 524.319 84.12C524.399 82.68 524.479 81.24 524.479 79.72C524.639 79.4 524.719 79 524.879 78.6C524.959 78.28 525.199 78.04 525.519 77.96C527.359 77.48 527.359 77.48 529.119 77.48C529.519 77.48 529.919 77.48 530.319 77.48C531.039 77.48 531.759 77.48 532.479 77.8C533.999 77.96 535.199 78.76 536.399 79.64C536.479 79.64 536.559 79.72 536.559 79.8C537.039 80.36 537.519 80.92 537.919 81.56C538.159 81.88 538.319 82.28 538.399 82.6C538.719 83.64 538.959 84.68 539.039 85.72C539.119 86.52 539.119 87.32 539.279 88.12C539.439 88.6 539.439 89.08 539.359 89.56C539.119 90.92 539.039 92.2 538.959 93.48C538.879 93.8 538.799 94.12 538.719 94.44C538.639 94.84 538.559 95.24 538.399 95.56C538.159 96.2 537.999 96.84 537.679 97.4C537.199 98.28 536.639 99.24 535.919 100.04C534.879 101.24 533.599 102.28 532.159 103.08C531.599 103.48 530.879 103.72 530.159 103.72C529.599 103.8 529.119 103.8 528.639 103.88C528.319 103.88 527.999 103.88 527.679 103.96C527.199 104.12 526.719 104.2 526.239 104.2C525.759 104.2 525.279 104.2 524.879 104.2ZM575.789 87.48C576.029 87.48 576.269 87.64 576.349 87.88C577.869 90.76 579.309 93.64 580.749 96.6C580.829 96.76 580.909 97 581.069 97.24C581.709 98.92 582.349 100.28 583.229 101.88C583.949 103.08 584.429 104.36 584.909 105.64C585.549 107.48 586.109 109.32 586.989 111.08C587.149 111.32 587.229 111.48 587.309 111.72C587.789 113.32 588.509 114.76 588.989 116.28C589.469 117.72 589.949 119.08 590.669 120.36C590.989 121.32 591.549 122.28 591.869 123.32C592.029 123.8 592.269 124.36 592.509 124.84C593.229 126.12 593.869 127.48 594.429 128.84C594.589 129 594.669 129.24 594.749 129.48C594.829 129.56 594.829 129.56 594.909 129.64C595.069 130.04 595.629 130.04 595.949 129.72C596.109 129.4 596.269 129.16 596.429 128.84C596.829 127.72 597.309 126.6 597.709 125.48C598.029 124.6 598.269 123.72 598.589 122.92C598.909 121.8 599.229 120.76 599.709 119.72C600.349 118.28 600.909 116.84 601.469 115.4C601.789 114.6 602.189 113.8 602.589 113C602.989 112.12 603.309 111.16 603.549 110.2C603.789 109.4 604.109 108.52 604.349 107.64C604.669 106.6 605.069 105.48 605.389 104.44C605.949 103 606.349 101.48 606.989 100.12C607.149 99.88 607.229 99.64 607.229 99.4C607.789 97.72 608.349 96.04 608.909 94.28C609.629 91.8 610.589 89.4 611.629 87C611.869 86.6 612.029 86.12 612.269 85.72C612.269 85.64 612.349 85.56 612.429 85.56C612.509 85.48 612.589 85.48 612.669 85.56C612.749 85.56 612.909 85.72 612.989 85.88C613.149 86.76 613.069 87.64 613.069 88.52C613.069 95.64 613.069 102.68 613.069 109.72C613.069 110.28 612.989 110.92 612.989 111.48C612.909 112.2 612.829 112.92 612.829 113.64C612.829 116.76 612.749 119.8 612.749 122.92C612.749 123.96 612.669 125 612.589 126.04C612.509 126.52 612.349 127 612.269 127.48C612.189 127.72 612.029 127.96 611.869 128.12C611.869 128.12 611.789 128.2 611.709 128.28C611.069 128.76 610.349 129.16 609.469 129.24C608.589 129.56 607.629 129.72 606.749 130.12C606.589 130.2 606.429 130.28 606.349 130.44C606.269 130.52 606.189 130.68 606.109 130.84C606.109 131 606.429 131.4 606.509 131.4C606.749 131.48 606.989 131.56 607.229 131.56C610.029 131.48 612.749 131.48 615.549 131.48C616.909 131.48 618.269 131.48 619.629 131.32C620.109 131.24 620.669 131.24 621.149 131.24C623.149 131.24 625.149 131.24 627.229 131.16C627.789 131.16 628.349 131.16 628.909 131.08C629.069 131.08 629.229 131 629.389 131C629.549 130.92 629.789 130.6 629.789 130.44C629.789 130.2 629.549 129.88 629.469 129.8C629.309 129.8 629.149 129.64 628.989 129.64C627.789 129.56 626.749 129.16 625.789 128.6C625.469 128.52 625.229 128.28 624.909 128.12C624.669 127.88 624.509 127.64 624.349 127.32C624.189 126.92 624.029 126.44 624.109 125.96C624.349 124.92 624.349 123.96 624.349 123C624.349 120.92 624.349 118.76 624.349 116.68C624.429 113.4 624.429 110.2 624.429 106.92C624.349 99.64 624.429 92.28 624.429 85C624.429 83.88 624.429 82.68 624.509 81.56C624.509 80.68 624.669 79.8 624.909 78.92C624.989 78.36 625.389 77.88 625.869 77.56C626.189 77.32 626.509 77.08 626.909 77C627.789 76.92 628.669 76.68 629.469 76.36C629.709 76.28 629.709 76.2 629.709 75.96C629.709 75.64 629.469 75.32 629.229 75.24C628.909 75.16 628.589 75.16 628.269 75.16C625.149 75.16 622.029 75.16 618.989 75.16C616.429 75.16 616.429 75.16 613.869 75.56C613.789 75.56 613.709 75.56 613.629 75.56C613.389 75.72 613.229 75.8 612.989 75.88C612.829 76.04 612.589 76.2 612.509 76.44C612.269 76.84 611.949 77.24 611.789 77.72C611.069 79.24 610.429 80.84 609.869 82.44C609.469 83.64 609.069 84.76 608.589 85.88C607.709 87.96 606.909 90.04 606.189 92.28C606.029 92.76 605.869 93.32 605.629 93.88C604.909 95.8 604.109 97.8 603.229 99.72C602.349 101.88 601.389 104.04 600.589 106.28C600.349 106.76 600.189 107.32 599.949 107.8C599.869 108.04 599.709 108.12 599.549 108.04C599.389 108.04 599.309 107.96 599.229 107.8C599.069 107.48 598.989 107.16 598.829 106.84C598.349 105.96 597.869 105 597.469 104.04C596.989 103 596.429 102.04 595.949 100.92C595.869 100.6 595.629 100.2 595.469 99.88C594.829 98.76 594.269 97.56 593.709 96.36C593.309 95.64 592.989 94.92 592.669 94.2C592.269 93.16 591.869 92.2 591.309 91.32C590.429 89.48 589.469 87.72 588.589 85.88C588.269 85.32 588.029 84.68 587.789 84.12C586.909 82.28 586.109 80.36 585.309 78.52C584.989 77.88 584.669 77.24 584.349 76.52C584.269 76.36 584.189 76.12 584.029 75.88C583.869 75.56 583.469 75.32 583.069 75.24C582.829 75.16 582.589 75.08 582.349 75.08C581.549 75.08 580.749 75 579.949 75C577.869 75 575.869 75 573.869 75C572.909 75 572.029 75 571.149 75.24C570.429 75.32 569.709 75.4 568.989 75.4C568.509 75.48 568.029 75.48 567.549 75.56C567.149 75.56 566.749 75.64 566.349 75.8C566.029 75.96 565.709 76.04 565.469 76.2C565.389 76.2 565.309 76.28 565.309 76.36C565.069 76.52 565.149 76.84 565.309 77C565.549 77.16 565.869 77.32 566.189 77.32C567.149 77.32 568.109 77.32 569.069 77.4C569.309 77.4 569.549 77.48 569.789 77.56C570.029 77.56 570.429 78.04 570.429 78.28C570.429 78.52 570.429 78.76 570.429 79C570.429 80.6 570.429 82.2 570.429 83.88C570.429 84.36 570.349 84.84 570.429 85.32C570.669 86.36 570.669 87.4 570.749 88.44C570.829 90.28 570.749 92.04 571.069 93.8C571.149 94.04 571.149 94.28 571.149 94.52C571.229 96.52 571.309 98.44 571.389 100.36C571.389 101.56 571.389 102.68 571.549 103.8C571.629 104.28 571.629 104.76 571.629 105.24C571.709 110.2 571.789 115.16 571.709 120.12C571.709 121.4 571.709 122.76 571.709 124.04C571.709 125.4 571.469 126.76 571.309 128.12C571.229 128.6 570.909 128.92 570.589 129.08C570.109 129.24 569.629 129.48 569.229 129.56C568.269 129.8 567.309 130.12 566.349 130.12C566.109 130.12 565.869 130.2 565.629 130.28C565.389 130.36 565.229 130.52 565.069 130.76C564.989 130.92 564.909 131.08 565.069 131.24C565.149 131.32 565.309 131.48 565.389 131.48C566.349 131.64 567.389 131.56 568.349 131.56C568.669 131.48 568.989 131.48 569.309 131.4C569.709 131.24 570.109 131.24 570.509 131.16C572.269 131.16 574.029 131.16 575.869 131.16C576.429 131.16 576.989 131.24 577.549 131.24C578.589 131.56 579.629 131.56 580.669 131.56C581.229 131.56 581.869 131.48 582.429 131.48C582.589 131.48 582.669 131.4 582.829 131.32C583.229 131.08 583.309 130.6 582.989 130.28C582.749 130.04 582.509 129.88 582.109 129.8C581.709 129.72 581.309 129.72 580.909 129.72C579.869 129.72 578.829 129.48 577.789 129.24C577.149 129.08 576.589 128.76 576.029 128.44C575.789 128.28 575.549 127.96 575.549 127.64C575.549 126.92 575.549 126.2 575.549 125.4C575.709 121.64 575.709 117.8 575.709 113.96C575.709 110.44 575.709 106.84 575.709 103.24C575.709 102.52 575.709 101.8 575.709 101.08C575.549 97.32 575.549 93.56 575.549 89.88C575.549 89.16 575.629 88.52 575.629 87.88C575.629 87.72 575.709 87.56 575.789 87.48ZM646.416 87.08C646.416 84.6 646.416 84.6 647.136 82.44C647.296 82.04 647.376 81.64 647.536 81.24C648.096 80.12 648.896 79.24 649.936 78.6C650.016 78.52 650.096 78.52 650.176 78.44C651.136 78.12 652.016 77.8 652.976 77.88C654.176 77.88 655.296 77.88 656.416 77.88C656.736 77.88 657.056 77.88 657.376 77.96C658.176 78.2 658.976 78.36 659.696 78.68C661.776 79.64 663.376 81.08 664.496 83.08C664.736 83.56 664.976 84.04 665.296 84.52C665.776 85.4 666.016 86.36 666.256 87.32C666.336 88.28 666.816 89.16 666.976 90.12C666.976 90.2 667.056 90.28 667.136 90.36C667.216 90.52 667.456 90.6 667.696 90.68C667.856 90.68 668.256 90.44 668.256 90.28C668.416 89.48 668.656 88.68 668.656 87.88C668.736 86.04 668.736 84.12 668.576 82.28C668.416 81.32 668.416 80.36 668.336 79.4C668.336 79.08 668.336 78.76 668.256 78.44C668.176 78.2 668.016 77.96 667.856 77.8C667.696 77.72 667.616 77.56 667.456 77.48C666.816 77.16 666.176 76.84 665.456 76.52C664.736 76.28 663.936 76.04 663.136 75.8C662.576 75.64 661.936 75.48 661.296 75.48C660.656 75.4 660.096 75.4 659.536 75.32C658.736 75.16 657.936 75.16 657.136 75.16C655.696 75.16 654.176 75.16 652.736 75.16C651.856 75.16 650.976 75.24 650.096 75.32C649.296 75.48 648.496 75.56 647.696 75.8C647.456 75.96 647.216 75.96 646.976 75.96C646.096 76.12 645.296 76.44 644.416 76.52C643.936 76.6 643.456 76.84 643.056 77.08C642.496 77.4 642.016 77.64 641.616 78.04C641.296 78.44 640.896 78.76 640.576 79.08C640.256 79.48 639.936 79.8 639.616 80.2C639.056 81 638.496 81.8 638.016 82.6C637.856 82.84 637.696 83 637.616 83.24C637.456 83.88 637.136 84.44 637.056 85.08C636.816 86.2 636.576 87.32 636.416 88.44C636.176 89.56 636.176 90.68 636.256 91.8C636.496 92.6 636.496 93.4 636.576 94.2C636.576 94.44 636.656 94.76 636.736 94.92C637.056 96.12 637.456 97.32 638.096 98.36C638.416 98.92 638.816 99.56 639.216 100.2C640.176 101.72 641.376 103.08 642.896 104.04C643.056 104.2 643.296 104.36 643.456 104.52C644.016 105 644.576 105.4 645.296 105.72C645.536 105.88 645.856 106.04 646.096 106.2C648.176 107.56 650.256 108.76 652.496 109.8C653.376 110.2 654.176 110.68 654.976 111.24C656.576 112.28 657.936 113.56 659.216 114.92C659.936 115.72 660.416 116.6 660.576 117.72C660.656 118.04 660.736 118.36 660.816 118.68C660.976 119.48 660.976 120.28 660.896 121.08C660.896 121.16 660.896 121.24 660.896 121.32C660.576 122.12 660.336 123 660.016 123.88C659.536 124.92 658.816 125.8 657.856 126.44C657.536 126.76 657.216 126.84 656.816 127.08C655.776 127.32 654.816 127.56 653.696 127.56C652.416 127.56 651.136 127.56 649.856 127.56C649.616 127.56 649.296 127.56 649.056 127.56C648.176 127.32 647.136 127.24 646.256 126.92C645.696 126.76 645.136 126.52 644.656 126.2C644.416 126.04 644.096 125.88 643.856 125.72C643.056 125.32 642.336 124.76 641.696 124.12C641.456 123.88 641.136 123.56 640.816 123.32C639.856 122.28 639.056 121.16 638.416 119.96C638.016 119.32 637.696 118.68 637.536 117.96C637.296 117.24 637.056 116.6 636.896 115.88C636.896 115.64 636.736 115.4 636.576 115.24C636.496 115.08 636.096 114.92 635.936 115C635.856 115.16 635.696 115.24 635.616 115.4C635.536 115.48 635.536 115.64 635.536 115.8C635.616 116.84 635.616 117.8 635.856 118.76C635.936 119.16 635.936 119.56 636.016 119.96C636.096 121.56 636.096 123.16 636.416 124.76C636.496 125.16 636.496 125.56 636.496 126.04C636.496 126.44 636.576 126.84 636.576 127.24C636.656 127.72 636.816 128.2 637.056 128.6C637.136 128.84 637.296 129 637.536 129.08C638.656 129.56 639.776 130.12 640.976 130.36C642.016 130.6 643.056 130.92 644.096 131C644.896 131.08 645.696 131.16 646.496 131.16C649.616 131.16 652.656 131.08 655.776 131.08C656.176 131.08 656.576 131 656.976 130.92C657.616 130.84 658.256 130.6 658.896 130.6C659.536 130.52 660.096 130.2 660.736 130.12C662.816 129.72 664.576 128.84 666.016 127.24C666.096 127.16 666.256 127 666.336 126.92C667.056 126.2 667.696 125.48 668.256 124.68C668.496 124.36 668.736 124.04 668.976 123.72C669.376 123.16 669.776 122.52 670.096 121.88C670.656 120.84 671.056 119.8 671.456 118.76C671.536 118.52 671.616 118.28 671.696 118.04C672.016 116.52 672.016 116.52 672.016 114.92C672.016 114.44 672.016 113.96 672.016 113.48C671.936 113.16 671.856 112.84 671.776 112.52C671.296 110.76 670.656 109.08 669.856 107.48C669.456 106.76 668.976 106.12 668.416 105.56C667.616 104.68 666.736 103.8 665.776 103.08C664.016 101.72 662.336 100.36 660.496 99.16C658.896 98.2 657.376 97.08 655.776 96.12C654.656 95.48 653.616 94.68 652.496 93.96C651.936 93.56 651.376 93 650.816 92.6C650.496 92.28 650.176 92.04 649.936 91.8C649.056 91.16 648.336 90.36 647.696 89.56C647.296 89.08 646.976 88.6 646.816 88.12C646.736 87.8 646.576 87.48 646.416 87.08Z" fill="white"/>
<path d="M1047 136.557C1036.56 136.557 1032.66 131.78 1032.13 130.102C1031.84 129.209 1031.73 127.659 1031.78 125.361C1029.95 121.587 1031.84 113.291 1033.17 111.814C1035.01 109.79 1037.4 109.443 1038.17 109.37C1040.48 107.638 1044.11 107 1046.76 107C1051.45 107 1057.31 107.547 1061.05 111.814C1062.66 113.655 1063.67 120.219 1062.48 124.213C1062.61 127.057 1062.52 129.026 1062.19 130.084L1062.17 130.157L1062.13 130.23C1061.2 131.707 1057.41 136.557 1047 136.557ZM1046.76 108.295C1044.27 108.295 1040.87 108.878 1038.82 110.501L1038.65 110.629H1038.43C1038.17 110.629 1035.87 110.756 1034.14 112.652C1033.17 113.728 1031.29 121.66 1033.01 124.887L1033.08 125.033V125.197C1033.01 127.951 1033.19 129.154 1033.36 129.664C1033.74 130.85 1037.17 135.244 1047 135.244C1056.56 135.244 1060.06 131.014 1060.96 129.61C1061.14 128.935 1061.32 127.44 1061.18 124.14V124.03L1061.22 123.921C1062.39 120.183 1061.34 114.075 1060.08 112.634C1056.67 108.787 1051.18 108.295 1046.76 108.295Z" fill="#FDF1E3"/>
<path d="M1046.76 131.196C1044.05 131.196 1043.25 128.589 1042.55 126.309C1041.98 124.45 1041.43 122.681 1040.08 122.353C1038.56 121.988 1037.9 123.027 1037.02 124.814C1036.47 125.908 1035.98 126.929 1035.01 127.258C1034.51 127.422 1033.96 127.367 1033.38 127.075C1032.28 126.528 1031.54 125.361 1031.21 123.611C1030.41 119.417 1032.06 113.035 1033.17 111.814C1035.04 109.753 1037.44 109.425 1038.19 109.37C1040.3 107.802 1043.54 107 1046.76 107C1051.45 107 1057.31 107.547 1061.05 111.814C1062.64 113.619 1063.49 119.545 1062.7 123.337C1062.26 125.434 1061.4 126.802 1060.13 127.403C1059.57 127.677 1059.04 127.713 1058.54 127.549C1057.57 127.203 1057.06 126.091 1056.53 124.924C1055.65 123.009 1055.01 121.879 1053.47 122.243C1052.09 122.572 1051.56 124.358 1050.99 126.237C1050.28 128.57 1049.47 131.196 1046.76 131.196ZM1039.47 120.985C1039.75 120.985 1040.04 121.022 1040.37 121.095C1042.46 121.587 1043.14 123.793 1043.78 125.927C1044.55 128.406 1045.12 129.902 1046.76 129.902C1048.41 129.902 1048.98 128.388 1049.75 125.872C1050.41 123.72 1051.07 121.496 1053.16 121.003C1055.85 120.347 1056.91 122.681 1057.7 124.395C1058.1 125.27 1058.52 126.182 1058.98 126.346C1059.04 126.364 1059.2 126.437 1059.57 126.255C1060.67 125.726 1061.18 124.249 1061.42 123.082C1062.22 119.18 1061.16 113.911 1060.06 112.652C1056.67 108.787 1051.16 108.295 1046.75 108.295C1044.25 108.295 1040.96 108.878 1038.96 110.355C1038.89 110.464 1038.78 110.556 1038.65 110.61C1037.77 111.358 1037.2 112.324 1037.2 113.509C1037.2 117.12 1043.05 118.469 1046.73 118.469C1051.49 118.469 1055.72 115.406 1057.24 114.166C1053.34 111.431 1049.24 110.701 1046.8 110.938C1045.39 111.066 1043.72 111.54 1043.72 113.054C1043.72 113.582 1043.89 114.002 1044.22 114.312C1045.06 115.114 1046.69 115.041 1046.71 115.041C1047.08 115.023 1047.37 115.296 1047.39 115.643C1047.41 115.989 1047.13 116.299 1046.78 116.317C1046.69 116.317 1044.58 116.427 1043.32 115.242C1042.72 114.676 1042.42 113.947 1042.42 113.054C1042.42 111.139 1043.98 109.899 1046.67 109.644C1049.47 109.389 1054.29 110.264 1058.65 113.601L1059.26 114.056L1058.71 114.567C1058.49 114.786 1053.17 119.727 1046.71 119.727C1042.37 119.727 1035.9 118.068 1035.9 113.491C1035.9 112.561 1036.16 111.723 1036.62 110.993C1035.83 111.267 1034.9 111.777 1034.11 112.652C1033.28 113.564 1031.75 119.581 1032.46 123.356C1032.72 124.687 1033.21 125.544 1033.92 125.908C1034.31 126.109 1034.49 126.036 1034.57 126.018C1035.01 125.872 1035.43 125.033 1035.83 124.231C1036.54 122.827 1037.46 120.985 1039.47 120.985Z" fill="#FDF1E3"/>
</g>
<defs>
<clipPath id="clip0_759_18">
<rect width="150" height="1080" fill="white" transform="translate(1080) rotate(90)"/>
</clipPath>
</defs>
</svg>
